<?xml version="1.0" encoding="UTF-8"?><svg id="Layer_1" xmlns="http://www.w3.org/2000/svg" viewBox="0 0 1920 1080"><defs><style>.cls-1{fill:#f8ab72;}.cls-1,.cls-2,.cls-3,.cls-4,.cls-5,.cls-6,.cls-7,.cls-8,.cls-9,.cls-10,.cls-11,.cls-12,.cls-13,.cls-14,.cls-15,.cls-16,.cls-17,.cls-18,.cls-19,.cls-20,.cls-21,.cls-22,.cls-23{stroke-width:0px;}.cls-2{fill:#f4781c;}.cls-3{fill:#f58431;}.cls-4{fill:#fbd5b9;}.cls-5{fill:#f4791f;}.cls-6{fill:#f7954e;}.cls-7{fill:#f79f5e;}.cls-8{fill:#f47519;}.cls-9{fill:#f8a162;}.cls-10{fill:#f5802a;}.cls-11{fill:#f47518;}.cls-12{fill:#f4781d;}.cls-13{fill:#f4700f;}.cls-14{fill:#f57e27;}.cls-15{fill:#f47a20;}.cls-16{fill:#f79a56;}.cls-17{fill:#f57c23;}.cls-18{fill:#f68e42;}.cls-19{fill:#f57c24;}.cls-20{fill:#f4761a;}.cls-21{fill:#f47111;}.cls-22{fill:#fabe92;}.cls-23{fill:#f4771b;}</style></defs><path class="cls-13" d="M662.22,653.72c.91,1.49,1.56,3.27,2.79,4.43,11.99,11.34,23.98,22.69,36.19,33.79,7.51,6.83,15.56,13.07,23.12,19.85,14.52,13,22.06,29.87,23.93,48.77,2.62,26.43,2.22,52.86-3.6,79.08-3.77,16.99-6.93,34.17-9.19,51.42-2.36,18.05-1.6,36.1,2.39,54.09,3.86,17.41,5.47,35.23,3.71,53.06-1.57,15.89-4.68,31.57-8.66,47.08-2.48,9.66-4.25,19.49-6.44,29.23-.42,1.88-1.33,3.66-2.01,5.48h-4.36c.88-6.99,1.38-14.06,2.73-20.96,2.65-13.54,6.06-26.92,8.6-40.48,2.31-12.29,4.71-24.61,3.66-37.3-1.28-15.4-3.13-30.69-6.57-45.79-1.28-5.6-1.61-11.48-1.85-17.25-.86-20.46,2.59-40.54,5.92-60.6,1.13-6.8,2.26-13.62,3.87-20.32,3.08-12.77,5.04-25.7,5.21-38.8.17-12.7,0-25.44-.88-38.1-.66-9.43-3.28-18.7-8.09-26.93-3.17-5.43-6.88-10.79-11.36-15.15-7.13-6.95-14.89-13.3-22.75-19.46-22.89-17.94-43.56-38-59.22-62.65-11.2-17.63-17.97-36.87-17.09-58.15.44-10.52,1.24-21.02,2.03-31.52.2-2.69.69-5.46,1.61-7.99,4.01-11.01,4.18-22.37,3.79-33.87-1.06-31.1,5.59-60.76,18.93-88.63,9.22-19.26,22.28-36.13,38.28-50.51,9.31-8.36,19.05-16.27,27.96-25.04,5.25-5.17,9.56-11.4,13.67-17.57,2.26-3.38,3.24-7.62,4.79-11.47.59-1.46,1.15-2.92,1.71-4.35,12.04,3.74,23.73,17.91,23.14,27.65-2.02,1.32-3.5.17-4.63-1.3-1.76-2.29-3.43-4.68-4.91-7.17-2.52-4.24-5.56-7.97-9.43-11.06-2.55,5.43-4.62,10.84-7.51,15.76-5.55,9.47-12.87,17.49-21.44,24.41-24.3,19.61-45.45,41.89-57.82,71.1-3.79,8.96-5.96,18.63-8.77,28-5.6,18.67-6.36,37.92-6.31,57.2.03,9.19-1.04,18.04-4.02,26.76-1.39,4.07-1.94,8.49-2.43,12.8-.7,6.13-.98,12.3-1.45,18.46-.2,2.03-.56,4.07-.57,6.1,0,1.58.41,3.16.64,4.74.13,9.02,2,17.76,4.29,26.43.34,2.6,2.45,1.77,3.99,2.06-1.33,1.84-1.91,3.64-.75,5.92,1.63,3.2,2.9,6.58,4.47,9.81.22.46,1.28.52,1.95.77,0,0-.13-.16-.13-.16-.12.79-.6,1.8-.29,2.34,2.05,3.56,4.26,7.03,7.14,11.67.96-1.6,1.5-2.48,2.03-3.37.5.89,1.01,1.78,1.51,2.67-.74.96-1.48,1.93-2.4,3.12,3.65,4,7.26,7.95,10.86,11.91l-.02-.02Z"/><path class="cls-4" d="M880.25,1078.72c.05.43.1.85.14,1.28h-7.63l.11-1.24c2.46-.01,4.92-.03,7.38-.04Z"/><path class="cls-13" d="M880.25,1078.72c-2.46.01-4.92.03-7.38.04.31-19.43.37-38.86.99-58.28.52-16.14-1.27-31.9-5.79-47.37-1.91-6.53-2.61-13.16-1.85-19.94,1.4-12.45,2.34-24.96,4.24-37.33,1.86-12.05.68-23.87-.59-35.8-1.07-10.04-4.78-18.93-10.33-27.19-1.76-2.62-3.71-4.87-7.04-5.57-3.05-.64-4.14-2.86-3.63-5.73.7-3.93,1.35-7.9,2.55-11.69,6.42-20.37,8.41-41.6,12.31-62.46.33-1.75.22-3.57.35-5.87-1.55.52-2.68.85-3.77,1.27-14.07,5.47-28.48,9.8-43.35,12.36-4.43.76-9.07.93-13.56.63-9.09-.6-15.39-7.33-15.77-16.41-.35-8.47,1.09-16.36,8.17-22.08,1.38-1.11,3-2.04,4.66-2.67,1.65-.63,2.04-.24,4.13,2.23-6.49,4.07-10.55,14.47-8.27,21.79,1.05,3.37,3.04,6.08,6.65,7.4,2.05.75,3.89,2.09,5.77,4.32,6.19-1.29,12.44-2.35,18.55-3.92,7.72-1.99,15.36-4.31,22.99-6.65,5.2-1.6,9.66-4.62,14.37-7.28,10.23-5.79,18.97-13.23,27.35-21.19,6.96-6.62,13.9-13.36,20.06-20.71,13.41-16.01,26.31-32.45,39.42-48.71,6.71-8.32,12.99-17.01,21.36-23.84-.44-3.53-2.87-4.47-5.48-4.07-4.43.68-9.16,1.19-13.06,3.15-5.95,2.99-11.39,7.06-16.88,10.91-1.51,1.06-2.42,2.98-3.63,4.48-.39.48-.8,1.15-1.31,1.27-4.59,1.13-6.84,4.23-7.53,8.64-1.4.32-3.02.29-4.1,1.04-1.43.99-2.85,2.43-3.49,3.99-.54,1.31.06,3.09.15,4.66-.47.35-.93.69-1.4,1.04-.41-1.14-.83-2.27-1.49-4.1-2.2,2.97-3.79,5.12-5.38,7.27-1.28,1.31-2.56,2.62-3.84,3.93-3.02,2.55-2.51,6.45-3.26,9.99-1.23-.67-1.99-1.09-2.96-1.62-2.31,4.68-7.46,7.59-7.59,12.28-3.17,2.65-5.69,4.76-7.66,6.41-1.08,3.15,2.15,5.51-.58,8.19-.77-1.55-1.44-2.91-2.17-4.38-4.37,2.32-7.53,5.32-6.53,11.58-1.72-1.24-2.63-1.89-3.5-2.51-3.87,1.97-5.97,4.61-4.85,9.23.36,1.49-.48,3.26-.77,4.91-.37.02-.73.04-1.1.06-1.27-2.16-2.54-4.32-3.83-6.51-5.54,2.13-10.56,4.1-15.62,6-5.26,1.98-10.35,1.23-15.28-1.15-.75-.36-1.35-1.01-3.07-2.35,2.32-.48,3.7-1.23,4.74-.91,10.27,3.2,18.17-2.42,27.21-6.86-1.57-3.56-2.95-6.83-4.45-10.04-1.52-3.29-3.15-6.52-4.97-10.26-2.46,1.02-5.05,2.18-7.69,3.18-3.39,1.28-6.79,2.54-10.26,3.59-1.78.54-3.71.5-4.8-1.46-1.19-2.14-.23-3.87,1.36-5.3,5.23-4.71,11.44-7.65,18.1-9.68,3.52-1.07,6.83-2.23,9.27-5.28,3.87-4.83,3.93-10.1,1.71-15.39-2.03-4.84-6.41-6.18-11.28-5.81-3.59.28-7.15.94-10.73,1.43-1.07.15-2.29.66-3.18.33-1.22-.46-2.63-1.37-3.14-2.47-.4-.86.12-2.56.82-3.4.88-1.05,2.36-1.6,3.59-2.35,2.64-1.59,5.3-3.13,7.91-4.77,2.7-1.69,3.85-4.15,3.32-8.13-2.92.65-5.7,1.15-8.4,1.9-2.09.58-4.07,1.54-6.14,2.21-2.25.73-4.38.56-5.78-1.62-1.17-1.82-.52-4.25,2.16-5.99,3.17-2.05,6.67-3.61,10.06-5.32,1.09-.55,2.27-.92,3.54-2.32-1.43-.44-2.84-1.14-4.29-1.26-3.25-.28-6.6-.74-9.79-.29-6.29.89-11.79-1.41-17.42-3.41-.34-.12-.68-.27-.99-.45-2.05-1.18-3.57-2.78-2.69-5.3.85-2.43,2.99-3.09,5.33-2.74,1.97.29,3.94.72,5.82,1.35,5.4,1.82,9.81.4,14-3.32,6.26-5.56,10.44-12.56,14.33-19.73,4.85-8.93,8.88-18.32,16.66-26.23-4.98-2.85-9.32-5.76-14-7.9-5.7-2.61-9.61-7.08-13.52-11.59-1.9-2.18-1.67-4.5.05-5.79,2.05-1.54,3.75-.53,5.34.89,1.62,1.46,3.22,2.95,4.84,4.4,2.06,1.85,4.35,2.49,7.02,1.35,19.34-8.24,35.7-20.09,46.58-38.52,2.86-4.84,4.33-9.98,2.45-15.63-1.54-4.63-3.06-5.86-7.83-6.02-1.97-.07-3.94-.01-6.69-.01,0,2.42.08,4.35-.02,6.26-.26,5.07-.43,10.15-1,15.19-.24,2.09-1.23,4.17-2.19,6.1-1.13,2.28-3.21,3.75-5.75,3.41-5.16-.69-10.16-2.32-12.65-7.34-3.07-6.21-3.37-12.62.81-18.62,3.15-4.51,6.82-8.5,12.37-10.88.27-13.56-6.81-24.87-10.85-37.18-3.44,1.27-6.41,2.57-9.5,3.44-4.64,1.29-8.91.46-12.8-2.62-12.18-9.67-18.26-21.84-15.91-37.63,1.72-11.54,4.39-22.82,9.07-33.56.72-1.65,1.32-3.34,1.85-4.72-4.53-5.01-8.86-9.78-13.46-14.87-.3.9-.79,1.92-.98,3-.46,2.68-.58,5.45-1.26,8.07-.29,1.13-1.64,1.99-2.51,2.97-.92-1.01-2-1.92-2.69-3.07-.42-.7-.25-1.77-.31-2.68-.53-9.07-1.04-18.13-1.59-27.2-.62-10.3-3-20.1-8.43-28.99-3.86-6.32-8.95-6.61-14.17-1.18-4.23,4.41-5.61,9.12-4.52,15.34,2.07,11.76,6.21,22.75,10.98,33.56,4.62,10.46,9.58,20.78,14.23,31.22,5.52,12.39,9.84,25.34,8.93,38.95-1.61,24-6.62,47.11-22.28,66.58-9.11,11.32-17.99,22.83-26.97,34.26-7.46,9.5-16.45,17.42-25.79,24.96-1.98,1.59-4.09,3.76-7.57,1.87.46-.9.65-1.85,1.22-2.33,16.33-13.63,29.27-30.23,41.65-47.34,3.19-4.41,6.45-8.8,9.94-12.98,9.81-11.76,15.04-25.54,18.15-40.3.49-2.31.74-4.69,1.43-6.93,5.66-18.54,1.29-35.91-6.19-52.89-4.9-11.12-9.98-22.17-14.98-33.25-.42-1.24-.84-2.47-1.27-3.71-4.9-9.18-7.23-19.22-9.64-30.19-2.73,2.38-4.93,4.15-6.97,6.09-20.06,19.02-36.01,41.29-50.72,64.52-1.55,2.45-3.02,4.97-4.68,7.35-1.16,1.67-2.17,4.61-4.85,2.87-2.47-1.6-.59-3.92.3-5.8,1.25-2.62,2.54-5.23,4-7.74,14.59-25.1,31.76-48.25,52.64-68.48,5.12-4.96,10.77-9.04,14.1-15.83,2.44-4.96,6.83-8.88,13.02-9.81,5.95-.89,11.03.57,14.33,5.61,2.96,4.52,5.72,9.31,7.66,14.33,3.49,9.03,5,18.56,4.96,27.5,1.97,2.35,3.75,3.99,4.93,5.99,3.41,5.8,7.63,10.49,12.87,13.52,1.51-2.81,2.95-5.68,4.57-8.44,2.2-3.75,4.45-7.48,6.88-11.09.88-1.32,2.18-2.55,3.57-3.27.93-.48,2.57-.35,3.51.19.65.37,1.13,2.03.87,2.85-.81,2.57-1.85,5.11-3.1,7.5-2.52,4.83-5.24,9.55-7.86,14.32-.26.47-.37,1.02-.74,2.06,1.58.94,3.19,2.02,4.9,2.9,20.28,10.36,26.83,27.98,25.86,49.37-.31,6.73-3.88,12.39-7.8,17.71-.96,1.31-2.1,2.5-3.25,3.85,6.8,12.41,13.71,24.78,15.25,39.55,1.83,0,3.42.01,5,0,12.81-.12,20.88,8.37,19.41,21.17-.5,4.38-2.19,8.8-4.16,12.8-5.5,11.14-14.22,19.65-23.68,27.43-7.16,5.88-14.48,11.54-23.86,15.15,3.67,3.04,7.44,3.93,11.15,4.97,1.21.34,2.56.42,3.63,1.01,2.19,1.21,2.36,3.9.12,4.69-8.12,2.86-10.61,10.42-14.42,16.8-2.32,3.87-3.79,8.24-5.8,12.31-3.93,7.95-7.73,15.99-15.01,22.84,8.38,1.15,11.04,6.91,13.2,13.27,2.15,6.35,1.85,12.44-1.46,18.48,10.27,1.61,16.27,7.28,18.05,17.24,2.04,11.42-3.14,19.23-12.88,24.84,3.63,5.83,7.15,11.47,10.84,17.39,1-.69,2.11-1.26,2.97-2.08,10.18-9.63,19.96-19.62,27.73-31.37,10.45-15.8,24.14-28.56,38.55-40.53,5.4-4.48,11.78-7.81,17.87-11.39,4.99-2.93,10.71-3.48,16.33-3.57,6.82-.11,11.54,5.62,10.45,12.31-.18,1.1-1.06,2.22-1.9,3.03-1.79,1.72-4.04,3-5.63,4.87-5.31,6.21-10.43,12.58-15.58,18.93-12.81,15.81-25.43,31.77-38.42,47.42-12.01,14.47-25.91,26.96-41.42,37.63-.89.61-1.72,1.32-2.07,1.59-3.15,29.21-6.3,57.86-16.45,84.86,11.38,9.04,17.57,20.5,20.25,33.87,3.28,16.35,3.45,32.73.68,49.28-1.82,10.89-2.58,22-3.16,33.05-.25,4.79.54,9.85,1.9,14.48,4.73,16.03,6.46,32.32,5.97,48.99-.27,9.07.27,18.16.46,27.24.23,10.75-.37,21.42-2.84,31.93ZM846.38,380.52c-5.61,12.6-9.08,24.9-10.56,37.78-1.14,9.92,2.18,18.16,9.23,25.02,5.13,4.98,9.11,5.59,14.91,1.37,8.19-5.97,13.3-13.79,12.43-24.48-.23-2.89-.56-5.77-.95-8.65-2.06-15.18-11.72-24.18-25.05-31.04ZM876.79,497.89c-5.33,4.52-9.5,8.16-8.19,14.78.69,3.48,2.88,5.06,6.6,5.47,2.02-6.33,1.88-12.65,1.59-20.24Z"/><path class="cls-8" d="M988.28,416.02c4.12-1.27,8.15-3.03,12.36-3.72,16.61-2.73,33.21-3.29,49.68,1.31,8.38,2.34,15.64,6.7,22.52,11.83,6.56,4.88,13.01,9.91,19.71,14.6,17.02,11.9,35.71,20.07,56.06,24.32,11.76,2.46,23.49,1.23,35.19-.78,16.87-2.9,32.43-9.08,46.86-18.28,5.82-3.71,11.74-7.26,17.71-10.71,7.98-4.6,16.19-5.91,24.96-1.85,7.63,3.53,15.26,2.79,22.41-1.55,5.9-3.57,11.64-7.41,17.48-11.07,6.92-4.34,13.72-8.89,20.85-12.87,9.25-5.17,19.18-7.6,29.89-5.73,3.03.53,6.14.66,9.22.93,4.75.41,9.14-.87,12.69-3.92,4.94-4.25,10.03-8.49,14.23-13.44,21.97-25.89,38.2-55.17,49.93-86.95,1.61-4.37,2.56-9.11,2.99-13.76.56-6.03-1.36-8.19-7.13-9.76-1.4-.38-2.82-.68-4.24-1-5.33-1.21-8.12-4.62-8.37-9.99-.41-8.89-.69-17.79-.98-26.69-.44-13.67-2.02-27.15-6.46-40.19-4.42-12.98-5.4-26.66-7.89-40.03-1.79-9.62-3.52-19.33-6.32-28.68-6.52-21.83-21.83-34.08-43.96-38.03-5.88-1.05-11.87-1.71-17.84-2-13.67-.68-27.02-3.08-40.24-6.47-7.91-2.03-15.89-3.78-23.83-5.64-8.82-2.06-13.89-7.42-14.69-16.59-.09-1.09-.19-2.17-.37-3.25-1-6.11-3.75-8.42-9.8-7.15-7.62,1.6-15.16,3.67-22.65,5.79-13.43,3.81-26.7,8.25-40.26,11.56-6.95,1.69-14.36,1.94-21.57,2.04-8.26.11-15.78-2.9-21.9-8.44-7.51-6.8-15.83-7.95-24.72-3.95-8.58,3.86-17.02,8.11-25.17,12.8-6.59,3.8-12.64,8.54-18.97,12.79-1.44.97-3.08,1.64-4.63,2.44-.24-.56-.84-1.32-.66-1.63.44-.75,1.18-1.37,1.9-1.9,12.73-9.39,25.57-18.65,40.18-24.95,5.11-2.2,10.61-3.68,16.05-4.92,5.02-1.14,9.7.44,13.84,3.5.15.11.3.21.43.34,12.46,12.43,27.62,12.7,43.21,8.83,13.89-3.45,27.51-7.99,41.27-11.99,6.27-1.82,12.58-3.5,18.87-5.24.7-.19,1.4-.42,2.12-.52,10.42-1.32,15.45.32,16.62,12.15.11,1.08.2,2.17.29,3.26.42,5.27,3.09,8.96,8.14,10.46,5.03,1.49,10.17,2.69,15.32,3.71,13.71,2.7,27.41,5.46,41.19,7.73,8.23,1.36,16.67,1.41,24.87,2.87,6.55,1.17,13.13,2.99,19.26,5.56,13.53,5.68,22.7,15.96,28.52,29.34,4.83,11.11,6.87,22.92,8.73,34.77,1.15,7.36,1.97,14.77,3.26,22.1.97,5.53,1.92,11.15,3.75,16.43,6.52,18.83,8.06,38.3,8.22,57.99.03,3.81-.15,7.64.06,11.44.26,4.74,1.73,6.35,6.35,7.55,1.76.46,3.56.73,5.32,1.18,4.66,1.19,7.76,4.03,8.46,8.86.39,2.65.74,5.55.1,8.08-1.86,7.37-3.58,14.89-6.52,21.86-11.7,27.79-27,53.49-46.63,76.45-4.46,5.21-9.64,9.87-14.85,14.36-4.89,4.22-10.84,5.71-17.32,4.8-3.06-.43-6.14-.66-9.2-1.04-8.55-1.05-16.76.24-24.22,4.51-7.08,4.05-13.86,8.64-20.73,13.05-6.11,3.92-12.08,8.06-18.28,11.84-8.6,5.25-17.74,6.24-27.09,2.19-6.95-3.01-13.42-2.23-19.73,1.59-6.37,3.86-12.8,7.61-19.08,11.6-19.99,12.68-42.07,18.74-65.45,19.91-18.89.94-36.58-4.68-53.74-12.05-13.13-5.64-24.7-13.8-35.97-22.42-3.9-2.98-7.76-6.01-11.7-8.92-10.11-7.47-21.65-10.82-34.03-11.66-12.94-.88-25.76.11-38.54,2.18-1.69.27-3.48-.11-5.23-.19,0-.34-.04-.68-.1-1.01Z"/><path class="cls-20" d="M988.28,416.02c.06.33.09.67.1,1.01-2.55.76-2.71,3.2-3.49,5.13-10.87,26.7-22.67,52.96-36.91,78.05-5,8.82-10.59,17.3-15.96,25.91-6.39,10.24-14.64,18.79-23.96,26.36-.55-.53-1.1-1.06-1.65-1.6,18.52-16.55,29.91-38.12,41.4-59.52,17.53-32.67,31.26-67.04,44.77-101.5,2.05-5.23,4.14-10.44,6.3-15.87-8.03-6.99-17.08-11.89-27.47-13.59-11.44-1.87-23.01-2.97-34.52-4.38-5.94-.73-11.9-1.29-17.82-2.15-3.73-.54-8.18-.76-9.77-4.78-1.78-4.49,2.11-7.36,4.73-10.21,7.11-7.76,14.45-15.31,21.62-23.03,2.34-2.52,4.62-5.14,6.58-7.96,2.19-3.14,1.64-4.76-1.93-6.3-2.49-1.07-5.2-1.64-7.67-2.75-3.16-1.41-6.24-3.11-7.24-6.81-.16-.58.52-1.38.81-2.08,2.67,3.61,6.29,5.68,10.6,6.78,2.1.53,4.22,1.19,6.13,2.19,4.06,2.13,5.15,5.67,2.79,9.59-1.67,2.78-3.78,5.35-5.96,7.75-7.69,8.47-15.54,16.81-23.25,25.27-1.53,1.68-2.72,3.68-4.24,5.78,3.17,2.52,6.47,2.73,9.61,3.12,12.25,1.52,24.5,3.06,36.78,4.28,14.59,1.45,28.09,5.57,39.65,14.95.4.33.97.45,1.7.77,4.02-6.09,5.25-13.69,10.56-20.11,1.32,4.9-1.09,8.13-2.21,11.56-1.12,3.41-2.54,6.71-3.96,10.43,2.15.48,3.83.86,6.75,1.52-2.02.67-2.9,1.27-3.73,1.19-3.29-.3-4.79,1.28-5.89,4.25-3.97,10.72-8.22,21.34-12.28,32.03-.56,1.47-.65,3.12-.95,4.69Z"/><path class="cls-21" d="M789.84,360.38c.42,1.24.84,2.48,1.27,3.71-15.37,12.73-29.23,26.91-41.94,42.32-14.11,17.09-22.36,36.61-27.2,58.04-4.74,21-4.71,42.18-3.61,63.4.35,6.78,2.55,13.53,4.47,20.13,2.13,7.31,4.97,14.4,7.35,21.64.39,1.19.55,3.18-.12,3.83-1.49,1.44-3.27.23-4.13-1.12-1.94-3.04-4.02-6.14-5.19-9.5-5.02-14.4-9.89-28.81-9.75-44.42.13-14.33-.98-28.71,1.55-42.93,3.13-17.58,7.91-34.67,16.43-50.51,8.16-15.18,19.12-28.23,31.17-40.38,7.53-7.59,14.86-15.48,24.27-20.91,1.83-1.06,3.63-2.19,5.44-3.29Z"/><path class="cls-9" d="M1014.72,118.43c-9.85,6.41-19.67,12.86-29.55,19.21-16.13,10.38-32.06,21.09-49.56,29.15-7.41,3.41-11.37,9.8-14.26,17.04-.52-.03-1.05-.05-1.57-.08,2.05-9.17,7.73-15.48,15.98-19.45,14.6-7.02,28.31-15.54,41.87-24.32,10.06-6.51,20.11-13.03,30.19-19.51,1.82-1.17,3.76-2.15,5.64-3.22.42.39.84.78,1.26,1.17Z"/><path class="cls-7" d="M752.91,862.22c12.53-8.13,24.66-16.66,31.33-30.7-3.52.89-4.99,4.15-7.25,6.44-2.25,2.28-4.19,4.88-6.83,8.01,1.92-8.06,14.42-21.03,23.33-24.96-3.28,13.45-25.49,38.19-40.58,41.21ZM786.2,829.11c.11-.1.3-.19.3-.3,0-.1-.17-.22-.27-.33-.11.15-.22.3-.33.45.1.06.2.12.3.18Z"/><path class="cls-6" d="M919.78,183.75c.52.03,1.05.05,1.57.08-.97,3.86-.34,7.52,1.27,11.1,2.3,5.11,4.54,10.26,6.76,15.41,2.78,6.45,3.99,13.16,2.95,20.15-1.3,8.76-2.71,17.5-4.07,26.25-.64,0-1.27,0-1.91,0,1.14-8.79,2.17-17.6,3.44-26.38,1.04-7.25-.26-14.05-3.29-20.62-2.05-4.44-4.09-8.88-6.03-13.37-1.77-4.09-2.66-8.29-.69-12.61Z"/><path class="cls-17" d="M753.96,1039.77c2.99-1.27,5.96-2.59,8.97-3.81,10.3-4.18,19.91-9.59,29.07-15.89,1.62-1.11,3.27-3.1,6.48-1.58-.93,1.3-1.5,2.6-2.49,3.36-2.86,2.22-5.72,4.55-8.89,6.25-10.56,5.65-21.3,10.92-33.12,13.53,0-.62-.02-1.24-.03-1.86Z"/><path class="cls-19" d="M760.46,901.22c3.15-1.79,6.33-3.54,9.45-5.38,7.99-4.72,15.61-9.89,21.87-16.92,1.9-2.13,3.8-4.88,8.06-4.84-.49,1.46-.54,2.82-1.24,3.51-3.08,3.06-6.27,6.02-9.58,8.83-4.26,3.63-8.67,7.08-13.02,10.61-2.37-.68-4.24.12-5.75,1.96-.38.36-.76.71-1.14,1.07l.03-.03c-1.54.61-3.08,1.23-4.62,1.84.07.69.15,1.38.22,2.08l-.16-.05c-1.08-2.28-2.75-.56-4.16-.62,0-.69.02-1.37.03-2.06Z"/><path class="cls-14" d="M767.01,988.45c11.33-6.82,22.66-13.64,34-20.44.05-.03.27.22.4.33-2.93,5.26-18.29,16.62-32.21,23.84-.73-1.24-1.47-2.49-2.2-3.73Z"/><path class="cls-10" d="M643.38,625.4s.13.16.13.16c1.69-4.1,3.26-8.26,5.13-12.27.7-1.5,1.03-1.35,7.4-1.55-3.35,5.28-5.85,10.55-11.08,13.76-.37.23-1.05-.06-1.58-.1Z"/><path class="cls-1" d="M733.22,689.13c.74-1.74,1.11-3.79,2.27-5.17,6.23-7.34,13.3-13.82,21.2-19.36.51-.35,1.21-.42,2.09-.25-8.19,8.55-18.32,15.05-25.56,24.77Z"/><path class="cls-3" d="M763.65,717.91c6.26-4.3,12.48-8.67,18.83-12.83,1.32-.87,3.27-1.97,4.55.5-7.44,4.59-14.77,9.1-22.09,13.61-.43-.43-.86-.85-1.29-1.28Z"/><path class="cls-14" d="M629.57,580.57c-.23-1.58-.65-3.16-.64-4.74.01-2.04.36-4.07.57-6.1.26,1.49.52,2.98,1.01,5.82,3.1-4.83,5.51-8.58,7.92-12.33.67-.02,1.33-.04,2-.06-2.41,6.56-4.69,13.2-10.86,17.42Z"/><path class="cls-9" d="M770.25,899c1.51-1.84,3.38-2.64,5.75-1.96-7.16,7.63-15.91,13.06-24.96,18.08-.49.27-1.27.04-2.61.04,5.79-4.03,10.97-7.64,16.16-11.26,0,0,.16.05.16.05.34-.24.68-.48,1.02-.72,1.13-1.06,2.25-2.13,3.38-3.19,0,0-.03.03-.03.03.38-.36.76-.71,1.14-1.07Z"/><path class="cls-3" d="M646.62,592.32c1.81-2.79,3.74-5.44,8.29-6.25-2.92,5.75-5.46,10.77-8.18,16.12.27-1.12.63-1.91.62-2.69-.02-1.72-1.2-1.37-2.28-1.11-.72-.46-1.45-.93-2.17-1.39.96-1.2,1.92-2.41,2.88-3.61.31.56.61,1.12.92,1.68.29-.21.84-.5.81-.61-.23-.74-.58-1.44-.89-2.15Z"/><path class="cls-18" d="M653.77,638.72c-.5-.89-1.01-1.78-1.51-2.67,1.44-2.64,2.88-5.28,4.32-7.92.77,2.74,2.18,4.25,5.73,3.61-1.26,2.93-2.07,4.82-2.85,6.63-2.18.13-3.94.24-5.7.35Z"/><path class="cls-8" d="M1055.96,99.18c.15.68.62,1.82.39,1.99-4.41,3.16-9.14,5.8-14.61,6.38-1.71.18-3.55-.89-6.24-1.64-.13.08-1.17.72-2.2,1.36-.12-.76-.24-1.52-.37-2.28,1.48-1.39,2.96-2.78,4.44-4.16.75,0,1.5.01,2.25.02.14,1.22.28,2.44.51,4.4,2.33-.7,4.51-1.21,6.56-2.02,3.14-1.24,6.19-2.69,9.27-4.05Z"/><path class="cls-6" d="M640.43,563.16c-.67.02-1.33.04-2,.06,2.29-6.35,4.58-12.71,7.17-19.91,1.2,5.64-.89,12.88-5.18,19.85Z"/><path class="cls-18" d="M1032.93,104.99c.12.76.24,1.52.37,2.28-6.19,3.72-12.38,7.44-18.57,11.16-.42-.39-.84-.78-1.26-1.17,6.49-4.09,12.98-8.18,19.47-12.27Z"/><path class="cls-1" d="M662.24,653.74c1.25-4.98,3.72-9.33,7.72-13.05-.74,2.2-1.47,4.4-2.35,7.03,1.66.17,3.23.33,4.8.48.07.31.15.62.22.93-3.47,1.53-6.94,3.06-10.41,4.59,0,0,.02.02.02.02Z"/><path class="cls-22" d="M731.97,653.82c-.46.96-.64,1.62-1.02,2.11-4.32,5.63-8.67,11.23-13.19,17.07.93-6.55,8.02-16.2,14.21-19.18Z"/><path class="cls-1" d="M926.36,256.73c.64,0,1.27,0,1.91,0-1.18,5.87-2.37,11.74-3.55,17.61-.58-.04-1.17-.08-1.75-.11l3.4-17.51Z"/><path class="cls-7" d="M767.01,988.45c.73,1.24,1.47,2.49,2.2,3.73-3.37,2.67-6.93,4.78-11.77,3.64,2.77-1.35,5.54-2.71,8.33-4.07-.59-1.05-1.01-1.81-1.63-2.93,1.17-.15,2.02-.27,2.87-.38Z"/><path class="cls-7" d="M763.65,717.91c.43.43.86.85,1.29,1.28-3.65,3.92-7.3,7.84-11.24,12.08.36-4.37,2.71-7.41,9.95-13.37Z"/><path class="cls-9" d="M760.46,901.22c0,.69-.02,1.37-.03,2.06-3.45,1.65-6.89,3.6-10.5.51,3.64-.89,7.08-1.73,10.53-2.56Z"/><path class="cls-3" d="M906.41,550.89c.55.53,1.1,1.06,1.65,1.6-2.55,2.43-5.18,4.62-10.18,3.33,3.42-1.97,5.97-3.45,8.53-4.93Z"/><path class="cls-3" d="M922.96,274.23c.58.04,1.17.08,1.75.11.07,3.6.15,7.2.22,10.79-.58.06-1.17.13-1.75.19-.07-3.7-.15-7.4-.22-11.1Z"/><path class="cls-1" d="M753.96,1039.77c0,.62.02,1.24.03,1.86-2.34.51-4.69,1.01-7.03,1.52l-.29-1.18c2.1-1.64,4.69-1.94,7.29-2.19Z"/><path class="cls-16" d="M905.38,680.27c1.28-1.31,2.56-2.62,3.84-3.93.39,1.06.78,2.12,1.17,3.18-.95.25-1.9.57-2.87.73-.7.12-1.43.02-2.15.02Z"/><path class="cls-3" d="M637.84,609.06c-1.53-.29-3.64.54-3.99-2.06,2.57,1.12,2.38-1.9,3.8-2.52.91.16,1.82.33,2.72.49-.85,1.36-1.69,2.72-2.54,4.08Z"/><path class="cls-8" d="M1080.53,84.48c-1.28,1.27-2.56,2.55-3.85,3.82-.79.04-1.58.09-3.07.17,1.33-3.25,3.34-4.53,5.98-5,.25-.04.62.66.94,1.01Z"/><path class="cls-8" d="M1069.04,92.11c-1.12,2.82-2.25,3.39-4.36,2.18,1.17-2.79,2.26-3.34,4.36-2.18Z"/><path class="cls-13" d="M640.38,604.98c-.91-.16-1.82-.33-2.72-.49,1.03-1.41,2.07-2.81,3.38-4.6,1.92,2.72.42,3.86-.66,5.09Z"/><path class="cls-22" d="M736.4,649.26c.61-.7,1.22-1.39,1.82-2.09.24.28.49.55.73.83l-2.48,1.34-.08-.08Z"/><path class="cls-8" d="M1072.9,89.93c-.87,1.47-1.68,3.04-3.87,2.18-1.27-1.5.11-2.03,1.03-2.62,1.01-.64,2.14-1.31,2.84.44Z"/><path class="cls-13" d="M646.62,592.32c.31.71.66,1.41.89,2.15.03.11-.53.4-.81.61-.31-.56-.61-1.12-.92-1.68.28-.36.56-.72.84-1.08Z"/><path class="cls-8" d="M1064.67,94.29c.78,1.81.64,1.98-2.19,2.76-.24-.52-.48-1.03-.71-1.55.97-.41,1.93-.81,2.9-1.22Z"/><path class="cls-8" d="M1060.89,98.69c-1.49.71-3.2,2.08-3.35-1.14,1.21-.24,2.43-.47,3.64-.71-.1.62-.2,1.23-.29,1.85Z"/><path class="cls-13" d="M642.91,597.01c.72.46,1.45.93,2.17,1.39-.83.46-1.66.92-2.49,1.38.11-.93.21-1.85.32-2.78Z"/><path class="cls-20" d="M923.18,285.33c.58-.06,1.17-.13,1.75-.19.25,1.09.5,2.18.75,3.27-1.99.35-2.05.28-2.5-3.09Z"/><path class="cls-22" d="M734.36,651.56c-.39.32-.78.64-1.17.96-.17-.2-.34-.41-.5-.61.45-.22.91-.43,1.36-.65,0,0,.31.3.31.3Z"/><path class="cls-19" d="M1039.62,100.84c-.75,0-1.5-.01-2.25-.02.76-1.35,1.51-1.65,2.25.02Z"/><path class="cls-22" d="M736.48,649.33c-.35.38-.7.75-1.06,1.13,0,0-.22-.22-.22-.22.4-.33.8-.66,1.2-.99,0,0,.08.08.08.08Z"/><path class="cls-22" d="M734.04,651.25c.39-.34.78-.67,1.16-1.01,0,0,.21.21.21.22-.35.37-.71.73-1.06,1.1,0,0-.31-.3-.31-.3Z"/><path class="cls-23" d="M1363.68,224.23c-.98-6.73-1.87-12.91-2.77-19.09.5-.13,1.01-.26,1.51-.38,2.71,4.06,2.31,9.33,4.81,14.81,1.25-3.51,2.19-6.05,3.06-8.62.46-1.37.72-2.82,1.23-4.17,1.16-3.08,2.86-3.35,5.15-.81,1.09,1.21,1.97,2.61,3.1,3.78,1.57,1.62,3.39,2.77,5.97,1.9,2.3-2.58,2-5.49.63-8.49-.98-2.14-2.14-4.22-2.96-6.42-1.64-4.37-.35-8.19,3.42-10.35.67-.38,1.62-.25,3.3-.47-1.1,1.5-1.68,2.31-2.28,3.1-1.63,2.14-1.65,4.3-.25,6.57,1.24,2.01,2.5,4.01,3.58,6.1,2.69,5.22,2.1,9.75-1.93,13.98-1.59,1.67-2.86,3.28-5.65.47-2.35-2.36-6.3-3.11-9.97-4.77-.37,1-1.09,2.23-1.28,3.55-.86,5.8-4.72,9.6-8.7,13.31-1.04.96-2.35,1.77-3.67,2.25-4.55,1.65-7.98-.39-8.81-5.13-.28-1.57-.36-3.17-.66-6-2.8,2.87-4.87,5-6.95,7.13.81,4.28,1.58,8.33,2.44,12.88,2-1.11,3.74-2.08,5.47-3.05-1.89,4.56-5.15,7.81-9.3,9.8-4.21,2.01-6.35,1.05-9.23-2.92-.49-.68-.92-1.39-2.26-1.94-.19,2.97-.35,5.95-.6,8.92-.12,1.44-.13,3-.72,4.26-.45.97-1.62,1.97-2.65,2.2-.71.16-2.01-.79-2.5-1.58-1.03-1.65-1.7-3.52-3.31-5.24,0,1.38-.05,2.77.01,4.15.07,1.63.38,3.26.34,4.88-.04,2.01,1.37,5.16-1.37,5.63-3.44.58-2.74-3.08-3.18-5.12-1.18-5.47-2.11-11-3.1-16.25,1.18-.66,2.53-.99,3.15-1.84,2.25-3.06,3.42-3.27,5.6-.34,1.26,1.69,2.23,3.6,4.03,6.57.35-3.8.53-6.39.83-8.96.51-4.41,1.17-4.88,6.21-4.5,5.39-9.7,15.01-15.29,23.42-23.94-.61,3.45-1.02,5.53-1.32,7.63-.23,1.61-.48,3.25-.43,4.87.16,4.66,2.38,5.92,6.28,3.59,1.05-.63,1.9-1.6,2.32-1.97ZM1341.1,244.47c3.76-5.77.75-9.66-.29-14.26-2.55,2.03-4.59,3.66-7.16,5.71,2.25,2.59,4.51,5.18,7.45,8.56Z"/><path class="cls-8" d="M1169.64,402.47c-1.42.51-2.26,1-3.13,1.07-2.79.23-4.4-1.5-3.38-3.93,1.71-4.07,4.36-7.56,8.24-9.84,2.49-1.46,4.59-.21,6.19,1.75,1.72,2.1,3.1,4.48,4.87,6.54,1.58,1.85,3.47,3.44,5.47,5.37,3.22-9.15,6.18-17.6,9.19-26.03.06-.15.64-.12,1.64-.28-.43,10.05-3.6,19.43-5.61,29.16,6.83,4.75,15.36,5.72,22.06,10.49-4.31.85-8.12-.69-11.96-1.82-3.8-1.12-7.53-2.46-11.88-3.89-1.79,6.65-3.51,13.01-5.27,19.55-2.39-.21-2.72-2.22-2.52-4.23.3-3.05.84-6.09,1.43-9.11.55-2.82,1.31-5.6,1.8-7.66-4.79-5.35-9.1-10.16-13.65-15.25-2.38,1.96-4.62,4.05-3.48,8.1Z"/><path class="cls-20" d="M1205.96,227.75c2.58-6.72,1.54-12.87,1.11-18.99-.1-1.44-.5-2.92-.31-4.32.14-1.02,1.03-1.94,2.05-3.73,1.24,7.39,2.43,13.69,3.27,20.03.3,2.28.08,4.75-.47,7-1.31,5.36-5.39,6.84-9.9,3.69-1.91-1.34-3.58-3.03-5.82-4.95-.2,1.45-.48,2.56-.49,3.67-.02,3.81.08,7.62.1,11.43.01,2.79-.15,5.65-3.19,6.91-2.79,1.16-4.99-.62-6.81-2.31-3.18-2.96-6-6.29-9.12-9.32-1.2-1.17-2.69-2.3-4.25-2.79-1.76-.56-2.51-1.45-2.18-3.09.37-1.86,1.77-2.99,3.59-2.39,1.65.55,3.27,1.59,4.56,2.78,2.66,2.46,5.05,5.21,7.63,7.77,1.34,1.33,2.84,2.48,4.27,3.72.39-.17.78-.35,1.17-.52.03-4.27.06-8.54.08-12.81,0-2-.25-4.03.07-5.98.24-1.45.91-3.54,1.94-3.95,1.09-.43,3.04.5,4.26,1.35,1.91,1.35,3.49,3.16,5.28,4.7.78.67,1.73,1.16,3.17,2.1Z"/><path class="cls-2" d="M1098.59,226.69c1.12-.78,2.42-1.4,3.33-2.38,2.44-2.63,4.86-5.31,7.01-8.17,3.74-4.96,9.01-7.85,14.21-10.79.87-.49,2.49-.22,3.53.23,1.96.85,3.74,2.09,5.6,3.17.69.75,1.39,1.5,2.08,2.26,3.42,2.76,7.13,5.25,10.31,10.11-6.34-1.43-9.61-5.69-14.04-7.64-1.73.58-2.56,1.49-1.96,3.27.53,1.54,1.05,3.09,1.51,4.66.36,1.22.76,2.45.89,3.7.21,1.92.87,4.38-1.83,4.95-2.28.48-2.98-1.68-3.5-3.41-.93-3.11-1.6-6.29-2.55-9.39-.6-1.97-1.51-3.85-2.38-6.01-5,1.86-7.43,5.4-10.15,8.77,2.28,5.37,5.59,10.31,4.9,16.36-2.33.63-2.9-.35-3.32-2-.96-3.78-2.11-7.51-3.47-12.24-3.97,4.09-7.17,7.38-11.02,11.35-.13-1.97-.2-2.94-.26-3.91,0,0-.05.02-.05.02.36-.95.73-1.89,1.09-2.84,0,0,.06-.04.06-.04ZM1127.35,213.69q.32-2.35-2.15-3.58c.86,1.44,1.37,2.29,2.15,3.58Z"/><path class="cls-11" d="M1011.96,252.29c1.64-.95,3.49-1.67,4.9-2.89,8.76-7.63,17.41-15.39,26.14-23.07,1.35-1.19,2.59-3.28,4.91-1.47-2.3,5.99-32.3,34.16-48.18,45.11-3.9,2.69-7.58,6.07-13.89,6.67,1.49-1.78,2.12-2.79,2.99-3.52,6.53-5.49,13.16-10.87,19.63-16.43,1.4-1.2,2.34-2.96,3.49-4.46,0,0,.02.06.02.06Z"/><path class="cls-8" d="M1309.96,153.96c-1.88,2.17-4.14,1.67-6.04.77-4.07-1.93-7.99-4.19-11.94-6.37-1.84-1.02-3.6-2.17-5.45-3.28-3.51,3.4-3.73,7.53-4.7,11.3-.63,2.45-.74,5.04-1.34,7.5-.84,3.44-2.81,4.33-6.09,2.82-2.13-.97-4.16-2.15-7.12-3.7.24,6.75,6.13,10.91,5.81,16.85-2.58,1.56-3.76.17-4.55-1.54-2.19-4.77-4.42-9.55-6.29-14.45-1.17-3.07,2-6.02,5.5-5.08,2.76.75,5.36,2.13,8.67,3.49.82-2.84,1.57-5.56,2.39-8.25.95-3.12,1.71-6.33,3-9.31,1.78-4.1,4.97-4.95,8.91-2.69,1.09.63,2.09,1.44,3.08,2.23,4.56,3.61,9.13,7.2,14.96,8.64.43.1.74.66,1.19,1.08Z"/><path class="cls-11" d="M1273.45,338.09c-1.21,8.44-30.58,61.17-36.18,65.63-.32-1.06-.96-2.03-.77-2.79.39-1.56,1.15-3.05,1.91-4.48,7.48-14.08,14.89-28.2,22.58-42.17,2.43-4.42,5.6-8.44,8.55-12.56.78-1.09,1.98-1.87,3.92-3.63Z"/><path class="cls-11" d="M1280.51,273.84c0,4.41.16,7.97-.06,11.52-.13,2.19.49,5.05-2.5,5.97-1.73.53-2.7-1.67-2.54-6.14.16-4.52.28-9.06.84-13.54.6-4.81,3.34-5.76,7.02-2.68,2.21,1.86,4.31,3.85,6.5,5.74.23.2.67.14,1.33.25,1.97-4.05,2-8.59,2.92-12.93.89-4.18.44-8.86,3.1-12.51.46.04.92.07,1.38.11.26,1.29.79,2.6.72,3.87-.34,5.96-.76,11.92-1.35,17.86-.19,1.95-.77,3.93-1.54,5.74-1.88,4.48-5.15,5.39-9.02,2.52-2.15-1.59-4.1-3.46-6.81-5.78Z"/><path class="cls-11" d="M1069.47,370.68c2.08-2.92,3.75-5.21,5.36-7.54,5.03-7.29,3.79-10.22-4.92-11.46-2.33-.33-4.71-.51-7.06-.39-5.26.27-6.47,2.35-4.34,7.07,1.94,4.3,3.93,8.58,5.88,12.87.38.83.96,1.69.95,2.52-.01.92-.6,1.83-.94,2.75-.77-.31-1.55-.6-2.32-.93-.14-.06-.24-.27-.31-.44-2.63-6.17-5.51-12.25-7.79-18.55-1.44-3.97,1.65-8.42,6.18-9.1,6.2-.93,12.36-.44,18.05,2.52,3.87,2.01,5.23,4.93,4.06,9.07-1.55,5.51-5.27,9.39-10.16,12.19-.33.19-.98-.2-2.65-.59Z"/><path class="cls-8" d="M1257.42,383.17c1.04,1.53,1.91,2.83,3.18,4.69.61-2.56.97-4.6,1.59-6.56,1.5-4.76,4.99-6.86,9.68-5.13,3.65,1.35,6.97,2.63,11,.29-.64,1.33-1.29,2.66-2.14,4.41,3.13,1.78,6.37,3.63,9.76,5.56-.36,1.89-1.79,2.12-3.22,1.7-2.94-.87-5.95-1.72-8.68-3.06-2.13-1.05-3.69-.97-5.42.52-1.23,1.06-2.51,2.16-3.95,2.88-4.53,2.26-6.86,5.63-6.09,10.82.08.52.1,1.2-.17,1.59-.47.67-1.16,1.61-1.79,1.63-.66.02-1.8-.8-1.94-1.43-.63-2.82-.97-5.71-1.42-8.58-.44-2.83-.89-5.66-1.31-8.49-.01-.09.23-.22.93-.84ZM1271.63,382.28c-5.61-1.85-6.39-1.21-6.58,4.37,2.32-1.54,4.45-2.96,6.58-4.37Z"/><path class="cls-20" d="M1065.01,267.35c-.46-2.11-1.17-4.21-1.31-6.35-.1-1.64.04-3.74,1-4.83.58-.66,2.99-.04,4.43.44,1.52.51,2.82,1.61,4.29,2.3,1.08.51,2.27.76,3.81,1.26,1.27-5.67.2-10.98-.18-16.22.94,0,1.48-.13,1.56.02,3.15,5.31,3.98,11.18,3.49,17.15-.29,3.48-2.96,4.83-6.33,3.65-2.19-.77-4.26-1.89-7.35-3.29.68,2.89,1.22,5.04,1.7,7.2.46,2.11,1.26,4.43-.89,6.01-2.13,1.57-4.18.36-5.97-.92-5.03-3.58-8.74-8.43-13.02-13.07,2.3-2.04,3.81-.75,5.14.3,2.98,2.34,5.85,4.83,8.77,7.25.38.08.77.17,1.15.26-.1-.39-.19-.78-.29-1.18Z"/><path class="cls-12" d="M1225.46,259.45c.47,1.37,1.2,2.71,1.33,4.11.17,1.86.56,4.25-.37,5.53-1.4,1.93-3.64.54-5.38-.42-1.9-1.05-3.72-2.24-5.61-3.3-.9-.51-1.9-.84-3.5-1.54-.39,5.63-.76,10.75-1.1,15.88-.07,1.08.14,2.19-.07,3.24-.12.59-.83,1.49-1.27,1.49-.76,0-2.15-.57-2.18-.96-.27-4.53-4.19-9.1.03-13.64.45-.48.84-1.4.7-1.97-.95-3.6,3.13-3.89,4.13-6.24.19-.45,2.38-.36,3.51-.02,1.89.56,3.67,1.52,5.49,2.31,1.45.76,1.92.43,1.3-1.15-.65-2.79-1.55-5.55-1.89-8.38-.39-3.29,1.6-4.75,4.21-2.93,4.92,3.42,10.15,5.74,16.27,6.07.04.4.08.8.12,1.19-1.33.5-2.72,1.54-3.97,1.39-3.51-.43-6.97-1.36-10.45-2.08-.52-.27-1.04-.54-1.55-.82.08.75.17,1.49.25,2.24Z"/><path class="cls-2" d="M1021.61,200.58c-8.24,9.18-16.59,18.27-24.69,27.58-8.06,9.26-15.86,18.74-23.78,28.12-.38-.15-.76-.29-1.14-.44,0-1.08-.38-2.36.07-3.2,1.38-2.54,2.9-5.05,4.68-7.32,11.99-15.34,25.43-29.35,39.4-42.87,1.28-1.24,2.92-2.1,4.39-3.14.36.42.72.84,1.08,1.27Z"/><path class="cls-23" d="M1241.65,190.77c.73,1.84,1.42,3.7,2.19,5.52.65,1.54,1.52,3.3-.58,4.17-2.07.85-2.89-1.09-3.43-2.55-1.76-4.72-3.36-9.5-4.79-13.59,1.6-1.78,2.83-3.03,3.93-4.38,1.92-2.36,3.66-4.88,5.7-7.13.53-.59,2.41-.87,2.81-.46.72.75,1.17,2.16,1.04,3.22-.17,1.39-1.1,2.66-1.53,4.04-1.83,5.82-.28,8.03,5.69,7.52,3.01-.26,5.95-1.33,8.91-2.11,1.33-.35,2.61-.9,4.98-1.73-1.83,4.46-4.96,5.79-8.04,6.83-5.16,1.74-10.44,3.47-15.5-.41-.44-.49-.88-.98-1.32-1.47-.21.07-.43.14-.64.22.19.78.38,1.55.57,2.33Z"/><path class="cls-20" d="M1293.68,207.7c-1.97,1.52-3.95,3.03-5.9,4.58-2.09,1.66-4.14,3.36-6.2,5.05-.35-.25-.7-.51-1.05-.76.56-1.1.87-2.48,1.73-3.25,6.41-5.85,12.79-11.75,19.47-17.28,3.63-3.01,12.69-1.71,15.81,1.78.58.65,1.09,1.47,1.34,2.31,1.2,3.94-3.3,9.91-8.33,11.13-4.15,1.01-7.19-1.29-8.32-6.32-.3-1.35-.54-2.72-.97-4.89-2.36,2.12-4.21,3.78-6.05,5.44-.51.74-1.02,1.48-1.53,2.22ZM1306.34,195.92c-.18,2.79-.63,4.44-.29,5.91.42,1.76,1.11,4.24,2.41,4.84,2.18,1.01,3.83-1.14,5.15-2.87,1.36-1.79.99-3.44-.8-4.57-1.74-1.1-3.66-1.9-6.47-3.31Z"/><path class="cls-2" d="M1113.4,158.65c3.9,2.04,7.52,3.94,11.22,5.88q-2.7,1.93-14.27-2.42c-3.69,1.93-4.74,4.92-3.93,8.94.28,1.4-.27,2.98-.48,4.88-4.16-1.37-3.73-4.5-3.87-6.89-.17-2.99.53-6.01.69-9.03.14-2.57,1.33-4.55,3.86-4.17,2.95.44,4.25-1.36,5.95-2.91,2.54-2.31,4.99-4.73,7.72-6.8,1.29-.98,3.12-1.24,5.05-1.31-2.61,5.65-8.95,7.78-11.93,13.84Z"/><path class="cls-5" d="M1225.15,156.73q1.26-11.1-2.9-15.71c-.71,1.6-1.67,2.9-1.83,4.29-.44,3.93-.6,7.9-.77,11.85-.05,1.25.43,2.55.25,3.77-.13.9-.95,1.7-1.46,2.54-.85-.53-2.07-.87-2.48-1.64-1.18-2.23-1.99-4.64-3.01-6.96-1.79-4.09-3.08-8.49-7.16-11.05.74-2.47,2.13-3.29,4.08-1.87,1.27.93,2.27,2.3,3.21,3.6,1.03,1.41,1.85,2.95,3.32,5.33.63-3.2.95-5.47,1.54-7.67.66-2.48,1.48-5,4.64-5.28,2.52-.22,5.02,2.05,5.9,5.44,1.29,5.01.23,9.51-3.33,13.35Z"/><path class="cls-19" d="M1140.05,202.34c-.16-1.73-.32-3.45-.48-5.18l.83-.56c2.57,2.85,5.14,5.7,8.21,9.11,2.28-5.7-1.34-13.36,7.09-17.34-.94,3.79-1.64,6.58-2.42,9.7,4.7,2.19,8.89,1.2,12.95-1.05,1.73-.96,3.31-2.18,4.95-3.28.3.27.39.59.26.96-3.51,6.67-8.82,9.05-19.45,8.35v11.79c-.39.13-.77.26-1.16.39-.86-.99-1.82-1.92-2.56-2.99-1.96-2.81-3.75-5.75-5.77-8.51-.53-.72-1.67-.99-2.54-1.46,0,0,.08.08.08.08Z"/><path class="cls-17" d="M1078.61,194.08c-6.54,2.02-9.84-4.06-15.53-5.49-.6,2.4-1.15,4.8-1.8,7.17-1.42,5.15-2.63,5.6-7.48,2.91-.26-.15-.68-.02-1.75-.02.6,4.01,1.19,7.93,1.99,13.24-1.89-1.43-2.89-1.94-3.55-2.73-4.01-4.83-2.2-10.49-1.96-15.85.1-2.18,2.05-2.48,3.68-1.49,1.8,1.1,3.35,2.61,5.44,4.28.94-3.04,1.67-5.6,2.54-8.11,1.35-3.89,3.02-4.44,6.45-2.13,3.85,2.59,7.66,5.25,11.98,8.22ZM1052.49,197.26c-.1-.06-.22-.19-.29-.17-.13.05-.22.19-.33.29.2.07.4.13.6.2,0-.11.01-.22.02-.32Z"/><path class="cls-20" d="M1171.45,194.69c.13-.37.04-.69-.26-.96-2.43-3.75-4.87-7.5-7.2-11.08,1.72-1.94,3.15-3.3,4.29-4.87,2.23-3.07,7.45-4.01,11.8-1.97,3.67,1.72,5.05,4.71,3.62,8.93-1.05,3.08-1.57,6.9-6.08,7.16.34-1.17.69-2.34,1.03-3.51.5-1.73,1.25-3.44,1.42-5.2.28-2.86-2.33-4.82-5.96-4.74-2.78.06-3.82,1.53-3.29,4.89.61,3.86,2.19,7.24,5.26,9.79-.21,1.12-.42,2.25-.63,3.37-1.34-.6-2.67-1.2-4.01-1.8Z"/><path class="cls-19" d="M1099.66,329.96c-3.2,2.91-6.41,5.83-9.69,8.82.77,3.4,1.29,6.62,2.24,9.7,1.16,3.75,3.2,4.55,6.61,2.44,2.59-1.61,4.9-3.72,7.19-5.78,1.18-1.06,2.03-2.47,3.03-3.72.35.19.69.38,1.04.57-.08.87.18,2.06-.29,2.55-3.34,3.53-6.48,7.41-10.37,10.23-4.48,3.26-8.91,1.27-10.48-4.14-.75-2.59-.98-5.33-1.48-8.18-1.27.53-2.46,1.03-3.65,1.53,2.3-8.39,8.97-12.1,15.72-15.72.04.57.08,1.13.12,1.7Z"/><path class="cls-20" d="M1323.53,193.3c.96-2.64,1.78-5.17,2.8-7.61,1.28-3.04,3.05-3.47,5.21-.96,3.1,3.61,6.52,6.59,11.31,7.76-2.69,3.81-3.88,3.59-13.91-2.62-.72,2.87-1.24,5.58-2.12,8.16-.41,1.19-1.32,2.52-2.38,3.05-.5.25-2.13-1.02-2.79-1.93-2.73-3.78-5.29-7.68-8.07-11.78,5.33-1.28,6.07,4.55,9.93,5.93Z"/><path class="cls-15" d="M1217.06,193.48c1.48-.13,3.41-.77,5.07-.36,3.22.8,5.82,2.8,7.49,5.79,2.46,4.39,1.18,10-2.84,12.4-2.98,1.78-6.77,1.18-8.5-1.89-1.09-1.93-1.58-4.37-1.72-6.63-.18-2.8.27-5.64.5-9.32ZM1218.55,195.8c.46,2.38.76,4.12,1.13,5.84.31,1.4.48,2.9,1.13,4.13.43.82,1.61,1.74,2.43,1.72.83-.02,2.25-1.09,2.32-1.81.2-2.04.39-4.38-.43-6.14-1.1-2.36-3.08-4.39-6.58-3.74Z"/><path class="cls-15" d="M1242.17,318.99c.9,1.59,2.19,3.09,2.62,4.8.84,3.31,1.31,6.73,1.72,10.14.86,7.18,1.59,14.37,2.33,21.56.11,1.06.02,2.14.02,3.43-2.72-.37-2.82-2.58-3.14-4.32-1.52-8.17-2.91-16.36-4.32-24.56-.37-2.14-.72-4.28-.94-6.43-.14-1.33-.03-2.69-.03-4.03.58-.2,1.17-.39,1.75-.59Z"/><path class="cls-14" d="M1253.18,248.11c-2.46-2.47-3.49-6.33-7.31-7.68-3.51,1.65-5.37,5.79-9.74,6.71,2.49-6.7,22.62-24.03,31.03-26.25-3.83,3.36-6.74,5.89-9.63,8.45-2.97,2.63-5.91,5.29-8.68,7.79,2.05,3.41,3.89,6.46,5.72,9.51-.46.49-.92.97-1.38,1.46Z"/><path class="cls-19" d="M1191.66,172.2c-.53,2.3.99,2.9,2.73,3.12,3.29.41,6.06-.9,8.47-2.98.89-.77,1.56-1.81,2.58-3.04.43,4.9-3.71,8.9-9.5,9.84-5.52.9-9.28-2.71-11.69-11.42-1.74,1.04-3.42,2.04-5.62,3.36,1.07-3.9,5.66-8.83,9.11-10.38.45.45.91.91,1.36,1.36-2.22,4.15-1.8,6.69,1.49,8.88.36.42.72.83,1.07,1.25Z"/><path class="cls-20" d="M1112.17,324.96c.51-3.88,1.73-7.25,7.11-8.98-1.28,2.31-2.1,3.72-2.86,5.17-1.06,2.04-.79,3.78,1.14,5.22,2.17,1.62,4.38,3.21,6.39,5.01,2.5,2.24,3.16,4.85,1.24,7.16-2.27,2.73-5.15,4.98-7.92,7.24-.55.44-1.83-.02-3.42-.09,3.06-3.56,5.65-6.59,8.49-9.9-3.57-3.23-6.62-5.98-9.68-8.74-.17-.7-.33-1.39-.5-2.09Z"/><path class="cls-2" d="M1011.96,252.29s-.02-.06-.02-.06c-1.6,1.17-2.17.41-2.39-1.22-.41-3.01-.75-6.05-1.38-9.02-.67-3.18-1.76-6.14-4.52-8.35-.75-.6-.5-2.43-.71-3.7,1.34-.09,3.07-.75,3.93-.15,1.7,1.19,3.48,2.85,4.23,4.71,2.32,5.75,3.51,11.71.86,17.78Z"/><path class="cls-2" d="M1307.82,244.78c1.56,2.11,2.79,3.62,3.85,5.24,1.84,2.81,2.71,5.87,1.75,9.21-.58,2.02-1.79,3.74-4.02,3.8-2.3.06-3.41-1.7-3.94-3.76-1.27-4.91-.48-9.5,2.36-14.48Z"/><path class="cls-5" d="M1170.75,290.77c.41.49,1.09.95,1.25,1.54,1.08,4.14,2.13,8.29,3.03,12.47.9,4.19-.07,5.94-3.75,7.27-.98-4.41-1.96-8.84-3.04-13.74-1.77,1.06-3.08,1.85-4.74,2.84,1.06-5,3.27-8.1,7.25-10.39Z"/><path class="cls-19" d="M1343.05,174.14c.43,1.97.87,3.94,1.42,6.44,1.54-1.14,2.6-1.92,3.65-2.7.07.56.15,1.13.22,1.69-.78,1.88-3.99,3.14-1.51,5.87,1.6,1.76,3.43,1.65,6.62-.65,1.28-.92,2.36-2.14,3.53-3.22.41.4.81.8,1.22,1.2-2.17,2.06-4.07,4.56-6.57,6.08-3.66,2.23-6.81,1.01-9.03-2.74-.36-.61-.72-1.26-.93-1.93-.51-1.71-.94-3.45-1.43-5.31-.8-.11-1.73-.25-3.44-.5,1.86-2.21,3.32-3.93,4.78-5.66.49.47.98.95,1.48,1.42Z"/><path class="cls-15" d="M1151.93,314.58c-.95,1.15-1.82,2.54-.37,3.63.74.56,2.42.56,3.29.1,1.99-1.07,3.74-2.58,5.59-3.91l1.56,1.55c-2.09,1.96-3.95,4.27-6.32,5.79-4.14,2.66-7.83.99-8.94-3.82-.4-1.73-.11-3.62-.41-5.39-.17-1-.88-1.91-1.65-3.49,1.41-1.55,3.19-3.53,4.98-5.5.38.04.77.07,1.15.11,0,1.09,0,2.18,0,3.27-.15,1.35-.3,2.69-.45,4.04,0,.35-.11.67-.31.95.62.89,1.25,1.78,1.87,2.66Z"/><path class="cls-5" d="M1224.57,340.76c2.48.83,5.52,1.92,8.62,2.84,2.22.67,4.62.88,6.73,1.78,1.06.45,1.65,1.99,2.46,3.03-1.14.61-2.44,1.93-3.38,1.71-3.83-.92-7.53-2.35-11.31-3.49-1.65-.5-3.42-.64-5.06-1.18-1.01-.34-1.88-1.12-2.81-1.71.84-.99,1.61-2.06,2.55-2.94.29-.27,1.04-.04,2.2-.04Z"/><path class="cls-10" d="M1092.14,246.04c1.4,3.91,2.06,4.58,5.09,3,3.57-1.86,6.74-4.48,10.2-6.86,0,.46.34,1.55-.06,2.2-2.4,3.99-5.89,6.81-10.16,8.61-2.16.91-4.64.97-5.97-.99-1.45-2.14-3.27-1.29-6.39-1.15,4.19-3.05,3.71-6.5,3.84-9.8.64-.21,1.28-.41,1.92-.62.1.69.21,1.37.31,2.06.41,1.18.82,2.36,1.22,3.54Z"/><path class="cls-17" d="M1220.27,375.78c-.71,5.85-8.88,14.32-14.74,15.32,0-.88-.28-1.83.05-2.45,1.54-2.94,11.01-11.24,14.69-12.86Z"/><path class="cls-16" d="M1112.17,324.96c.17.7.33,1.39.5,2.09-6.64,9.48-12.78,15.68-17.96,17.52,1.53-4.84,4.55-8,7.08-11.42,0,0-.07-.08-.07-.08.14.61.29,1.23.43,1.84.24-.61.47-1.22.71-1.83l-.04.06c2.34.93,2.95-1.33,4.07-2.38,1.91-1.77,3.54-3.85,5.28-5.79Z"/><path class="cls-18" d="M1090.61,240.45c-.64.21-1.28.41-1.92.62-1.15.45-2.3.9-3.91,1.53-.06-1.24-.52-2.5-.08-3.07,3.38-4.42,6.86-8.78,10.5-12.99.74-.85,2.37-2.18,3.38.15,0,0-.06.04-.06.04-.71.81-2.49,1.22-1.09,2.84,0,0,.05-.03.05-.02-.43-.16-1.13-.56-1.23-.44-2.1,2.42-4.32,4.78-6.05,7.45-.55.86.23,2.58.4,3.9Z"/><path class="cls-3" d="M1293.68,207.7c.51-.74,1.02-1.48,1.53-2.22,1.88,2.86,4.08,5.56,5.54,8.62,1.45,3.03,1.98,6.4-.94,9.31-.07-4.54-1.82-8.29-4.39-11.79-.83-1.13-1.18-2.6-1.74-3.92Z"/><path class="cls-3" d="M1226.2,387.85c-3.25,6.01-10.65,9.86-16.86,9.17,2.2-3.18,5.73-3.25,8.38-4.72,2.79-1.55,5.65-2.97,8.48-4.45Z"/><path class="cls-19" d="M1253.18,248.11c.46-.49.92-.97,1.38-1.46,1.36-.47,2.73-.95,4.09-1.42.13.68.25,1.36.38,2.03-3.83,4.48-4.85,5.15-13.86,9.01-1.09-2.25.54-3.16,1.96-4.13,2-1.37,4.04-2.69,6.06-4.04Z"/><path class="cls-16" d="M1374.89,157.92c-4.51,4.26-8.83,8.35-13.32,12.6-.71-4.35,6.36-10.89,13.32-12.6Z"/><path class="cls-3" d="M1031.5,180.31c1.86,4.28,3.71,8.56,5.55,12.82-4.59-.02-8.09-6.43-5.55-12.82Z"/><path class="cls-18" d="M1189.09,162.06c-.45-.45-.91-.91-1.36-1.36,3.21-3.63,6.99-6.53,11.19-8.94-2.44,4.27-6.04,7.39-9.83,10.3Z"/><path class="cls-1" d="M1343.05,174.14c-.49-.47-.98-.95-1.48-1.42,3.12-3.15,6.25-6.31,9.37-9.46.31.29.62.58.93.87-2.14,3.99-5.75,6.78-8.82,10.01Z"/><path class="cls-18" d="M1151.93,314.58c-.62-.89-1.25-1.78-1.87-2.66,1.32.16,2.46.14,1.87-1.74l-.04.06c1.55-.96,3.17-1.82,4.62-2.91,1.32-.99,2.46-2.24,4.1-2.93-1.53,4.63-5.04,7.47-8.68,10.19Z"/><path class="cls-1" d="M1092.14,246.04c-.41-1.18-.82-2.36-1.22-3.54,1.18-.64,2.46-1.13,3.5-1.94,1.47-1.14,2.76-2.52,4.51-3.42-1.2,3.84-4.19,6.22-6.79,8.9Z"/><path class="cls-18" d="M1402.15,200.6c1.14,1.41,2.41,2.29,2.43,3.21.02.75-1.51,2.2-2.25,2.14-.92-.08-2.31-1.3-2.45-2.18-.12-.78,1.21-1.78,2.27-3.16Z"/><path class="cls-19" d="M1134.36,211c-.69-.75-1.39-1.5-2.08-2.26,2.21-1.77,4.42-3.54,6.63-5.31,0,0-.08-.08-.08-.08-1.23,1.47-2.6,2.86-3.63,4.46-.57.87-.57,2.11-.83,3.18Z"/><path class="cls-16" d="M1348.35,179.57c-.07-.56-.15-1.13-.22-1.69,1.46-1.34,2.93-2.69,4.39-4.03.6.05,1.2.09,1.8.14-1.99,1.86-3.98,3.72-5.96,5.58Z"/><path class="cls-16" d="M1099.66,329.96c-.04-.57-.08-1.13-.12-1.7,1.03-.32,2.06-.65,3.29-1.03,0,2.33,0,4.12,0,5.91,0,0,.04-.06.04-.06-.38,0-.76,0-1.14,0,0,0,.07.08.07.08.3-1.73.81-3.62-2.13-3.18Z"/><path class="cls-9" d="M1197.67,162.96c.2,3.21-1.82,5.11-4.07,6.86-.1-.56-.19-1.12-.29-1.67,1.47-1.71,2.94-3.42,4.41-5.13,0,0-.05-.06-.05-.06Z"/><path class="cls-9" d="M1259.03,247.26c-.13-.68-.25-1.35-.38-2.03.28-1.3.57-2.6.86-3.93q2.52,2.66-.48,5.96Z"/><path class="cls-16" d="M1162,315.95c-.52-.52-1.04-1.03-1.56-1.55.86-1.26,1.73-2.51,2.93-4.27,1.08,2.91.27,4.48-1.37,5.82Z"/><path class="cls-1" d="M1358.19,182.78c-.41-.4-.81-.8-1.22-1.2.64-1.05,1.27-2.09,1.91-3.14.43.25.86.5,1.29.76-.66,1.19-1.32,2.39-1.98,3.58Z"/><path class="cls-18" d="M1150.38,310.96c.15-1.35.3-2.69.45-4.04.36,1.1.72,2.2,1.08,3.3,0,0,.04-.06.04-.06-.52.26-1.04.53-1.56.79Z"/><path class="cls-22" d="M1354.31,173.99c-.6-.05-1.2-.09-1.8-.14,1.06-.77,2.12-1.53,3.17-2.3.16.17.32.33.49.49l-1.86,1.95Z"/><path class="cls-15" d="M1143.77,311.25c.06.31.25.69.13.9-.13.25-.54.34-.83.5-.05-.3-.24-.67-.12-.88.14-.25.54-.36.82-.53Z"/><path class="cls-22" d="M1150.82,303.65c-.38-.04-.77-.07-1.15-.11.7-.75,1.4-1.49,2.1-2.24.17.18.35.36.53.54-.49.6-.98,1.21-1.48,1.81Z"/><path class="cls-18" d="M1163.25,302.94c-.79.53-1.31.87-1.82,1.21-.23-.36-.71-.81-.62-1.06.14-.4.62-.82,1.04-.92.3-.07.72.37,1.4.77Z"/><path class="cls-19" d="M1193.31,168.14c.1.56.19,1.12.29,1.67-.36.36-.71.71-1.07,1.07-.33-.29-.66-.58-.99-.87.59-.62,1.18-1.25,1.77-1.87Z"/><path class="cls-22" d="M1155.19,298.2c.74-.35,1.48-.7,2.22-1.05,0,0-.07-.06-.07-.06l-2.14,1.12h0Z"/><path class="cls-22" d="M1155.19,298.21c-.1.27-.2.53-.3.8l.29-.8h0Z"/><path class="cls-22" d="M1157.41,297.15c.05-.17.11-.33.16-.5-.08.15-.15.29-.23.44,0,0,.07.06.07.06Z"/><path class="cls-22" d="M1151.77,301.3c.25-.2.5-.39.75-.59-.08.37-.15.75-.23,1.12-.18-.17-.35-.35-.52-.53Z"/><path class="cls-19" d="M1139.97,202.26c-.38.37-.77.73-1.15,1.1,0,0,.08.08.08.08.38-.36.76-.73,1.15-1.09,0,0-.08-.08-.08-.08Z"/><path class="cls-22" d="M1355.69,171.55l.67-.52c-.06.34-.12.67-.18,1.01-.16-.16-.33-.32-.49-.49Z"/><path class="cls-19" d="M1190.58,170.95c.32-.31.64-.62.96-.94.33.29.66.58.99.87-.29.44-.58.87-.87,1.31-.36-.42-.72-.83-1.07-1.25Z"/><path class="cls-1" d="M1101.79,233.89c.06-.11.12-.21.17-.32-.08.09-.15.18-.23.26,0,0,.06.06.06.06Z"/><path class="cls-9" d="M1197.72,163.02c.09-.12.18-.24.28-.35-.11.1-.22.2-.33.3,0,0,.05.06.05.06Z"/><path class="cls-1" d="M1101.73,233.83c-.36.37-.72.74-1.08,1.11l.03.03c.37-.36.74-.72,1.11-1.08,0,0-.06-.06-.06-.06Z"/><path class="cls-1" d="M1100.65,234.94c-.06.27-.13.55-.19.82-.16-.11-.32-.22-.48-.33.23-.16.46-.31.7-.47,0,0-.03-.03-.03-.03Z"/><path class="cls-2" d="M1020.53,199.31c.6.01,1.21.02,1.81.03-.24.41-.49.82-.73,1.23-.36-.42-.72-.84-1.08-1.27Z"/><path class="cls-4" d="M769.15,900.03c-1.13,1.06-2.25,2.13-3.38,3.19-.41-.45-.83-.9-1.24-1.35,1.54-.61,3.08-1.23,4.62-1.84Z"/><path class="cls-4" d="M770.25,899c-.38.36-.76.71-1.14,1.07.38-.36.76-.71,1.14-1.07Z"/><path class="cls-4" d="M1127.35,213.69c-.77-1.29-1.28-2.14-2.15-3.58q2.47,1.23,2.15,3.58Z"/><path class="cls-11" d="M856.16,411.89c-.1-2.99,1.79-5.44,4.18-5.41,2.36.04,4.96,3.01,4.96,5.66,0,2.52-1.94,4.56-4.39,4.65-2.64.09-4.64-1.98-4.74-4.9Z"/></svg>