<?xml version="1.0" encoding="UTF-8"?><svg id="Layer_1" xmlns="http://www.w3.org/2000/svg" viewBox="0 0 1920 1080"><defs><style>.cls-1{fill:#1d1d1d;}.cls-1,.cls-2,.cls-3,.cls-4,.cls-5,.cls-6,.cls-7,.cls-8,.cls-9,.cls-10,.cls-11,.cls-12,.cls-13,.cls-14,.cls-15,.cls-16,.cls-17{stroke-width:0px;}.cls-2{fill:#d9ce64;}.cls-3{fill:#f4f4f4;}.cls-4{fill:#dcdb8a;}.cls-5{fill:#323232;}.cls-6{fill:#f46cc9;}.cls-7{fill:#484848;}.cls-8{fill:#c8c8c8;}.cls-9{fill:#e8e8e8;}.cls-10{fill:#fefefe;}.cls-11{fill:#55bfd5;}.cls-12{fill:#f9f9f9;}.cls-13{fill:#efa59c;}.cls-14{fill:#fff;}.cls-15{fill:#a5a4a5;}.cls-16{fill:#e5e5e5;}.cls-17{fill:#ec58d4;}</style></defs><path class="cls-14" d="M797.69,204.64c.48-3.04,2.41-4.09,5.33-4.18,35.49-1.07,70.97-3.23,106.22,3.85,7.29,1.46,15.02.91,22.45,2.56,2.74.61,4.88,1.12,5.31,4.24-7.41,1.2-14.75-4.8-25.11.36,31.81,8.33,61.05,15.98,90.29,23.64,16.53,12.77,33.06,25.55,49.6,38.31,4.17,3.21,6.61,6.89,7,12.65,1.89,27.64,7,55.2,1.93,82.96-3.14,17.24-.46,35.52-9.02,51.77-11.65,22.12-24.44,43.37-43.7,60.06-5.04,4.36-9.85,7.83-16.63,9.25-32.42,6.78-64.73,14.06-97.08,21.14-4.94,1.08-9.81,1.41-10.03,8.73-.98,32.83-2.44,65.66-3.55,98.49-.09,2.77-1.75,7.49,3.51,7.33,3.62-.11,6.73-2.18,6.98-6.82.56-10.41,1.82-20.81,2-31.22.34-20.25.38-40.52.02-60.78-.15-8.13,2.13-12.63,10.99-11.57-8.2,6.02-6.18,14.84-6.51,23.12-.91,23.08,2.02,46.22-1.94,69.27-1.65,9.6,1.02,11.2,9.95,7.73,33.93-13.2,67.38-28.15,103.49-34.45,15.89-2.77,22.39-13.58,28.59-25.94,9.58-19.09,15.18-39.54,20.96-59.95,5.05-17.83,10.14-35.65,15.21-53.48,9.11,4.12,18.77,1.07,28.11,2.18,1.43,44.21-4.8,87.5-13.8,130.71-4.08,19.61-11.92,37.56-25.87,49.84-18.62,16.39-37.71,33.69-62.69,41.08-6.9-7.27-12.49-6.37-17.16,2.49-1.13,2.15-3.16,3.83-4.78,5.72-3.73,1.06-8.01,1.31-11.08,3.35-4.88,3.24-13.6,1.25-14.44,10.14-17.44.03-34.87.06-52.31.1-11.86-4.47-13.21-3.64-13.23,8.4,0,3.23.2,6.45.31,9.68-3.3,3.98-7.62,5.83-12.7,6.12-.86-.75-1.72-1.5-2.58-2.25-.69-1.68-1.37-3.36-2.06-5.04-.18-1.59-.49-3.11-2.18-3.85-.09-.74-.17-1.47-.26-2.21.13-10.11.72-20.25.23-30.33-.37-7.61,2.2-9.88,9.79-9.77,16.2.23,32.46.67,48.58-1.69,2.25-.45,4.5-.91,6.75-1.36,10.09-.12,19.12-4.34,28.46-7.35,2.98-.96,4.93-2.58,4.27-6.07.81-.95,1.62-1.91,2.43-2.86,2.85-.08,3.06,2.2,3.69,4.12,2.25-8.95,6.76-1.93,10.41-1.54,3.38.37,3.52-2.97,4.96-4.8,1.34.32,2.8,1.17,3.99.89,19.07-4.44,34.8-15.21,49.81-27.06,19.01-15.01,29.94-36.52,34.77-58.57,4.23-19.3,4.57-40.06,6.82-60.16.7-5.07,1.41-10.13,2.11-15.2,1.95-4.13,1.29-8.49,1-12.77-.16-2.3-1.53-4.51-3.92-4.34-1.32.09-3.15,2.04-3.57,3.49-.68,2.31-.39,4.92-.51,7.4-.91,6.42-1.83,12.83-2.74,19.25-1.17,6.73-1.71,13.65-3.64,20.15-5.58,18.81-1.18,38.67-10.21,57.79-12.36,26.17-31.27,43.32-56.11,55.69-4.97-4.55-7.39-1.77-9.05,3.16-3.59,1.72-7.18,3.45-10.77,5.17-5.41,1.38-10.82,2.76-16.24,4.14-5.05-.26-10.79-1.99-12.13,5.68-1.48.05-2.97.1-4.45.15-2.82-2.9-3.66-.9-4.25,1.72-2.78.47-5.55.94-8.33,1.4-3.95-3.82-7.33-4.97-9.04,1.89-.7.68-1.4,1.35-2.1,2.03-4.33.45-8.66.89-12.99,1.34-14.57-.2-29.14-.4-43.71-.6.04-55.3.08-110.6.12-165.9,7.88-.22,15.76-.39,23.63-.66,22.58-.77,45.21,1.53,67.75-1.3.69.25,1.38.51,2.07.76,3.24,4.66,5.36,3.99,6.49-1.37,16.87-6.75,28.79-19.21,39.85-33.15,7.82-9.86,12.44-21.3,18.61-31.97.95-1.43,1.9-2.87,2.86-4.3,6.29-2.82,4.87-6.75,1.57-10.95.2-1.42.39-2.85.59-4.27,3.89-.64,3.96-3.55,3.96-6.57-.02-18.1-.02-36.19,0-54.29,0-3.05-.19-5.88-3.93-6.68-.41-.01-.8.09-1.15.31-.14-1.37-.28-2.75-.43-4.12,4.48-2.78,2.64-4-1.17-4.73-2.26-2.47-3.86-5.27-4.32-8.64,3.09-11.11,5.39-22.16-2.35-32.48-1.29.02-2.58.04-3.87.06-2.62-8.7-9.81-6.36-15.94-6.59-3.63-1.55-7.26-3.11-10.89-4.66-4.04-1.66-6.35-6.62-11.55-6.12-6.75-7.08-14.82-11.31-24.78-11.45-4.95-8.87-14.03-6.96-21.84-8.37-1.4-.96-2.79-1.92-4.19-2.88-.74-2.87-1.81-4.68-4.49-1.42-1.41-.91-2.83-1.83-4.24-2.74-.7-4.24-3.74-4.08-6.91-3.68-1.36-.03-2.72-.05-4.08-.08-1.87-1.92-4.16-2.04-6.59-1.56-5.73-.45-11.45-.9-17.18-1.36-3.25-5.73-7.11-4.58-11.18-.99-8.58-.42-17.17-.85-25.75-1.27-1.02-3.27-2.43-4.34-4.65-.82-3.57-.18-7.15-.37-10.72-.55-2-1.52-4.21-1.88-6.6-1.14-16.6-.96-33.19-1.18-49.79.12-8.19.59-12.38,7.39-18.17,11.7-3.58.73-7.02,1.65-8.19,5.79-5.78,2.68-11.86,4.85-17.26,8.14-10.55,6.42-21.54,12.61-26.05,25.33-8.02,3.07-11.62,8-8.93,17.13,1.27,4.31.18,9.32.15,14.02-2.04,11.4-4.08,22.79-6.12,34.19-7.61,37.64,2.87,67.71,34.48,91.27,22.69,16.91,47.04,30.57,71.7,43.97.85,3.43,2.19,4.63,4.57.99,2.83.81,5.66,1.63,8.48,2.44,2.62,7.43,6.75,5.41,11.14,1.78,1.36.26,2.72.53,4.08.79,4.6,7.35,9.82,5.61,15.24,1.04.7-.27,1.39-.54,2.09-.81,3.84.56,7.68,1.12,11.52,1.68-.02,28.85.05,57.69-.08,86.54-.12,27.01-.45,54.02-.69,81.02-.65.55-1.3,1.1-1.95,1.66-6.53.02-13.07.04-19.6.07-2.9-5.64-5.81-5.64-8.71,0-7.24,0-14.48,0-21.72,0-1.46-4.95-3.77-5.02-6.75-1.17-.6.24-1.09.11-1.49-.39-.76-.06-1.52-.12-2.29-.18-5.31-3.92-11.73-5.24-17.72-7.57-.76-3.17-3.07-3.32-5.67-2.89-.9.18-1.81.36-2.71.53-.9-2.39-2.8-3.05-5.13-2.95-12.16-.8-22.6-5.89-32.28-12.88-.25-5.31-3.98-4.62-7.48-4.35-13.53-9.02-27.47-17.67-32.04-34.9,3.82-2.98,1.68-3.95-1.54-4.55-3.06-3.74-4.58-8.08-4.9-12.87,3.69-4.38,4.49-8.34-1.63-11.3-.12-1.84-.24-3.68-.35-5.51,2.22.48,4.43.96,6.65,1.44,3.72,6.47,4.72,13.93,9.93,20.12,12.82,15.24,27.34,28.7,41.27,42.8,4.45,4.5,9.59,7.56,15.95,8.35,27.35,4.83,54.12,15.91,82.68,7.47-7.12-.58-14.39.24-21.39-.79-8.84-1.29-18.68.87-26.21-6.16l.21-.24c16.9,1,33.83,1.64,50.68,3.21,4.93.46,5.8-1.1,5.66-4.98-.98-26.34,1.99-52.74-1.68-79.05-1.04-7.47-.49-15.18-.44-22.77.04-6.86-3.07-9.68-9.87-11.73-27-8.13-54.26-15.83-77.29-33.44-8.79-6.72-18.06-13.06-27.86-18.15-11.14-5.78-16.41-16.9-25.01-24.94-4.64-4.34-9.34-8.92-13.58-13.61-8.12-8.97-10.77-21.3-11.24-32.75-1.11-27.4-2.03-55.04,2.18-82.21,3.05-19.69,6.44-39.85,26.81-51.63,10.16-5.88,15.06-18.13,25.05-25.14,3.74-2.62,6.52-6.49,11.43-7.4,1.02-.19,2.52-.7,2.83-1.46,8.14-20.04,25.77-11.37,39.88-13.24,2.14-.28,4.34-.1,6.51-.14.41,2.99,1.8,4.34,5.1,3.92,22.59-2.85,45.12-2.25,67.75.23,11.13,1.22,22.49.21,33.75.21.01-1.04.03-2.07.04-3.11-35.47-2.42-71.01-2.91-106.61-1.28Z"/><path class="cls-14" d="M975.82,1061.22c-11.57-19.35-15.09-41.43-21.9-62.46-9.45-29.19-5.59-59.9-12.98-89.01-3.54-13.93-10.59-23.36-27.59-28.23-23.87-6.85-46.63-5.02-70.09-3.11,2.94-6.66,9.16-6.04,14.69-6.18,11.06-.29,22.13-.08,33.31-.08-40.31-12.09-72.09,5.63-102.32,28.73-5.41,1.74-10.08,2.74-11.69,10.41-9.98,47.46-16.36,95.22-16.38,143.82,0,8.63,2.67,11.97,10.99,11.03.07,3.98-1.86,5.23-5.83,6.03-12.53,2.5-25.13,2.08-37.73,1.96-7.42-.07-10.19-2.65-9.34-11.45,1.52-15.77,1.27-31.83.42-47.69-1.4-26.26,5.24-51.39,9.01-76.96,3.82-25.93,19.16-47.86,24.64-73.2.9-4.15,5.4-6.47,9.26-8.67,9.69-5.52,18.94-11.54,25.76-20.81,4.83-6.57,12.24-10.46,19.6-12.95,12.01-4.06,22.3-11.57,34.21-15.59,5.62-1.89,3.66-6.45,3.71-10.01.32-23.14.4-46.28.55-69.42,4.28-.92,8.57-1.74,12.98-.94.09,30.29.19,60.58.25,90.88,0,4.34-2.06,8.49-2.47,12.49-.81,7.83-5.1,8.56-11.04,8.17-12.49-.83-24.29,1.19-34.87,8.34-2.33-.43-3.27,1.34-4.41,2.79-23.56,4.92-38.9,19.63-48.25,41.12-.76,1.74-3.64,5.51,1.09,7.04,3.42,1.1,5.65-.55,6.76-3.66,7.35-20.59,23.47-31.2,43.02-37.93,2.27-.34,4.49-.77,5.91-2.87,8.91-5.04,18.5-7.2,28.67-6.23,18.29,1.75,36.63,1.71,54.95,1.3,8.55-.19,16.4,1.11,23.66,5.65,11.44,8.3,22.34,17.15,29.93,29.37,3.71,10.64,2.8,22.57,9.16,32.46.78,20.86.07,41.92,2.77,62.52,2.62,20.01.86,40.69,8.14,60.06,1.21,3.21,1.49,8.5,5.97,7.4,3.79-.94,3.25-5.9,2.47-9.41-7.02-31.59-8.97-63.64-9.05-95.87-.03-9.86-2.13-19.37-4.25-28.89-1.35-10.51-3.05-20.93-7.58-30.65-6.91-14.37-18.04-24.56-31.78-32.19-5.14-4-10.19-8.16-17.19-8.3-15.19-1.77-30.42-.46-45.63-.72,4.41-38.76,1.11-77.66,2.3-116.48,1.31-.21,2.61-.42,3.92-.64,3.02,9.33,9.27,16.56,15.48,23.81.71,17.69,1.5,35.38,2.08,53.08.2,6.14,2.51,10.41,8.67,12.12,3.67,3.89,8.53,1.54,12.78,2.43.45,1.82,1.21,3.38,3.18,4.02,22.57,7.35,36.47,26.51,54.42,40.14,1.81,1.38,2.96,4.17,3.55,6.52,4.88,19.52,10.33,38.71,11.28,59.27.86,18.56,1.5,37.31,5.28,55.9,4.94,24.28,12.29,48.16,14.06,73.06-8.83,2.91-17.65,5.81-26.48,8.72ZM734.71,1052.66c.74,0,1.48-.02,2.22-.02,4.88-2.16,3.47-6.65,3.52-10.33.18-13.36-.29-26.73.14-40.08.86-27.1,3.3-53.95,13.6-79.5,2.24-5.56,3.28-11.63,4.63-17.51.46-2.01.74-4.49-2.38-4.97-2.4-.37-3.82.33-4.68,3.02-4.18,13.01-9.54,25.71-12.84,38.93-8.47,33.94-7.93,68.68-7.39,103.35.04,2.65-.72,6.03,3.17,7.13ZM725.32,1066.45c0,1.03.01,2.07.02,3.1,10.66.39,21.33,1.2,31.93-3.1h-31.95Z"/><path class="cls-14" d="M691.15,552.55c-2.22-.48-4.43-.96-6.65-1.44-2.03-5.36-3.92-10.79-6.17-16.05-1.06-2.47-2.42-6.48-5.9-4.23-2.11,1.36-4.62,4.64-1.87,8.38,4.29,5.83,4.27,12.94,5.1,19.73,3.33,27.22,14.72,49.99,38.39,64.77,36.21,22.61,74.81,38.42,118.61,37.31,5.79-.15,11.62.35,17.38-.12,6.86-.56,9.78,1.44,9.33,8.94-.56,9.36.12,18.8.26,28.21-.19.69-.37,1.37-.56,2.06-4.4,1.64-8.79,3.27-13.19,4.91-.94-7.46,2.87-16.7-1.75-21.97-4.01-4.57-13.07-.79-20.07-1.8-33.82-4.88-66.88-11.91-97.96-26.59-.09-2.52.31-5.49-2.09-6.99-11.53-7.23-21.43-17.15-34.85-21.29-5.8-9.82-12.35-19.29-17.19-29.57-4.94-10.51-2.28-22.55-4.45-33.79-2.8-14.46-2.43-29.13-1.78-43.85.23-5.15,1.42-7.39,6.26-7.82.72-.06,1.45.03,2.16-.08,18.27-2.64,18.65-2.78,24.86,14.27,3.89,10.69,6.9,21.77,9.38,32.88,1.07,4.79,3.97,7.49,6.89,10.57,3.2,3.38,7.26,6.24,6.41,11.8-9.93-7.08-16.91-15.74-19.5-28.34-2.2-10.72-6.73-20.97-10.33-31.39-1.21-3.5-1.53-9.24-7.12-6.95-4.6,1.87-2.53,7-1.62,10.59,2.4,9.35,6.94,18.1,8.03,27.84Z"/><path class="cls-3" d="M1187.88,798.41c6.71-4.53,1.6-11.93,4.26-17.61,1.9-4.06,2.39-8.78,3.51-13.2,6.65-8.18,10.54-18.66,20.21-24.37.11-.06-.46-1.26-.7-1.93,1.33-.63,2.67-1.27,4.01-1.9.74,5.17,4.79,5.98,8.87,6.75h.05c1.15,2.78,3.21,4.29,6.21,4.53l.09.03c.2,5.36-.13,10.88,4.53,14.89.06,1.44.12,2.87.18,4.31,1.76,6.41,2.18,13.5,8.88,17.39-.06,1.77.15,3.43,1.78,4.54,1.02,6.56,5.19,8.75,11.4,8.53,3.91-.14,8.06-.62,11.71.42,10.44,2.96,13.7-2.17,14.07-11.3l-.05.07c2.38-.13,4.21-.97,4.08-3.74-.12-2.49-2.01-2.49-3.84-2.45,6.17-17.05,31.31-29.55,47.3-23.13,7.29,2.93,13.95,8.27,14.11,16.32.33,16.86,2.66,34.28-6.87,49.88-.96-.78-1.92-1.56-2.88-2.34,7.14-12.94,4.2-27.54,6.56-41.27,1.57-9.14-5.73-14.32-12.97-18.19-5.47-2.92-15.94-1.4-21.3,2.47,15.4,1.84,19.83,6.63,19.33,22.53-.34,10.8-1.71,21.56-2.62,32.34-5.74-.65-11.48-1.31-17.23-1.96,2.15-10.2,6.72-19.93,6.28-30.63-.11-2.68,1.47-6.4-1.92-7.82-4.15-1.73-5.53,2.43-7.25,4.88-7.25,10.29-12.22,22.13-21.16,31.29-1.56.1-3.13.2-4.69.3-9.02-5.68-19.01-7.79-28.78-3.84-6.94,2.8-9.68.73-11.83-5.12-8.12-14.73-15.82-29.63-19.33-46.28-.38-1.8-.87-3.67-3.11-3.75-2.88-.1-3.31,2.1-3.58,4.32-1.75,14.16-3.51,28.32-5.27,42.48-.31,2.53-.98,5.25,3.02,5.33.4,4.06-4.02,5.82-4.49,9.46-3.66,1.55-7.32,3.1-10.99,4.65-2.88-.96-6.33-.28-8.63-2.95-.32-7.96-.64-15.93-.95-23.89Z"/><path class="cls-8" d="M1141.06,1056.74c-7.67,12.57-20.01,16.34-32.86,8.65-6.9-4.13-11.69-3.27-18.77-.18-12.12,5.29-24.31,3.69-35.19-5.39-11.63-9.7-15.37-22.02-11.98-35.95,3.37-13.89,7.78-27.75,16.47-39.49,6.6-8.92,6.64-15.65-.13-25.83-14.72-22.16-12.63-46.43-1.86-70.04,2.54-5.56,6.1-10.64,9.14-15.97,2.79-4.89,3.03-9.41,1.19-15.25-4.35-13.74-8.71-27.19-16.26-39.74-3.89-6.46-9.1-9.97-15.21-10.56-14.48-1.42-29.09-2.76-43.69-1.31-10.31,1.02-29.11-8.74-32.62-18.44-7.68-21.18-2.42-48.66,19.32-61.85,2.8-1.7,5.75-3.08,7.38-6.12,5.62-.42,11.83,2.79,17.44-2.58-7.32-2.99-14.89.98-21.2-3.24,5.56-.04,11.12-.08,16.68-.12,5.57.23,11.13.45,16.7.68,3.07,8.25,7.81,1.27,11.78,1.29,9.55,6.58,20.94,7.91,31.68,11.08,5.11,9.52,12.56,16.99,20.87,23.7,3.29,8.16,10.93,13.25,14.86,20.92,10.05,19.6,19.36,39.5,23.31,61.42,1.25,6.93,5.43,10.62,12.31,11.47-6.36,6.58-10.91,5.58-13.8-3.38-4.62-14.34-8.52-28.89-14.41-42.81-8.67-20.48-18.91-39.67-37.71-53.04-11.73-8.33-25.41-11.83-38.43-17-22.08-8.78-49.73-2.1-60.39,18.98-6.81,13.47-9.03,28.34-.31,41.25,8.03,11.88,21.71,11.43,34.62,9.15,8.66-1.53,17.54-1.88,25.91-.47,10.46,1.76,20,5.46,27.14,15.45,11.08,15.5,14.54,33.53,20.44,50.78,1.58,4.62-.74,8.72-3.83,12.83-16.57,22.01-24.98,62.55-1.38,88.2,3.92,4.26,3.5,8.41.08,13.57-7.57,11.43-14.28,23.46-18.64,36.58-3.51,10.56-3.58,21.78-1.05,32.08,3.38,13.74,22.63,16.96,36.38,6.88,5.11-3.74,8.69-6.19,14.51-.08,10.9,11.44,25.24,7.48,30.77-7.88,1.09-3.03,2.57-5.04,5.44-6.17,1.32,3.51,1.28,6.91-.66,10.22-4.38,7.48-.13,8.32,5.97,7.72Z"/><path class="cls-15" d="M904.2,515.4c-8.86-1.06-11.14,3.44-10.99,11.57.37,20.25.32,40.52-.02,60.78-.17,10.42-1.44,20.81-2,31.22-.25,4.64-3.36,6.7-6.98,6.82-5.26.17-3.6-4.55-3.51-7.33,1.11-32.83,2.57-65.65,3.55-98.49.22-7.31,5.09-7.65,10.03-8.73,32.35-7.09,64.66-14.37,97.08-21.14,6.79-1.42,11.6-4.88,16.63-9.25,19.25-16.68,32.05-37.94,43.7-60.06,8.56-16.25,5.88-34.53,9.02-51.77,5.06-27.77-.05-55.33-1.93-82.96-.39-5.76-2.83-9.43-7-12.65-16.54-12.76-33.07-25.54-49.6-38.31,0-1.37.01-2.75.02-4.12,4.52-.69,8.47,1.63,12.71,2.42.71.66,1.43,1.31,2.14,1.96,3.75,4.42,6.86,9.63,13.26,10.79.76.68,1.52,1.36,2.28,2.04,1,3.11,3.25,4.44,6.4,4.48.76.68,1.51,1.36,2.27,2.05,5.06,5.31,10.2,10.53,17.29,13.18.76.68,1.52,1.35,2.29,2.03,3.47,6.11,10.92,10,10.61,18.21-.57,15.15,1.81,30.18,2.03,45.24.26,18.67-1.25,37.37-2,56.06-.26.49-.36,1.01-.3,1.56-5.05,1.85-3.94,6.24-3.9,9.98.07,6.43-.17,12.77-2.28,18.91-.27.46-.4.96-.37,1.51-5.13,2.1-5.93,6.64-6.41,11.36-2.51,2.18-3.71,5.07-4.45,8.21-2.52.72-4.02,2.25-4,5-.27.47-.4.97-.37,1.52-4.95,4.24-7.8,9.92-10.71,15.57,0,0-.02.01-.01.02-5.55,1.81-9.43,5.21-10.64,11.16-5.05,5.04-10.1,10.07-15.15,15.11-7.08.93-14.71.07-20.19,6.2-.55-.05-1.07.05-1.55.31-9.35.16-18.98-.88-26.71,6.21-.55-.05-1.06.05-1.55.31-18.9-1-36,8.39-54.53,9.58-.93.06-1.74,2.05-2.61,3.15-.54-.02-1.06.08-1.56.3Z"/><path class="cls-11" d="M592.36,666.93c-8.99,11.08-13.48,24.56-19.76,37.08-5.34,10.64-19.51,16.95-30.78,13.48-6.34-1.95-4.07-7.06-3.21-10.76,2.59-11.25,5.05-22.46,4.74-34.09-1.28-8.68-2.55-17.37-3.83-26.05,9.21-4.18,14.62-9.83,7.84-20.21-.2-2.36-.39-4.72-.59-7.08.4-1.39.36-3.28,1.27-4.1,9.32-8.34,5.75-14.4-3.07-19.99-2.39-1.52-4.28-3.89-6.24-6.02-7.18-7.81-6.81-11.24,1.76-17.28,5.9-4.16,11.83-8.28,17.74-12.42,1.13-.87,2.27-1.73,3.41-2.6,2-1.83,3.99-3.66,5.98-5.48,1.98-.7,2.98-2.24,3.51-4.17,3.6-3.28,10.53-5.51,8.69-11.12-1.99-6.07-8.89-1.84-13.5-2.89-.34-.08-.72,0-1.08,0-3.52-3.39-2.53-8.02-3.34-12.16.14-2.59.28-5.18.42-7.77.36-1.77.71-3.53,1.07-5.3,1.55-15.9,15.92-12.08,24.73-14.3,8.91-2.25,13.31,7.49,17.47,14.53-.24.83-.49,1.67-.75,2.52-.32.29-.63.57-.95.85-1.3-.96-2.6-1.93-3.91-2.89-.59-.7-1.18-1.4-1.78-2.11-1.87-5.71-6.11-10.68-11.56-7.58-5.6,3.18-16.9-3.65-17.03,9.15,0,0,.04,0,.04,0-1.29,3.55-2.57,7.1-3.86,10.64-.18,3.8-1.9,8.53,4.66,8.54,6.35.01,12.92.01,14.96,7.65,2.04,7.64-4.91,10.47-9.03,14.72-1.26,1.3-2.58,2.54-3.86,3.79-2.51,2.66-5.02,5.34-7.54,8.02-1.52,1.27-3.05,2.55-4.57,3.82-26.08,15.61-28.67,12.63-4.3,32.45.25.2.69.16,1.03.23,1.62,1.04,3.24,2.08,4.86,3.12,3.07,3.28.78,5.32-1.19,8.19-4.87,7.09-10.13,14.27-5.72,23.89.9,1.97.77,6.2-.5,7.1-10.63,7.54-4.72,18.02-5.4,27.28-.14,1.55-.29,3.1-.44,4.65,0,1.51,0,3.02.02,4.54-1.66,9.57-3.39,19.13-4.92,28.72-.48,2.98-2.07,7.04,3.26,7.26,6.55.27,14.25.32,17.74-5.59,6.5-10.99,12.84-22.3,15.62-35.06l-.08.05c1.76.14,2.47-1.14,3.2-2.37,1.11-1.95,2.23-3.9,3.34-5.86,3.94-4.56,7.24-9.53,9.39-15.2.74-1.25,1.48-2.5,2.23-3.75,3.53-4.99,6.96-10.06,10.66-14.92,1.48-1.95,3.39-4.05,6.36-2.62,2.22,1.07,2.67,3.24,2.74,5.47.07,2.52.28,5.06.05,7.56-.6,6.53.62,10.8,8.61,11.74,17.19,2.02,15.95,15.48,16.1,27.81-1.33,1.55-1.23,3.29-.72,5.09-1.16,12.58-3.07,25.24,3.83,36.99-14.23,17.63-17.52,40.11-26.61,60.02-1.13,2.48-1.02,6.88-4.55,6.43-4.33-.56-3.07-5-2.88-7.93,1.03-16.38.59-32.98,16.22-44.56,5.83-4.32,5.25-13.09,6.64-20.13,1.43-1.39,1.52-3.06,1.04-4.85.42-10.72.85-21.44,1.27-32.16,1.36-1.78,1.23-3.68.5-5.64,2.54-10-2.69-14.4-11.6-16.31-4.46-.96-8.86-2.2-13.29-3.32v-.03c.01-5.72.01-11.43.01-18.12-5.95,3.48-7.4,8.27-9.62,12.48-.71,1.36-1.43,2.72-2.13,4.08-3.21,3.09-5.21,6.92-6.72,11.05-.7,1.27-1.41,2.53-2.11,3.8ZM625.66,748.33c-10.37,5.13-7.12,13.69-7.17,21.15,3.23-6.4,7.38-12.49,7.17-21.15Z"/><path class="cls-15" d="M1002.3,1052.5c-1.77-24.9-9.12-48.78-14.06-73.06-3.78-18.59-4.42-37.34-5.28-55.9-.95-20.56-6.4-39.75-11.28-59.27-.59-2.35-1.74-5.15-3.55-6.52-17.95-13.63-31.85-32.79-54.42-40.14-1.97-.64-2.73-2.2-3.17-4.02.1-.77.19-1.55.29-2.32,2.09.11,4.17.23,6.26.34.46,1.83,1.49,3.11,3.39,3.57.08,1.3.28,1.61.68.08,1.6.27,3.19.54,4.79.81,1.72,2.18,4.15,1.91,6.5,1.88,10.89,8.67,21.79,17.34,32.68,26,.79,1.76,2.35,2.26,4.08,2.49,2.54,6.11,8.1,9.13,13.05,12.78.09,2.11.19,4.22.28,6.34-2.94,2.54-2.62,6.03-1.57,8.92,4.81,13.22,6.39,26.8,6.29,40.8-.03,4.17.33,9.51,5.99,11.31,4.23,13.52,1.29,27.44,2.29,41.14-2.7,4.31-4.36,8.43,2.1,10.99,4.5,22.35,9.01,44.69,13.51,67.04-.78,3.02-1.56,6.05-2.34,9.07-1.55.24-3.1.49-4.64.73-.62-1.02-1.24-2.03-1.86-3.05Z"/><path class="cls-15" d="M771.86,1066.13c-8.32.94-10.99-2.4-10.99-11.03.02-48.59,6.41-96.36,16.38-143.82,1.61-7.67,6.28-8.67,11.69-10.39.3,1.38.6,2.75.9,4.12-.76.75-2.05,1.41-2.19,2.27-3.84,22.2-9.97,44.07-9.64,66.86-.25.5-.36,1.02-.32,1.58-5.56,2.22-3.83,7.14-3.86,11.15-.19,26.16-.2,52.32-.27,78.48-.64.09-1.2.35-1.69.78Z"/><path class="cls-3" d="M1147.03,744.96c.43,9.81,3.86,19.33,2.87,29.29-6.59-.04-5.29,5.31-3.11,7.07,6.13,4.94,11.16,12.11,20.37,12.21,15.53.16,15.83.57,15.3,15.69-1.96-.67-5.36-3.85-4.08,1.79.6,2.63,2.72,4.92,4.15,7.36.01,2.23.02,4.46.03,6.69-8.95-6.81-18.47-12.99-24.54-22.88,5.57.73,11.13,1.45,17.76,2.32-3.04-4.36-6.76-6.17-10.56-6.14-11.27.11-18.46-7.39-26.46-13.37-3.4-2.54-4.96-7.21-9.5-8.56-4.09-10.96-14.01-18.76-16.56-30.55,11.41-1.76,22.77-5,34.33-.91Z"/><path class="cls-15" d="M1343,934.96c-.66.64-1.32,1.27-1.98,1.91-4.33.05-6.59,2.39-7.24,6.52-2.8,0-5.45.49-7.54,2.56-1.63.11-3.26.24-4.89.37-1.69-3.77-.09-5.69,3.33-7.57,5.05-2.79,8.66-7.82,7.48-13.33-1.72-8.03,1.01-14.3,4.73-20.7.56-.22,1.12-.39,1.71-.53,4.34.43,6.56-1.67,6.69-5.89.14-4.56-3.21-4.61-6.44-4.68-.06-11.54-.12-23.07-.17-34.61.8-.06,1.59-.12,2.39-.18,4.34,5,1.24,11.01,2.28,16.45,1.01,5.27-3.09,14.53,2.81,15.08,7.94.73,4.95-9.13,6.73-14.41,10-10.73,9.84-17.59-.54-23.25-.96-2.03-1.92-4.05-2.89-6.08.84-.35,1.68-.71,2.52-1.06,2.23-.83,4.46-1.67,6.7-2.5,2.02,1.03,4.04,2.05,6.06,3.08-.3,5.61,5.36,9.34,4.76,15.05-2.77,2.21-2.78,4.39.07,6.54,0,1.46.01,2.93.02,4.39-2.25,2.82-4.5,5.63-6.75,8.45-7.04,7.32-4.59,17.85-8.83,26.12,0,0,.07-.08.07-.07-3.12.13-5.38,1.5-6.52,4.51h-.97s-.96.14-.96.14c-2.9.27-5.34.8-2.3,4.27-.11,6.47-.22,12.95-.33,19.42Z"/><path class="cls-15" d="M1278.34,1044.01c-2.92,2.85-5.83,5.7-8.75,8.55-3.89.29-6.81,6.13-11.89,1.92,1.43-3.1,6.09-4.45,4.91-8.76,0,0,.1-.04.1-.04,9.39-1.84,7.65-8.51,6.47-14.93-.12-1.45-.25-2.89-.37-4.34,1.74-6.55,3.63-13.14-4.3-17.29-.04-2.03-.08-4.06-.11-6.09.92-3.42,1.31-6.57-3.55-7.1-.02-1.43-.05-2.86-.07-4.29,3.1-2.58,2.19-5.6,1-8.7-1.99-5.16-3.91-10.35-5.86-15.53l.16-.17c5.89-.03,6.05-4.35,6.4-8.53l.13-.07c7.96-2.64,7.19-8.86,6.24-15.17l.22-.19c4.8-1.89,8.19-5.03,9.09-10.34h0c4.61,1.05,8.56-3.9,13.36-1.55-.89,1.97-1.74,3.85-2.59,5.74-2.2,2.19-4.41,4.38-6.61,6.57-5.62,1.75-4.92,5.02-2.12,8.8-.04,1.41-.08,2.83-.12,4.24-1.36.76-2.72,1.53-4.08,2.29-3.2.2-4.46,1.83-3.66,4.98-.11.57-.3,1.12-.57,1.63-2.85.22-5.36.64-2.46,4.22.02,1.46.04,2.93.05,4.39.73,15.56,4.94,30.14,12.39,43.8,0,0,.64-.26.64-.26.05,7.23.1,14.46.15,21.68,0,0-.56-.31-.56-.3-2.82.41-3.99,2.06-3.64,4.85Z"/><path class="cls-15" d="M691.15,552.55c-1.09-9.75-5.63-18.49-8.03-27.84-.92-3.59-2.98-8.72,1.62-10.59,5.59-2.28,5.91,3.46,7.12,6.95,3.6,10.42,8.13,20.67,10.33,31.39,2.59,12.6,9.56,21.26,19.5,28.34.68.75,1.36,1.49,2.03,2.24.04,3.17,1.4,5.41,4.53,6.39.73.73,1.47,1.46,2.2,2.19,8.32,10.55,17.94,19.77,28.43,28.12-.2,1.36-.4,2.71-.59,4.06-6.36-.79-11.49-3.84-15.94-8.35-13.92-14.1-28.45-27.56-41.27-42.8-5.21-6.19-6.21-13.65-9.93-20.12Z"/><path class="cls-8" d="M1113.23,506.9c-.65,28.65-7.2,56.51-14.97,83.65-6.65,23.24-23.35,40.97-43.48,54.86-15.41,10.63-31.13,20.61-49.1,26.45-1.21-1.28-2.42-2.56-3.63-3.84,20.66-5.47,38.03-17.15,54.31-30.2,15.75-12.62,30.62-27.53,37.36-46.41,8.4-23.51,11.54-48.72,12.78-73.89.22-4.39.48-8.78,5.44-10.78.42.07.85.12,1.27.15Z"/><path class="cls-8" d="M1156.24,1013.34c-.39,3.69-2.17,6.17-5.98,6.88-.06-4.19-.35-8.39-.12-12.57.34-6.27-2.76-8.08-8.37-7.13-4.39-3.78-1.1-4.54,2.06-4.62,6.82-.16,13.67.32,20.48.05,5.68-.22,7.61,2.11,7.41,7.65-.31,8.25-.66,16.59.13,24.79,2.38,24.71,13.28,42.37,38.84,39.2,1.05,6.02,5.56,4.82,9.13,3.76,5.03-1.51,9.78-3.93,14.65-5.96.1,3.36-1.97,5.06-4.64,6.61-20.81,12.03-51.11-.26-58.09-23.26-2.73-9-5.17-17.88-4.38-27.36.3-3.53-.74-6.37-3.97-8.18.48-2.36,3.28-5.47-1.63-6.26-5.05-.82-5.6,2.6-5.51,6.4Z"/><path class="cls-11" d="M1147.03,744.96c-11.56-4.09-22.93-.84-34.33.91-1.42.09-2.84.18-4.27.27-1.63-.07-3.26-.13-4.89-.2-5.93-.06-12.22-1.89-17,3.55-2.2.19-4.41.38-6.61.57-8.3-6.71-15.75-14.18-20.87-23.7-9.72-19.84-17.3-22.49-31.68-11.08-3.97-.01-8.71,6.97-11.79-1.29,3.84-.91,8.39-.36,10.44-5l-.09.06c1.01-.65,2.03-1.3,3.04-1.96,1.33-.79,2.66-1.57,3.99-2.36,1.84,1.18,3.69,2.33,6.04,1.78,7.58-2.96,13.45,1.11,19.43,4.73h0c2.69,6.73,4.27,14.12,10.88,18.54,1.31.7,2.62,1.39,3.93,2.09,4.91,10.37,14.26,8.97,23.17,8.75,5.07,2.08,9.67-2.63,14.71-1.03,8.31,2.31,16.27-.37,24.07-2.34,7.45-1.88,10.77.69,11.82,7.69Z"/><path class="cls-11" d="M982.22,713.46c6.31,4.21,13.88.25,21.2,3.24-5.61,5.38-11.83,2.16-17.44,2.58-9.73-2.21-19.47-4.41-29.22-6.62-1.61-1.13-3.23-2.27-4.84-3.41,0,0-.58-.44-.58-.44-1.42-11.97-8.54-14.23-19.57-13.35-11.88.95-22.42,4.74-32.73,10.02-2.13,1.21-3.55,2.96-4.02,5.42-3.95.08-7.35,1.57-10.36,4.05-2.99,1.94-5.99,3.88-8.98,5.82-1.39.46-2.77.91-4.16,1.37-1.31.21-2.61.42-3.92.63-.84-.09-1.69-.17-2.53-.25-.83-.92-1.65-1.84-2.48-2.76.19-.63.34-1.27.44-1.92,4.65-.54,10.29.7,11.29-6.33,5.07-.29,9.4-2.14,12.7-6.13,4.18-1.14,7.87-3.19,11.21-5.91,7.48-2.44,14.82-5.51,22.46-7.15,9.12-1.96,18.66-2.07,27.78-.51,6.15,1.05,2.51,10.06,7.59,13.06,1.11,1.9,2.91,1.92,4.78,1.77,2.62.89,5.24,1.78,7.86,2.68,4.04,2.89,8.71,3.72,13.5,4.15Z"/><path class="cls-16" d="M995.53,967.72c-.99-13.7,1.94-27.62-2.29-41.14-1.34-14.58-2.69-29.16-4.04-43.74,7.37,5.55,5.36,14.06,6.15,21.34,2.65,24.54,2.94,49.44,7.28,73.64,3.18,17.68,7.57,35.31,11.28,52.98,1.03,4.88.92,10,1.34,15.02-1.37-.03-2.74-.05-4.11-.08-4.5-22.35-9.01-44.69-13.51-67.04-.13-3.77,1.56-7.89-2.1-10.99Z"/><path class="cls-11" d="M665.11,712.71c-4.31,1.18-8.61,2.36-12.92,3.54-4.81-9.51,5.49-5.71,7.85-8.9,1.56-.2,3.12-.4,4.68-.6,8.93-.36,17.94.59,26.74-1.71,7.02-1.14,13.59,1.16,20.26,2.7.59,1.84,1.68,3.21,3.64,3.72,5.71,4.18,11.08,8.93,18.14,10.85,1.18,2.32,2.64,4.27,5.59,4.27l.47.38c6.03,5.95,13.27,10.06,20.88,13.59,1.38.7,2.75,1.4,4.13,2.09,5.11,4.99,13.03,5.7,17.58,11.55-8.6.74-15.29-4.43-22.73-7.32-7.69-4.53-16.14-7.86-22.68-14.22-1.68-1.27-3.36-2.54-5.04-3.79-2.24-1.5-4.49-3.01-6.74-4.52-15.56-14.76-34.19-16.35-54.06-12.6-1.93.33-3.86.65-5.79.98Z"/><path class="cls-4" d="M960.86,706.63c-1.87.16-3.67.14-4.77-1.77,4.01-5.79,8.01-11.59,12.01-17.38.63-1.46,1.28-2.91,1.92-4.37,3.25-2.58,6.78-4.94,7.75-9.4,1.62-1.89,3.65-3.57,4.78-5.72,4.67-8.86,10.26-9.76,17.16-2.49.78.84,1.56,1.68,2.34,2.52,1.21,1.28,2.42,2.56,3.63,3.84,8.9,11.29,20.38,19.83,31.2,29.05.71,1.87,1.42,3.74,2.14,5.62-2.35.56-4.2-.59-6.04-1.77-1.27-.75-2.53-1.51-3.8-2.27-6.64-6.63-13.26-13.26-19.91-19.88-11.46-11.4-19.59-11.47-30.71.86-6.48,7.19-11.84,15.4-17.71,23.15Z"/><path class="cls-12" d="M782.15,754.18c-4.55-5.85-12.47-6.56-17.58-11.56,2.72-3.36,5.53-6.29,10.1-7.45,14.17-3.58,28.25-7.52,42.36-11.32.82.8,1.64,1.59,2.46,2.38-7.2,7.06-14.12,14.44-23.02,19.5-3.23,1.84-6.29,3.93-4.45,8.5-3.3,1.34-6.6,4.64-9.86-.06Z"/><path class="cls-4" d="M951.92,709.26c1.61,1.14,3.23,2.27,4.84,3.41-9.08,8.51-16.88,18.22-26.66,26.17-8.51,6.92-17.55,10.53-28.12,11.38-1.35.03-2.7.07-4.05.1-1.36-.07-2.72-.15-4.08-.22-1.46-2.74-3.73-4.14-6.85-4.14-6.2-7.26-12.46-14.48-15.48-23.81,1.39-.46,2.77-.91,4.16-1.36,4.42,4.94,4.94,12.51,11.02,16.32,2.3,4.69,6.47,6.2,11.28,6.63,4.11,1.59,8.04,1.6,12.42.22,16.64-5.27,26.88-18.2,37.65-30.56,1.29-1.38,2.57-2.76,3.86-4.14Z"/><path class="cls-15" d="M1141.75,1000.52c5.62-.95,8.72.86,8.38,7.13-.23,4.17.06,8.38.12,12.57-.87,8.59-1.74,17.18-2.61,25.77-1.78.89-2.19,2.46-2.13,4.27-.41,2.89-1.59,5.27-4.45,6.49-6.1.61-10.35-.24-5.97-7.72,1.94-3.31,1.98-6.71.67-10.21-.29-3.36-.58-6.73-.88-10.1,4.37-1.24,5.31-3.37,1.7-6.65.15-1.41.29-2.82.44-4.24,2.63-.29,4.18-1.62,4.23-4.39.56-4.29,2.9-8.5.5-12.9Z"/><path class="cls-15" d="M1239.07,769.88c-.06-1.44-.12-2.87-.18-4.31,4.72-6.86.85-11.1-4.53-14.89,0,0-.09-.03-.09-.03.39-4.89-2.95-4.65-6.21-4.51,0,0-.05-.01-.05-.01-.2-3.38,3-4.47,4.5-6.71,1.46,0,2.93-.02,4.39-.03,3.51,2.99,7.01,5.97,10.52,8.96.12,1.75.53,3.34,2.27,4.22.38,1.34.76,2.69,1.13,4.03-.04,1.39-.07,2.78-.11,4.17-.93,3.27-.96,6.16,3.14,7.25.14,1.35.28,2.69.42,4.04.12,5.35-.3,10.95,6.28,13.23.95,2.01,1.9,4.01,2.85,6.02-4.15,11.47-9.19-1.78-13.67.49-1.63-1.11-1.83-2.78-1.78-4.54,1.42-8.03-1.91-13.64-8.88-17.39Z"/><path class="cls-4" d="M1073.25,731.9c-1.31-.7-2.62-1.39-3.93-2.09-1.77-7.27,3.29-18.54-10.88-18.54,0,0,0,0,0,0,.2-1.99.39-3.98.59-5.97,8.33-.07,18.01-2.23,16.53,11.83,14.52-6.98,14.02-6.73,20.43,5.99,3.34,6.63,7.2,13.7,15.15,16.5-5.06-1.6-9.65,3.11-14.73,1.03.51-1.29,1.84-3.02,1.42-3.81-3.42-6.32-5.94-15.93-11.13-17.77-6.04-2.13-9.65,7.46-13.45,12.82Z"/><path class="cls-16" d="M778,974.14c-.33-22.8,5.8-44.67,9.64-66.86.15-.86,1.44-1.52,2.19-2.27,4.69-2.4,9.34-4.93,14.11-7.17,8.86-4.15,15.84-12.23,26.46-12.69-5.6,6.55-13.11,10.47-20.77,13.58-16.66,6.76-20.5,21.06-22.73,36.47-1.69,11.68-3.06,23.41-4.54,35.13-.33,2.63-1.96,3.64-4.37,3.82Z"/><path class="cls-8" d="M830.4,885.15c-10.62.46-17.6,8.54-26.46,12.69-4.78,2.24-9.42,4.77-14.11,7.17-.29-1.37-.59-2.73-.89-4.12,30.22-23.12,62.01-40.84,102.32-28.75-11.17,0-22.25-.2-33.31.08-5.53.14-11.74-.48-14.69,6.18-.63.14-1.26.26-1.89.36-2.72-.15-4.24,1.19-4.78,3.79-2.29.33-4.72.32-6.19,2.59Z"/><path class="cls-9" d="M1071.48,389.45c.75-18.69,2.26-37.39,2-56.06-.21-15.06-2.6-30.09-2.03-45.24.31-8.21-7.14-12.1-10.61-18.21,11.97.88,14.51,10.4,14.83,19.11,1.14,31.08,4.67,62.2.35,93.32-.45,3.24.13,6.73-4.54,7.07Z"/><path class="cls-4" d="M817.02,723.86c-14.11,3.8-28.19,7.74-42.36,11.32-4.56,1.15-7.38,4.08-10.1,7.45-1.38-.69-2.75-1.39-4.13-2.09,4.87-10.8,16.95-8.68,24.92-13.93,3.99-.79,7.98-1.59,11.97-2.38,2.52-.16,5.26.44,7.02-2.17l-.12.06c6.64-.49,12.77-2.39,18.07-6.57,3.72-.82,7.88-.68,10.12-4.68,4.48-1.95,8.96-3.9,13.45-5.85,4.4-1.63,8.8-3.27,13.2-4.9,2.17.67,1.9,2.82,2.64,4.36-8.7,2.54-16.98,6.05-24.7,10.83-4.72,1.63-9.85,2.47-13.11,6.88h.02c-2.57-.54-4.94-.28-6.9,1.67Z"/><path class="cls-8" d="M1102.07,443.88c-9.34-1.11-19.01,1.94-28.11-2.18,2.91-6.25,8.64-4.23,13.35-4.19,32.19.34,27.39-4.7,27.72,27.08.13,11.91-.04,23.82-.08,35.73-.76,0-1.52,0-2.28,0-2.92-3-1.76-6.77-1.79-10.23-.12-13.62-.06-27.23-.04-40.85,0-6.61-1.9-10.02-8.77-5.35Z"/><path class="cls-8" d="M1002.2,230.99c0,1.37-.01,2.75-.02,4.12-29.24-7.65-58.48-15.31-90.29-23.64,10.36-5.16,17.7.83,25.11-.36,1.3.19,2.59.39,3.89.58.51.93.89,2.59,1.55,2.71,18.58,3.43,36.12,11.65,55.35,12.04,0,0,0,.01,0,.01,1.47,1.51,2.93,3.03,4.4,4.54Z"/><path class="cls-11" d="M792.01,754.24c-1.84-4.57,1.22-6.66,4.45-8.5,8.9-5.06,15.83-12.44,23.02-19.5,1.99-.8,4.12-1.44,4.44-4.06,0,0-.02,0-.02,0,12.37.72,24.68.12,36.93-1.76-.22,2.12-.45,4.25-.67,6.37-.49.26-.84.14-1.06-.37-4.41-.81-8.7.02-12.98.94-14.09-1.86-25.4,2.23-34.98,13.43-4.91,5.74-12.67,9.05-19.14,13.45Z"/><path class="cls-6" d="M832.43,710.87c-2.24,4-6.4,3.86-10.13,4.68-7.01-.5-13.14,1.36-18.07,6.57,0,0,.12-.06.12-.06-2.55.06-5.16-.09-7.02,2.17-3.99.79-7.98,1.59-11.98,2.38-15.27.11-30.53.23-45.79.34,0,0-.47-.38-.47-.38.08-1.12.17-2.24.25-3.36,11.19-.15,22.37-.47,33.56-.39,12.15.09,23.48-2.51,34.41-7.96,7.78-3.87,16.24-5.87,25.12-3.99Z"/><path class="cls-11" d="M1182.45,809.22c.54-15.12.23-15.53-15.3-15.69-9.21-.1-14.23-7.27-20.37-12.21-2.18-1.76-3.48-7.11,3.11-7.07,4.79,10.22,12.43,16.17,24.1,15.94,6.37-.13,12.61-.2,13.89,8.21.31,7.97.63,15.93.95,23.89-2.09.86-4,1.54-4.11-1.97-.09-3.07.49-6.29-1.55-9.04-.24-.69-.48-1.38-.72-2.07Z"/><path class="cls-16" d="M773.55,1065.35c.07-26.16.08-52.32.27-78.48.03-4.01-1.7-8.93,3.86-11.15.15,27.58.31,55.17.47,82.75.02,3.31.15,6.73-4.59,6.87Z"/><path class="cls-4" d="M636.05,711.09c.48,1.79.39,3.47-1.04,4.85-9.79.23-13.57-4.75-13.02-14.24.42-7.21-.26-14.49.19-21.69.32-5.27-2.09-8.95-5.18-12.57-1.35-1.42-2.71-2.84-4.07-4.26-2.54-5.16-7.64-7.61-11.76-11.1.71-1.36,1.43-2.72,2.14-4.08,3.21,1.88,6.41,3.76,9.62,5.64,0,0-.01.03-.01.04,1.59,5.01,5.67,8.18,8.88,11.99,1.68,2.34,3.35,4.68,5.03,7.02-.16,9.76-.12,19.52-.56,29.26-.33,7.22,2.9,9.96,9.77,9.15Z"/><path class="cls-4" d="M563.4,508.01c-.35,1.77-.71,3.53-1.06,5.3-4.99.32-7.57,4-9.46,7.75-3.73,7.38-5.81,15.38-4.98,23.7.8,7.98,10.52,6.51,13.75,12.12-1.14.87-2.28,1.73-3.42,2.6-7.1-4.47-19.29-5.25-15.81-18.07,3.54-13.04,1.47-30.19,20.98-33.4Z"/><path class="cls-6" d="M665.11,712.71c1.93-.33,3.86-.65,5.8-.98,1.54,2.1,3.48,4.09,6.15,3.73,16.97-2.3,32.23,4.33,47.9,8.87,2.25,1.51,4.5,3.02,6.74,4.52-4.75,2.82-8.92.54-13.27-1.29-12.33-5.2-24.86-9.56-38.6-8.13-6.22.65-11.39-1.03-14.72-6.73Z"/><path class="cls-4" d="M598.58,645c-.74,1.25-1.48,2.5-2.23,3.74-13.63-.94-15.37,11.32-21.19,19.06-8.03,5.99-16.77,7.79-26.38,4.46.15-1.55.29-3.1.43-4.65,13.93,2.26,23.71-2.24,30.24-15.61,3.32-6.79,9.64-13.23,19.12-7.01Z"/><path class="cls-3" d="M660.04,707.35c-2.36,3.19-12.65-.61-7.85,8.9-.44,3.55-2.4,5.54-5.99,5.87-6.89-11.75-4.99-24.41-3.83-36.98,5.89,7.41,11.77,14.81,17.66,22.21Z"/><path class="cls-8" d="M1262.61,1045.72c1.18,4.31-3.48,5.66-4.91,8.76,5.08,4.22,8-1.63,11.89-1.92-2.97,12.2-13.62,9.36-21.56,9.89-3.65.24-7.51.45-11.27.76-.75-3.47-1.5-6.95-2.25-10.42,10.24,1.11,19.57-1.41,28.11-7.06Z"/><path class="cls-15" d="M1234.5,1052.78c.75,3.47,1.5,6.95,2.26,10.42-.77.73-1.53,1.46-2.3,2.19-4.87,2.03-9.63,4.45-14.65,5.96-3.56,1.07-8.08,2.27-9.12-3.76,5.5-4.09,13.37-5.04,15.15-13.94,1.06-5.29,5.49-2.83,8.67-.87Z"/><path class="cls-3" d="M689.15,626.39c13.42,4.14,23.32,14.06,34.85,21.29,2.4,1.51,2,4.47,2.09,6.99-12.55-4.83-22.2-14.27-33.57-20.97-3-1.77-3.63-4.24-3.37-7.32Z"/><path class="cls-8" d="M989.2,882.84c1.35,14.58,2.69,29.16,4.04,43.74-5.66-1.8-6.02-7.13-5.99-11.3.1-14-1.48-27.58-6.29-40.8-1.05-2.89-1.37-6.38,1.57-8.92,5.02,3.1-1.1,11.26,6.09,13.38.2,1.3.4,2.61.59,3.91Z"/><path class="cls-8" d="M1341.07,858.85c-.8.06-1.59.12-2.39.18-3.69-8.71,1.22-20.98-10.84-26.24.15-2.83.3-5.65.45-8.48,3.49-.08,6.98-.15,10.47-.23.96.78,1.92,1.56,2.88,2.34-.12.61-.24,1.23-.35,1.85,0,6.64.02,13.27.03,19.91-.09,3.55-.18,7.11-.27,10.66Z"/><path class="cls-9" d="M905.76,515.1c.87-1.09,1.68-3.09,2.61-3.15,18.54-1.2,35.63-10.58,54.53-9.58-.6,1.22-1.15,3.49-1.81,3.53-18.81.92-36.02,11.48-55.33,9.21Z"/><path class="cls-4" d="M739.33,723.21c-.08,1.12-.17,2.24-.25,3.36-2.95,0-4.42-1.94-5.6-4.27q-2.34-18.02-18.14-10.85c-1.96-.51-3.04-1.88-3.64-3.72q23.52-10.67,27.62,15.47Z"/><path class="cls-16" d="M897.94,750.32c1.35-.03,2.7-.07,4.05-.1-.36,18.22,3.74,36.26,2.25,54.53,0,0-.35.35-.35.34-2.8-.86-4.05-2.84-3.81-5.67,1.42-16.46-2.83-32.67-2.14-49.1Z"/><path class="cls-9" d="M997.8,226.43c-19.23-.39-36.77-8.61-55.35-12.04-.66-.12-1.04-1.77-1.55-2.71,15.6-.5,29.33,7.54,44.34,9.93,4.11.65,10.74-2.64,12.56,4.82Z"/><path class="cls-4" d="M560.44,565.36c1.52-1.27,3.05-2.55,4.57-3.82.11,5.09.21,10.19.31,15.29-.61,8.17,1.38,16.7-3.28,24.33-1.63-1.04-3.25-2.08-4.88-3.12,2.36-10.77,4.52-21.55,3.27-32.68Z"/><path class="cls-8" d="M1281.75,1018.04c-7.45-13.66-11.66-28.24-12.39-43.8.79-.01,1.58-.03,2.37-.04,1.54,5.06,3.07,10.13,4.61,15.19-.27,1.8,0,3.4,1.7,4.45.13,1.42.27,2.84.4,4.26,1.03,4.47,1.05,9.25,4.11,13.08-.26,2.29-.53,4.57-.79,6.86Z"/><path class="cls-16" d="M758.89,619.75c-10.49-8.35-20.11-17.57-28.43-28.12,5.46-.76,8.32,3.19,11.64,6.38,6.93,6.63,13.92,13.2,20.88,19.79.01.68.02,1.37.03,2.06-1.37-.03-2.75-.07-4.12-.1Z"/><path class="cls-4" d="M565.81,518.83c1.29-3.55,2.57-7.1,3.86-10.64,10.11.18,20.22.35,30.33.53,1.3.96,2.6,1.93,3.91,2.89.05.57.07,1.14.09,1.72-6.01-.05-12.03.22-18.01-.22-7.52-.55-14.43.32-20.17,5.73Z"/><path class="cls-8" d="M1288.93,937.12c.85-1.88,1.7-3.77,2.59-5.74-4.8-2.34-8.75,2.6-13.36,1.55,10.25-13.52,11.02-13.52,20.84-.13,1.68,2.29,3.52,4.46,5.29,6.69-1.5.06-2.99.12-4.49.18,0,0-.09-.11-.08-.11-1.49-2.49-2.59-6.08-6.36-2.31-1.48-.04-2.96-.09-4.44-.13Z"/><path class="cls-11" d="M603.99,513.32c-.01-.57-.04-1.15-.09-1.72.32-.28.64-.56.95-.84,1.28-.09,2.56-.18,3.84-.27l2.24.72-.1-.07c4.33,4.77,10.84,5.16,16.11,8.05,1.92,1.2,5.91.82,4.83,4.4-.73,2.41-3.71,1.7-5.66.89-7.64-3.18-15.33-6.29-22.12-11.16Z"/><path class="cls-4" d="M736.74,732.65c6.55,6.36,14.99,9.69,22.68,14.22-17.62,3.12-20.35,1.41-22.68-14.22Z"/><path class="cls-2" d="M539.52,646.59c1.28,8.68,2.55,17.36,3.83,26.05-4.98.13-8.46-1.14-7.94-7.27.67-7.89,1.01-15.82,1.5-23.73.76.78,1.52,1.57,2.28,2.35.11.86.23,1.73.34,2.59Z"/><path class="cls-3" d="M1358.69,843.07c-2.23.83-4.46,1.67-6.69,2.5-.3-4.11-3.3-3.93-6.21-3.89-.27-4.25-.53-8.49-.8-12.74,11.33-1.84,10.37,8.22,13.7,14.13Z"/><path class="cls-4" d="M664.72,706.76s.18-.98.18-.97c8.71-5.22,17.42-10.59,26.56-.74-8.8,2.31-17.81,1.36-26.74,1.71Z"/><path class="cls-6" d="M608.69,510.49c-1.28.09-2.56.18-3.84.27.25-.85.51-1.69.75-2.52,10.91-2.37,21.7-2.19,32.16,2.11,3.59,1.47,2.15,2.7-.53,3.49-8.5-3.84-17.47-3.05-26.39-2.69,0,0,.1.07.1.07-.28-1.7-1.07-1.81-2.24-.72Z"/><path class="cls-8" d="M1215.14,741.29c.25.67.81,1.87.7,1.93-9.67,5.71-13.56,16.19-20.21,24.37.73-13.05,6.14-22.62,19.5-26.3Z"/><path class="cls-8" d="M1002.3,1052.5c.62,1.02,1.24,2.03,1.86,3.04-.8,1.73-1.61,3.46-2.41,5.2-1.3.2-2.6.4-3.89.6-7.29.69-14.58,1.38-21.87,2.08-.05-.73-.11-1.46-.17-2.19,8.82-2.91,17.65-5.81,26.48-8.72Z"/><path class="cls-8" d="M1059.04,705.3c-.2,1.99-.39,3.98-.59,5.97-5.98-3.62-11.85-7.69-19.43-4.73-.71-1.88-1.43-3.75-2.14-5.62,7.56.58,16.12-3.92,22.16,4.38Z"/><path class="cls-4" d="M610.83,511.14c8.93-.36,17.89-1.15,26.39,2.69-2.24,4.03-7.33,2.61-10.26,5.36-5.29-2.89-11.81-3.28-16.13-8.05Z"/><path class="cls-9" d="M1065,419.89c2.11-6.14,2.35-12.49,2.28-18.91-.04-3.74-1.15-8.13,3.9-9.98.14,6.44.52,12.89.33,19.32-.13,4.32-.83,8.77-6.5,9.57Z"/><path class="cls-9" d="M763.01,619.85c0-.69-.01-1.37-.03-2.06,8.98-1.34,17.49,2.58,26.38,2.32,2.55-.08,3.69,1.73,4.23,3.99,0,0-.21.24-.21.23-10.3-.33-20.43-1.77-30.38-4.49Z"/><path class="cls-9" d="M1263.4,791.33c-.95-2.01-1.9-4.01-2.84-6.02.17-.83.33-1.67.5-2.5,7.67,6.45,16.78,4.37,25.55,4.36.09.79.17,1.58.26,2.37,0,0,.05-.07.05-.07-7.59,3.82-15.65,1.57-23.51,1.86Z"/><path class="cls-6" d="M565.32,576.82c-.1-5.1-.21-10.19-.31-15.29,2.52-2.67,5.03-5.35,7.54-8.01,1.03,8.84-3.23,16.03-7.22,23.3Z"/><path class="cls-4" d="M539.18,643.99c-.76-.78-1.52-1.57-2.28-2.35.16-8.83,4.34-15.88,9.87-22.34.2,2.36.39,4.72.59,7.08-4.71,4.95-4.83,12.03-8.18,17.62Z"/><path class="cls-9" d="M964.45,502.06c7.74-7.09,17.36-6.05,26.71-6.21-7.56,7.85-17.51,5.42-26.71,6.21Z"/><path class="cls-3" d="M1321.34,946.33c1.63-.13,3.26-.26,4.89-.37-.35,3.68-.7,8.02-5.98,5.61-4.8-2.19-11.68-.81-14.01-7.58,0,0,.17-.18.17-.18,4.98.84,9.95,1.67,14.93,2.51Z"/><path class="cls-3" d="M1354.01,906.7c4.24-8.27,1.79-18.8,8.83-26.12.38,9.83,0,19.41-8.83,26.12Z"/><path class="cls-6" d="M612.94,663.18c1.36,1.42,2.71,2.84,4.07,4.26-8.21-.17-16.42-.34-24.64-.51.7-1.27,1.4-2.53,2.1-3.8,6.16.01,12.31.03,18.47.05Z"/><path class="cls-16" d="M975.98,1063.41c7.29-.69,14.58-1.39,21.87-2.08-7.02,6.86-16.34,7.74-21.87,2.08Z"/><path class="cls-3" d="M1282.54,1039.47c-.05-7.23-.1-14.46-.15-21.68,6.36,5.58,6.43,15.72.15,21.68Z"/><path class="cls-3" d="M1343,934.96c.11-6.47.22-12.95.33-19.42.79.01,1.57.02,2.36.04,1.64,6.81,6.59,14.09-2.69,19.38Z"/><path class="cls-9" d="M992.71,495.54c5.48-6.13,13.11-5.27,20.19-6.2-5.01,7.66-12.73,6.52-20.19,6.2Z"/><path class="cls-9" d="M1058.55,267.91c-7.09-2.66-12.22-7.87-17.29-13.18,8.48.83,15.07,4.14,17.29,13.18Z"/><path class="cls-15" d="M1344.99,828.94c.27,4.25.53,8.49.8,12.74.02,1.32.04,2.63.06,3.95-.89,1.93-2.56,2.48-4.51,2.56-.01-6.64-.02-13.27-.03-19.91,1.23.22,2.46.44,3.68.66Z"/><path class="cls-9" d="M1250.71,760.78c.03-1.39.07-2.78.11-4.17,10.19,3.65,7.03,12.5,7.76,19.84-1.44-1.46-2.87-2.92-4.31-4.38-.14-1.35-.28-2.69-.41-4.04.61-3.14.69-6.05-3.15-7.25Z"/><path class="cls-8" d="M1232.51,739.43c-1.5,2.23-4.7,3.33-4.5,6.71-4.08-.77-8.13-1.58-8.87-6.75,4.22-2.22,8.81-2.28,13.41-2.25-.02.76-.03,1.53-.05,2.29Z"/><path class="cls-16" d="M988.61,878.93c-7.19-2.11-1.07-10.28-6.09-13.38-.09-2.11-.18-4.23-.28-6.34,7.86,4.72,6.61,12.38,6.36,19.72Z"/><path class="cls-9" d="M1038.7,463.06c2.91-5.64,5.76-11.32,10.71-15.57.3,7.84-1.49,14.26-10.71,15.57Z"/><path class="cls-9" d="M1002.2,230.99c-1.47-1.51-2.93-3.03-4.4-4.54,6.43.54,13.82-1.3,17.11,6.96-4.24-.79-8.19-3.1-12.71-2.42Z"/><path class="cls-9" d="M1030.32,246.16c-6.4-1.16-9.51-6.37-13.26-10.79,7.68-.42,11.55,3.86,13.26,10.79Z"/><path class="cls-3" d="M1369.51,861.2c.6-5.71-5.06-9.44-4.76-15.05,7.89,2.41,8.07,8.44,7.08,15.03-.78,0-1.55.01-2.32.02Z"/><path class="cls-9" d="M1028.06,474.24c1.2-5.95,5.09-9.35,10.64-11.16-.47,6.65-4.48,9.92-10.64,11.16Z"/><path class="cls-3" d="M1282.54,1011.18c-3.06-3.83-3.08-8.62-4.11-13.08,6.18,2.85,8.27,6.99,4.11,13.08Z"/><path class="cls-16" d="M1001.75,1060.73c.8-1.73,1.61-3.47,2.41-5.2,1.55-.23,3.09-.48,4.64-.72,1.42,0,2.85,0,4.28,0-1.68,5.99-6.28,6.38-11.33,5.92Z"/><path class="cls-12" d="M1156.24,1013.34c-.1-3.8.46-7.22,5.51-6.4,4.91.79,2.11,3.9,1.63,6.26-2.38.04-4.76.09-7.14.14Z"/><path class="cls-8" d="M1254.27,772.08c1.44,1.46,2.87,2.92,4.31,4.38.82,2.12,1.65,4.23,2.47,6.35-.16.83-.33,1.67-.5,2.5-6.59-2.27-6.16-7.88-6.29-13.23Z"/><path class="cls-16" d="M917.08,811.61c-2.09-.11-4.17-.23-6.26-.34-1.56-2.9-6.59-1.91-6.94-6.18,0,0,.35-.35.35-.35,4.05,2.72,11.48-.87,12.85,6.86Z"/><path class="cls-9" d="M1058.23,432.76c.48-4.72,1.28-9.26,6.41-11.36-.73,4.58.4,10.21-6.41,11.36Z"/><path class="cls-8" d="M1013.07,1054.8c-1.43,0-2.85,0-4.28,0,.78-3.02,1.56-6.04,2.34-9.07,1.37.03,2.74.05,4.12.08,0,0,.04.05.04.05-.01,2.23-.03,4.47-.04,6.7-.73.74-1.45,1.49-2.18,2.23Z"/><path class="cls-8" d="M1280.19,952.5c-2.79-3.78-3.5-7.06,2.12-8.8.07,2.94.14,5.88.21,8.82-.78,0-1.55,0-2.33-.01Z"/><path class="cls-3" d="M1333.77,943.4c.65-4.13,2.91-6.48,7.24-6.52.06,4.92-2.36,7.08-7.24,6.52Z"/><path class="cls-16" d="M1015.25,1052.57c.01-2.23.03-4.47.04-6.7,2.16.42,4.1,1.11,3.73,3.88-.28,2.15-2.06,2.48-3.77,2.82Z"/><path class="cls-9" d="M1112.67,500.31c.76,0,1.52,0,2.28,0,3.48,3.26,3,5.48-1.73,6.58-.42-.03-.85-.08-1.26-.15.24-2.15.47-4.29.7-6.44Z"/><path class="cls-8" d="M1369.51,861.2c.77,0,1.55-.01,2.32-.02,0,2.21,0,4.43,0,6.64-.75-.03-1.51-.05-2.26-.08-2.85-2.15-2.84-4.33-.07-6.54Z"/><path class="cls-16" d="M932.44,817.95c-2.36.02-4.79.29-6.5-1.88,3.55-4.13,5.61-3.16,6.5,1.88Z"/><path class="cls-8" d="M1286.87,789.54c-.09-.79-.17-1.58-.26-2.37.16-1.28.33-2.55.5-3.82,1.83-.03,3.73-.03,3.85,2.45.13,2.77-1.7,3.61-4.08,3.74Z"/><path class="cls-9" d="M1039,252.68c-3.15-.05-5.4-1.37-6.4-4.48,3.21-.04,6.33.04,6.4,4.48Z"/><path class="cls-16" d="M728.26,589.44c-3.13-.98-4.49-3.22-4.53-6.39,4.45.04,4.56,3.17,4.53,6.39Z"/><path class="cls-3" d="M1347.56,911.13c1.14-3,3.4-4.38,6.52-4.51.09,4.77-3.23,4.62-6.52,4.51Z"/><path class="cls-3" d="M1293.36,937.25c3.77-3.77,4.86-.18,6.36,2.31-2.33-.18-4.88.23-6.36-2.31Z"/><path class="cls-3" d="M1299.81,939.67c1.5-.06,2.99-.12,4.48-.18,0,0-.09-.07-.09-.07.74,1.46,1.48,2.93,2.22,4.39,0,0-.17.17-.17.18-2.99-.18-6.11-.18-6.44-4.32Z"/><path class="cls-9" d="M1049.78,445.97c-.03-2.75,1.48-4.28,4-5,.61,3.21-.69,4.91-4,5Z"/><path class="cls-3" d="M1271.73,974.2c-.79.01-1.58.03-2.37.04-.02-1.46-.04-2.93-.05-4.39.81.02,1.62.04,2.42.05,2.13,1.43,2.18,2.86,0,4.29Z"/><path class="cls-8" d="M1271.73,969.91c-.81-.02-1.61-.04-2.42-.05-2.9-3.57-.39-3.99,2.46-4.22-.01,1.42-.02,2.85-.03,4.27Z"/><path class="cls-9" d="M1232.51,739.43c.01-.76.03-1.53.05-2.29,3.42-3.03,3.92-.45,4.34,2.26-1.46,0-2.93.02-4.39.03Z"/><path class="cls-8" d="M1272.34,964.01c-.8-3.14.46-4.77,3.66-4.98.11,2.64-1.21,4.22-3.66,4.98Z"/><path class="cls-16" d="M969.2,846.44c-1.73-.23-3.28-.73-4.08-2.49,4.05-3.58,3.9-.29,4.08,2.49Z"/><path class="cls-3" d="M1278.03,993.85c-1.69-1.05-1.97-2.65-1.7-4.45,2.86.61,5.1,1.46,1.7,4.45Z"/><path class="cls-3" d="M1280.19,952.5c.78,0,1.55,0,2.33.01,3.27,3.77.33,3.96-2.45,4.23.04-1.41.08-2.83.12-4.24Z"/><path class="cls-8" d="M1145.51,1050.25c-.06-1.81.35-3.38,2.13-4.27,3.03,3.29.85,3.98-2.13,4.27Z"/><path class="cls-16" d="M836.59,882.56c.53-2.6,2.06-3.94,4.78-3.79-.34,2.84-1.81,4.26-4.78,3.79Z"/><path class="cls-3" d="M1369.57,867.74c.75.03,1.51.05,2.26.08,3.05,3.41.36,3.84-2.24,4.31,0-1.46-.01-2.93-.02-4.39Z"/><path class="cls-8" d="M1278.34,1044.01c-.35-2.79.82-4.44,3.64-4.85.7,3.05-.7,4.53-3.64,4.85Z"/><path class="cls-8" d="M1345.69,915.58c-.79-.01-1.57-.02-2.36-.04-3.03-3.47-.6-4,2.3-4.27.02,1.44.04,2.87.05,4.31Z"/><path class="cls-9" d="M1249.69,752.58c-1.73-.88-2.15-2.47-2.27-4.22,2.83.29,5.98.41,2.27,4.22Z"/><path class="cls-16" d="M921.15,815.25c-.4,1.53-.6,1.22-.68-.08,0,0,.68.08.68.08Z"/><path class="cls-5" d="M859.63,698.06c-.14-9.41-.82-18.85-.26-28.21.45-7.5-2.47-9.5-9.33-8.94-5.76.47-11.59-.03-17.38.12-43.8,1.11-82.4-14.7-118.61-37.31-23.66-14.78-35.05-37.55-38.39-64.77-.83-6.79-.81-13.9-5.1-19.73-2.75-3.74-.24-7.01,1.87-8.38,3.48-2.25,4.84,1.76,5.9,4.23,2.25,5.27,4.14,10.69,6.17,16.05.12,1.84.23,3.68.35,5.51-.61,3.93-.72,7.79,1.63,11.3.32,4.79,1.84,9.12,4.9,12.87.51,1.52,1.02,3.04,1.54,4.55,4.58,17.24,18.51,25.89,32.04,34.9,1.98,2.34,4.44,3.83,7.48,4.35,9.69,6.98,20.13,12.08,32.28,12.88.92,2.36,1.59,5.16,5.13,2.95.9-.18,1.81-.36,2.72-.53.35,3.97,2.86,3.72,5.66,2.89,5.99,2.34,12.41,3.66,17.71,7.57.1.59.2,1.18.3,1.77.66-.53,1.33-1.05,1.99-1.58.4.51.89.64,1.49.39,1.96,2.1,4.37,1.56,6.75,1.17,7.24,0,14.48,0,21.72,0,2.9,0,5.81,0,8.71,0,6.53-.02,13.07-.04,19.6-.07,1.34.26,2.08-.19,1.95-1.66.24-27.01.57-54.02.69-81.02.13-28.84.06-57.69.08-86.54,2.82.11,5.64.22,8.45.34-.02,52.23-.1,104.46.05,156.69,0,3.26-2.72,8.43,3.83,9.3,14.57.2,29.14.4,43.71.6,1.93,4.75,8.11,2.73,10.57,6.63-16.13,2.37-32.39,1.92-48.58,1.69-7.59-.11-10.16,2.15-9.79,9.77.49,10.08-.1,20.22-.23,30.33-2.54-.04-5.08-.08-7.61-.11Z"/><path class="cls-5" d="M965.13,482.04c-.69-.25-1.38-.51-2.07-.76-.27-5.43-4.3-4.85-7.86-4.85-33.17-.02-66.34-.02-99.51.02-3.49,0-7.63-.79-7.98,4.69-.7.27-1.39.54-2.09.81-5-1.45-10.11-1.36-15.24-1.04-1.36-.26-2.72-.53-4.08-.79-3.54-1.69-7.29-2.05-11.13-1.78-2.83-.81-5.66-1.63-8.48-2.44-1.29-1.42-2.9-1.33-4.57-.99-24.66-13.41-49.01-27.06-71.7-43.97-31.61-23.56-42.09-53.63-34.48-91.27,1.93.32,5.24-.87,5.33,1.84.31,9.51.08,19.03,1.84,28.44.18,23.71,14.39,38.69,31.32,52.79,18.43,15.34,39.14,26.59,59.92,38.08,8.82,4.88,17.72,7.69,27.58,9.17,39.93,6.02,80.09,2.59,120.13,3.67,18.62.5,35.97-1.74,49.6-16.41,12.01-12.92,21.43-27.75,32.05-41.69,2.12,0,4.25,0,6.37,0-6.17,10.66-10.79,22.11-18.61,31.97-11.06,13.94-22.98,26.4-39.85,33.15-2.16.46-4.33.91-6.49,1.37Z"/><path class="cls-15" d="M1112.67,500.31c-.23,2.15-.46,4.29-.7,6.44-4.98,2-5.24,6.39-5.45,10.78-1.25,25.16-4.39,50.38-12.78,73.89-6.74,18.88-21.61,33.78-37.36,46.41-16.28,13.05-33.66,24.73-54.31,30.2-.78-.84-1.56-1.67-2.34-2.51,24.98-7.39,44.07-24.69,62.69-41.08,13.95-12.28,21.79-30.23,25.87-49.84,8.99-43.21,15.23-86.5,13.8-130.71,6.86-4.67,8.77-1.26,8.77,5.35-.01,13.62-.08,27.23.04,40.85.03,3.46-1.13,7.24,1.79,10.23Z"/><path class="cls-5" d="M984.81,631.4c3.59-1.72,7.18-3.45,10.77-5.17,3.02-1.05,6.03-2.11,9.05-3.16,24.84-12.38,43.75-29.52,56.11-55.69,9.03-19.12,4.63-38.98,10.21-57.79,1.93-6.5,2.47-13.42,3.64-20.15,2.88-.44,5.24.9,7.63,2.17-2.25,20.1-2.59,40.86-6.82,60.16-4.83,22.05-15.76,43.56-34.77,58.57-15.01,11.85-30.74,22.62-49.81,27.06-1.2.28-2.66-.57-3.99-.89-.67-1.7-1.33-3.41-2-5.11Z"/><path class="cls-15" d="M995.02,267.65c3.63,1.55,7.26,3.11,10.9,4.66.1,4.6,1.59,9.75.02,13.69-4.17,10.46-.29,15.68,9.48,18.41-13.38-1.55-13.02,8.42-13.2,16.73-.43,20.54-.15,41.1-.15,61.66-4.31,1.43-8.63,2.86-12.94,4.28,0-21.02-1.18-42.12,4.18-62.79,1.09-.9,3.02-1.69,3.14-2.71,2.07-16.58,1.74-33.13-1.29-49.6-.05-1.44-.1-2.89-.15-4.33Z"/><path class="cls-8" d="M995.17,271.98c3.03,16.46,3.36,33.01,1.29,49.6-.13,1.02-2.05,1.81-3.14,2.71-3.88-12.03-.84-24.55-2.62-36.73.96-2.98-1.49-4.85-3.01-6.17-2.83-2.46,9.21-3.45.39-5.27-4.64-.95-9.58-6.48-14.28.03-5.46,2.67-13.12-3.16-17.31,4.47-7.76-.43-11.5-7.1-17.04-10.97-1.15-2.07-3.86-4.53-1.91-6.5,4.1-4.15,5.49,4.13,9.32,2.81,1.74-2.75-.5-4.66-1.24-6.84.71-2.19,1.42-4.39,2.13-6.58,2.29-9.57-8.82-5.64-10.89-10.81,7.81,1.41,16.89-.51,21.84,8.37-2.2,5.07.04,7.93,4.75,9.56-2.36,1.66-5.05,2.85-.12,5.19,10.13,4.81,21.2,4.89,31.84,7.15Z"/><path class="cls-1" d="M847.71,481.14c.35-5.48,4.49-4.69,7.98-4.69,33.17-.04,66.34-.03,99.51-.02,3.57,0,7.6-.58,7.86,4.85-22.54,2.84-45.17.54-67.75,1.3-7.88.27-15.75.44-23.63.66-1.33-.03-2.67-.06-4-.09-2.82-.11-5.64-.22-8.45-.34-3.84-.56-7.68-1.12-11.52-1.68Z"/><path class="cls-16" d="M867.69,483.15c1.33.03,2.67.06,4,.09-.04,55.3-.08,110.6-.12,165.9-6.55-.87-3.83-6.04-3.83-9.3-.15-52.23-.07-104.46-.05-156.69Z"/><path class="cls-7" d="M1030.08,415.56c-2.12,0-4.25,0-6.37,0,2.53-27.48,2.94-55.03,2.6-82.6,3.63.6,4.24-4.39,7.68-4.14.35-.22.73-.33,1.15-.31-.01,22.51-.03,45.03-.04,67.54-.2,1.42-.39,2.85-.59,4.27-2.12,3.42-1.33,7.26-1.57,10.95-.95,1.43-1.9,2.87-2.86,4.3ZM1030.99,384.99h.64v-47.28c-.21,0-.43,0-.64,0v47.28Z"/><path class="cls-5" d="M710.83,274.31c4.51-12.72,15.5-18.92,26.05-25.33,5.4-3.29,11.49-5.46,17.26-8.14,3.31,2.02,5.96-.6,8.88-1.29,0,0,.37.38.37.38.55,4.54-1.44,6.55-5.73,8.66-12.44,6.13-25.59,11.37-35.17,22.12-2.42,1.25-4.84,2.51-7.25,3.76-1.47-.05-2.94-.11-4.41-.16Z"/><path class="cls-3" d="M1015.42,304.41c-9.76-2.73-13.65-7.95-9.48-18.41,1.57-3.93.08-9.09-.02-13.69,6.12.23,13.31-2.11,15.93,6.59-.11,8.36-.22,16.72-.33,25.08-2.13.2-4.26.39-6.39.59l.29-.15Z"/><path class="cls-5" d="M830.29,223.24c2.39-.74,4.6-.37,6.6,1.14-.73,2.24-1.47,4.48-2.2,6.72-15.81.01-31.62.03-47.43.04-3.97,0-9.66-.47-10.2,3.87-1.47,11.98-8.4,5.48-13.67,4.93,0,0-.37-.38-.37-.38-.23-1.5-.46-3-.69-4.5,5.79-4.31,9.98-11.11,18.17-11.7.59,1.89,1.72,3.16,3.82,3.16,14.08.01,28.15.01,42.23-.02,2.11,0,3.18-1.38,3.74-3.26Z"/><path class="cls-7" d="M703.1,369.93c-1.76-9.41-1.53-18.93-1.84-28.44-.09-2.72-3.4-1.53-5.33-1.84,2.04-11.4,4.08-22.79,6.12-34.19,2.09,0,4.18.01,6.27.02-3.94,21.06-3.03,42.28-2.16,63.5-1.02.32-2.04.64-3.06.95Z"/><path class="cls-3" d="M708.32,305.48c-2.09,0-4.18-.02-6.27-.02.02-4.69,1.12-9.71-.15-14.02-2.7-9.13.9-14.05,8.93-17.13,1.47.05,2.94.11,4.41.16.54,5.6.78,11.24,1.68,16.78,1.19,7.38-.77,12.48-8.59,14.22Z"/><path class="cls-8" d="M797.69,204.64c35.6-1.63,71.13-1.14,106.61,1.28-.01,1.04-.03,2.07-.04,3.11-11.26,0-22.63,1.01-33.75-.21-22.63-2.48-45.16-3.08-67.75-.23-3.3.42-4.69-.93-5.1-3.92,0,0,.04-.03.04-.03Z"/><path class="cls-8" d="M763.01,619.85c9.94,2.72,20.08,4.16,30.38,4.49,7.53,7.04,17.36,4.87,26.21,6.16,7,1.02,14.27.21,21.39.79-28.56,8.44-55.33-2.64-82.68-7.47.19-1.36.39-2.71.59-4.07,1.38.03,2.75.07,4.12.1Z"/><path class="cls-1" d="M889.19,228.01c5.73.45,11.45.9,17.18,1.36-.71,2.47-1.42,4.94-2.14,7.41-14.54,1.18-28.96-.47-43.39-1.79.39-4.82,4.03-4.05,7.2-4.3,3.45-.28,7.29,1.23,10.16-2.02,3.66-.22,7.32-.43,10.99-.65Z"/><path class="cls-1" d="M936.86,241.72c2.07,5.17,13.19,1.23,10.89,10.81-3.95,1.04-7.34.02-10.99-1.87-8.63-4.46-17.57-8.34-26.38-12.45.86-2.43,1.72-4.86,2.58-7.29,1.36.03,2.72.05,4.08.08,2,1.79,3.03,5.41,6.91,3.68,1.41.91,2.83,1.83,4.24,2.74.86,2.49,2.84,1.43,4.49,1.42,1.4.96,2.79,1.92,4.19,2.88Z"/><path class="cls-5" d="M928.27,648.41c.7-.68,1.4-1.35,2.1-2.03,2.71-2.08,7.16,4.16,9.04-1.89,2.78-.47,5.55-.93,8.33-1.4,1.85.5,3.72,1.06,4.25-1.72,1.48-.05,2.97-.1,4.45-.15,2.96.13,5.92.26,8.88.39.66,3.49-1.29,5.11-4.27,6.07-9.34,3-18.37,7.23-28.46,7.35.74-3.63-2.8-4.46-4.33-6.61Z"/><path class="cls-16" d="M1035.09,396.04c.01-22.51.03-45.03.04-67.54,3.74.8,3.93,3.63,3.93,6.68-.03,18.1-.02,36.19,0,54.29,0,3.02-.07,5.93-3.96,6.57Z"/><path class="cls-2" d="M995.17,271.98c-10.63-2.26-21.7-2.34-31.84-7.15-4.93-2.34-2.25-3.52.11-5.19,6.78-.46,12.78,7.36,20.03,1.89,5.2-.5,7.51,4.45,11.55,6.12.04,1.44.09,2.88.14,4.33Z"/><path class="cls-1" d="M830.29,223.24c-.56,1.87-1.63,3.25-3.74,3.26-14.08.03-28.15.03-42.23.02-2.11,0-3.24-1.27-3.82-3.16,16.59-1.29,33.19-1.08,49.79-.12Z"/><path class="cls-15" d="M899.94,687.31c-.56,4.05-1.12,8.09-1.69,12.15-3.36,2.72-7.05,4.78-11.23,5.92-.11-3.22-.32-6.45-.31-9.67.02-12.03,1.36-12.87,13.23-8.4Z"/><path class="cls-7" d="M983.48,261.54c-7.26,5.47-13.26-2.35-20.03-1.89-4.7-1.63-6.94-4.49-4.74-9.55,9.96.14,18.03,4.36,24.78,11.45Z"/><path class="cls-5" d="M878.2,228.66c-2.87,3.25-6.71,1.74-10.16,2.02-3.17.25-6.81-.51-7.2,4.3-5.87-.13-11.85.63-17.38-2.19,1.65-2.66,7.14-1.42,6.5-6.4.77-.22,1.53-.44,2.3-.65,8.58.42,17.17.85,25.75,1.27-.04.56.03,1.11.2,1.64Z"/><path class="cls-5" d="M1033.99,328.82c-3.44-.25-4.05,4.74-7.68,4.14-1.58-4.75-3.17-9.49-4.75-14.24-3.31-5.7.32-6.97,4.88-7.66.53.19,1.07.28,1.63.26.46,3.37,2.06,6.17,4.32,8.64.39,1.58.78,3.16,1.17,4.73.14,1.37.28,2.75.43,4.12Z"/><path class="cls-7" d="M984.81,631.4c.67,1.7,1.33,3.41,2,5.11-1.44,1.84-1.58,5.17-4.96,4.8-3.64-.39-8.16-7.41-10.41,1.54-.63-1.91-.84-4.2-3.69-4.12.27-1.07.55-2.14.83-3.2,5.41-1.38,10.82-2.76,16.24-4.14Z"/><path class="cls-7" d="M1077.32,470.18c.12-2.48-.17-5.08.51-7.4.43-1.45,2.26-3.4,3.57-3.49,2.38-.17,3.76,2.04,3.92,4.34.29,4.28.94,8.65-1,12.77-4.52.39-2.6-6.47-7-6.22Z"/><path class="cls-8" d="M965.19,685.35c-4.31.62-8.63,1.25-12.94,1.87.84-8.9,9.56-6.9,14.44-10.14,3.08-2.05,7.35-2.29,11.08-3.35-.98,4.45-4.5,6.81-7.76,9.39-1.96,0-3.81.22-4.82,2.24Z"/><path class="cls-1" d="M1077.32,470.18c4.4-.25,2.48,6.61,7,6.22-.7,5.07-1.41,10.13-2.11,15.2-2.39-1.28-4.75-2.61-7.63-2.17.91-6.42,1.83-12.83,2.74-19.25Z"/><path class="cls-16" d="M1028.06,311.32c-.56.02-1.1-.07-1.63-.26-.38-1.79-.76-3.58-1.14-5.37.14-8.95.28-17.9.42-26.85,7.73,10.32,5.44,21.37,2.35,32.48Z"/><path class="cls-8" d="M1025.72,278.84c-.14,8.95-.28,17.9-.42,26.85-1.26-.57-2.52-1.15-3.78-1.72.11-8.36.22-16.72.33-25.08,1.29-.02,2.58-.03,3.87-.05Z"/><path class="cls-1" d="M928.27,648.41c1.52,2.15,5.06,2.98,4.33,6.61-2.25.45-4.5.91-6.75,1.36-2.46-3.9-8.64-1.88-10.57-6.63,4.33-.45,8.66-.89,12.99-1.34Z"/><path class="cls-1" d="M849.96,226.4c.63,4.98-4.85,3.74-6.5,6.4-3.12.42-6.02-.28-8.78-1.7.73-2.24,1.47-4.48,2.2-6.72,3.57.18,7.15.37,10.72.55.78.49,1.57.98,2.35,1.47Z"/><path class="cls-8" d="M874.33,711.51c-1,7.03-6.64,5.8-11.29,6.33-.72-.74-1.45-1.47-2.17-2.21,1.57-2.88,6.87-1.5,6.95-6.08,1.31-.1,2.62-.2,3.93-.3.86.75,1.72,1.5,2.58,2.25Z"/><path class="cls-16" d="M968.58,635.53c-.28,1.07-.55,2.14-.83,3.2-.81.95-1.62,1.91-2.42,2.86-2.96-.13-5.92-.26-8.88-.39,1.34-7.67,7.08-5.94,12.13-5.68Z"/><path class="cls-16" d="M830.38,480.9c5.13-.32,10.23-.41,15.24,1.04-5.42,4.57-10.64,6.31-15.24-1.04Z"/><path class="cls-5" d="M912.96,230.92c-.86,2.43-1.72,4.86-2.58,7.29-2.05-.48-4.1-.96-6.15-1.44.71-2.47,1.42-4.94,2.14-7.41,2.43-.49,4.72-.36,6.59,1.56Z"/><path class="cls-16" d="M686.48,567.94c-2.34-3.51-2.23-7.37-1.63-11.3,6.11,2.97,5.32,6.93,1.63,11.3Z"/><path class="cls-16" d="M815.17,478.33c3.85-.26,7.6.09,11.13,1.78-4.39,3.63-8.52,5.65-11.13-1.78Z"/><path class="cls-16" d="M1032.93,411.26c.25-3.69-.55-7.53,1.57-10.95,3.3,4.2,4.71,8.13-1.57,10.95Z"/><path class="cls-8" d="M878.2,228.66c-.17-.53-.24-1.08-.2-1.64,4.07-3.6,7.93-4.75,11.18.99-3.66.22-7.32.43-10.99.65Z"/><path class="cls-16" d="M939.42,644.49c-1.88,6.05-6.33-.19-9.04,1.89,1.71-6.86,5.1-5.71,9.04-1.89Z"/><path class="cls-8" d="M762.33,235.05c.23,1.5.46,3,.69,4.5-2.92.69-5.56,3.3-8.88,1.29,1.17-4.14,4.61-5.06,8.19-5.79Z"/><path class="cls-4" d="M871.75,709.26c-1.31.1-2.62.2-3.93.29-1.61-.31-3.21-.62-4.81-.93-.16-1.32-.32-2.64-.48-3.96.93-.26,1.86-.52,2.79-.78,1.46.11,2.92.22,4.37.33.69,1.68,1.37,3.36,2.06,5.04Z"/><path class="cls-16" d="M1004.62,623.07c-3.02,1.05-6.03,2.11-9.05,3.16,1.66-4.93,4.07-7.71,9.05-3.16Z"/><path class="cls-16" d="M836.91,652.1c-2.9,0-5.81,0-8.71,0,2.9-5.64,5.8-5.64,8.71,0Z"/><path class="cls-7" d="M865.32,703.89c-.93.26-1.86.52-2.78.78,0,0-.81-.19-.81-.19-.74-1.54-.48-3.69-2.65-4.36.19-.69.37-1.38.56-2.06,2.54.04,5.08.08,7.61.11.09.74.17,1.47.26,2.21-2.08.33-2.64,1.6-2.19,3.51Z"/><path class="cls-16" d="M965.13,482.04c2.16-.46,4.33-.91,6.49-1.37-1.13,5.36-3.25,6.03-6.49,1.37Z"/><path class="cls-16" d="M806.48,652.1c-2.39.39-4.8.93-6.75-1.17,2.98-3.86,5.29-3.79,6.75,1.17Z"/><path class="cls-16" d="M732.44,624.61c-3.04-.51-5.5-2.01-7.48-4.35,3.49-.28,7.23-.96,7.48,4.35Z"/><path class="cls-8" d="M923.94,234.68c-3.88,1.73-4.91-1.89-6.91-3.68,3.17-.4,6.21-.56,6.91,3.68Z"/><path class="cls-16" d="M802.11,474.89c1.67-.34,3.29-.42,4.57.99-2.39,3.63-3.72,2.44-4.57-.99Z"/><path class="cls-16" d="M1033.56,324.7c-.39-1.58-.78-3.16-1.17-4.73,3.8.74,5.65,1.95,1.17,4.73Z"/><path class="cls-16" d="M692.92,585.36c-.51-1.52-1.02-3.04-1.54-4.55,3.21.61,5.36,1.57,1.54,4.55Z"/><path class="cls-16" d="M769.86,640.43c-3.54,2.21-4.21-.58-5.13-2.95,2.33-.1,4.23.55,5.13,2.95Z"/><path class="cls-16" d="M778.23,642.79c-2.8.82-5.31,1.08-5.66-2.89,2.6-.43,4.9-.28,5.66,2.89Z"/><path class="cls-16" d="M951.99,641.36c-.52,2.78-2.4,2.22-4.25,1.72.59-2.62,1.43-4.62,4.25-1.72Z"/><path class="cls-8" d="M932.67,238.84c-1.65.01-3.63,1.07-4.49-1.42,2.68-3.26,3.75-1.45,4.49,1.42Z"/><path class="cls-8" d="M865.32,703.89c-.45-1.91.11-3.18,2.19-3.51,1.7.73,2,2.26,2.18,3.85-1.46-.12-2.92-.23-4.37-.34Z"/><path class="cls-8" d="M849.96,226.4c-.78-.49-1.57-.98-2.35-1.47,2.22-3.52,3.62-2.45,4.65.82-.77.22-1.53.44-2.3.65Z"/><path class="cls-16" d="M798.24,650.54c-.66.53-1.33,1.05-1.99,1.58-.1-.59-.2-1.18-.3-1.77.76.06,1.53.12,2.29.18Z"/><path class="cls-16" d="M858.47,650.38c.12,1.47-.62,1.92-1.95,1.66.65-.55,1.3-1.1,1.95-1.66Z"/><path class="cls-1" d="M865.08,722.53c.84.08,1.69.16,2.53.25-1.2,38.82,2.1,77.73-2.3,116.49-1.47,1.27-2.93,2.53-5.09,4.4,14.9,0,28.87.04,42.85-.03,3.1-.02,6.79.87,7.88-3.65,7,.14,12.06,4.31,17.19,8.3-1.06,2.69-3.32,4.05-5.77,5.21-7.25-4.54-15.11-5.84-23.66-5.65-18.32.41-36.66.44-54.95-1.3-10.17-.97-19.76,1.2-28.67,6.23.51-3.35-2.44-4.51-4.12-6.48,10.58-7.15,22.38-9.16,34.87-8.34,5.94.39,10.23-.34,11.04-8.17.42-4,2.48-8.15,2.47-12.49-.06-30.29-.16-60.58-.25-90.88.22.5.57.63,1.05.37,2.73-.16,4.89-.98,4.91-4.27Z"/><path class="cls-5" d="M734.71,1052.66c-3.89-1.1-3.13-4.47-3.17-7.13-.54-34.66-1.08-69.4,7.39-103.35,3.3-13.22,8.65-25.92,12.84-38.93.87-2.69,2.28-3.39,4.68-3.02,3.12.49,2.84,2.97,2.38,4.97-1.35,5.89-2.39,11.95-4.63,17.51-10.3,25.55-12.73,52.41-13.6,79.5-.43,13.35.04,26.72-.14,40.08-.05,3.68,1.35,8.17-3.52,10.33v-63.35c-.74,0-1.48,0-2.22,0v63.37Z"/><path class="cls-5" d="M967.5,911.13c2.12,9.53,4.22,19.04,4.25,28.89.09,32.23,2.03,64.29,9.05,95.87.78,3.51,1.32,8.48-2.47,9.41-4.47,1.1-4.76-4.19-5.97-7.4-7.28-19.37-5.52-40.05-8.14-60.06-2.7-20.61-1.99-41.66-2.77-62.52,2.04-1.36,2.73-4.67,6.04-4.2Z"/><path class="cls-5" d="M809.18,855.66c-19.55,6.74-35.67,17.34-43.02,37.93-1.11,3.1-3.34,4.76-6.76,3.66-4.73-1.53-1.85-5.3-1.09-7.04,9.35-21.49,24.68-36.2,48.25-41.12.87,2.19,1.75,4.38,2.62,6.57Z"/><path class="cls-15" d="M887,745.96c3.12,0,5.39,1.4,6.85,4.14.09,20.43,2.06,40.74,3.9,61.06-6.16-1.7-8.47-5.98-8.67-12.12-.58-17.7-1.37-35.39-2.08-53.08Z"/><path class="cls-5" d="M922.37,853.5c2.44-1.16,4.71-2.52,5.77-5.21,13.74,7.62,24.87,17.82,31.78,32.19-2.54.8-5.08,1.59-7.62,2.39-7.6-12.22-18.49-21.07-29.93-29.37Z"/><path class="cls-8" d="M897.75,811.16c-1.84-20.32-3.81-40.63-3.9-61.06,1.36.07,2.72.14,4.08.22-.69,16.43,3.56,32.64,2.14,49.1-.24,2.83,1,4.81,3.81,5.67.35,4.27,5.37,3.28,6.94,6.18-.1.77-.19,1.54-.29,2.32-4.25-.89-9.11,1.46-12.78-2.43Z"/><path class="cls-7" d="M952.3,882.87c2.54-.8,5.08-1.59,7.62-2.39,4.54,9.72,6.23,20.14,7.58,30.65-3.31-.46-4,2.85-6.04,4.2-6.36-9.89-5.45-21.83-9.16-32.46Z"/><path class="cls-7" d="M910.94,839.99c-1.09,4.52-4.78,3.63-7.88,3.65-13.97.07-27.95.03-42.85.03,2.16-1.86,3.62-3.13,5.09-4.4,15.21.26,30.45-1.04,45.63.72Z"/><path class="cls-8" d="M725.32,1066.45h31.95c-10.6,4.3-21.27,3.49-31.93,3.1,0-1.03-.01-2.07-.02-3.1Z"/><path class="cls-1" d="M734.71,1052.66v-63.37c.74,0,1.48,0,2.22,0v63.35c-.74,0-1.48.02-2.22.02Z"/><path class="cls-7" d="M809.18,855.66c-.87-2.19-1.75-4.38-2.62-6.57,1.14-1.45,2.08-3.22,4.41-2.79,1.67,1.97,4.62,3.13,4.12,6.48-1.41,2.1-3.64,2.53-5.91,2.87Z"/><path class="cls-13" d="M1197.46,825.25c3.66-1.55,7.32-3.1,10.98-4.63,3.71,0,7.52-1.66,11.08.71-.18,27.13-.37,54.27-.55,81.4-2.19,0-4.38,0-6.57,0-3.08,0-6.16,0-9.24,0-2.82,0-4.8-1.16-5.57-4.01,7.03.36,9.2-3.01,9-9.88-.44-15.16-.16-30.34-.09-45.51.02-4.84-.37-9.41-4.72-12.56,1.35-4.02-4.86-2.14-4.33-5.54Z"/><path class="cls-9" d="M1219.52,821.33c-3.56-2.37-7.37-.71-11.08-.71.48-3.65,4.9-5.42,4.49-9.48,3.16-3.59,2.92-8.04,2.53-12.22-.72-7.94.77-15.19,5.31-23.04,3.49,12.68,8.67,23.47,15.69,33.35.08,9.6,5.46,12.78,13.97,10.49,7.96-2.15,15.62-1.73,23.5-.05,2.6.56,5.81,1.42,7.88-1.66,1.56-.1,3.13-.2,4.69-.3.6,2.45,2.85,2.09,4.55,2.66-.57,11.52-10.29,3.67-14.74,6.96-2.38-.02-4.77-.03-7.15-.05-5.59-1.04-11.19-1.03-16.78-.04-4.46-.6-8.91-.94-13.33.27-6.86-.96-10.75-11.29-19.53-6.18Z"/><path class="cls-15" d="M1338.77,824.08c-3.49.08-6.98.15-10.48.23-.18-.79-.35-1.57-.52-2.36.91-10.78,2.27-21.54,2.62-32.34.5-15.9-3.92-20.69-19.33-22.53,5.36-3.87,15.83-5.39,21.3-2.47,7.24,3.87,14.54,9.05,12.97,18.19-2.36,13.73.58,28.34-6.56,41.27Z"/><path class="cls-15" d="M1197.46,825.25c-.54,3.39,5.67,1.51,4.33,5.53-.76,1.36-1.53,2.73-2.3,4.1-.61.64-1.23,1.29-1.84,1.93-1.3-.77-2.59-1.55-3.89-2.32-.38-1.99.36-4.9-2.44-5.28-2.98-.41-7.35,1.81-7.09,3.59,1.09,7.42-3.85,16.25,4.49,22.14,1.43,14.03-1.87,28.31,2.19,42.21-2.3,0-4.6,0-6.9-.01-1.12-4.8-5.33-2.18-7.97-3.31.04-.63.11-1.25.19-1.87,1.7-.49,3.92-.92,3.51-3.18-2.54-13.78-.19-27.71-1.53-41.52-.07-1.15-.14-2.3-.21-3.44-.45-4.2-.9-8.39-1.35-12.59.89-.9,1.78-1.8,2.66-2.69,1.95-.35,3.08-1.46,3.25-3.47-.01-2.23-.02-4.46-.03-6.7.22-2.36.43-4.72.65-7.08,2.05,2.75,1.46,5.97,1.55,9.04.11,3.51,2.01,2.83,4.11,1.97,2.3,2.67,5.74,2,8.62,2.96Z"/><path class="cls-13" d="M1327.77,821.95c.17.78.35,1.57.52,2.36-.15,2.83-.3,5.65-.44,8.48-14.16.61-15.63,1.41-14.45,14.95,1.15,13.32,2.89,26.66,1.65,39.94-.86,9.27,2.22,12.22,10.86,10.71-3.78,6.85-10.15,3.16-15.45,3.78-2.36-27.31,1.37-55.09-6.34-81.99l.68-.35.75.15c1.66,0,3.33,0,4.99,0,5.74.65,11.48,1.31,17.23,1.96Z"/><path class="cls-5" d="M1310.54,819.99c-1.66,0-3.33,0-4.99,0,.43-8.01,4.94-15.38,2.49-24.48-4.9,8.09-9.81,16.17-14.71,24.26-.76.2-1.52.4-2.28.61-1.7-.57-3.95-.21-4.55-2.66,8.94-9.16,13.91-20.99,21.16-31.29,1.72-2.45,3.1-6.61,7.25-4.88,3.39,1.41,1.81,5.14,1.92,7.82.44,10.7-4.13,20.43-6.28,30.63Z"/><path class="cls-1" d="M1236.46,809.23c-7.02-9.88-12.2-20.67-15.69-33.35-4.53,7.85-6.03,15.1-5.31,23.04.38,4.19.63,8.64-2.53,12.22-4-.08-3.34-2.8-3.02-5.33,1.76-14.16,3.52-28.32,5.27-42.48.27-2.22.7-4.42,3.58-4.32,2.24.08,2.74,1.95,3.11,3.75,3.51,16.65,11.21,31.55,19.33,46.28-1.58.06-3.16.12-4.74.19Z"/><path class="cls-8" d="M1263.4,791.33c7.86-.29,15.93,1.96,23.51-1.86-.37,9.13-3.63,14.26-14.07,11.3-3.66-1.04-7.8-.56-11.71-.42-6.2.22-10.38-1.97-11.4-8.53,4.48-2.27,9.52,10.97,13.67-.49Z"/><path class="cls-5" d="M1236.46,809.23c1.58-.06,3.16-.12,4.74-.19,2.15,5.85,4.89,7.93,11.83,5.12,9.77-3.95,19.76-1.83,28.78,3.84-2.08,3.08-5.28,2.22-7.88,1.66-7.88-1.69-15.53-2.1-23.5.05-8.51,2.29-13.89-.89-13.97-10.49Z"/><path class="cls-8" d="M1239.07,769.88c6.97,3.75,10.29,9.36,8.88,17.39-6.69-3.89-7.12-10.98-8.88-17.39Z"/><path class="cls-8" d="M1234.37,750.69c5.38,3.78,9.25,8.03,4.53,14.89-4.66-4-4.33-9.53-4.53-14.89Z"/><path class="cls-8" d="M1228.07,746.15c3.26-.14,6.6-.38,6.21,4.51-3-.23-5.06-1.74-6.21-4.51Z"/><path class="cls-3" d="M1310.45,902.17c5.31-.63,11.67,3.07,15.46-3.78,4.15-1.1,8.3-2.19,12.45-3.29,4.65,2.91.41,6.06.24,9.1-.58.13-1.15.31-1.71.53-4.83,1.65-11.36,1.42-10.46,9.43,2.24,19.82-2.67,25.39-22.23,25.27,0,0,.09.07.09.07-1.77-2.23-3.61-4.4-5.29-6.69-9.82-13.39-10.59-13.39-20.84.13h0c-6.29.58-8.81,4.48-9.09,10.34,0,0-.22.19-.22.19-5.92,3.47-5.42,9.59-6.24,15.17,0,0-.13.07-.12.07-4.85.8-6.26,4.19-6.41,8.53,0,0-.16.17-.15.17-2.37.49-4.38,2.22-3.32,4.3,3.29,6.43,2.5,14.52,8.18,19.92.02,1.43.05,2.86.07,4.29-.43,3.18-.07,5.95,3.55,7.1.04,2.03.08,4.06.12,6.09-.93,6.35.71,12.06,4.3,17.29.12,1.45.25,2.89.38,4.34-3.94,4.21-4.68,9.8-6.47,14.93,0,0-.1.04-.1.04-8.54,5.65-17.87,8.17-28.11,7.06-3.19-1.95-7.62-4.42-8.68.87-1.78,8.91-9.64,9.86-15.15,13.94-25.56,3.16-36.46-14.5-38.84-39.21-.79-8.19-.43-16.53-.13-24.79.21-5.54-1.73-7.87-7.41-7.65-6.82.26-13.66-.22-20.48-.05-3.16.08-6.45.84-2.06,4.62,2.39,4.4.05,8.62-.52,12.9-1.44-.66-2.59-3.78-3.67-2.39-1.17,1.5-.45,4.46-.56,6.79-.15,1.41-.29,2.82-.43,4.24-2.31,1.77-1.99,4.21-1.7,6.65.3,3.37.59,6.73.88,10.1-2.88,1.12-4.36,3.13-5.45,6.16-5.53,15.37-19.87,19.32-30.77,7.88-5.82-6.11-9.4-3.66-14.51.08-13.75,10.07-33.01,6.86-36.38-6.88-2.53-10.3-2.46-21.52,1.05-32.08,4.36-13.12,11.07-25.15,18.64-36.58,3.42-5.16,3.84-9.31-.08-13.57-23.6-25.66-15.19-66.19,1.38-88.2,3.1-4.11,5.41-8.21,3.83-12.83-5.9-17.25-9.35-35.27-20.44-50.78-7.14-9.98-16.68-13.69-27.14-15.45-8.37-1.41-17.25-1.05-25.91.47-12.91,2.28-26.59,2.73-34.62-9.15-8.73-12.91-6.5-27.77.31-41.25,10.65-21.08,38.3-27.76,60.39-18.98,13.02,5.18,26.71,8.67,38.43,17,18.8,13.37,29.04,32.56,37.71,53.04,5.89,13.92,9.79,28.48,14.41,42.81,2.89,8.96,7.44,9.96,13.8,3.38,0,0,0,0,0,0,8.62,3.94,17.73,4.85,27.04,4.16,4.76-.35,8.39,1.48,11.41,4.93,2.05,3.86,1.7,7.91.99,11.99-18.67-6.95-37.64-8.22-56.96-3.01-1.49-.23-2.99-.46-4.48-.69-3.88-21.01-11.04-40.97-18.58-60.91-10.83-28.66-30.06-47.83-59.25-57.17-8.58-2.74-16.9-6.47-26.17-5.93-2.4.14-5.77.09-5.71,3.49.07,3.9,3.53,2.27,5.76,2.54,30.39,3.77,56.44,15.18,72.18,43.09,12.85,22.77,20.47,47.57,25.96,73.04.38,6.07-7.86,4.99-8.49,10.22-3.44-.85-5.79,1.62-7.25,3.64-10.52,14.62-21.14,29.32-19.4,48.84-2.59,15.49,4.14,27.58,14.9,37.47,5.03,4.63,5.59,8.91,3.43,14.53-8.92,16.4-22.45,30.52-24.89,50.14-.02,7.26-4.06,15.99,3.66,20.89,5.8,3.68,11.47-.93,16.09-5.17,8.79-6.81,14.85-15.04,14.04-26.93-4.52,8.9-9.99,16.96-17.05,23.89-11.57,4.82-11.84,4.6-12.72-10.54,3.51-9.73,7.18-19.33,12.52-28.32,4.5-7.59,10.28-14.64,11.98-23.69,2.21-3.77,4.83-5.75,9.44-3.26,4.5,2.43,3.27,5.7,1.77,8.96-2.01,4.36-1.53,8.09,1.96,11.41.31,3.91-3.56,6.94-2.31,11.05,2.14,4.32,1.66,8.9,1.33,13.46-.52,7.21.03,14.28,2.43,21.18,1.55,4.47,3.05,9.83,8.54,9.58,6.01-.27,6.08-6.6,6.79-10.81,1.52-8.92,2.03-18.02,2.96-27.04,3.35-5.95,2.75-12.53,2.02-18.75-1.02-8.75,2.34-10.46,10.33-9.45,12.11,1.53,24.34,2.42,36.55,2.83,14.16.47,14.14.12,13.56,13.55-.11,2.5.12,5.02.2,7.54-2.18,6.53-1.08,13.07-.14,19.62-.49,6.94,1.07,13.57,3.53,19.94,2.5,6.46,6.97,11.89,14.27,11.31,8.04-.63,12.17-6.55,14.11-14.34,1.54-6.18-.46-12.54.98-21.65,4.97,7.68,8.44,13.14,13.9,16.54,5.95,3.71,12.29,7.32,18.82,1.64,5.99-5.21,4.25-11.53,1.17-17.66.55-3.93-1.27-7.67-2.18-11.13-3.5-13.25-4.22-27.58-13.24-38.97.22-6.03,6.78-8,8.41-13.13.14-.51.47-.82.98-.93.86-1.59,1.71-3.18,2.57-4.78,7.06-7.6,9.15-16.94,9.46-26.92.06-2.04-1.25-4.13.7-6.08,3.86-3.85,29.99-9.14,35.38-7.54,8.62,2.55,15.39,6.96,17.91,16.64,5.85-5.53,3.54-9.17-.18-13.62-4.84-5.78-13.42-5.05-17.75-11.23,5.59-.07,11.17-.13,16.76-.2ZM983.8,745.04c-.63.62-1.26,1.24-1.88,1.86-3.73,3.35-6.31,7.48-8.19,12.08-5.45,18.97-.31,26.18,18.4,25.6,6.11-.19,12.2-.77,18.3-1.07,10.1-.49,20.04.34,29.86,3.06,19.54,5.41,26.85,22.24,35.72,37.68,4.65,14.33,4.84,30.21,14.9,45.97.04-8.95-8.38-38.17-12.33-46.15-4.68-20.82-15.13-36.73-36.51-43.72-15.12-4.94-30.48-4.68-46.02-3.21-17.26,1.63-19.01.15-19.57-15.12,2.29-3.41,5.39-6.33,6.31-10.56,1.42-1.34,2.84-2.69,4.26-4.04.99-.48,1.97-.96,2.96-1.44,2.5-1.35,7.96-1.01,6.77-4.47-1.52-4.4-5.61-1.44-8.52.18-.29.16-.49.48-.73.73-1.24.87-2.47,1.74-3.71,2.62Z"/><path class="cls-15" d="M1079.93,750.08c2.2-.19,4.41-.38,6.61-.56,8.72,7.51,15.38,16.74,21.9,26.1.72,2.34,2.17,4.08,4.32,5.24.15,3.61,1.49,6.65,4.27,9,.86,2.03,1.71,4.07,2.57,6.1-.09,1.51-.19,3.02-.28,4.53.91,3.82-2,9.11,4.2,10.89.25,1.24.5,2.47.75,3.71,2.04,9.6,4.09,19.19,6.13,28.79,0,0,0,0,0,0-6.87-.85-11.06-4.53-12.31-11.46-3.95-21.92-13.27-41.82-23.31-61.42-3.93-7.67-11.57-12.76-14.86-20.92Z"/><path class="cls-3" d="M1027.39,715.3c14.38-11.42,21.95-8.77,31.68,11.08-10.74-3.17-22.13-4.5-31.68-11.08Z"/><path class="cls-6" d="M1029.18,702.49c1.27.76,2.53,1.51,3.8,2.27-1.33.78-2.65,1.57-3.99,2.36-1.4.06-2.64.35-3.03,1.96,0,0,.09-.06.09-.06-9.31-.2-18.27,1.78-27.14,4.33-5.56.04-11.12.08-16.68.12-4.8-.43-9.47-1.26-13.5-4.15,20.45.33,40.78-.37,60.46-6.81Z"/><path class="cls-9" d="M998.91,713.34c8.87-2.55,17.83-4.53,27.14-4.33-2.05,4.65-6.6,4.09-10.44,5-5.57-.22-11.13-.45-16.7-.67Z"/><path class="cls-6" d="M580.49,672.13c-4.58-1.09-6.83,3.15-10.31,4.61-7.21,3.02-14.23,4.37-21.38.08,0-1.53-.01-3.05-.01-4.56,9.61,3.32,18.35,1.52,26.39-4.46,3.94-1.28,7.86-2.57,11.78-3.85-1.11,1.95-2.23,3.9-3.34,5.86-1.59.1-2.94.5-3.2,2.37l.08-.05Z"/><path class="cls-3" d="M586.96,663.95c-3.92,1.28-7.85,2.57-11.78,3.85,5.81-7.73,7.55-20,21.18-19.06-2.15,5.68-5.45,10.64-9.39,15.2Z"/><path class="cls-12" d="M565.25,533.23c.36,0,.74-.08,1.08,0,4.6,1.05,11.5-3.18,13.5,2.89,1.84,5.6-5.09,7.83-8.69,11.11-3.9-3.85-6.71-8.16-5.89-14Z"/><path class="cls-9" d="M569.63,508.18c.13-12.8,11.43-5.97,17.03-9.15,5.45-3.09,9.69,1.87,11.56,7.58-9.7-2.52-19.3-3.37-28.59,1.56Z"/><path class="cls-6" d="M565.25,533.23c-.82,5.84,1.99,10.14,5.89,14-.54,1.94-1.54,3.48-3.52,4.18-7.03-9.16-8.02-19.44-5.71-30.34.8,4.15-.19,8.78,3.33,12.17Z"/><path class="cls-16" d="M625.66,748.33c.2,8.66-3.94,14.75-7.17,21.15.05-7.46-3.19-16.01,7.17-21.15Z"/><path class="cls-3" d="M612.94,663.18c-6.15-.02-12.31-.03-18.47-.05,1.5-4.13,3.51-7.96,6.72-11.05,4.1,3.49,9.21,5.94,11.75,11.1Z"/><path class="cls-6" d="M569.63,508.18c9.29-4.93,18.89-4.08,28.59-1.56.59.7,1.19,1.4,1.78,2.1-10.11-.18-20.22-.35-30.33-.53,0,0-.04-.01-.04-.01Z"/><path class="cls-8" d="M539.18,643.99c3.35-5.58,3.46-12.67,8.18-17.62,6.78,10.38,1.37,16.03-7.84,20.21-.11-.86-.23-1.73-.34-2.59Z"/><path class="cls-3" d="M612.94,653.64c-3.2-1.88-6.41-3.76-9.62-5.64,2.22-4.22,3.66-9,9.62-12.48v18.12Z"/><path class="cls-6" d="M621.81,665.67c6.66-.24,10.73,4.96,16.02,7.62.73,1.97.86,3.88-.5,5.65-3.13-2.69-6.39-5.17-10.49-6.24-1.68-2.36-3.35-4.69-5.03-7.03Z"/><path class="cls-12" d="M580.41,672.18c.26-1.87,1.62-2.28,3.2-2.37-.73,1.24-1.44,2.51-3.2,2.37Z"/><path class="cls-8" d="M995.53,967.72c3.66,3.09,1.98,7.21,2.1,10.99-6.46-2.56-4.8-6.67-2.1-10.99Z"/><path class="cls-4" d="M1112.76,780.86c-2.15-1.16-3.6-2.9-4.31-5.23.72-10.27-2.56-19.89-4.9-29.67,1.63.07,3.26.13,4.89.19.81,3.23,1.62,6.47,2.43,9.7q1.24,20.46,13.7,20.07c1.57.17,3.13.34,4.7.51,4.54,1.35,6.1,6.02,9.5,8.56,8,5.98,15.19,13.47,26.46,13.37,3.8-.04,7.52,1.77,10.56,6.14-6.63-.86-12.19-1.59-17.75-2.31-2.02-.6-4.05-1.21-6.07-1.82l.19.09c-1.09-1.72-2.74-2.21-4.66-2.1-4.75-3.73-10.17-6.87-14.09-11.33-4.57-5.2-9.53-7.21-16.09-6.09-1.51-.03-3.03-.06-4.54-.08Z"/><path class="cls-6" d="M1151.95,800.37c2.03.61,4.05,1.21,6.07,1.82,6.06,9.89,15.59,16.06,24.54,22.87-.17,2.02-1.3,3.13-3.25,3.48-9.52-9-21.94-15.18-27.35-28.17Z"/><path class="cls-6" d="M1129.25,776.43c-1.57-.17-3.13-.34-4.7-.51-3.45-7.45-8.8-13.61-13.69-20.07-.81-3.23-1.62-6.47-2.43-9.7,1.42-.09,2.84-.18,4.27-.27,2.54,11.8,12.47,19.59,16.55,30.55Z"/><path class="cls-4" d="M1183.17,811.28c-.22,2.36-.43,4.71-.65,7.08-1.43-2.43-3.55-4.72-4.15-7.35-1.28-5.64,2.12-2.46,4.08-1.79.24.69.48,1.38.71,2.07Z"/><path class="cls-2" d="M1338.36,895.1c-4.15,1.1-8.3,2.19-12.45,3.29-8.65,1.52-11.73-1.44-10.87-10.71,1.24-13.28-.5-26.62-1.65-39.94-1.17-13.54.3-14.34,14.45-14.95,12.06,5.26,7.14,17.53,10.83,26.24.05,11.53.11,23.07.17,34.61-.18.48-.35.97-.49,1.46Z"/><path class="cls-11" d="M1341.33,848.18c1.94-.08,3.61-.63,4.5-2.56,1.21.34,2.42.67,3.63,1.01.96,2.03,1.92,4.05,2.88,6.08-.32,7.76-.86,15.53.54,23.25-1.79,5.28,1.21,15.14-6.73,14.41-5.9-.54-1.8-9.81-2.81-15.08-1.04-5.43,2.07-11.45-2.28-16.45.09-3.56.18-7.11.26-10.66Z"/><path class="cls-8" d="M1304.2,939.43c19.57.13,24.47-5.45,22.23-25.27-.91-8.01,5.63-7.78,10.46-9.43-3.72,6.4-6.45,12.66-4.73,20.7,1.18,5.5-2.44,10.54-7.48,13.33-3.42,1.89-5.02,3.8-3.33,7.57-4.98-.83-9.96-1.67-14.94-2.51-.74-1.46-1.48-2.93-2.22-4.39Z"/><path class="cls-8" d="M1352.89,875.96c-1.4-7.72-.86-15.49-.54-23.25,10.38,5.67,10.54,12.53.54,23.25Z"/><path class="cls-8" d="M1338.36,895.1c.14-.49.31-.98.49-1.46,3.23.07,6.58.11,6.44,4.68-.13,4.22-2.34,6.32-6.69,5.89.16-3.04,4.41-6.19-.24-9.1Z"/><path class="cls-10" d="M1349.47,846.63c-1.21-.33-2.42-.67-3.63-1.01-.02-1.32-.04-2.63-.06-3.95,2.91-.03,5.9-.21,6.21,3.89-.84.35-1.68.71-2.52,1.06Z"/><path class="cls-8" d="M1260.78,991.63c-5.67-5.4-4.88-13.49-8.18-19.92-1.06-2.08.95-3.81,3.32-4.3,1.94,5.17,3.86,10.36,5.85,15.53,1.19,3.1,2.1,6.11-1,8.7Z"/><path class="cls-8" d="M1268.81,1026.41c-3.59-5.23-5.22-10.94-4.3-17.29,7.92,4.15,6.04,10.74,4.3,17.29Z"/><path class="cls-8" d="M1262.71,1045.69c1.79-5.14,2.53-10.73,6.47-14.93,1.18,6.43,2.92,13.09-6.47,14.93Z"/><path class="cls-8" d="M1262.61,958.64c.82-5.57.32-11.69,6.24-15.17.95,6.3,1.72,12.53-6.24,15.17Z"/><path class="cls-8" d="M1269.07,943.28c.28-5.87,2.8-9.76,9.09-10.34-.91,5.32-4.29,8.45-9.09,10.34Z"/><path class="cls-8" d="M1256.08,967.24c.15-4.34,1.56-7.73,6.41-8.53-.35,4.18-.52,8.5-6.41,8.53Z"/><path class="cls-8" d="M1264.39,1003.03c-3.62-1.15-3.98-3.93-3.55-7.1,4.86.53,4.47,3.68,3.55,7.1Z"/><path class="cls-3" d="M1073.25,731.9c3.8-5.37,7.41-14.96,13.45-12.82,5.19,1.83,7.71,11.44,11.13,17.77.42.78-.91,2.52-1.42,3.81-8.9.22-18.25,1.62-23.16-8.75Z"/><path class="cls-9" d="M1103.54,745.95c2.34,9.78,5.62,19.4,4.9,29.67-6.51-9.36-13.17-18.6-21.9-26.11,4.78-5.45,11.07-3.62,17-3.56Z"/><path class="cls-6" d="M1058.45,711.27c14.16,0,9.1,11.27,10.88,18.54-6.61-4.43-8.18-11.81-10.88-18.54Z"/><path class="cls-9" d="M1025.96,709.07c.4-1.6,1.64-1.89,3.03-1.96-1.01.65-2.02,1.3-3.03,1.96Z"/><path class="cls-15" d="M897.99,743.74c-4.81-.43-8.98-1.94-11.28-6.63-.66-7.38,2.05-15.08-2.04-22.15,3.01-2.48,6.41-3.96,10.36-4.05.92.88,1.83,1.75,2.75,2.63.07,10.07.14,20.13.21,30.2Z"/><path class="cls-6" d="M897.78,713.54c-.92-.88-1.83-1.75-2.75-2.63.46-2.46,1.88-4.21,4.01-5.42,1.46,3.96,4.84,3.66,8.08,3.63,14.73-.1,29.46-.21,44.2-.31,0,0,.59.44.59.44-1.29,1.38-2.57,2.76-3.86,4.14-16.76.05-33.52.1-50.28.15Z"/><path class="cls-9" d="M860.88,715.64c.72.74,1.45,1.47,2.17,2.21-.11.65-.26,1.29-.44,1.92-.64.08-1.23.3-1.76.66-12.25,1.89-24.56,2.48-36.93,1.76,3.26-4.4,8.39-5.25,13.11-6.88,7.22.07,14.44.14,21.67.21.73.04,1.46.08,2.2.12Z"/><path class="cls-16" d="M884.67,714.96c4.09,7.07,1.38,14.77,2.04,22.15-6.09-3.81-6.6-11.38-11.02-16.32,3-1.95,5.99-3.89,8.98-5.83Z"/><path class="cls-7" d="M860.84,720.42c.54-.36,1.13-.58,1.76-.66.83.92,1.65,1.84,2.48,2.76-.02,3.29-2.18,4.11-4.92,4.27.23-2.12.45-4.25.67-6.37Z"/><path class="cls-9" d="M724.96,724.33c-15.67-4.54-30.93-11.17-47.9-8.87-2.67.36-4.61-1.63-6.15-3.73,19.87-3.75,38.5-2.16,54.06,12.6Z"/><path class="cls-3" d="M715.35,711.46q15.8-7.18,18.14,10.85c-7.06-1.91-12.43-6.67-18.14-10.85Z"/><path class="cls-9" d="M965.19,685.35c1.01-2.02,2.87-2.23,4.82-2.24-.63,1.46-1.28,2.91-1.91,4.37-.97-.71-1.94-1.42-2.91-2.13Z"/><path class="cls-9" d="M823.92,722.18c-.32,2.63-2.45,3.26-4.44,4.06-.82-.79-1.64-1.59-2.46-2.38,1.96-1.95,4.34-2.22,6.9-1.68Z"/><path class="cls-8" d="M1134.88,1028.71c-.29-2.44-.61-4.88,1.7-6.65,3.61,3.29,2.67,5.41-1.7,6.65Z"/><path class="cls-8" d="M1137.02,1017.82c.1-2.32-.61-5.29.56-6.79,1.08-1.39,2.23,1.74,3.67,2.39-.05,2.78-1.6,4.1-4.23,4.39Z"/><path class="cls-8" d="M1250.71,760.78c3.84,1.2,3.76,4.11,3.15,7.25-4.1-1.09-4.08-3.98-3.15-7.25Z"/><path class="cls-8" d="M858.68,715.52c-7.22-.07-14.44-.14-21.67-.21,7.72-4.78,16-8.29,24.7-10.83,0,0,.82.19.82.19.16,1.32.32,2.64.48,3.96-4.09.64-4.73,3.44-4.33,6.89Z"/><path class="cls-16" d="M804.23,722.12c4.92-5.21,11.06-7.07,18.07-6.57-5.3,4.18-11.42,6.08-18.07,6.57Z"/><path class="cls-16" d="M797.33,724.23c1.87-2.26,4.48-2.11,7.02-2.17-1.76,2.61-4.51,2.02-7.02,2.17Z"/><path class="cls-4" d="M608.69,510.49c1.17-1.09,1.97-.98,2.24.72-.75-.24-1.49-.48-2.24-.72Z"/><path class="cls-14" d="M1021.55,318.72c1.58,4.75,3.17,9.49,4.75,14.24.34,27.57-.07,55.12-2.6,82.6-10.62,13.94-20.05,28.77-32.05,41.69-13.64,14.67-30.98,16.91-49.6,16.41-40.04-1.08-80.2,2.35-120.13-3.67-9.86-1.49-18.76-4.29-27.58-9.17-20.77-11.49-41.49-22.74-59.92-38.08-16.93-14.1-31.14-29.09-31.32-52.79,1.02-.32,2.04-.64,3.06-.95,1.61,8.71,6.37,13.98,15.63,14.32,3.43,3.54,7.95,3.9,12.47,4.24,9.73,4.83,20.03,7.67,30.83,8.73,4.69,6.74,11.6,3.4,17.66,3.88,9.31,1.37,16.74-2.71,23.67-8.2,6.4-3.74,10.49-9.8,15.26-15.18,5.48,1.86,6.94-2.44,8.64-5.9,5.25-10.71,9.97-21.7,15.56-32.22,3.88-7.29,4.94-18.24,15.76-18.69,11.41-.48,12.97,10.9,17.91,18,1.32,5.56,3.91,10.57,6.84,15.42.66,6.81,4.8,12.23,7.38,18.27,1.41,3.3,3.66,6.17,8.11,4.45,6.3,4.94,8.66,14.22,17.75,16.08,5.59,4.73,11.54,8.57,19.33,7.9,8.98,2.06,16.24-3.15,24.11-5.74,9.21-.52,17.56-4.15,26.05-7.26,4.31-1.43,8.63-2.86,12.94-4.28,11.51-2.2,15.64-9.54,15.56-20.79-.11-15.44.59-30.88.94-46.32.47,1.52,1.23,2.76,2.98,3.03ZM865.67,389.66c3.44-1.8,4.75-4.06,2.14-7.69-3.92-5.45-2.99-11.58-1.68-17.52.53-2.42,2.67-4.75-1.47-5.69-3.56-.81-6.27-.37-7.05,4.13-.8,4.6-2.18,9.09-3.31,13.63-3.51-.36-7.07-.46-10.51-1.16-3.06-.62-6.41.68-6.76,2.59-.69,3.8,2.77,4.09,5.83,3.89,2.47-.16,6.37-2.71,6.53,2.15.55,16.47,8.87,9.54,16.28,5.68ZM897.73,439.43c4.2-.67,6.77-3.83,9.53-6.53,2.43-2.36,6.55-4.47,4.88-8.65-1.76-4.41-6.35-4.04-10.25-3.95-11.13.23-22.04,1.72-32.32,6.33-5.09-.03-10.19-.07-15.28-.1-10.82-2.28-21.64-4.56-32.45-6.84-.87-.6-1.68-1.34-2.63-1.79-3.54-1.69-7.82-6.53-10.74-.86-2.36,4.58,3.41,6.01,6.49,8.06.57.38,1.33.47,2,.7,14.07,8.99,29.43,12.79,46.07,11.45,11.33,4.55,22.76,7.41,34.71,2.19Z"/><path class="cls-2" d="M989.14,387.08c-8.49,3.11-16.84,6.73-26.05,7.26-3.95-4.73-4.41-10.21-4.57-16.2-.88-32.5,2.45-65.1-2.03-97.52,4.19-7.63,11.84-1.79,17.31-4.46-.08,12.28,10.63,8.56,16.91,11.41,1.78,12.18-1.27,24.7,2.62,36.73-5.37,20.66-4.18,41.77-4.18,62.79Z"/><path class="cls-11" d="M1018.58,315.69c-.35,15.44-1.05,30.88-.94,46.32.08,11.26-4.05,18.59-15.56,20.79,0-20.55-.29-41.11.15-61.66.18-8.31-.19-18.28,13.2-16.73,0,0-.29.15-.29.15,1.15,3.71,2.3,7.42,3.45,11.13Z"/><path class="cls-6" d="M806.43,391.95c-6.93,5.5-14.36,9.58-23.67,8.2,1.52-5.58,2.1-11.22,2.08-17.05-.12-41.18-.04-82.36-.02-123.55,4.8.45,8.2-3.09,12.42-4.32,2.91.01,5.81.03,8.72.04.94,1.24,1.88,2.49,2.82,3.73-1.5,8.57,3.61,9.22,10.25,9.18,25.92-.19,51.86-.71,77.74.26,10.91.41,16.13-2.9,16.91-13.52,10.65,1.4,21.31,2.79,31.96,4.19.74,2.19,2.97,4.09,1.24,6.84-3.83,1.32-5.22-6.95-9.32-2.81-1.95,1.97.76,4.43,1.91,6.5-.16,43.48-.31,86.95-.47,130.43-7.8.67-13.75-3.17-19.33-7.91-5.29-8.44-4.68-17.85-4.48-27.19.59-28.54-3.88-56.71-6.12-85.04-.66-8.36-4.37-10.11-11.76-10.01-22.09.3-44.2.03-66.3.13-8.76.04-15.6-3.17-17.32,13.01-3.85,36.27-10.08,72.19-7.24,108.88Z"/><path class="cls-14" d="M945.62,259.11c-10.65-1.4-21.31-2.79-31.96-4.19-24.66-.46-48.96-7.59-73.76-4.4-10.67,1.37-21.69,2.25-31.13,8.48-.94-1.24-1.88-2.49-2.81-3.73-2.88-5.76-5.8-2.21-8.72-.04-4.21,1.23-7.62,4.77-12.42,4.32-6.07-1.64-11.49,2.75-17.47,1.88-11.3-.42-21.74,3.36-32.27,6.66-2.21-.19-4,.45-5.04,2.56-2.51.02-5.03.04-7.54.06,9.58-10.75,22.74-15.99,35.17-22.12,4.29-2.11,6.27-4.12,5.73-8.66,5.27.55,12.2,7.05,13.67-4.93.53-4.34,6.22-3.86,10.2-3.87,15.81,0,31.62-.02,47.43-.04,2.76,1.42,5.66,2.12,8.78,1.7,5.53,2.82,11.51,2.05,17.38,2.19,14.43,1.31,28.85,2.97,43.39,1.79,2.05.48,4.1.96,6.15,1.44,8.81,4.11,17.74,8,26.38,12.45,3.65,1.88,7.04,2.9,10.99,1.87-.71,2.19-1.42,4.39-2.13,6.58Z"/><path class="cls-13" d="M938.98,400.08c.16-43.48.31-86.95.47-130.43,5.54,3.87,9.28,10.54,17.04,10.96,4.47,32.42,1.15,65.02,2.03,97.52.16,5.98.62,11.47,4.57,16.2-7.87,2.6-15.13,7.8-24.11,5.75Z"/><path class="cls-4" d="M990.7,287.56c-6.28-2.85-16.99.87-16.91-11.41,4.7-6.52,9.64-.99,14.28-.03,8.82,1.81-3.22,2.81-.39,5.27,1.52,1.33,3.97,3.19,3.01,6.17Z"/><path class="cls-15" d="M1030.99,384.99v-47.28c.21,0,.43,0,.64,0v47.28h-.64Z"/><path class="cls-11" d="M722.49,270.71c2.51-.02,5.03-.04,7.54-.06-8.52,9.61-6.7,20.73-4.66,31.88-5.54,1.83-3.52,6.55-3.54,10.15-.14,23.54-.05,47.08-.03,70.62-9.27-.34-14.02-5.62-15.64-14.32-.87-21.22-1.78-42.44,2.16-63.5,7.83-1.75,9.79-6.85,8.6-14.22-.9-5.54-1.14-11.18-1.68-16.78,2.42-1.25,4.84-2.51,7.25-3.76Z"/><path class="cls-7" d="M1018.58,315.69c-1.15-3.71-2.3-7.42-3.45-11.13,2.13-.2,4.26-.39,6.39-.59,1.26.57,2.52,1.15,3.78,1.72.38,1.79.76,3.58,1.14,5.37-4.56.68-8.2,1.96-4.88,7.66-1.75-.27-2.5-1.51-2.98-3.03Z"/><path class="cls-15" d="M858.68,715.52c-.4-3.45.25-6.25,4.33-6.89,1.6.31,3.2.61,4.81.93-.08,4.59-5.38,3.2-6.95,6.09-.73-.04-1.46-.08-2.2-.12Z"/><path class="cls-12" d="M1245.6,955.89c-.52.11-.84.42-.98.93-7.77-4.49-11.28,6.35-18.17,5.06-.73,8.36-8.82,6.75-13.4,9.88-1.51,0-3.03,0-4.54.01-9.45,3.6-19.13,5.24-29.33,5.29-21.09.1-42.05-.98-62.43-6.56-25.1-6.87-42.78-17.39-45.65-48.46.78-2.35,1.94-4.64,2.27-7.05,2.4-17.77,10.08-32.57,24.14-43.9,9.06-4.17,3.37,10.49,9.55,7.88,4.64-1.96-1.94-11.02,5.82-12.9,19.37-3.52,38.27-1.73,56.76,4.89,4.2,6.38-1.28,15.8,6.6,21.02-.09.62-.16,1.24-.2,1.87-7.49,2.27-14.97,4.58-22.48,6.77-2.39.7-5.55.88-4.62,4.4,1.09,4.1,4.34,3.13,6.91,1.69,8.82-4.92,18.73-6.5,28.16-9.56,2.3,0,4.6,0,6.9.02,2.23.53,4.45,1.05,6.68,1.57.77,2.85,2.75,4.01,5.57,4.01-9.17,6.29-19.14,11.45-27.17,19.34-1.24,1.22-3.03,2.53-1.5,4.43,1.37,1.7,3.44,1.26,4.76-.11,9.59-9.95,22.43-15.31,33.14-23.66,2.19,0,4.38,0,6.56-.01,0,0,.37-.15.37-.15,2.97,5.98-2.47,8.33-5.35,11.33-8.72,9.08-18.14,17.52-24.8,28.38-2.28,3.72-5.2,7.54-.41,13.05,5.75-13.9,15.49-23.43,24.61-33.53,7.55-8.36,13.71-13.36,26.08-6.03,12.84,7.6,15.02,8.66,9.53,23.31-1.13,3.01-2.66,5.87-4.01,8.8-1.17,2.77-7.87,5.96.6,8Z"/><path class="cls-6" d="M1219.52,821.33c8.78-5.11,12.67,5.22,19.53,6.18-3.04,4.06-4.69,8.3-4.52,13.72.53,17.11.39,34.24.51,51.36-.94,1.89-1.87,3.78-2.81,5.67-2.96,5.42-8.39,3.5-12.89,4.32,0,0-.37.14-.37.15.19-27.13.37-54.27.55-81.4Z"/><path class="cls-2" d="M1197.59,898.74c-2.23-.52-4.45-1.04-6.68-1.57-4.06-13.9-.77-28.18-2.19-42.22,1.52-6.86-2.65-15.12,5.04-20.45,1.3.77,2.59,1.55,3.89,2.33.61-.64,1.23-1.29,1.84-1.94.77-1.37,1.53-2.73,2.3-4.1,4.35,3.14,4.74,7.72,4.72,12.56-.07,15.17-.34,30.35.09,45.51.2,6.87-1.97,10.25-9,9.88Z"/><path class="cls-5" d="M1212.4,902.74c-10.71,8.35-23.55,13.71-33.14,23.66-1.32,1.37-3.39,1.82-4.76.11-1.53-1.9.25-3.21,1.5-4.43,8.03-7.89,18-13.05,27.17-19.34,3.08,0,6.16,0,9.24,0Z"/><path class="cls-17" d="M1235.04,892.6c-.12-17.12.01-34.25-.51-51.36-.17-5.43,1.48-9.66,4.52-13.72,4.42-1.21,8.87-.87,13.32-.27,5.59,2.25,11.18,2.19,16.78.04,2.38.02,4.77.03,7.15.04,4.13,2.73,12.21.22,12.5,7.79.8,21.01,2.06,41.93,6.45,62.56.15.69-1.13,1.69-1.74,2.54-1.38-5.26-8.56-6.16-9.07-12.07-1.23-.97-2.46-1.95-3.7-2.92-.21-1.52-.42-3.04-.64-4.56.62-5.38-3.08-8.96-5.49-13.07,1.59-2.6,4.65-4.57,2.35-8.49-3.92-6.7-9.06-11.86-17.23-9.88-8.16,1.99-14.02,6.88-12.26,16.73.73,5.46-4.5,9.17-4.24,14.5l-.12.27c-.82,1.33-1.64,2.66-2.46,4-2.13,1.02-1.36,3.28-2.1,4.9-1.17.99-2.33,1.98-3.5,2.98Z"/><path class="cls-6" d="M1293.51,900.21c.61-.85,1.89-1.85,1.74-2.54-4.39-20.63-5.65-41.55-6.45-62.56-.29-7.57-8.38-5.06-12.5-7.79,4.46-3.29,14.17,4.56,14.74-6.95.76-.2,1.52-.4,2.28-.6,3.6.14,7.2.28,10.79.42,7.71,26.9,3.98,54.68,6.34,81.99-5.59.07-11.18.13-16.76.2-.06-.72-.12-1.44-.19-2.16Z"/><path class="cls-6" d="M1269.16,827.28c-5.6,2.15-11.2,2.21-16.78-.04,5.6-.99,11.19-1,16.78.04Z"/><path class="cls-10" d="M1151.95,800.37c5.41,12.99,17.83,19.17,27.35,28.17-.89.9-1.78,1.8-2.67,2.69-5.15-.5-10.56-1.53-11.55,5.98-2.83-.08-5.65-.16-8.48-.24-.33-1.37-.59-3.01-2.35-3.01-1.76,0-2.02,1.64-2.35,3.01-20.85,1.07-20.96.99-21.68-14.87,3.4-3.28.83-3.9-1.96-4.42-1.33-.86-2.66-1.72-3.99-2.58-.25-1.24-.5-2.47-.75-3.71.07-2.2.13-4.4.2-6.6-.28-3.45,1.58-7.91-4.12-8.82-.86-2.03-1.71-4.07-2.57-6.11.09-2.97.18-5.95.27-8.92,6.56-1.12,11.52.88,16.09,6.09,3.92,4.46,9.33,7.61,14.09,11.33,1.55.7,3.11,1.4,4.66,2.1l-.19-.09Z"/><path class="cls-8" d="M1124.27,815.09c1.33.86,2.66,1.72,3.99,2.58-.06,1.79.28,3.4,1.96,4.42.72,15.86.83,15.94,21.68,14.88,1.57,0,3.13,0,4.7,0,2.83.08,5.65.16,8.48.24,4.06,2.67,6.32,8.86,12.91,6.61.07,1.15.14,2.3.21,3.45-3.55,1.19-7.95.97-9.35,5.69-3.03-3.44-6.65-5.28-11.41-4.93-9.31.69-18.42-.22-27.04-4.16-2.04-9.6-4.09-19.19-6.13-28.79Z"/><path class="cls-11" d="M1168.86,852.96c1.39-4.73,5.79-4.51,9.35-5.69,1.35,13.8-1.01,27.73,1.53,41.51.42,2.26-1.8,2.69-3.51,3.18-7.88-5.22-2.39-14.64-6.6-21.02,2.9-1.9,1.68-3.94.21-5.99.71-4.08,1.06-8.14-.99-11.99Z"/><path class="cls-7" d="M1184.01,897.14c-9.42,3.06-19.34,4.65-28.16,9.56-2.57,1.43-5.82,2.41-6.91-1.69-.94-3.52,2.23-3.7,4.62-4.4,7.51-2.2,14.99-4.51,22.48-6.77,2.65,1.13,6.85-1.5,7.97,3.31Z"/><path class="cls-8" d="M1193.76,834.5c-7.69,5.34-3.51,13.59-5.04,20.45-8.34-5.89-3.4-14.72-4.49-22.14-.26-1.78,4.11-4,7.09-3.59,2.8.38,2.06,3.29,2.44,5.28Z"/><path class="cls-9" d="M1177.99,843.82c-6.58,2.25-8.84-3.94-12.91-6.61.99-7.51,6.41-6.48,11.55-5.98.46,4.2.91,8.4,1.36,12.59Z"/><path class="cls-13" d="M1199.49,834.88c-.61.65-1.23,1.3-1.84,1.94.61-.65,1.23-1.29,1.84-1.94Z"/><path class="cls-16" d="M1304.12,820.19c-3.6-.14-7.2-.28-10.79-.42,4.91-8.09,9.81-16.17,14.71-24.26,2.45,9.11-2.06,16.47-2.49,24.48,0,0-.75-.15-.75-.15l-.68.35Z"/><path class="cls-1" d="M1213.04,971.75c4.59-3.13,12.67-1.51,13.4-9.88,6.89,1.3,10.4-9.54,18.17-5.06-1.63,5.13-8.18,7.1-8.41,13.13-1.46.15-2.92.3-4.39.46-6.84,3.93-15.06,5.05-21.22,10.39-1.49.03-2.97.07-4.46.1-10.59-1.15-17.18,1.95-15.91,14.27.32,3.1-.76,6.34-1.19,9.51-1.36-.01-2.72-.02-4.07-.03-.07-2.51-.31-5.03-.2-7.54.58-13.43.6-13.07-13.56-13.55-12.21-.41-24.44-1.3-36.55-2.83-8-1.01-11.36.71-10.33,9.45.73,6.21,1.33,12.8-2.02,18.75-.9-1.42-1.79-2.85-2.69-4.27.23-6.84.53-13.68.67-20.53.07-3.25.56-7.22-4.98-4.96-1.91-4.77-5.59-4.09-8.85-2.26-2.54,1.43-.62,4.26.27,5.69,3.98,6.43,4.61-4.42,8.08-1.76-1.37,4.31-2.74,8.62-4.11,12.93-2.08-3.01-4.85-3.54-8.12-2.27-3.49-3.32-3.97-7.06-1.96-11.41,1.5-3.26,2.73-6.53-1.77-8.96-4.61-2.49-7.22-.5-9.44,3.26-1.21-.09-2.41-.18-3.62-.28,2.16-5.63,1.61-9.9-3.43-14.53-10.76-9.89-17.49-21.99-14.9-37.47,1.21-.03,2.42-.06,3.63-.09,2.87,31.07,20.55,41.58,45.65,48.46,20.38,5.58,41.34,6.67,62.43,6.56,10.2-.05,19.88-1.69,29.33-5.29,1.52,2.46,3.03,2.38,4.54-.01Z"/><path class="cls-5" d="M1293.51,900.21c.06.72.12,1.44.19,2.16,4.33,6.17,12.91,5.45,17.75,11.22,3.72,4.45,6.03,8.08.18,13.62-2.52-9.69-9.29-14.09-17.91-16.64-5.4-1.6-31.53,3.69-35.38,7.54-1.95,1.95-.64,4.04-.7,6.08-.31,9.97-2.4,19.32-9.46,26.92-1.06-1.08-2.11-2.15-3.17-3.23,1.35-2.93,2.88-5.79,4.01-8.8,5.49-14.65,3.31-15.7-9.53-23.31-12.37-7.33-18.53-2.32-26.08,6.03-9.13,10.1-18.87,19.63-24.61,33.53-4.8-5.51-1.88-9.33.41-13.05,6.66-10.86,16.08-19.3,24.8-28.38,2.88-3,8.32-5.34,5.35-11.33,4.5-.83,9.93,1.1,12.89-4.32,1.68.15,4.92.29,3.94,2.04-5.04,9.07,2.66,9.88,7.41,10.66,10.98,1.79,21.73.5,31.33-6.47-3.14-4.47-7.45-5.57-11.54-5.71-7.88-.28-3.02-4.35-2.55-7.17l-.18.13c8.24.86,16.02-1.3,23.78-3.6.52,5.91,7.7,6.81,9.08,12.07Z"/><path class="cls-5" d="M1102.6,859.41c-5.49-25.47-13.11-50.27-25.96-73.04-15.75-27.91-41.8-39.32-72.18-43.09-2.23-.28-5.69,1.36-5.76-2.54-.06-3.4,3.31-3.35,5.71-3.49,9.27-.54,17.59,3.19,26.17,5.93,29.19,9.34,48.42,28.51,59.25,57.17,7.54,19.95,14.7,39.9,18.58,60.91-1.94-.62-3.87-1.23-5.81-1.85Z"/><path class="cls-5" d="M976.47,762.02c.57,15.27,2.32,16.75,19.57,15.12,15.55-1.47,30.9-1.73,46.02,3.21,21.38,6.99,31.83,22.9,36.51,43.72-.85.06-1.71.12-2.56.18-8.87-15.43-16.18-32.27-35.72-37.68-9.82-2.72-19.76-3.56-29.86-3.06-6.1.3-12.2.88-18.3,1.07-18.71.58-23.85-6.63-18.4-25.6.91,1.01,1.83,2.03,2.74,3.04Z"/><path class="cls-5" d="M1206.15,980.89c1.49-.03,2.97-.07,4.46-.1,3.73,4.8,3.54,10.77,4.71,16.29,2.66,12.56,8.28,23.53,17.01,32.85,3.54,3.78,8,6.56,13.4,4.19,6.26-2.75,2.43-7.98,2.41-12.24,1.17-.61,2.33-1.22,3.5-1.83,3.08,6.13,4.82,12.45-1.17,17.66-6.53,5.68-12.86,2.07-18.82-1.64-5.47-3.41-8.93-8.86-13.9-16.54-1.45,9.11.55,15.47-.98,21.65-1.94,7.8-6.07,13.71-14.11,14.34-7.3.57-11.77-4.85-14.27-11.31-2.46-6.37-4.02-13-3.53-19.94,1.38,0,2.76,0,4.14-.01.04,2.86.06,5.72.14,8.58.22,7.78,7.57,17.67,13.28,17.01,9.97-1.16,9.43-9.07,9.85-16.42,1.01-17.88-2.03-35.26-6.1-52.53Z"/><path class="cls-5" d="M1119.62,1004.66c.9,1.42,1.79,2.85,2.69,4.27-.93,9.02-1.44,18.12-2.96,27.04-.72,4.2-.78,10.53-6.79,10.81-5.49.25-6.99-5.11-8.54-9.58-2.4-6.9-2.95-13.97-2.43-21.18.33-4.57.81-9.14-1.33-13.46,4.28,2,4.8-5.05,8.82-3.66-.86,13.59-5.26,27.42,2.16,40.6,3.38-1.1,2.55-3.76,3.47-5.54,4.76-9.27-.26-20.13,4.9-29.28Z"/><path class="cls-5" d="M1169.85,864.96c1.46,2.05,2.68,4.1-.21,5.99-18.49-6.63-37.4-8.42-56.76-4.89,0-1.37.01-2.74.02-4.11,19.31-5.21,38.28-3.94,56.96,3.01Z"/><path class="cls-7" d="M1071.1,922.03c-1.21.03-2.42.06-3.63.09-1.74-19.53,8.88-34.22,19.4-48.84,1.46-2.03,3.81-4.5,7.25-3.64,1.13.48,2.26.96,3.39,1.44-14.06,11.32-21.75,26.13-24.14,43.9-.32,2.41-1.49,4.71-2.27,7.05Z"/><path class="cls-7" d="M1085.79,974.12c1.21.09,2.41.18,3.62.28-1.69,9.05-7.47,16.1-11.98,23.69-5.34,8.99-9.01,18.59-12.52,28.32-1.34-.72-2.67-1.43-4.01-2.15,2.44-19.62,15.97-33.74,24.89-50.14Z"/><path class="cls-7" d="M1251.62,1020.04c-1.17.61-2.33,1.22-3.49,1.83-.07-.57.15-.98.66-1.24.71-1.45-.06-2.26-1.25-2.88-.53-1.28-1.16-2.53-1.59-3.85-4.68-14.51-6.31-30.01-14.13-43.5,1.46-.15,2.92-.3,4.39-.46,9.02,11.39,9.74,25.73,13.24,38.97.91,3.46,2.73,7.2,2.18,11.13Z"/><path class="cls-1" d="M1097.51,871.08c-1.13-.48-2.26-.96-3.39-1.44.63-5.24,8.86-4.16,8.48-10.23,1.94.62,3.87,1.23,5.81,1.85,1.49.23,2.99.46,4.48.69,0,1.37-.01,2.74-.02,4.11-7.75,1.88-1.17,10.94-5.82,12.9-6.18,2.61-.49-12.05-9.55-7.88Z"/><path class="cls-5" d="M1060.9,1024.27c1.34.71,2.67,1.43,4.01,2.15.88,15.14,1.15,15.37,12.72,10.54,1.01,1.01,2.01,2.03,3.02,3.04-4.61,4.24-10.29,8.84-16.09,5.17-7.72-4.9-3.68-13.64-3.66-20.89Z"/><path class="cls-1" d="M1076.01,824.26c.85-.06,1.71-.12,2.56-.18,3.95,7.98,12.37,37.2,12.33,46.15-10.06-15.76-10.25-31.65-14.9-45.97Z"/><path class="cls-7" d="M1080.65,1040c-1.01-1.01-2.01-2.03-3.02-3.04,7.06-6.94,12.53-14.99,17.05-23.89.81,11.89-5.24,20.12-14.04,26.93Z"/><path class="cls-7" d="M1188.98,1024.25c-1.38,0-2.76,0-4.14.01-.95-6.55-2.04-13.09.14-19.62,1.36.01,2.72.02,4.07.03,1.17,6.53,1.14,13.05-.07,19.57Z"/><path class="cls-7" d="M1109.09,998.89c-4.02-1.39-4.54,5.67-8.82,3.66-1.24-4.1,2.62-7.14,2.31-11.05,3.27-1.27,6.05-.74,8.12,2.27.45,2.02-.16,3.7-1.61,5.11Z"/><path class="cls-7" d="M976.47,762.02c-.91-1.01-1.83-2.03-2.74-3.04,1.88-4.6,4.46-8.73,8.19-12.08.29,1.52.58,3.04.86,4.56-.92,4.23-4.02,7.15-6.31,10.56Z"/><path class="cls-5" d="M987.51,742.43c.24-.25.44-.57.73-.73,2.91-1.62,7.01-4.58,8.52-.18,1.19,3.46-4.26,3.12-6.77,4.47-.83-1.19-1.66-2.37-2.49-3.56Z"/><path class="cls-1" d="M1245,947.89c1.06,1.08,2.11,2.15,3.17,3.23-.86,1.59-1.71,3.19-2.57,4.78-8.47-2.05-1.77-5.23-.6-8Z"/><path class="cls-5" d="M982.78,751.46c-.29-1.52-.58-3.04-.86-4.56.63-.62,1.26-1.24,1.88-1.86,1.08.79,2.16,1.59,3.24,2.38-1.42,1.34-2.84,2.69-4.26,4.03Z"/><path class="cls-5" d="M983.8,745.04c1.24-.87,2.47-1.74,3.71-2.62.83,1.19,1.66,2.37,2.49,3.56-.99.48-1.97.96-2.96,1.44-1.08-.79-2.16-1.59-3.24-2.38Z"/><path class="cls-8" d="M1123.72,804.79c-.07,2.2-.13,4.4-.2,6.6-6.2-1.78-3.3-7.07-4.2-10.89,1.47,1.43,2.94,2.87,4.4,4.3Z"/><path class="cls-9" d="M1117.3,780.94c-.09,2.97-.18,5.94-.27,8.92-2.78-2.35-4.12-5.39-4.27-9,1.51.03,3.02.06,4.54.08Z"/><path class="cls-9" d="M1123.72,804.79c-1.47-1.43-2.93-2.87-4.4-4.3.09-1.51.18-3.02.28-4.53,5.71.92,3.85,5.37,4.12,8.82Z"/><path class="cls-3" d="M1110.86,755.85c4.89,6.46,10.24,12.62,13.69,20.07q-12.45.38-13.69-20.07Z"/><path class="cls-6" d="M1152.14,800.46c-1.55-.7-3.1-1.4-4.66-2.1,1.92-.11,3.56.38,4.66,2.1Z"/><path class="cls-17" d="M806.43,391.95c-2.84-36.68,3.39-72.6,7.24-108.88,1.72-16.18,8.55-12.97,17.32-13.01,22.1-.1,44.2.17,66.3-.13,7.39-.1,11.1,1.65,11.76,10.01,2.24,28.33,6.71,56.5,6.12,85.04-.19,9.34-.81,18.75,4.48,27.19-9.08-1.86-11.45-11.14-17.75-16.08-2.56-9.48-9.47-16.79-12.86-25.85-.15-5.38-5.45-9.16-4.61-14.85,2.11-1.96,6.39-1.73,5.4-6.7-3.21-16.25-24.16-26.88-39.1-19.59-8.69,4.24-19.96,20.52-15.99,24.06,7.53,6.73,1.83,11.46-.42,16.69-3.91,9.1-8.39,17.95-12.63,26.9-4.77,5.38-8.86,11.44-15.26,15.18Z"/><path class="cls-2" d="M765.1,396.27c-10.8-1.06-21.1-3.9-30.82-8.73,3.64-2.55,3.1-6.6,2.35-9.77-3.14-13.36-1.2-26.91-2.12-40.34.03-5.4,1.33-11.18-.13-16.15-4.9-16.71.85-30.22,10.92-42.86,1.49.11,2.97.21,4.46.32-.02,2.9-.05,5.79-.07,8.69-1.21.88-1.97,2.28-.46,3.04,2.11,1.06,2.6-.96,3.09-2.5.63-1.22,1.62-2.38,1.83-3.67.59-3.61-1.12-8.48,4.39-9.4,6.79-1.13,2.97,5.9,5.69,8.06.54.43.94,1.05,1.41,1.58-.18,37.24-.35,74.49-.53,111.73Z"/><path class="cls-13" d="M765.1,396.27c.18-37.24.35-74.49.53-111.72,7.12-3.67.07-13.5,7.43-17.07-1.36-2.5-3.64-1.64-5.7-1.56,0-1.5,0-2.99-.01-4.49,5.98.86,11.4-3.53,17.47-1.89-.02,41.19-.1,82.37.02,123.55.02,5.83-.56,11.47-2.08,17.05-6.06-.48-12.97,2.86-17.66-3.88Z"/><path class="cls-1" d="M821.69,376.77c4.24-8.95,8.72-17.81,12.63-26.9,2.25-5.23,7.95-9.96.42-16.69-3.96-3.54,7.3-19.82,15.99-24.06,14.94-7.29,35.88,3.34,39.1,19.59.98,4.97-3.29,4.74-5.4,6.7-1.62.85-3.24,1.71-4.86,2.56-4.94-7.1-6.5-18.49-17.91-18-10.82.46-11.88,11.4-15.76,18.69-5.6,10.52-10.31,21.51-15.56,32.22-1.7,3.46-3.16,7.75-8.64,5.9Z"/><path class="cls-15" d="M734.51,337.44c.92,13.43-1.02,26.98,2.12,40.34.74,3.17,1.29,7.21-2.35,9.77-4.52-.35-9.04-.7-12.48-4.24-.02-23.54-.11-47.08.03-70.62.02-3.6-2-8.31,3.55-10.15.21,2.48-.18,5.19.71,7.4,3.59,8.95-1.35,20.5,8.42,27.51Z"/><path class="cls-7" d="M821.82,419.69c10.82,2.28,21.64,4.56,32.45,6.84-2.12,4.06-.45,6.1,3.68,6.41,2.88.22,4.75,1.24,5.06,4.3-16.64,1.34-32-2.45-46.07-11.45,1.62-2.03,3.25-4.07,4.87-6.1Z"/><path class="cls-5" d="M869.56,426.63c10.29-4.6,21.2-6.09,32.32-6.33,3.9-.08,8.49-.45,10.25,3.95,1.67,4.18-2.45,6.28-4.88,8.65-2.76,2.69-5.33,5.86-9.53,6.53-.97-2.09-1.94-4.18-2.91-6.27.5-2.07,2.56-5.8-2.18-4.01-4.75,1.79-9.52.36-14.12,1.61-3.71.21-7.15-.2-8.95-4.13Z"/><path class="cls-1" d="M894.82,433.16c.97,2.09,1.94,4.18,2.91,6.27-11.95,5.22-23.38,2.36-34.71-2.19-.31-3.06-2.17-4.08-5.06-4.3-4.13-.31-5.81-2.35-3.68-6.41,5.09.03,10.19.07,15.28.1,1.81,3.93,5.24,4.33,8.95,4.13,4.59,6.55,10.58,3.54,16.3,2.4Z"/><path class="cls-7" d="M854.3,376.51c1.13-4.54,2.52-9.03,3.31-13.63.78-4.49,3.49-4.93,7.05-4.13,4.13.94,2,3.27,1.47,5.69-1.31,5.94-2.23,12.08,1.68,17.52,2.61,3.63,1.3,5.89-2.14,7.69-3.23-1.7-11.08,2.39-9.52-3.04,1.42-4.92-2.87-6.66-1.85-10.12Z"/><path class="cls-5" d="M854.3,376.51c-1.02,3.45,3.27,5.19,1.85,10.12-1.56,5.43,6.29,1.34,9.52,3.04-7.41,3.85-15.73,10.79-16.28-5.68-.16-4.87-4.06-2.32-6.53-2.15-3.06.2-6.52-.08-5.83-3.89.35-1.91,3.7-3.22,6.76-2.59,3.44.7,7,.8,10.51,1.16Z"/><path class="cls-5" d="M889.03,350.25c3.39,9.06,10.3,16.37,12.86,25.85-4.45,1.72-6.7-1.15-8.11-4.45-2.58-6.04-6.72-11.46-7.38-18.27.88-1.04,1.75-2.09,2.63-3.13Z"/><path class="cls-5" d="M821.82,419.69c-1.62,2.03-3.25,4.07-4.87,6.1-.67-.22-1.43-.32-2.01-.7-3.08-2.04-8.86-3.47-6.49-8.06,2.92-5.66,7.2-.82,10.74.86.95.45,1.76,1.19,2.63,1.79Z"/><path class="cls-7" d="M889.03,350.25c-.88,1.04-1.75,2.09-2.63,3.13-2.93-4.85-5.51-9.85-6.84-15.41,1.62-.86,3.24-1.71,4.86-2.56-.84,5.69,4.45,9.47,4.61,14.85Z"/><path class="cls-14" d="M808.77,259.01c9.44-6.23,20.47-7.11,31.13-8.48,24.8-3.19,49.1,3.94,73.76,4.4-.77,10.62-6,13.93-16.91,13.52-25.88-.97-51.82-.45-77.74-.26-6.64.05-11.75-.6-10.25-9.18Z"/><path class="cls-3" d="M797.23,255.24c2.92-2.17,5.84-5.72,8.72.04-2.91,0-5.81-.02-8.72-.04Z"/><path class="cls-8" d="M734.51,337.44c-9.77-7.01-4.83-18.56-8.42-27.51-.88-2.21-.5-4.92-.71-7.4-2.04-11.15-3.86-22.27,4.65-31.88,1.04-2.1,2.83-2.74,5.04-2.56.15,4.17,3.11,4.48,5.91,3.58,10.65-3.46,4.35,3.6,4.32,6.76-10.06,12.64-15.82,26.15-10.92,42.86,1.46,4.97.16,10.74.13,16.15Z"/><path class="cls-4" d="M745.3,278.43c.03-3.16,6.33-10.22-4.32-6.76-2.79.91-5.75.6-5.91-3.58,10.54-3.3,20.98-7.07,32.28-6.66,0,1.5,0,2.99.01,4.49-6.38,3.57-17.99-.03-17.6,12.82-1.49-.11-2.97-.21-4.46-.32Z"/><path class="cls-5" d="M1213.04,971.75c-1.51,2.4-3.02,2.48-4.54.01,1.51,0,3.03,0,4.54-.01Z"/><path class="cls-16" d="M1260.83,891.61c-.47,2.82-5.33,6.88,2.55,7.17,4.09.15,8.39,1.24,11.54,5.71-9.6,6.97-20.35,8.26-31.33,6.47-4.75-.77-12.45-1.59-7.41-10.66.97-1.75-2.27-1.89-3.94-2.04.93-1.89,1.87-3.79,2.81-5.67,1.17-.98,2.34-1.98,3.5-2.97,2.55,5.33,4.91,11.17,11.82,4.18,2.5-.13,3.76-1.46,3.88-3.94,2.68-1.26,4.46.9,6.59,1.74Z"/><path class="cls-1" d="M1247.47,865.97c-1.75-9.85,4.1-14.74,12.26-16.73,8.17-1.99,13.31,3.18,17.23,9.88,2.3,3.92-.77,5.89-2.35,8.49-.54-.18-.95-.03-1.24.47-3.4-.42-7.36.24-8.45-4.54-.54-2.39,2.02-6.27-2.56-6.76-4.23-.45-5.9,3.19-7.85,6.14-1.34,2.03-2.75,4-4.14,6-.97-.98-1.94-1.96-2.91-2.94Z"/><path class="cls-5" d="M1260.83,891.61c-2.13-.83-3.91-2.99-6.59-1.74-3.77-5.1-4.02-8.51,3.75-9.06,5.99-.42,11.94-1.48,17.9-2.25,1.4.7,2.81,1.41,4.21,2.11.21,1.52.42,3.04.64,4.56-7.46-.17-16.18-4.27-20.09,6.51l.18-.13Z"/><path class="cls-16" d="M1260.65,891.74c3.91-10.78,12.63-6.68,20.09-6.51,1.23.97,2.47,1.95,3.7,2.92-7.76,2.3-15.55,4.45-23.79,3.59Z"/><path class="cls-5" d="M1250.36,893.8c-6.91,6.98-9.27,1.14-11.82-4.18.75-1.61-.03-3.88,2.1-4.89,2.2-.48,2.74-1.99,2.46-4,0,0,.12-.27.12-.26.74.1,1.47.2,2.21.3-1.46,5.52,1.79,9.26,4.92,13.04Z"/><path class="cls-7" d="M1245.44,880.76c-.74-.1-1.47-.2-2.21-.3-.26-5.33,4.97-9.04,4.24-14.5.97.99,1.94,1.97,2.92,2.95-.25,4.53-2.67,8.16-4.95,11.85Z"/><path class="cls-7" d="M1280.1,880.67c-1.4-.7-2.81-1.41-4.21-2.11-.84-3.49-1.68-6.99-2.51-10.48.29-.5.7-.65,1.24-.47,2.41,4.11,6.1,7.68,5.48,13.07Z"/><path class="cls-7" d="M1243.11,880.73c.28,2.01-.26,3.52-2.46,4,.82-1.33,1.64-2.67,2.46-4Z"/><path class="cls-9" d="M1130.23,822.1c-1.69-1.01-2.02-2.63-1.96-4.42,2.79.52,5.37,1.14,1.96,4.42Z"/><path class="cls-9" d="M1156.61,836.97c-1.56,0-3.13,0-4.7,0,.33-1.37.59-3.02,2.35-3.02,1.76,0,2.02,1.64,2.35,3.01Z"/><path class="cls-3" d="M1231.82,970.4c7.82,13.49,9.44,28.99,14.13,43.5.42,1.32,1.05,2.57,1.59,3.85-.43,1.33-.59,2.54,1.25,2.88-.51.26-.73.67-.66,1.24.02,4.27,3.86,9.49-2.41,12.25-5.4,2.37-9.86-.41-13.4-4.19-8.72-9.32-14.35-20.29-17.01-32.85-1.17-5.51-.98-11.49-4.71-16.29,6.16-5.34,14.38-6.46,21.22-10.39Z"/><path class="cls-3" d="M1188.98,1024.25c1.2-6.52,1.24-13.04.07-19.57.43-3.17,1.51-6.42,1.19-9.51-1.27-12.32,5.32-15.42,15.91-14.27,4.06,17.27,7.11,34.65,6.1,52.53-.42,7.35.12,15.26-9.85,16.42-5.71.66-13.06-9.23-13.28-17.01-.08-2.86-.1-5.72-.14-8.58Z"/><path class="cls-9" d="M1109.09,998.89c1.46-1.41,2.07-3.09,1.61-5.11,1.37-4.31,2.74-8.62,4.11-12.93.6-.42.77-.98.5-1.67,5.55-2.26,5.05,1.7,4.98,4.96-.15,6.84-.44,13.68-.67,20.53-5.17,9.16-.15,20.02-4.9,29.28-.91,1.78-.09,4.45-3.47,5.54-7.43-13.18-3.03-27.01-2.16-40.6Z"/><path class="cls-7" d="M1115.31,979.18c.27.69.1,1.24-.5,1.67-3.47-2.66-4.09,8.19-8.08,1.76-.89-1.43-2.81-4.26-.27-5.69,3.25-1.83,6.94-2.51,8.85,2.26Z"/><path class="cls-5" d="M1248.78,1020.63c-1.84-.34-1.68-1.55-1.25-2.88,1.19.62,1.96,1.43,1.25,2.88Z"/><path class="cls-16" d="M749.76,278.75c-.39-12.86,11.22-9.25,17.6-12.82,2.07-.08,4.34-.94,5.7,1.56-7.36,3.57-.32,13.4-7.43,17.07-.46-.54-.86-1.15-1.4-1.58-2.71-2.16,1.1-9.19-5.69-8.06-5.51.92-3.8,5.79-4.39,9.4-.21,1.29-1.2,2.45-1.83,3.67-.88-.18-1.75-.36-2.63-.54.02-2.9.05-5.79.07-8.69Z"/><path class="cls-4" d="M749.69,287.44c.88.18,1.75.35,2.63.54-.49,1.55-.97,3.57-3.09,2.51-1.51-.76-.75-2.16.46-3.04Z"/><path class="cls-15" d="M894.82,433.16c-5.72,1.14-11.72,4.15-16.3-2.4,4.6-1.24,9.37.18,14.12-1.61,4.75-1.79,2.69,1.93,2.18,4.01Z"/><path class="cls-9" d="M1273.38,868.07c.84,3.49,1.68,6.99,2.51,10.48-5.97.77-11.91,1.83-17.9,2.25-7.77.55-7.53,3.96-3.75,9.06-.12,2.47-1.38,3.81-3.88,3.94-3.13-3.79-6.38-7.53-4.92-13.04,2.28-3.69,4.69-7.32,4.94-11.85,1.38-2,2.8-3.97,4.14-6,1.94-2.95,3.62-6.59,7.85-6.14,4.58.49,2.02,4.37,2.56,6.76,1.09,4.78,5.05,4.12,8.45,4.54Z"/></svg>