<?xml version="1.0" encoding="UTF-8"?><svg id="Layer_1" xmlns="http://www.w3.org/2000/svg" viewBox="0 0 1920 1080"><defs><style>.cls-1{fill:#f47010;stroke-width:0px;}</style></defs><path class="cls-1" d="M1169.8,627.13c1.83-.02,4.05-2.64,5.35-.15,1.41,2.69-1.71,3.58-3.3,4.74-3.85,2.82-8.2,4.67-12.88,5.63-1.36.28-3.1.7-3.82-1.07-.77-1.89.87-2.48,2.15-3.14,1.24-.64,2.8-.8,3.71-2.82-3.08-.92-6.1-1.74-9.07-2.72-2.92-.96-6.68-1.69-7.32-4.95-.69-3.46,2.55-5.7,5.01-7.8,3.34-2.86,7.22-4.89,11.25-6.57,9.22-3.84,18.49-7.54,27.72-11.33,1.12-.46,2.52-.49,3.27-1.79-1.53-1.08-3.15-.37-4.63-.16-16.55,2.34-33.04,5.02-49.45,8.18-1.17.23-2.99-.39-3.38,1.63-.02.11.17.29.3.4.11.1.26.16.4.23-.09-.16-.17-.46-.26-.46-2.33-.07-4.66-.07-6.98-.2-.41-.02-1.02-.53-1.14-.93-.25-.83.36-1.11,1.13-1.4,8.82-3.39,18.17-4.48,27.34-6.33,21.56-4.35,43.37-7.05,65.2-9.6,4.44-.52,5.98.4,5.04-6.26-1.56-10.97-2.87-21.97-4.24-32.97-.22-1.73-1.12-4.48.88-4.81,2.6-.43,1.67,2.62,2.01,4.14,2.58,11.36,3.56,22.96,5.13,34.48.57,4.19.59,4.25,4.66,3.68,36.01-5.02,72.32-6.99,108.48-10.51,7.96-.77,15.92-1.43,23.88-2.22,3.75-.37,3.94-.57,3.43-4.44-.85-6.48-1.92-12.94-2.78-19.42-1.6-12.11-1.6-24.28-1.27-36.46.06-2.33.64-4.67,1.15-6.96.29-1.32,1.26-2.34,2.71-2.23,1.54.12,1.98,1.4,2.08,2.76.34,5.07.74,10.13.99,15.2.76,15.83,3.75,31.36,5.99,47,.41,2.89,1.87,2.93,4.12,2.71,14.65-1.39,29.31-2.6,43.96-4.03,18.99-1.85,37.89-4.41,56.75-7.22.54-.08,1.08-.15,1.62-.25,4.04-.74,4.07-.75,3.43-4.99-2.57-16.88-5.14-33.75-7.75-50.62-.47-3.07-.54-6.15-.37-9.24.08-1.46.32-2.95,1.46-3.99.93-.85,1.97-.94,2.58.44.21.48.15,1.07.26,1.6,3.94,19.76,8.48,39.4,11.66,59.32.06.36.1.72.17,1.08.87,4.39.88,4.44,5.2,3.79,13.65-2.05,27.29-4.21,40.95-6.19,7.36-1.07,14.77-1.86,22.31-1.93-3.96.62-7.94,1.2-11.89,1.87-17.19,2.9-34.39,5.8-51.57,8.75-3.61.62-4.42,2.02-3.5,5.56,3.8,14.58,5.53,29.49,7.18,44.42.42,3.79.73,7.59,1.14,11.39.46,4.21.5,4.26,4.66,3.62,10.59-1.64,21.16-3.38,31.76-4.98,3.16-.48,6.36-.63,9.63-.55-1.61,1.28-3.57,1.34-5.43,1.68-11.98,2.16-23.94,4.41-35.94,6.4-3,.5-3.96,1.64-3.64,4.62,1.52,13.9,2.97,27.81,4.29,41.74.29,3.09,2.01,2.77,4.14,2.52,14.25-1.64,28.51-3.24,42.77-4.84,19-2.13,37.99-4.51,56.29-4.36-4.95,1.16-10.92,1.11-16.82,1.58-19.2,1.55-38.27,4.2-57.41,6.3-7.94.87-15.88,1.84-23.81,2.77-4.41.52-4.61.73-4.34,4.99.54,8.7,1.08,17.4,1.69,26.1.36,5.1.41,5.06,5.43,4.41,29.18-3.83,58.35-7.65,87.53-11.41,1.83-.24,3.84-1.04,5.75.28-1.23,2.18-3.25,1.73-4.92,2.02-29.51,5.21-59.15,9.66-88.79,14.04-4.26.63-4.3.66-4.19,5.06.17,6.36.44,12.71.61,19.07.06,2.15.96,2.9,3.08,2.43,10.98-2.44,21.98-4.84,32.96-7.28.29-.06.49-.5.85-.88-1.11-2.1-2.96-3.96-2.86-6.76.12-3.38,2.29-6,3.08-9.15.49-1.96,3.08-1.43,4.83-.91,6.26,1.86,8.87,6.4,7.98,14.46,16.71-1.72,32.5-7.76,49.97-9.65-1.64,2.63-3.6,2.52-5.15,2.92-25.29,6.49-50.78,12.14-76.21,18.05-5.13,1.19-10.26,2.38-15.4,3.49-2.13.46-2.97,1.56-2.92,3.78.25,11.62.34,23.25.59,34.88.07,3.38.35,3.61,4.05,2.83,8.71-1.82,17.38-3.81,26.07-5.71,27.79-6.1,55.65-11.79,83.68-16.68.89-.15,1.74-.47,2.61-.72v2.18c-1.25-.68-2.49-.2-3.71.05-34.8,7.22-69.64,14.24-104.12,22.88-10.25,2.57-8.49.31-8.63,10.72-.1,7.58-.02,15.16-.02,22.5,1.33.69,2.2.38,3.07.15,19.12-5.12,38.28-10.04,57.68-14.03,4.05-.83,4.07-.99,3.05-5.1-1.13-4.59-2.26-9.18-2.39-13.92-.04-1.61.2-3.49,2.36-3.7,1.76-.17,2.45,1.28,3,2.67,1.49,3.75,1.85,7.76,2.51,11.69,1.07,6.38,1.01,6.4,7.59,5.29,5.04-.85,10.06-1.83,15.46-1.78-.61,1.22-1.3,1.38-2.01,1.51-8.86,1.74-17.74,3.4-26.59,5.24-20.27,4.2-40.31,9.39-60.25,14.93-2.75.76-3.7,2.15-3.65,4.98.15,9.45.04,18.9.07,28.34,0,3.27.14,6.54.18,9.81.03,2.27.8,3.51,3.32,2.58.68-.25,1.4-.39,2.09-.6,18.7-5.89,37.4-11.79,56.09-17.7,1.19-.38,2.54-.42,3.4-1.54-2.41-3.13-2.39-3.67.44-5.74,1.46-1.07,3.06-1.95,4.51-3.04,1.58-1.18,2.57-2.48.95-4.51-2.68-3.37-1.86-6.77.29-10.07.37-.38.74-.75,1.11-1.12-.71-.46-1.34-.47-1.84.3-3.23.2-6.27,1.92-9.61,1.26-1.14-.22-2.06-.78-2.27-2-.21-1.24.39-2.1,1.56-2.49,5.63-1.91,10.83-5.08,16.91-5.64,1.26-.12,2.49-.38,3.76-.1,3.79.83,5.16,3.61,3.03,6.83-1.38,2.08-3.26,3.85-5.01,5.68-1.4,1.46-1.99,2.68-.54,4.64,2.53,3.4,1.76,6.76-.84,9.9-.71.85-2.11,1.31-1.9,3.33,13.7-4.08,27.28-7.87,40.95-11.33v2.18c-7.38,1.96-14.69,4.12-21.92,6.63-11.13,3.87-22.45,7.22-33.67,10.84-18.82,6.08-37.61,12.22-56.43,18.3-2.11.68-4.2,1.05-4.08,4.1.33,8.16.5,16.33.7,24.5.05,2.12,1.13,2.39,2.85,1.79,5.23-1.84,10.46-3.66,15.85-5.55-.81-1.76-1.55-3.02-2-4.38-1.88-5.73,2.92-14.08,8.51-14.91,3.23-.48,3.9.27,3.1,3.64-.18.77-.12,1.42.23,2.04,1.65,2.94,1.94,6.07.76,9.43,3.93-.73,3.96-.72,4.81-3.77.25-.89.55-1.71,1.22-2.37,1.82-1.78,5.16-1.78,5.24.07.14,3.36,1.96,2.39,3.6,1.91,5.91-1.76,11.79-3.63,17.67-5.47,4.11-1.28,8.21-2.58,13.2-4.14-2.78-3.1-2.75-6.3-2.14-9.56.32-1.74-1.06-2.58-1.85-3.73-1.43-2.08-1.85-4.31-.85-6.7,1.01-2.42,3.1-3.84,5-3.28,2.5.73,1.78,2.75,1.74,4.51,0,.29.35.59.57.94,2.2-.69,4.11-2.33,6.64-2.05,2.58.28,4.61,1.26,5.25,3.93.65,2.72-.75,4.56-3.06,5.73-1.12.57-2.41.79-3.58,1.27-2.47,1.03-3.09,2.7-2.13,5.17.93,2.37,2.18,2.77,4.43,1.37,1.13-.7,2.79-.65,4.23-.73.94-.06,1.82.44,1.79,1.56-.03.84-.8,1.14-1.54,1.24-3.94.58-7.58,2.19-11.34,3.37-24.56,7.77-49.03,15.83-73.38,24.24-4.43,1.53-4.43,1.57-4.3,6.1.27,10.16.56,20.33.85,30.49.05,1.63.21,3.26.24,4.9.03,2.05,1.18,2.41,2.87,1.99.88-.22,1.75-.46,2.63-.68,14.25-3.59,28.48-7.25,42.75-10.74,21.84-5.34,43.71-10.57,65.57-15.84v5.45c-1.29-.53-2.52-.02-3.72.29-35.19,8.88-70.38,17.77-105.56,26.69-4.22,1.07-4.3,1.13-4.2,5.37.47,19.61.8,39.23,1.57,58.82.68,17.24,1.88,34.45,2.86,51.68h-7.63c-1.71-14.06-3.49-28.11-4.37-42.25-1.32-21.21-2.56-42.43-3.87-63.64-.11-1.77.19-3.65-.97-5.41-.84.08-1.76.03-2.61.25-24.93,6.53-49.85,13.07-74.77,19.66-4.14,1.1-4.13,1.22-3.66,5.66,1.58,15.17,3.34,30.33,4.71,45.52,1.21,13.38,2.67,26.75,2.66,40.21h-7.63c-.01-1.27.08-2.54-.05-3.8-1.48-14.25-2.96-28.51-4.52-42.75-1.36-12.44-2.8-24.87-4.26-37.3-.42-3.59-.57-3.62-4.07-2.74-1.06.27-2.1.56-3.15.86-24.46,7.07-48.93,14.11-73.38,21.21-12.5,3.63-24.98,7.32-37.46,11.04-3.9,1.16-3.94,1.24-3,5.21,1.23,5.21,2.17,10.47,3.6,15.65,3.01,10.83,5.7,21.75,8.52,32.63h-3.27c.29-1.33-.32-2.48-.71-3.69-4.34-13.65-7.92-27.51-11.45-41.39-.36-1.4-.74-2.79-1.16-4.17-.38-1.22-1.18-1.74-2.48-1.38-.88.24-1.78.37-2.66.61-16.82,4.55-33.62,9.18-50.47,13.63-10.12,2.67-20.31,5.07-30.47,7.57-1.04.26-2.13.32-3.93.58,1.12-1.69,2.31-1.79,3.41-2.09,26.32-7.3,52.39-15.48,78.97-21.86,1.06-.25,2.08-.74,3.14-.87,2.77-.33,3.04-1.94,2.47-4.23-2.17-8.63-4.19-17.29-6.48-25.89-.83-3.12-1.75-3.12-5.09-1.7-3.67,1.57-7.48,2.78-11.22,4.17-20.46,7.59-41.11,14.66-61.36,22.8-2.26.91-4.48,1.9-6.91,2.45,1.92-2.29,4.49-3.49,7.08-4.62,18.07-7.83,36.57-14.56,54.94-21.63,5.92-2.28,11.85-4.55,17.85-6.6,2.46-.84,2.96-2.05,2.36-4.45-1.6-6.34-2.99-12.73-4.47-19.1-.41-1.75-.73-3.37-.24-5.3.8-3.16-.19-4.04-3.38-3.13-9.6,2.74-19.19,5.55-28.71,8.54-20.79,6.54-41.19,14.26-62.08,20.48-7.11,2.12-14.2,4.38-21.62,5.28-.34-1.28.68-1.18,1.21-1.33,32.94-9.67,64.89-22.37,97.77-32.23,4.17-1.25,8.34-2.54,12.57-3.6,2.86-.71,3.67-2.01,3.12-5.03-2.16-11.98-4.01-24.01-6-36.02-.65-3.93-1.14-4.3-4.95-3.13-8.06,2.47-16.05,5.18-24.14,7.55-24.48,7.17-49.01,14.15-73.68,20.61-1.39.36-2.82.55-4.67.91.74-1.65,1.94-1.83,3.01-2.13,13.28-3.69,26.55-7.46,39.77-11.33,9.83-2.88,19.59-6.15,29.33-9.42,10.08-3.39,20.16-6.78,30.35-9.83,2.98-.89,3.61-2.12,3.14-4.98-1.92-11.65-3.62-23.34-5.47-35-.65-4.06-.76-4.12-4.82-3.04-17.2,4.57-34.34,9.37-51.59,13.72-12.67,3.2-25.48,5.85-38.23,8.74-1.69.38-3.38.8-5.25.49.49-1.38,1.44-1.42,2.28-1.6,30.73-6.63,60.99-15.04,91.25-23.48.52-.15,1.02-.43,1.56-.5,3-.37,3.85-1.95,3.28-4.89-.9-4.63-1.48-9.33-2.19-14-1.07-7-2.13-14.01-3.19-21.02-.75-4.92-.76-4.96-5.39-3.67-23.1,6.42-46.29,12.5-69.1,19.91-4.6,1.5-9.23,3.1-15.06,3.79,3.51-2.6,6.84-3.24,9.95-4.3,22.87-7.8,46.24-13.96,69.44-20.66,9.12-2.64,9.1-2.59,7.85-11.79-1.66-12.24-3.23-24.5-4.91-36.74-.59-4.33-.69-4.42-5.12-3.47-15.98,3.44-32,6.73-47.89,10.53-14.12,3.37-28.18,6.88-42.9,6.88,2.76-.44,5.51-.97,8.28-1.3,7.59-.91,15.08-2.25,22.4-4.53,19.46-6.06,39.5-9.69,59.33-14.19,4.93-1.12,5-1.09,4.44-5.93-1.09-9.38-2.25-18.76-3.4-28.14-.66-5.4-.69-5.48-5.94-4.38-19.73,4.15-39.33,8.88-58.93,13.58-10.41,2.5-20.85,4.94-31.6,5.72,11.04-2.7,22.08-5.36,33.11-8.1,19.21-4.77,38.4-9.62,57.87-13.27,4.57-.86,4.57-.97,4.01-5.76-1.33-11.36-2.65-22.72-4.04-34.68-33.21,5.36-65.95,11.33-98.48,19.31,1-1.89,3.03-2.13,4.76-2.8,5.57-2.18,11.53-2.85,17.27-4.36,23.35-6.13,47.11-10.28,70.87-14.4.54-.09,1.07-.2,1.6-.32,3.52-.8,3.61-.81,3.22-4.76-.84-8.5-1.76-16.99-2.68-25.48-.52-4.88-1.06-9.75-1.65-14.62-.5-4.16-.6-4.28-4.73-3.46-14.07,2.79-28.16,5.52-42.19,8.52-14.03,3-28,6.26-41.99,9.47-2.95.68-5.84,1.6-9.16,2.53.76-2.99,3.09-3.33,5.01-3.87,4.9-1.36,9.85-2.54,14.8-3.69,23.54-5.44,47.24-10.13,71.01-14.41,1.25-.23,2.49-.62,3.75-.71,2.18-.16,2.71-1.34,2.48-3.3-1.21-9.92-2.39-19.84-3.56-29.77-.24-2.03-1.2-2.82-3.28-2.54-6.48.89-12.97,1.68-19.45,2.54-.67.09-1.81.33-1.89.69-.9,4.12-4.68,4.16-7.54,5.36-11.55,4.86-22.99,9.97-34.2,15.57-3.58,1.79-7.02,3.83-10.14,6.36-1.46,1.19-1.48,2.4.21,3.43,2.98,1.8,6.17,3.12,9.6,3.71,3.65.63,4.43.02,5.48-3.49.47-1.58-.2-3.72,2.19-4.68,1.53,2.09.08,4.31.46,6.35-.72,1.85.18,1.7,1.41,1.14ZM1298.97,747.66c1.26,1.41,2.72.47,4.07.27,18.32-2.68,36.63-5.4,54.93-8.12,8.79-1.31,17.57-2.74,26.39-3.91,2.54-.34,3.64-1.19,3.07-3.78-.19-.88-.2-1.8-.35-2.7-2.62-15.77-3.93-31.67-5.2-47.59-.71-8.87-1.49-17.73-2.05-26.61-.17-2.7-1.14-3.57-3.72-2.89-1.22.32-2.51.4-3.76.63-13.03,2.41-26.06,4.77-39.07,7.26-29.41,5.62-58.69,11.86-88.18,17.04-4.23.74-4.28.87-3.78,5.27.82,7.21,1.75,14.41,2.65,21.62.45,3.6.93,7.2,1.41,10.8.15,1.09.33,2.44,1.77,2.22,4.53-.71,9.21-.87,13.7-3.02-4.61-4-4.58-4.91.35-6.39,2.1-.63,2.93-1.89,3.54-3.66.85-2.45,1.04-4.98.6-7.52-.31-1.8-.92-3.36-3.18-1.7-.83.61-1.87,1.73-2.7.39-.68-1.09.56-1.93,1.34-2.64,2.96-2.66,5.7-2.16,7.39,1.41,1.28,2.71,1.36,5.6.91,8.54-.23,1.53-1.18,3.02-.53,4.48,2.75,1.45,5.53-.24,8.22.81-.17,1.99-2.75,1.96-2.85,3.93,4.26,1.07,8.34-1.57,13.31-.76-6.42,1.26-12.1,2.36-17.78,3.5-6.76,1.35-13.49,2.8-20.27,4.06-2.45.46-3.27,1.47-2.93,4.05,1.42,10.61,2.64,21.25,3.95,31.88.13,1.06.19,2.67,1.37,2.67,3.08,0,6.16-.64,9-1.79,2.13-.86,1.31-3.17,1.49-4.86.61-5.59.87-11.22,1.97-16.76.27-1.37.22-3.46,1.99-3.41,2.05.05,1.36,2.19,1.41,3.49.24,5.48-.58,10.85-1.87,16.17-.32,1.32-1.12,2.73.1,4.32.8-.05,1.69-.03,2.54-.18,9.28-1.68,18.57-3.35,27.83-5.14,1.02-.2,2.73.45,2.99-1.49l-.09.09ZM1310.79,580.11c-10.69.93-20.99,1.8-31.28,2.74-15.37,1.42-30.64,3.7-45.93,5.79-2.43.33-3.42,1.28-3,3.94.96,6.1,1.51,12.25,2.44,18.35.67,4.43.55,9,2.27,13.59,3.98-1.07,8.01-1.13,12.09-2.78-.82-2.26-.38-4.51.15-6.78,1.26-5.44,2.44-10.91,3.66-16.36.24-1.07.48-2.35,1.9-2.12,1.35.21,1.39,1.58,1.35,2.63-.18,4.59-1.58,8.85-3.46,13.02-1.33,2.94-3.22,5.9-1.62,9.53,1.75-.2,3.38-.3,4.98-.59,22.51-4.05,45.12-7.41,67.74-10.72,4.33-.64,4.5-.71,4.48-5.12-.03-6.73.19-13.44.83-20.13.12-1.29.4-2.76,2.03-2.71,1.75.06,1.7,1.61,1.64,2.88-.26,5.99-.41,11.99-.93,17.95-.21,2.42.39,5.24-1.18,7.21-1.51,1.89-4.2-.02-6.22.88-.16.07-.35.09-.53.11-13.09,2.04-26.21,3.93-39.27,6.15-14.67,2.49-29.3,5.23-43.93,7.96-3.9.73-3.95.89-3.48,5.11,1.48,13.54,3.01,27.07,4.55,40.6.4,3.55.52,3.66,4.08,3.01,10.18-1.84,20.37-3.65,30.51-5.68,31.85-6.38,63.77-12.41,95.79-17.87,10-1.71,9.08.46,7.59-10.17-1.91-13.63-3.68-27.28-5.06-40.97-.69-6.86-1.38-13.73-2.07-20.59-.45-4.45-.63-4.62-4.92-4.21-5.06.48-10.12,1.01-15.18,1.5-11.39,1.1-22.78,2.19-34.16,3.29-.86.08-2.42.02-2.26.86.79,4.03-3.32,3.42-4.37,5.76-1.93-2.45.71-3.56.78-6.06ZM1407.78,732.02c3.12-.44,5.61-.73,8.08-1.14,28.66-4.77,57.09-10.81,85.69-15.9,3.08-.55,3.86-1.86,3.63-4.68-.73-9.23-1.26-18.48-1.99-27.72-.34-4.34-.48-4.47-4.98-3.88-8.82,1.15-17.63,2.44-26.43,3.74-8.79,1.31-17.57,2.71-26.35,4.07,1.94-1,4-1.49,6.08-1.88,15.52-2.91,31.14-5.23,46.77-7.51,4.41-.64,4.46-.68,4.05-5.03-1.15-12.48-2.36-24.95-3.5-37.44-.6-6.56.34-6.18-6.76-4.82-12.13,2.31-24.17,5.07-36.29,7.42-21.21,4.11-42.46,8.06-63.69,12.08-4.2.8-4.39.97-4.15,4.76,1.51,23.38,3.32,46.73,6.12,70,1.25,10.4,1.37,10.39,11.82,8.3.28-.06.51-.35.85-.59-.55-1.27-2.23-1.69-2.21-3.45.09-7.66.76-15.24,2.93-22.61.34-1.16,1-2.59,2.63-2.08,1.27.4,1.03,1.76,1.07,2.83.26,8.4-1.54,16.54-3.39,25.53ZM1379.84,581.16c2.28,19.37,3.56,40.76,6.86,61.92.74,4.73.86,4.81,5.5,3.97,33.74-6.16,67.35-13,100.91-20.08,4.77-1.01,4.83-1.02,4.46-5.92-1.36-18.28-4.2-36.38-7.27-54.43-1.07-6.29-1.06-6.21-7.43-5.33-12.4,1.72-24.8,3.53-37.24,4.96-20.2,2.31-40.43,4.35-60.64,6.49-6.2.65-5.54-.25-5.14,8.42ZM1278.92,950.41c7.96-2.22,15.6-4.43,23.29-6.49,33.69-9.04,66.78-19.93,99.52-31.93,4.65-1.7,4.68-1.72,4.27-6.5-1-11.76-2.18-23.51-2.48-35.32-.11-4.3-.29-4.33-4.44-3.03-11.95,3.75-23.85,7.64-35.83,11.28-28.65,8.7-57.34,17.28-86.01,25.93-5.15,1.56-5.22,1.63-4.39,7.1,1.94,12.74,3.96,25.47,6.07,38.96ZM1284.29,823.59c-4.45,1.47-7.1,3.69-10,5.45-.85.52-1.82.48-2.38-.43-.39-.63-.26-1.47.27-2.03,3.29-3.51,7.08-6.33,11.94-7.05,3.59-.53,5.46,1.88,4.53,5.39-.47,1.78-1.42,3.34-2.51,4.8-1.41,1.89-2.85,3.76-4.28,5.64-1.33,1.75-1.89,3.33.03,5.22,2.44,2.4,2.28,5.15.28,7.86-.6.81-1.62,1.53-.86,2.84,1.63.7,3.14-.22,4.71-.43,5.24-.71,8.73-2.84,8.1-8.98-.18-1.74.47-3.58.8-5.37.98-5.35,1.99-10.7,2.99-16.05.21-1.1.58-2.4,1.8-2.39,1.69,0,1.77,1.65,1.83,2.86.22,4.18-.15,8.34-.93,12.45-.84,4.39-1.72,8.78-2.58,13.12,1.83.91,3.15.1,4.5-.25,16.85-4.39,33.69-8.83,50.55-13.18,14.23-3.67,28.49-7.19,42.72-10.86,4.31-1.11,4.32-1.23,3.92-5.51-1.14-12.11-2.83-24.15-4.44-36.2-.47-3.53-1.26-3.87-4.49-3.18-43.71,9.24-86.34,22.52-129.29,34.61-2.59.73-3.41,2.05-2.98,4.71,1.44,8.96,2.69,17.95,4.03,26.92.64,4.26,1.32,8.5,2.05,13.25,2.71-.78,4.95-1.4,7.17-2.08.64-.2,1.8-.4,1.58-1.1-1.08-3.4,1.27-5.41,2.84-7.77.45-.68.14-1.3-.18-1.99-2.97-6.48-2.76-7.55,2.07-12.77,1.95-2.1,4.4-3.78,6.2-7.5ZM1350.67,783.4c-3.2-2.14-6.4-3.19-8.68-5.51-1.85-1.89-3.04-2.12-5.27-.11-3.71,3.35-7.23,1.88-8.09-3.13-.69-3.98-.38-7.98.82-11.86.59-1.89,1.23-4.49,3.66-3.87,2.51.64.74,3.08.74,4.72.02,3.33-1.6,6.7-.01,10.05.67-.14,1.12-.09,1.33-.29.78-.75,1.52-1.55,2.19-2.4,2.82-3.56,3.41-3.66,5.75-.1,3.37,5.12,8.95,7.25,13.73,10.45.95.64,2.14.22,3.19-.02,10.42-2.43,20.82-4.97,31.28-7.27,2.48-.55,2.78-1.76,2.43-3.83-1.63-9.66-3.17-19.34-4.85-29-.65-3.73-.78-3.7-4.56-3.14-15.98,2.39-31.95,4.75-47.93,7.16-27.27,4.12-54.4,9.08-81.47,14.35-3.97.77-4,.93-3.44,5.1,1.65,12.23,3.25,24.47,4.97,36.69,1.47,10.37-.3,9.48,10.18,6.18.31-.1.54-.46.81-.71-.35-2.14-.75-4.25-1.4-6.35-2.2-7.05,1.81-21.22,7.27-26.14,1.23-1.11,2.49-2.2,4.6-1.08-5.7,5.99-6.67,13.47-7.25,21.2,5.55-.03,6.63,1.83,4.34,6.46-.69,1.39-2.56,2.13-2.15,4.73,25.82-7.4,51.51-14.76,77.81-22.29ZM1400.24,823.98c-7.36,1.84-14.2,3.53-21.05,5.25-36.43,9.15-72.8,18.51-109,28.56-5.37,1.49-5.31,1.5-4.46,7,1.69,10.94,3.31,21.9,4.97,32.85.68,4.48.7,4.51,5.18,3.17,14.77-4.44,29.53-8.91,44.3-13.35,1.65-.5,3.44-.66,4.8-1.96-10.8-6.41-14.59-22.31-6.55-28.46.5,5.62-1.59,11.26.87,16.57,1.1.62,1.66-.39,2.39-.8,1.23-.69,2.37-.94,3.41.28.92,1.07,1.07,2.31.57,3.57-.26.64-.72,1.28-1.26,1.69-2.22,1.68-1.54,3.03.13,4.71,1.82,1.84,3.46,2.21,6.05,1.39,13.32-4.23,26.73-8.15,40.08-12.25,9.54-2.93,19.04-5.98,28.58-8.93,2.17-.67,4.09-1.27,3.89-4.26-.77-11.4-1.28-22.82-2.89-35.03ZM1329.67,973.15c4.2,1.06,5.03,4,5.93,7.28,1.35,4.95.8,10.09,2.01,15.03.71,2.91-.05,4.9-1.93,5.43-1.83.52-3.91-.85-4.94-3.37-.92-2.23-.93-4.6-.85-6.97.04-1.16-.25-1.86-1.65-2.28-5.89-1.77-6.26-2.57-4.59-8.37.62-2.17-.19-3.54-2.28-3.48-1.23.03-2.49.45-3.68.85-9.08,3.09-18.16,6.18-27.23,9.33-4.04,1.4-4.03,1.46-3.01,5.9,1.71,7.42,3.35,14.86,5.16,22.26,1.66,6.8.76,6.16,7.33,4.15,25.38-7.76,50.7-15.68,76.07-23.47,11.96-3.67,23.97-7.16,35.96-10.72,1.92-.57,3.84-.83,3.41-3.8-1.54-10.76-2.89-21.54-4.39-32.98-27.36,8.48-54.34,16.85-81.32,25.22ZM1407.26,818.32c2.07.75,3.74-.16,5.46-.62,29.99-7.95,59.68-17,89.85-24.28,4.05-.98,4.12-1.05,4.1-5.56-.04-11.26-.16-22.52-.28-33.78-.01-1.02.27-2.19-.99-3.13-.71.12-1.59.23-2.46.43-24.33,5.79-48.66,11.62-73,17.36-8.12,1.91-16.31,3.57-24.45,5.4-1.95.44-3.75.74-3.33,3.78,1.84,13.47,3.43,26.98,5.1,40.4ZM1414.79,907.18c6.08-2.12,11.36-3.99,16.66-5.81,22.46-7.73,45.09-14.94,67.78-21.96,6.42-1.99,5.82-.36,5.9-8.11.07-7.44.14-14.88.24-22.32.06-4.54.27-9.07.26-13.61,0-3.1-.51-3.42-3.59-2.65-1.58.39-3.13.93-4.68,1.44-16.71,5.49-33.44,10.93-50.12,16.5-11.01,3.68-21.92,7.63-32.94,11.27-2.78.92-3.72,2.37-3.44,5.16.33,3.25.31,6.52.57,9.78.8,9.92,1.61,19.85,3.36,30.32ZM1406.9,914.35c-2.22.73-3.76,1.22-5.29,1.75-29.84,10.27-59.94,19.73-90.32,28.28-9.6,2.7-19.19,5.45-28.81,8.05-2.36.64-3.24,1.69-2.87,4.22,1.22,8.25,2.47,16.48,4.99,24.47,1.08,3.41,1.05,3.47,4.36,2.35,9.25-3.13,18.43-6.47,27.74-9.38,3.85-1.2,5.74-3.12,5.49-7.24-.11-1.77.54-3.58.66-5.39.15-2.17,1.21-4.74-2.48-5.35-1.19-.2-1.29-1.74-.66-2.74.66-1.05,1.53-2.04,2.5-2.81,2.44-1.94,3.83-1.51,4.74,1.5,1.17,3.87,1.2,7.85.91,11.86-.14,1.89-1.01,3.86.25,6.06,5.06-1.86,10.29-2.95,15.35-4.55,7.43-2.34,14.65-5.35,22.13-7.62,13.71-4.15,27.37-8.46,41.08-12.6,2.32-.7,3.94-1.34,3.53-4.33-1.19-8.61-2.17-17.25-3.31-26.54ZM1460.89,757.28c.74-.05,1.47.03,2.14-.15,13.13-3.6,26.34-6.89,39.6-9.93,1.92-.44,3.83-.71,3.68-3.65-.37-7.25-.48-14.52-.61-21.79-.04-2.29-1.2-2.79-3.15-2.42-.71.14-1.43.28-2.14.4-23.65,3.88-47.29,7.79-70.95,11.61-9.86,1.59-19.76,2.92-29.62,4.47-3.89.61-3.89.74-3.32,4.53,1.37,9.16,2.73,18.31,4.16,27.46.61,3.9.7,3.99,4.41,3.14,15.56-3.58,31.11-7.22,46.65-10.86,1.58-.37,2.9-1.09,4.08-2.42,5.46-6.17,5.52-6.12.4-12.55-1.37-1.72-2.71-3.46-2.55-5.83.08-1.13.41-2.23,1.67-2.5,1.02-.22,1.53.53,2.09,1.33,1.03,1.48,2.23,2.85,3.42,4.21,5.44,6.22,5.46,7.81.12,14.28-.09.1-.05.31-.09.66ZM1410.58,858.67c.92.08,1.31.23,1.62.13,12.38-4.15,24.75-8.3,37.12-12.5.98-.33,1.84-.73,2.61-1.69,3.45-4.27,5.56-8.8,4.3-14.46-.27-1.21-.19-2.55-.05-3.8.53-4.75,4.52-8.76,9.36-9.47.36,1.86-1.22,2.89-1.87,4.29-.79,1.68-1.57,3.38-1.12,5.21,1.21,4.94,1.58,9.86-.19,14.92,1.04,0,1.6.13,2.07-.02,12.82-3.97,25.61-8.03,38.45-11.92,2.64-.8,3.2-2.4,3.22-4.84.06-7.62.27-15.25.4-22.87.1-5.95.08-6-5.54-4.53-17.72,4.65-35.42,9.34-53.13,14.04-12.1,3.21-24.19,6.42-36.27,9.67-3.96,1.07-4.01,1.13-3.69,5.15.86,10.84,1.79,21.68,2.7,32.68ZM1424.97,980.91c9-2.53,17.5-4.98,26.03-7.3,17.48-4.76,34.97-9.47,52.46-14.17,1.93-.52,3.93-.62,3.79-3.53-.57-11.95-1.02-23.91-1.48-35.87-.07-1.88-.79-2.71-2.72-1.99-.68.25-1.36.5-2.04.74-25.58,9.21-51.47,17.45-77.48,25.34-4.24,1.29-4.2,1.31-2.96,5.9.33,1.22.44,2.5.62,3.75,1.23,8.78,2.45,17.56,3.79,27.14ZM1505.21,883.04c-2.56-.84-4.2.18-5.9.7-22.38,6.91-44.68,14.03-66.85,21.59-4.81,1.64-9.61,3.31-14.42,4.95-1.69.58-2.84,1.37-2.52,3.51,1.24,8.44,2.37,16.9,3.54,25.36.19,1.4,1.06,1.78,2.3,1.5.88-.2,1.74-.51,2.61-.77,23.77-7.31,47.5-14.76,70.84-23.36,3.38-1.25,7.82-1.41,9.82-4.15,2.18-2.99.48-7.38.54-11.15.11-6.13.03-12.25.03-18.17ZM1273.29,711.97c-5.37-1.31-8.17-.77-11.36,2.28,4.08-.09,7.61-.62,11.36-2.28ZM1557.63,728.44c.7-.37,1.14-.89.81-1.71-.21-.54-.75-.9-1.22-.54-.35.26-.55.9-.58,1.38-.03.53.24,1.05.99.88ZM1280.57,851.83c-.19-.38-.33-.64-.46-.91-.43.22-.87.44-1.3.66.14.24.32.7.42.69.45-.07.87-.27,1.34-.44ZM1564.68,733.2c.15-.15.27-.28.4-.4-.13-.13-.26-.35-.39-.35s-.35.23-.36.36c0,.13.22.26.34.4Z"/><path class="cls-1" d="M953.36,1075.77c1.08-2.78.85-5.71,1.03-8.59,1.35-21.61.08-43.24.45-64.86.18-10.63-2.47-20.9-5.22-31.07-2.26-8.36-3.01-16.66-1.99-25.33,1.49-12.62,2.87-25.26,4.32-37.88,1.85-16.15.69-32.28-5.1-47.76-1.67-4.47-4.36-8.37-6.98-12.29-1.43-2.15-3.4-3.62-5.99-4.45-3.69-1.17-4.21-2.15-3.77-6.01.25-2.16.6-4.33,1.2-6.41,5.13-17.65,8.71-35.61,11.22-53.8.67-4.85,1.61-9.67,2.36-14.51.22-1.41.47-2.87-.1-4.22-1.46-.69-2.49.26-3.64.68-15.53,5.66-31.21,10.79-47.72,12.84-3.62.45-7.21.62-10.83-.23-8.17-1.93-13.15-7.15-13.77-15.44-.66-8.83.93-17.05,8.32-23.1,2.05-1.68,4.18-2.9,6.94-2.22.74.18,1.27.65,1.49,1.42.25.85-.12,1.49-.86,1.71-4.85,1.49-5.58,6-6.62,9.83-1.27,4.66-2.34,9.6.9,14.16,1.31,1.85,2.82,3.24,4.95,4.05,1.74.66,4.01.41,4.69,3.03.32,1.23,1.87.85,2.9.72,3.6-.45,7.28-.63,10.76-1.56,9.99-2.67,19.93-5.53,29.81-8.58,5-1.54,9.5-3.94,13.79-7.26,3.28-2.54,7.41-4.27,10.79-6.91,13.93-10.87,26.75-22.86,38.1-36.48,16.28-19.55,31.79-39.72,47.88-59.41,2.87-3.52,5.86-6.91,9.45-9.78,2.68-2.15,2.15-4.25-1.11-5.44-3.48-1.28-7-.31-10.16.65-9.37,2.85-17.27,8.48-24.37,15.01-1.77,1.63-3.17,3.47-5.37,4.82-2.16,1.32-4.63,3.06-4.63,6.3,0,1-.61,1.39-1.7,1.63-4.65,1.04-5.89,2.75-6.04,7.33-.04,1.13.21,3.93-2.18,1.17-.68-.78-1.43-1.21-2.19-.2-1.51,2.02-4.56,3.32-3.02,6.81.46,1.05-.11,2.04-1.51,2.33-4.92,1.05-5.49,1.74-6,6.75-.1,1.03.19,2.27-1.06,2.84-5.51,2.51-8.46,5.68-9.79,10.88-.3,1.17-.54,1.94-1.94,2.11-3.03.36-4.04,3.28-5.99,5-.8.71-.47,1.62-.12,2.5.61,1.52.87,3.08.2,4.96-2.31-.45-1.55-2.71-2.62-3.86-.42.1-1.02.07-1.39.35-1.28,1-2.46,2.14-3.73,3.18-1.34,1.1-2,2.25-1.71,4.19.32,2.14-.02,2.26-2.52,1.2-.88-.37-1.32.03-1.88.41-2.87,1.92-4.99,4.07-3.81,8.06.6,2.03.33,4.25-1.91,5.75-.47-.6-.92-.96-1.09-1.41-2.18-5.75-2.5-5.95-7.54-3.41-4.08,2.06-8.37,3.47-12.74,4.72-4.84,1.38-9.34.24-13.72-1.8-.82-.38-1.67-.95-1.4-2.03.27-1.08,1.29-1.15,2.2-1.17.72-.01,1.49-.06,2.16.16,9.23,3,16.45-2.29,24.1-5.82,1.62-.75,1.98-1.99,1.24-3.58-2.6-5.59-5.19-11.19-7.81-16.77-.52-1.11-1.42-.89-2.29-.51-2.5,1.08-4.99,2.17-7.48,3.27-3,1.32-6.09,2.34-9.3,3.04-1.76.38-3.32.13-4.29-1.46-1.11-1.82-.52-3.54.85-4.95,1.91-1.96,4.13-3.57,6.51-4.9,4.45-2.49,9.1-4.45,14.02-5.88,8.54-2.49,12.38-10.49,9.46-18.94-1.48-4.29-4.61-6.53-8.92-6.8-4.51-.29-9.1-.47-13.46,1.24-.67.26-1.37.56-2.07.63-1.99.22-3.62-.44-4.36-2.43-.65-1.76-.02-3.26,1.44-4.31,1.02-.73,2.19-1.28,3.34-1.81,2.83-1.29,5.45-2.91,7.87-4.84.84-.67,1.8-1.38,2.27-2.29.66-1.26,1.33-2.81.7-4.17-.79-1.72-2.53-.8-3.88-.78-2.05.02-3.83,1.01-5.7,1.7-1.87.69-3.75,1.39-5.68,1.82-2.04.45-4.07.26-5.17-1.93-1.12-2.22.06-3.88,1.64-5.25,3.2-2.78,6.97-4.56,10.93-5.96,1.15-.41,2.59-.3,3.14-1.77-.78-1.62-2.31-1.57-3.72-1.59-4.35-.09-8.66-.64-13.06-.21-5.82.57-10.91-2.3-16.08-4.43-1.8-.74-2.64-2.48-2.18-4.53.53-2.42,2.36-3.03,4.52-3.06,2.77-.04,5.4.85,7.98,1.65,4.49,1.38,8.2.06,11.61-2.72,4.42-3.6,7.9-8,10.85-12.84,1.7-2.79,3.49-5.54,4.98-8.45,4.55-8.88,8.76-17.97,16.36-25.7-5.29-2.94-10.03-5.8-14.96-8.26-5.39-2.69-9.15-7.08-12.89-11.51-1.44-1.7-1.58-3.81.27-5.36,1.63-1.36,3.41-.88,4.93.46,1.77,1.56,3.56,3.11,5.25,4.76,2.07,2.01,4.53,2.49,7.03,1.4,19.43-8.41,36.04-20.27,46.87-39.01,2.83-4.9,3.98-10.11,2.06-15.69-1.66-4.81-8.55-7.49-13.09-5.13-1.48.77-1.23,2.07-1.22,3.29.04,5.09.03,10.17-.58,15.24-.36,2.92-1.01,5.75-2.47,8.3-1.99,3.49-4.9,4.51-8.8,3.33-11.19-3.4-15.61-15.35-9.21-25.23,2.58-3.98,5.59-7.76,9.98-9.82,2.52-1.19,3.04-2.8,2.64-5.18-.78-4.66-1.59-9.33-3.27-13.76-2.51-6.6-5.19-13.15-7.87-19.89-3.59,1.62-6.95,3.31-10.75,4-3.65.66-6.95.17-9.84-1.96-12.05-8.85-19.18-20.17-17.58-35.77,1.34-13.11,4.6-25.7,9.87-37.79,1.67-3.84,1.69-3.98-1.62-6.59-4.33-3.42-7.44-7.8-10.78-13.5-.6,4-1.03,6.92-1.48,9.85-.19,1.25-.35,2.52-.62,3.76-.24,1.13-.82,2.08-2.11,2.15-1.47.08-2.4-.75-2.79-2.11-.66-2.29-.69-4.66-.8-7.02-.54-10.87-.76-21.78-2.43-32.56-1.12-7.22-3.48-14.09-7.48-20.31-3.79-5.9-8.8-6.18-13.83-1.22-4.77,4.71-5.74,10-4.61,16.4,2.05,11.57,6.27,22.36,10.95,33,4.54,10.3,9.27,20.52,14.03,30.72,5.12,10.99,7.93,22.59,9.22,34.58.69,6.39-.69,12.65-1.69,18.93-2.25,14.07-5.62,27.73-12.67,40.31-2.42,4.31-5.23,8.29-8.26,12.14-9.9,12.56-19.75,25.14-29.78,37.6-6.53,8.11-14.58,14.68-22.56,21.28-1.11.92-2.36,1.71-3.65,2.34-1.1.54-2.51,1.2-3.46-.14-1.03-1.44.29-2.27,1.2-3.13,3.95-3.75,7.81-7.61,11.86-11.24,6.67-5.99,12.18-12.98,17.59-20.05,7.4-9.67,14.44-19.61,22.06-29.09,9.61-11.96,14.62-25.78,17.78-40.49.46-2.13.62-4.34,1.26-6.41,5.28-17.16,1.7-33.52-4.87-49.4-4.72-11.4-10.29-22.44-15.49-33.63-.36-.78-.86-1.5-1.3-2.27-18.5,14.95-34.54,31.92-48.37,50.87-9.87,13.52-15.52,29.03-19.52,45.23-5.51,22.33-5.71,44.97-4.46,67.71.41,7.49,2.83,14.61,5.08,21.69,2.09,6.57,4.55,13.01,6.87,19.51.48,1.35,1.49,2.82-.11,3.93-1.69,1.17-3.15.17-4.26-1.14-2.37-2.81-4-6.09-5.23-9.5-5.85-16.31-10.63-32.84-9.83-50.46.2-4.35,0-8.72,0-13.08,0-28.03,6.86-54.31,20.61-78.68,7.27-12.88,16.85-24.14,27.23-34.6,7.91-7.97,15.49-16.42,25.42-22.12,1.7-.98,3.33-2.08,5.43-3.4-4.08-9.34-7.22-19.11-9.08-29.45-2.9.47-4.43,2.37-6.04,3.98-14.63,14.7-28.65,29.92-39.79,47.56-5.43,8.6-11.13,17.03-16.78,25.49-1.13,1.69-2.17,4.6-4.86,2.93-2.51-1.56-.74-3.96.24-5.77,11.52-21.32,24.7-41.52,40.98-59.56,5.24-5.8,10.36-11.75,16.07-17.05,4.97-4.61,10.69-8.27,13.33-15.07.99-2.54,3.49-4.64,5.65-6.55,6.99-6.18,16.89-5.07,22.49,2.36,6.65,8.82,9.51,19.1,11.26,29.76.5,3.04.63,6.14.9,9.21.19,2.2-.51,4.79,3.05,5.15.97.1,1.11,1.74,1.67,2.65,3.36,5.4,6.8,10.75,12.41,14.09,1.84-.82,2.16-2.56,2.94-3.95,2.22-3.96,4.3-8,6.64-11.89,1.21-2,2.77-3.82,4.36-5.55,1.22-1.33,2.77-2.69,4.75-1.58,2.3,1.28,1.62,3.34.97,5.29-.99,2.95-2.66,5.57-4.22,8.23-2.57,4.37-5.03,8.79-7.09,13.69,3.12,1.8,6.11,3.46,9.05,5.23,12.95,7.81,19.2,19.63,21.41,34.32,2.02,13.44-1.45,24.78-10.77,34.16,6.56,11.86,13.03,23.42,14.92,36.82.32,2.28,1.11,3.31,3.45,2.76.35-.08.72-.08,1.09-.09,14.36-.45,23.01,9.97,19.98,24.17-1.88,8.79-6.68,16.1-12.46,22.68-10.76,12.24-23.1,22.59-37.89,29.6-.15,1.92,1.46,2.04,2.46,2.53,2.77,1.37,5.69,2.33,8.79,2.78,1.79.26,3.77.81,3.93,3.09.17,2.34-1.62,3.03-3.52,3.32-1.8.28-2.85,1.51-3.83,2.83-3.79,5.11-7.37,10.33-9.98,16.2-2.73,6.13-5.8,12.12-8.8,18.13-2.51,5.03-5.91,9.46-9.95,13.57,12.66,3.04,17.18,21.19,11.55,32.03,10.29,1.93,16.57,7.85,17.91,18.4,1.39,10.92-3.6,18.46-13.06,23.71,3.41,5.99,7.58,11.24,10.38,17.09,1.58.18,2.32-.67,3.08-1.4,9.73-9.29,19.39-18.68,26.83-29.99,10.51-15.97,24.22-28.94,38.53-41.33,5.94-5.14,12.69-9.1,19.69-12.6,4.79-2.4,10.04-3.21,15.33-3.29,7.02-.11,11.58,4.93,11.07,11.89-.11,1.5-.51,2.99-2.13,3.49-2.45.76-3.74,2.79-5.32,4.51-5.66,6.17-10.86,12.71-15.9,19.38-12.26,16.25-25.36,31.83-38.42,47.44-11.84,14.15-25.4,26.47-40.6,36.93-2.51,1.73-3.67,3.49-3.56,6.63.29,8.04-1.37,15.89-2.72,23.77-2.29,13.42-3.46,27.04-7.6,40.1-1.54,4.84-3.04,9.7-4.64,14.52-.52,1.56-.39,2.62,1.03,3.75,10.52,8.28,15.87,19.68,18.55,32.37,1.84,8.7,2.42,17.61,2.66,26.54.23,8.45-1.72,16.6-2.55,24.9-1.01,10.12-2.03,20.24-2.93,30.37-.41,4.58.61,9.03,1.73,13.45,2.72,10.73,6.04,21.39,6.09,32.58.1,20.52,1.2,41.05.29,61.57-.21,4.69-1.33,9.34-2.05,14.01-.11.74-.1,1.43.36,2.06h-8.72ZM927.42,377.01c-5.55,12.92-9.47,25.81-10.46,39.53-.71,9.87,3.37,17.46,10.22,24.09,3.17,3.07,6.54,3.69,10.4,2.02,8.85-3.83,14.93-10.87,15.54-20.07,1.43-21.65-4.4-35.1-25.69-45.57ZM957.33,495.32c-3.51,2.39-5.44,4.32-6.61,6.63-2.86,5.62-.57,10.87,5.31,12.17,1.87-4.65,2.41-12.55,1.3-18.8Z"/><path class="cls-1" d="M724.31,622.16c-1.08.78-.38,1.63.03,2.31,2.16,3.52,4.39,6.99,6.9,10.97,2.36-3.68,4.43-6.89,6.63-10.32.98,1.34-1.57,5.55,2.87,3.21,1.2-.63,2.29.72,1.65,1.76-1.06,1.71-.67,4.45-4.32,4.52-3.98.07-5.08,3.5-2.46,6.65,2.68,3.22,4.44,7.32,8.42,9.38l-.05-.06c-.53,1.05.23,1.69.79,2.35,2.02,2.34,3.87,4.85,6.14,6.92,11.13,10.15,21.57,21.06,33.62,30.18,7.25,5.48,13.97,11.57,20.66,17.72,13.73,12.63,20.99,28.49,23.9,46.55,2.32,14.41,1.4,28.97,1.44,43.48.04,16.87-3.97,33.08-7.21,49.46-2.75,13.88-5.75,27.81-6.98,41.86-1.43,16.21-1.96,32.58,2.02,48.74,3.44,13.97,4.35,28.33,4.94,42.67.57,13.72-2.23,27.11-4.65,40.49-2.97,16.43-8.21,32.36-10.88,48.87-.32,1.97-.91,3.9-.54,5.92h-6.54c1.83-15.91,5.39-31.48,9.17-47.01,2.71-11.13,4.4-22.46,5.93-33.79,1.64-12.16-.18-24.29-1.37-36.41-.96-9.79-3.24-19.33-5.32-28.91-1.21-5.55-1.45-11.12-1.44-16.78.03-18.59,2.33-36.92,5.42-55.21,1.73-10.21,3.56-20.38,5.91-30.46,2.44-10.48,3.63-21.14,3.7-31.88.08-14.15,1.26-28.37-1.25-42.42-1.8-10.06-4.77-19.76-10.55-28.39-2.44-3.64-5.17-6.99-8.29-10.07-5.44-5.37-11.03-10.64-17.27-14.99-12.59-8.78-23.8-19.17-34.58-29.92-17.84-17.79-33.69-37.12-41.99-61.55-3.18-9.36-5.27-18.82-5.29-28.77-.03-12.55.37-25.06,2.16-37.5.52-3.61,1.28-7.17,2.43-10.6,2.52-7.51,3.45-15.2,3.04-23.09-.65-12.55-.73-25.14,1.33-37.52,3.47-20.82,8.26-41.44,18.3-60.18,9.91-18.49,22.52-35.06,38.15-49.33,9.12-8.32,19.15-15.6,27.7-24.52,6.3-6.57,11.93-13.69,15.78-22.05,1.23-2.67,1.82-5.5,2.64-8.29.84-2.86,1.57-3.16,4.26-1.75,9.71,5.12,16.66,12.68,20.19,23.19.47,1.38,1.07,2.9-.65,3.84-1.62.88-2.76-.31-3.79-1.3-1.99-1.9-3.39-4.25-4.72-6.64-1.42-2.55-2.97-5-4.96-7.15-1.57-1.7-3.17-3.37-5.14-5.46-1.43,3.77-2.42,7-3.85,10.02-5.75,12.22-14.31,22.24-24.74,30.69-24.12,19.53-44.94,41.71-57.88,70.46-4.36,9.7-6.38,20.03-9.28,30.14-5.01,17.48-5.93,35.43-5.78,53.44.09,10.29-1.05,20.23-4.39,30-2.5,7.31-3.85,26.89-2.85,35.93,8.04-9.08,11.05-20,15.47-30.26.75,2.33.07,4.53-.62,6.59-2.59,7.75-5.74,15.29-9.68,22.47-.61,1.11-1.15,2.51-2.14,3.12-4.3,2.66-3.6,6.67-3.22,10.64.65,6.88,1.92,13.62,4.54,20.31,5.96-7.91,10.42-16.75,19.2-21.82-.47,3.67-3.06,6.17-4.71,9.14-4.58-.2-4.26,4.57-6.66,6.65-2.71,2.35-4.18,5.79-6.05,8.84-.52.84-.84,2.55-.37,3.12,2.96,3.56,3.42,8.37,6.24,11.95.11.14.62-.04.95-.07l-.08-.08Z"/><path class="cls-1" d="M979.27,552.01c7.63-3.46,12.78-8.68,17.72-14.13,5.88-6.48,10.72-13.73,15.36-21.13,18.08-28.88,32.48-59.6,45.5-91,7.16-17.27,13.89-34.72,21.02-52.01,1.24-3.01.58-4.31-1.91-6.15-10.09-7.47-21.47-11.23-33.78-12.58-13.35-1.47-26.71-2.87-40.07-4.31-2.9-.31-5.76-.84-8.48-1.89-4.88-1.87-5.89-4.96-2.93-9.33,1.21-1.8,2.69-3.43,4.18-5.02,7.45-7.96,14.97-15.85,22.39-23.83,1.97-2.12,3.85-4.38,5.43-6.8,1.77-2.71,1.27-4.24-1.66-5.64-1.95-.93-4.08-1.48-6.14-2.18-6.78-2.28-10.83-6.74-11.8-14.02-.8-6.06-.13-11.94,1.2-17.82,2.76-12.23,4.74-24.58,5.97-37.08.76-7.65-.29-14.83-3.58-21.73-1.56-3.28-2.91-6.67-4.63-9.85-5.39-9.93-2.39-18.59,3.88-26.76,2.35-3.07,5.34-5.51,8.81-7.17,25.49-12.19,48.43-28.6,72.16-43.69,5.36-3.41,10.71-6.85,16.1-10.21,4.91-3.07,9.94-5.96,14.02-10.21,1.81-1.89,2.65-1.57,3.16.72.71,3.21,1,3.47,3.98,2.47,4.15-1.39,7.96-3.51,11.73-5.71,9.75-5.69,18.73-12.49,27.82-19.13,12.62-9.22,25.4-18.2,39.83-24.48,4.17-1.82,8.44-3.27,12.9-4.26,6.08-1.35,11.52-.1,16.43,3.63.87.66,1.76,1.29,2.56,2.03,8.86,8.15,19.45,9.91,30.95,8.53,12.33-1.47,24.13-5.06,35.89-8.82,10.71-3.42,21.35-7.09,32.29-9.74,2.83-.68,5.67-1.32,8.59-1.35,6.64-.08,10.19,2.81,11.35,9.29.38,2.14.51,4.33.7,6.5.52,5.75,3.7,9.24,9.09,10.99,5.89,1.91,12.01,2.83,18.04,4.11,14.2,3.02,28.35,6.32,42.86,7.58,7.23.63,14.47,1.14,21.64,2.41,24.92,4.39,41.19,18.54,48.74,42.71,3.92,12.55,5.64,25.51,7.39,38.46,1.46,10.82,3.43,21.47,6.83,31.89,5.65,17.3,6.65,35.25,6.62,53.29,0,3.09-.2,6.18-.06,9.26.31,6.72,1.6,8.21,7.99,9.7.88.21,1.8.26,2.68.47,6.82,1.62,9.81,5.2,10.11,12.27.13,2.91-.22,5.79-.85,8.65-1.3,5.87-3.12,11.57-5.45,17.1-12.04,28.46-27.7,54.73-47.73,78.32-3.88,4.58-8.16,8.77-12.8,12.61-6.12,5.06-13.03,6.95-20.84,5.74-1.26-.2-2.51-.42-3.76-.61-12-1.83-23,.6-33.29,7.12-7.53,4.77-14.74,9.97-22.1,14.96-4.51,3.06-9.07,6.02-13.98,8.42-7.2,3.53-14.79,4.69-22.12,1.36-9.4-4.27-17.5-2.25-25.67,2.95-7.81,4.97-15.6,9.98-23.79,14.34-19.84,10.55-41.1,15.33-63.43,15.03-17.16-.23-33.15-5.72-48.7-12.57-12.9-5.69-24.23-13.87-35.36-22.38-4.04-3.09-8.02-6.26-12.18-9.18-9.3-6.53-19.77-9.66-31.04-10.62-13.12-1.12-26.11-.32-39.04,2.02-.54.1-1.11.33-1.61.23-6.07-1.21-7.72,2.66-9.63,7.38-13.15,32.53-27.89,64.29-46.79,93.97-6.36,9.98-13.12,19.63-21.68,27.91-2.87,2.77-5.96,5.28-9.22,7.54-2,1.38-4.13,2.8-7.8,1.47ZM1068.88,411.44c2.16-.46,3.03-.59,3.86-.83,12.01-3.33,24.29-4.32,36.68-4.02,16.41.39,31.49,4.73,44.54,15.14,5.11,4.08,10.42,7.91,15.66,11.81,13.07,9.72,27.36,17.14,42.75,22.4,8.6,2.94,17.29,5.65,26.47,5.89,23.95.62,46.45-4.76,67.22-16.84,5.49-3.19,10.84-6.64,16.26-9.95,4.18-2.56,8.44-4.99,13.02-6.78,5.09-1.99,10.22-2.3,15.42-.37,1.53.57,3.12.97,4.63,1.6,7.04,2.93,13.86,2.31,20.41-1.38,3.95-2.23,7.85-4.56,11.66-7.02,7.17-4.63,14.16-9.51,21.39-14.06,12.66-7.97,26.05-11.64,40.99-8.61,8.07,1.64,15-.85,21-6.4,4.14-3.83,8.15-7.77,11.8-12.07,13.98-16.43,25-34.78,34.82-53.88,6.06-11.79,11.69-23.79,15.31-36.62.94-3.32,1.83-6.68,1.62-10.17-.27-4.67-2.07-6.87-6.6-8.14-2.1-.59-4.25-.96-6.33-1.61-3.8-1.18-6.19-3.72-6.75-7.74-.32-2.33-.63-4.68-.7-7.03-.17-5.45-.08-10.9-.28-16.35-.47-12.71-.64-25.59-4.58-37.74-5.47-16.88-7.84-34.29-10.65-51.66-1.8-11.12-3.9-22.17-8.65-32.52-5.2-11.36-13.41-19.72-24.66-25.11-8.48-4.06-17.57-6.06-26.83-6.49-17.49-.82-34.64-3.49-51.55-7.93-7.19-1.88-14.47-3.42-21.66-5.34-7.69-2.05-11.95-7.15-12.74-15.13-.21-2.16-.57-4.33-1.1-6.44-.84-3.32-2.32-4.54-5.7-4.83-2.73-.23-5.43.12-8.1.73-9.04,2.04-17.83,4.9-26.64,7.74-13.47,4.33-26.9,8.77-41.02,10.68-13.21,1.79-25.33-.21-35.69-9.24-.82-.71-1.72-1.34-2.62-1.96-4.42-3.01-9.14-3.99-14.48-2.78-7.54,1.7-14.41,4.91-21.13,8.53-11.22,6.05-21.56,13.45-31.85,20.91-8.53,6.18-17.04,12.39-26.13,17.76-4.06,2.4-8.2,4.66-12.77,6.03-1.98.59-3.97,1.03-5.77-.19-1.73-1.18-3.01-.91-4.78.13-18.97,11.1-37.48,22.92-55.9,34.9-13.24,8.62-26.51,17.19-40.94,23.75-1.64.75-3.21,1.71-4.69,2.74-10.37,7.2-13.35,18.08-8.19,29.49,2.09,4.63,4.11,9.3,6.03,14,1.94,4.77,2.7,9.72,2.47,14.92-.53,11.66-2.47,23.09-5.17,34.42-1.72,7.25-3.09,14.49-2.47,22.08.52,6.33,3.46,10.26,9.29,12.26,2.06.71,4.18,1.22,6.23,1.95,7.11,2.52,8.6,6.91,4.14,12.89-2.6,3.49-5.54,6.73-8.48,9.95-6.49,7.11-13.12,14.09-19.59,21.22-1.5,1.66-4.17,3.41-3.05,5.83.99,2.16,3.98,2.17,6.3,2.45,11.89,1.44,23.77,3,35.69,4.2,15.61,1.56,30.44,5.07,42.94,15.28.53.43,1.15.92,2.47.55,1.31-2.96,2.68-6.27,4.21-9.51,1.53-3.23,2.56-6.81,5.63-9.14.34,7.72-4.37,13.96-5.84,20.86,1.76,1.35,4.23-.23,5.51,1.83-.74.86-1.5.93-2.16.81-3.8-.65-5.42,1.23-6.58,4.66-2.21,6.53-4.88,12.9-7.37,19.33-1.95,5.04-3.9,10.09-6.25,16.17Z"/><path class="cls-1" d="M506.36,350.74c1.02-2.92,2.53-1.94,3.93-.41,1.75,1.93,1.57,4.6,1.99,6.85,2.13.23,1.97-1.16,2.17-2.11.91-4.44,1.66-8.92,2.65-13.35.75-3.38,2.1-6.56,4.71-8.98,2.24-2.08,4.51-2.34,5.96.16,1.74,2.98,3.38.46,4.96.79,3.04.64,2.51-1.46,2.92-3.18.75-3.15,2.89-4.1,5.7-2.59,1.26.68,2.31,1.76,3.5,2.57,3.51,2.4,4.79,2.05,6.59-1.91,1.68-3.69,2.35-7.63,2.43-11.65.08-3.99-.03-7.99.02-11.99.02-1.63.12-3.28.4-4.87.27-1.47.99-2.92,2.76-2.84,1.57.07,1.89,1.59,2.16,2.79,1.65,7.45,3.26,14.91,2.75,22.63-.24,3.68-1.24,7.15-2.97,10.39-3.43,6.43-8.22,8.12-14.94,5.34-.49-.2-1-.37-1.49-.54-1.6,1.11-.76,2.68-.85,4.01-.21,2.9-.24,5.83-1.42,8.55-1.45,3.31-3.15,4.24-6.31,2.41-2.11-1.22-3.82-.37-5.01.37-3.89,2.42-6.81,1.26-9.8-1.95-2.02,3.72-.82,7.45-1.21,11.08,2.72.23,3.06-2.62,5.23-3.3.62,2.75-1.21,4.36-2.67,6-2.91,3.28-6.47,5.82-10.06,8.31-.74.51-1.7,1.01-1.42,2.06.35,1.3,1.42.52,2.23.56,1.81.1,1.45,1.28.85,2.21-1.2,1.87-3.25,2.35-5.24,2.43-6.72.27-13.12-.46-17.5-6.55-.15-.21-.6-.22-1.3-.44-.2,1.77-.26,3.52-.63,5.2-.61,2.7-1.43,5.37-4.75,5.94-1.43.24-2.14,1.23-2.78,2.36-.27.47-.58.92-.9,1.36-4.14,5.7-6.68,6.39-13.22,3.58-.6,2.03.13,3.96.5,5.88,4.01,20.86,8.08,41.7,12.11,62.56.38,1.96.66,3.94.83,5.93.14,1.67,0,3.47-1.98,4-2.14.58-2.88-1.15-3.41-2.7-.93-2.75-1.78-5.53-2.5-8.34-4.16-16.37-7.4-32.94-10.92-49.45-2.95-13.85-5.59-27.76-9.8-41.31-1.34-4.3-2.81-8.54-5-12.75-2.29.63-3.68,2.12-5.23,3.27-13.58,10.05-27.14,20.11-41.29,29.35-3.8,2.48-7.69,4.82-11.82,6.74-.99.46-1.99.92-3.03,1.19-1.76.46-3.86,1.06-4.82-1.05-1.08-2.4,1.21-2.99,2.73-3.86,15.32-8.8,29.19-19.68,43.32-30.2,4.37-3.25,8.63-6.65,12.94-9.98,1.43-1.11,2.91-2,2.01-4.4-.92-2.45.41-4.34,2.7-5.18,17.67-6.47,32.14-18.22,47.42-28.61,1.04-.71,2.14-1.37,3.29-1.85,1.08-.45,2.18-.18,2.89.83.71,1.01.64,2.16-.17,3-1.13,1.17-2.39,2.21-3.67,3.22-12.43,9.75-24.89,19.47-37.33,29.21-3.55,2.78-3.56,2.79-1.45,6.9,4.18,8.15,6.41,16.95,8.5,25.79.47,1.99,1.06,3.95,2.11,5.91,1.71-5.23,2.78-10.47,5.5-15.16.83-1.43-.63-2.72-1.18-4.01-1.72-4.08-1.66-6.28.3-7.34,2.1-1.13,3.92.02,6.02,3.9,1.21,2.24,2.34,4.51,4.67,5.87,1.78-.89,1.09-2.55,1.17-3.85.27-4.35.34-8.71,1.14-13.01.27-1.46.62-2.89,2.25-3.43,1.55-.52,2.82.77,2.54,2.98-.69,5.47.2,10.87.55,16.29.12,1.8.28,2.87,2.82,2.62,2.58-.26,4.26,2.45,6.5,3.6.98.5,1.77,1.43,2.82.61.96-.74.01-1.62-.24-2.39-1.38-4.22-1.43-8.58-1.28-12.94.06-1.71.62-3.38,2.85-3.13,1.82.2,3.05,2.56,2.51,4.57-.09.33-.55.57-.6.89-.42,2.9-.94,6.34,1.43,8.14,1.91,1.45,4.32-.94,6.37-1.98.95-.48,1.78-1.23,2.81-1.96-2.96-3.34-3.02-7.61-4.21-11.5-.53-1.75-.27-4.26-3.2-4.28,0,0,.08.08.08.08ZM528.62,339.07c-.34.04-.67.09-1.01.13-.35,1.92-.64,3.86-1.06,5.77-1.07,4.85-.75,5.15,4.3,3.8-.74-3.23-1.49-6.47-2.23-9.7ZM534.74,347.19c2.37-3.24,1.69-6.26,1.18-9.26-.16-.92-.56-1.81-1.69-1.61-1.04.19-1.41,1.12-1.26,2.05.45,2.75.39,5.61,1.77,8.81ZM474.25,375.51c-1.61,3.48-1.96,6.26-1.76,9.14,2-2.37,3.18-4.93,1.76-9.14ZM505.46,376.07c.82,1.05,1.77.99,2.8.32.42-.27.47-.59.05-.87-1.11-.73-1.95.06-2.85.55Z"/><path class="cls-1" d="M605.41,911.56c-1.27,3.46-2.42,7.28-4.08,10.88-2.17,4.72-5.9,6.71-9.94,5.72-1.39-.34-2.71-.98-4.12-1.5-1.32,1.85-.61,3.47.11,5.14,1.62,3.8,1.13,5.63-2.63,6.41-9.14,1.88-18.35,3.21-26.79-2.62-.25-.18-.67-.12-1.33-.22-.94,2.8-1.88,5.26,2.13,6.86,2.17.87,2.7,3.29,2.63,5.59-.03.9-.21,1.82-.49,2.67-1.16,3.52-2.53,6.99-6.65,7.92-4.23.96-6.21-2-7.99-5.46-5.32,4.4-10.64,6.05-16.49-.23-1.5,6.47-2.86,12.38-8.93,15.14-6.46,2.93-11.43-.32-16.95-5.26,0,3.04-.01,4.95,0,6.86.02,2.01-.05,4.02-.8,5.9-1.34,3.41-4.42,4.31-7.49,2.25-1.55-1.05-2.64-2.52-3.42-4.16-2.74-5.8-2.79-11.94-2.04-18.14.12-1.02.5-2.31,1.89-2.24,1.33.07,1.58,1.35,1.83,2.38.55,2.29.91,4.63,1.5,6.91.48,1.83.84,3.79,2.96,5.91.32-3.58.41-6.37.85-9.11.9-5.66,4.09-7.21,8.71-3.9,7.98,5.71,9.63,3.01,12.52-4.24,1.55-3.89,2.46-7.97,3.39-12.04.56-2.47,1.28-4.92,2.19-7.29.67-1.75,2.09-3.56,4.08-2.64,2.15.98,3.53.58,5.37-.57,2.74-1.71,5.22-.34,7.42,1.5,2.25,1.88,3.55,4.51,5.41,7.58,1.01-2.94,1.79-5.24,2.58-7.54,1.91-5.53,4.32-10.79,8.22-15.24,1.35-1.54,2.92-3,5.16-1.75,2.15,1.2,2.07,3.17,1.41,5.25-.61,1.9-1.15,3.82-1.72,5.73-.65,2.18.3,3.48,2.31,4.17.69.24,1.4.38,2.1.59q9.83,2.86,9.85-7.08c0-2.34-.36-4.73,2.24-6.24,1.27-.73.69-2.33.87-3.54.26-1.78,1.06-3.1,2.78-3.69,1.99-.68,3.53.25,4.85,1.64,1.87,1.97,2.61,4.77,4.99,6.82,1.7-.84,2.35-2.52,3.07-4.08,1.3-2.8,2.39-5.69,3.76-8.45,2.52-5.07,6.77-5.82,11.03-2.03.68.6,1.3,1.27,1.87,1.98,4.77,5.95,9.58,11.86,14.95,17.31,1.28,1.3,3.46,2.96,1.8,5.05-1.41,1.77-3.7.96-5.59.24-4.36-1.65-7.56-4.92-10.98-7.89-2.72-2.37-5.47-4.7-8.4-7.22ZM586.51,925.53c-.12.13-.33.25-.33.38,0,.13.21.26.32.39.12-.13.33-.25.33-.38,0-.13-.21-.26-.32-.39Z"/><path class="cls-1" d="M360.08,1036.59c-2.27-.56-3.79.68-5.41,1.25-8.38,2.98-16.71,6.08-25.44,7.9-2.3.48-4.66.7-7.01.85-1.34.08-2.65-.51-2.81-2.01-.15-1.42,1.21-1.6,2.22-1.93,4.49-1.45,9-2.82,13.46-4.34,1.09-.37,2.74-.67,2.24-2.47-.47-1.67-.64-3.72-3.06-3.93-2.53-.23-5.07-.36-7.57-.72-2.68-.38-4.88-1.69-5.72-4.4-.9-2.93.26-5.37,2.5-7.27,1.38-1.17,2.82-2.31,4.38-3.22,2.33-1.36,3.95-2.71,3.44-5.94-.35-2.21,1.29-2.8,3.09-1.16,1.09.99,1.65,2.26,3.49,1.22,10.11-5.71,20.5-10.95,29.78-18.02.39-.3.56-.88.89-1.41-2.77-.67-5.12.61-7.5,1.28-9.26,2.63-18.25,6.04-27.17,9.63-5.65,2.28-11.31,4.54-16.98,6.77-.84.33-1.74.51-2.63.7-.89.19-1.95.42-2.4-.59-.59-1.3.49-2.17,1.41-2.53,2.37-.94,4.28-2.62,6.52-3.72,12.69-6.27,25.47-12.34,39.36-15.6,2.65-.62,5.32-1.24,8.01-1.51,2.86-.29,6.17-.71,7.76,2.44,1.66,3.28-.98,5.42-3.01,7.46-2.95,2.97-6.32,5.46-9.79,7.79-6.48,4.35-13.01,8.62-19.52,12.93-1.06.7-2.11,1.41-3.17,2.11-1.03.68-1.39,1.62-1.07,2.81.38,1.41,1.56,1.29,2.63,1.28,1.82,0,3.63-.03,5.45-.12,5.07-.28,10.14-.6,15.5-.92-.47-2.44-2.72-3.8-3.39-6-.33-1.08-.7-2.14.21-3.04,1.17-1.16,2.35-.55,3.4.26.72.55,1.36,1.2,2.01,1.83,5.66,5.55,4.83,4.02,7.96-1.49,2.5-4.42,4.9-8.9,7.36-13.35.53-.95,1.01-1.94,1.62-2.84.79-1.16,1.5-2.88,3.29-2.07,1.66.75,1.14,2.49.92,3.89-.2,1.25-.49,2.5-.9,3.69-1.36,3.94-2.82,7.85-4.2,11.79-.77,2.19-2.14,4.24-1.65,6.77.17.91-.12,1.89-.84,2.49-3.14,2.57-3.95,6.44-5.54,9.84-5.24,11.17-10.04,22.55-15.8,33.47-2.07,3.93-3.57,5-5.41,3.8-2.78-1.81-1.93-4.48-1.05-6.84,2.73-7.31,5.62-14.55,8.46-21.82.63-1.62,1.59-3.14,1.71-5.02ZM350.89,1031.99c-.1-.37-.19-.74-.29-1.1-2.31.11-4.61.25-6.92.32-1.5.05-2.36.55-2.09,2.24.27,1.68,1.12,2.05,2.62,1.4,2.22-.97,4.45-1.91,6.68-2.86Z"/><path class="cls-1" d="M432.48,1002c8.03-5.67,15.5-12.03,22.18-19.22,7.18-7.73,5.67-12-4.87-14.13-9.55-1.93-19.19-1.26-28.78-.29-8.85.89-17.67,2.11-26.51,3.19-2.35.29-4.71.43-7.05-.12-1.27-.3-2.6-.69-2.45-2.36.12-1.4,1.4-1.51,2.45-1.68,9.5-1.51,18.84-4,28.45-4.84,9.96-.87,19.92-1.8,29.9-.18,3.78.61,7.5,1.37,11.02,2.91,4.17,1.82,7.68,4.27,8.19,9.28.22,2.12,1.34,2.29,3,1.68,2.89-1.06,5.78-2.14,8.69-3.17.85-.3,1.74-.6,2.63-.68,1.6-.15,3.67-.6,4.23,1.37.46,1.62-1.32,2.37-2.6,3.04-.96.5-1.98.92-2.94,1.43-1.43.76-3.14,1.29-4.18,2.43-1.33,1.45.46,3.01.67,4.56.52,3.91-1.19,6.27-5.14,6.88-.71.11-1.53.32-2.16.09-5.49-1.94-7.85,1.26-9.77,5.61-.95,2.15-2.33,4.14-4.19,5.65-1.19.96-2.65,1.45-3.88.04-1.01-1.15-.64-2.49.28-3.45,1.38-1.45,2.91-2.75,3.2-4.9.45-.29.5-.45.17-.38-.06.01-.06.3-.09.46-1.73-.25-2.55,1.19-3.61,2.06-8.43,6.89-17.12,13.44-25.99,19.76-1.52,1.08-3.22,3.31-5.08,1.16-1.73-2.01.19-3.95,1.71-5.02,3.59-2.53,3.57-5.66,2.88-9.52-1.27-7.14-2.08-14.36-3.02-21.55-.33-2.52-.27-5.07.08-7.6.24-1.72.83-3.17,2.65-3.75,2.03-.64,3.54.31,4.77,1.76,1.44,1.7,2.11,3.78,2.7,5.89,1.77,6.4,1.62,12.93,1.36,19.47-.04,1.08.07,2.16.11,3.25-.31.51-.43,1.06.14,1.42.13.08.56-.34.85-.53ZM462.18,989.78c2.69-.55,4.64.85,5.72-1.29.5-.99-.51-2.28-1.36-2.59-2.46-.89-2.65,1.39-4.35,3.88Z"/><path class="cls-1" d="M1398.29,542.83c-1.86,2.15-2.03,4.3-2.35,6.42-.46,3.05-.84,6.12-1.89,9.05-.62,1.75-1.36,3.67-3.45,3.77-1.96.1-3.19.82-4.58,2.16-1.78,1.72-3.74.91-4.48-1.56-.31-1.02-.39-2.15-.36-3.23.15-4.73.75-9.41,1.67-14.05.36-1.83.81-3.75,3.05-3.98,2.66-.27,3.09,2.09,3.9,3.84.51,1.1-.29,2.57,1.53,4.04.54-2.34,1.01-4.41,1.49-6.48.88-3.71,1.68-7.43,2.69-11.11.45-1.63,1.53-3.02,3.44-3,1.92.02,2.86,1.5,3.37,3.1,1.06,3.3,1.26,6.76,1.47,10.25,1.87-.17,1.68-1.73,1.99-2.78.53-1.78,1.21-3.43,2.61-4.69,2.72-2.46,4.62-2.16,6.5,1.07.55.94.9,1.98,1.4,2.95.48.93.49,2.16,2.1,2.98.87-2.39,2.48-4.45,2.39-7.17-.07-2.22,1.17-3.74,2.57-5.21,4.13-4.32,8.79-8.16,12.03-13.3.93-1.48,2.45-2.44,4.19-1.54,2.17,1.12,1.66,3.07.71,4.71-1.75,3.03-1.96,5.81.99,8.36,1.79-1.64,1.73-4.59,3.72-6.44,3.27-3.03,5.12-2.85,6.31,1.36.52,1.84,1.69,2.09,2.99,2.65,6.97,3.03,8.54,6.85,5.59,13.8-1.5,3.55-3.58,6.74-6.47,9.32-1.31,1.16-2.93,1.92-4.36.47-1.23-1.25-.55-2.66.54-3.85,1.35-1.47,2.31-3.17,3.03-4.94-.52-.38-.77-.7-1.04-.73q-7.46-.78-12.81-5.82c-.52-.49-1.1-.95-1.71-1.33-.26-.16-.67-.09-1.38-.16-.47,2.26-.22,4.45.25,6.74.68,3.32-1.46,7.95-4.17,9.39-1.4.74-2.69.93-3.42-1.12-1.06-2.96-1.17-2.92-4.88-4.67-1.61,1.59-1.05,3.73-1.35,5.64-.2,1.25-.22,2.53-.43,3.78-.22,1.28-.66,2.54-2.08,2.94-1.67.47-2.75-.44-3.56-1.8-.26-.44-.57-.84-.86-1.26-5.88,3.98-6.45,3.94-11.16-1.28-.42,2.51-.74,4.71-1.16,6.89-.13.71-.52,1.42-1.35,1.5-1.16.12-1.63-.78-1.74-1.66-.32-2.52-.45-5.06-.71-7.58-.22-2.15-.5-4.3-.75-6.45ZM1454.14,531.51c-.56-1.19-1.51-2.87-3.27-2.56-1.85.32-2.06,2.51-1.96,3.98.09,1.41,1.68,1.75,3.01,1.52,1.34-.24,2.35-.94,2.23-2.94ZM1426.99,532.38q4.03,1.72,3.71-3.5c-1.78.64-2.83,1.96-3.71,3.5Z"/><path class="cls-1" d="M1290.51,558.54c-2.04,2.2-3.4,4.6-6.22,2.5-.55-.41-1.25.41-1.8.89-4.66,4.15-9.55,4.97-14.76.76-2.52,2.59-.84,6.65-4.34,9.66,1.13-5.02.26-9.34,1.03-13.63.22-1.24.51-2.49.95-3.68.44-1.21,1.12-2.46,2.73-1.96,1.32.41,2.78.74,2.05,2.93-.73,2.16.35,3.98,2.3,4.97,2.19,1.11,4.26.38,6.05-1.1,1.39-1.16,1.63-2.32-.24-3.36-1.03-.57-2.94-.8-2.43-2.4.61-1.91,2.62-1.78,4.2-1.45,1.35.29,2.59,1.08,4.11,1.75,1.62-1.66.24-4.75,2.57-5.99,2.09,1.18.61,3.49,1.65,4.74,1.15.31,1.41-.57,1.97-.95,2.69-1.86,3.77-1.51,4.47,1.57.36,1.59.42,3.24.77,4.83.46,2.1,1.02,4.21,3.57,5.39,1.18-3.36,1.61-6.66,1.8-10.02.18-3.25,1.59-4.44,5.78-4.65-2.37,3.05-3.15,6.47-3.37,10.04-.08,1.24-.06,2.59.34,3.74.49,1.41,1.64,2.46,3.31,2.35,1.71-.12,2.49-1.24,2.68-2.88.45-3.78.95-7.55,1.41-11.33.11-.9.15-2.13,1.32-1.91,2.62.48,4.45-.67,6.28-2.25.68-.58,1.7-.58,2.51.1.83.7.69,1.62.5,2.5-.36,1.59-.96,3.13-1.16,4.74-.27,2.08.29,3.98,2.2,5.2,2.52,1.61,4.45.84,5.06-2.1.4-1.95.52-3.96.93-5.91.71-3.4,2.85-4.47,5.95-3.08.49.22.91.59,1.39.86,5.71,3.21,9.24,2.37,12.8-3.16,1.78-2.76,3.03-5.77,3.66-9.02.21-1.08.48-2.24,1.96-2.05,1.11.14,1.44,1.13,1.41,2.03-.23,6.89-1.69,13.39-7.14,18.15-3.6,3.14-7.8,3.53-12.21,1.58-1.13-.5-2.05-1.58-3.67-1.34-1.36,1.77-.71,4.04-1.03,6.11-.3,1.96-1.19,2.99-3.32,2.32-.68-.21-1.42-.56-2.07-.46-4.65.75-8.11-1.1-10.62-4.72-.8.1-1.24.35-1.37.95-1.12,4.82-4.41,7.53-9.32,7.63-.72.01-1.45-.26-2.15-.19-7.01.79-8.2.17-11.25-6.05-.31-.63-.59-1.28-1.21-2.63Z"/><path class="cls-1" d="M1186.04,569.15c2.2.59,1.13,2.82,2.19,4.31,1.59-.29,2.55-1.68,3.81-2.53,1.8-1.23,3.35-1.73,4.06,1.01.49,1.89,1.7,1.52,2.94,1.04,2.34-.9,4.58-2.1,7.23-2.08-4.35,2.1-7.85,6.83-14.13,3.99-.04,3.82-2.85,4.8-5.76,5.39-4.02.82-8.02,2.66-12.21.68-.94-.44-1.61.01-2.46.43-3.21,1.6-3.31,1.53-3.23-2.09.03-1.13.34-2.47-1.19-2.3-1.38.15-3.88.24-3.08,2.56.77,2.23.12,3.1-1.79,3.52-1.86.41-3.7.23-4.77-1.64-2.44-4.24-2.41-4.26-6.16-1.19-.27.22-.46.55-.83,1,2.64,5.2,7.52,5.39,12.45,5.47-1.95,3.89-3.13,3.86-15.63-.39-.67,1.57-1.42,3.15-2,4.78-.25.69-.27,1.4-1.21,1.49-.84.07-1.49-.36-1.7-1.06-1.53-5.17-4.12-10.41-.62-15.67,3.53-5.3,8.42-8.53,15.07-7.79,1.8.2,3.16-.25,4.62-.99,2.11-1.07,4.31-1.93,6.64-2.35,1.12-.2,2.23.01,2.93.99.72,1.02.36,2.09-.28,3.03-.51.75-1.13,1.41-1.67,2.15-.48.66-1.5,1.42-.35,2.17.82.54,1.94,1.35,2.92.25.84-.94,1.5-2.04,2.23-3.07,1.58-2.24,3.34-4.3,5.61-5.87,1.36-.93,2.83-1.96,4.51-1.04,2.25,1.22.99,3.14.7,4.84-.29.54-1.08,1.08-.3,1.7.8.63,1.1-.21,1.47-.73ZM1166,568.77c-4.13.75-6.89,3.01-7.98,7.1,3.2-1.79,6.42-3.56,7.91-7.2.33-.02.7.05.96-.09.35-.19.22-.54-.22-.48-.25.03-.45.43-.67.67ZM1155.1,570.8c-8.83,1.13-12.85,5.99-11.49,14.95.86-5.27,3.87-7.42,7.05-9.4,2-1.25,3.87-2.6,4.45-5.55ZM1184.57,569.78c-2.74,1.49-4.03,3.47-5.51,5.22-.68.8-1.71,1.69-.86,2.81.7.93,1.98.67,3.05.71.97.04,1.85-.23,2.17-1.24.69-2.19,1.97-4.28,1.16-7.51Z"/><path class="cls-1" d="M1563.96,519.75c8.48-1.54,16.98-1.57,24.32-7.61.81,3.78-.84,5.28-2.94,6.46-1.51.85-3.06,1.68-4.69,2.25-1.47.52-2.8,1.38-3.04,2.75-.98,5.64-5.27,5.68-9.51,5.94-.18.01-.36-.03-.54-.01-2.88.25-5.06-2.5-7.63-2.23-2.36.25-3.98,3.2-6.7,3.22-2.06.02-3.02.82-4.04,2.66-1.65,2.99-4.05,2.6-5.49-.6-1.48-3.31-2.02-6.89-2.52-11.53-2.37,2.56-2.48,4.75-2.47,6.94,0,2.36.18,4.72.16,7.07-.01,1.55-.56,2.98-2.36,3.11-1.82.14-2.51-1.28-2.81-2.75-.47-2.31-.83-4.64-1.12-6.98-.18-1.47.04-2.58,1.73-3.49,4.32-2.33,7.56-5.5,6.66-11.15-.32-2,.41-3.97,1.65-5.63,2.41-3.21,6.07-2.78,7.68.93,1.03,2.38.93,4.97,1.15,7.5.12,1.45.06,2.91.24,4.35.14,1.16-.29,2.74,1.45,3.09,1.48.29,3.17-1.67,3.16-3.62,0-.9-.33-1.8-.33-2.7,0-1.26.03-2.56.32-3.78.63-2.63,2.54-4.23,4.5-3.82,2.34.49,3.14,2.23,3.17,4.44.02,1.6,0,3.19,0,5.19Z"/><path class="cls-1" d="M1469.74,431.13c-2.11-.33-3.93,1.28-4.94-.76-.81-1.62-.2-3.18.63-4.65.09-.16.19-.31.28-.46,1.95-3.14,4.74-4.76,7.03-4.05,2.45.76,3.56,3.18,3.2,7.32-.44,4.97-2.48,9.44-4.56,13.88-.37.8-.73,1.61-1.08,2.39,1.21,1.41,2.76,1.3,4.09,1.49,2.67.38,5.87,1.5,7.93.47,2.22-1.11.6-4.62.9-7.06.37-3.08,1.21-4.24,4.17-3.33,3.66,1.12,4.78-.85,6.3-3.27,2.41-3.84,3.6-4.11,7.5-2.4.96.42,6.9,6.39,7.25,7.49.36,1.13,1.42,1.64,1.95,2.56.48.84.47,1.83-.36,2.44-.84.63-1.88.34-2.46-.37-1.31-1.62-2.45-3.38-3.83-5.32-1.2,1.91-.55,3.53-.66,5.05-.1,1.42.44,3.01-1.44,3.65-1.7.57-2.73-.49-3.62-1.7-.42-.57-.78-1.17-1.3-1.97-2.19.9-3.33,3.45-5.96,3.48-1.74.02-1.61,1.63-1.84,2.85-.34,1.78-1.35,3.47-3.21,2.9-4.63-1.44-8.86.84-13.3.93-2.17.05-4.33.46-6.5.57-2.12.11-4-.52-5.02-2.55-1.1-2.19.12-3.74,1.57-5.28,3.69-3.91,5.96-8.57,7.28-14.29Z"/><path class="cls-1" d="M1399.4,464.03c-2.56,4.4-4.01,9.24-5.42,14.07-.46,1.58-.27,3.6-2.59,3.23-2.12-.34-2.05-2.37-1.84-3.95.41-3.04,1.09-6.05,1.64-9.07.26-1.4.48-2.8.78-4.58-2.7-.31-4.68,1.17-6.85,1.55-2.41.42-4.81.65-6.35-1.73-1.54-2.37-.59-4.57,1.07-6.43,2.04-2.3,4.23-4.47,6.4-6.65.68-.68,1.61-.88,2.5-.42,1.19.61,1.14,1.69.9,2.81-.41,1.91-2.37,3.24-2.12,5.41q6.02.84,7.71-4.31c1.3-3.95,2.63-7.89,3.4-12,.31-1.67.37-4.09,2.9-3.84,2.75.28,2.45,2.76,2.41,4.69-.08,4.19-1.04,8.24-2.11,12.28-.6,2.26-1.63,4.44-1.39,6.88l.08-.13c-1.23.33-.95,1.44-1.18,2.29l.09-.1Z"/><path class="cls-1" d="M1520.66,516.36c-3.31.19-5.79,1.8-8.49,2.6-1.92.57-3.81,1.28-5.84,1.08-1.63-.16-2.7-1.14-2.8-2.82-.08-1.4.59-2.6,2-2.87,8.4-1.62,16.04-5.76,24.45-7.33.36-.07.7-.2,1.06-.24,1.62-.19,3.37-.59,4.35,1.24.92,1.72,0,3.16-1.06,4.46-1.26,1.55-2.41,3.26-3.93,4.52-3.16,2.61-3.85,5.78-3.39,9.69.4,3.41.19,6.89.14,10.34-.02,1.49-.34,3.08-2.25,3.16-1.93.08-2.24-1.53-2.48-2.99-.26-1.61-.51-3.23-.64-4.86-.17-2.17.05-4.11-3.36-4.15-2.21-.03-2.16-2.41-1.52-4.34.84-2.52,3.17-4.32,3.76-7.47Z"/><path class="cls-1" d="M1555.69,656.38c0,3.96-2.23,7.06-6.18,8.91-4.46,2.09-8.87,1.9-12.82-1.2-3.32-2.61-4.34-6.18-3.38-10.25,1.13-4.77,3.92-8.6,7.61-11.66,2.91-2.41,5.3-1.88,7.8,1.13,1.27,1.53,2.65,2.98,3.88,4.55,1.84,2.33,3.01,4.95,3.08,8.52ZM1545.23,650.45c-1.19,1.31-1.63,2.66-2.01,4.05-.34,1.24-.73,2.61.62,3.43,1.14.69,2.51.55,3.61-.2,1.42-.97,1.49-2.43.79-3.87-.61-1.27-1.11-2.69-3-3.41Z"/><path class="cls-1" d="M1432.86,454.48c0,4.97.09,10.77-.05,16.56-.04,1.88.2,4.74-2.28,4.88-2.57.15-2.48-2.7-2.65-4.58-1.08-11.73-2.1-23.47-3.04-35.21-.26-3.25-.21-6.53.67-9.72.31-1.14,1.02-1.96,2.22-2.07,1.26-.12,2.03.72,2.38,1.8.44,1.37.8,2.78,1.04,4.2,1.27,7.72,1.11,15.54,1.71,24.14Z"/><path class="cls-1" d="M1549.14,762.16c.51-3.94.83-8.35,4.43-11.46,1.11-.96,2.79-1.73,3.02.74.19,2,1.68,2.64,2.87,3.66,2.47,2.12,4.92,4.27,6.77,6.98,2.79,4.06,2.57,7.87-.5,10.78-2.99,2.82-8.08,3.13-11.5.59-3.64-2.7-4.83-6.59-5.09-11.29ZM1560.63,767.77c-.87-3.61-2.11-5.45-4.56-7.47.09,3.43.76,5.6,4.56,7.47Z"/><path class="cls-1" d="M1545.38,557.08c.76,0,1.87-.12,2.93.03,1.77.25,3.62.71,1.56,2.95-1.4,1.53-.03,2.71.31,3.97,1.92,7.3-3.73,14.04-11.27,13.39-6.76-.58-9.83-7.12-6.03-12.75,2.19-3.24,5.97-4.65,8.51-7.52.85-.96,2.42-.34,3.98-.07ZM1540.55,569.15c1.6-.12,2.64-.73,2.75-2.47.02-.32-.15-.92-.31-.95-1.66-.29-1.86,1.27-2.56,2.18-.15.19.05.64.12,1.24Z"/><path class="cls-1" d="M1520.38,431.71c.14,1.81.36,3.62.41,5.43.05,2.05,1.28,5.02-1.64,5.57-3.22.61-3.35-2.79-3.89-4.87-1.54-5.97-2.91-11.99-4.08-18.05-.58-3.01-.68-6.13-.81-9.21-.08-1.81.19-3.63,1.19-5.24.82-1.31,1.87-2.28,3.52-2.09,1.71.2,2.48,1.47,2.69,2.99.52,3.78.98,7.56,1.38,11.35.49,4.7.88,9.4,1.32,14.1-.03,0-.06,0-.09,0Z"/><path class="cls-1" d="M844.89,898.53c-2.23.75-4.43,1.63-6.7,2.22-2.26.59-4.61,1.16-7.53-1.39,4.39,1.13,7.51-.15,10.47-1.7,11.1-5.81,22.07-11.8,30.65-21.27,1.58-1.74,3.42-3.24,5.2-4.78.94-.82,2.09-1.88,3.33-.8,1.41,1.24.06,2.32-.71,3.2-1.43,1.64-2.79,3.45-4.54,4.67-10.12,7.08-18.59,16.15-28.59,23.35-4.98,3.59-9.92,7.26-16.66,9.89,5.83-4.72,11.8-7.55,16.58-12.01.77-.39,1.9-.96,1.25-1.82-.8-1.06-1.86-.02-2.76.43Z"/><path class="cls-1" d="M1550.56,700.71c-6,.04-10.84-3.75-11.28-8.82-.46-5.3,3.54-10.48,9-11.67,4.54-.99,4.62-1.03,6.34,2.88,1.16,2.64,2.19,5.36,3.04,8.12,1.86,5.98-.78,9.43-7.11,9.47ZM1552.18,691.97c-.61-2.44-1.17-4.9-1.85-7.32-.21-.74-.86-1.08-1.68-.73-1.48.63-3.3,4.55-3.02,6.61.33,2.39,2.06,3.23,4.15,3.56,1.56.25,2.44-.36,2.4-2.11Z"/><path class="cls-1" d="M1541.57,609.28c-5.51.01-9.32-3.75-9.27-9.14.06-5.34,4.13-10.72,8.15-10.77,4.72-.05,11.34,6.66,11.4,11.56.06,4.55-4.61,8.34-10.29,8.35ZM1540.91,595.94c-2.28.05-2.45,1.81-2.49,3.38-.04,1.96,1.66,3.32,3.58,3,1.49-.25,2.76-.9,2.7-2.72-.06-2.09-1.82-3.76-3.8-3.65Z"/><path class="cls-1" d="M1516.03,586.28c33.65-4.9,67.19-10.58,101.22-12.73-33.7,4.7-67.4,9.4-101.11,14.1-.04-.46-.07-.91-.11-1.37Z"/><path class="cls-1" d="M1400.42,461.96c1.59-2.3,2.53-5.32,6.37-4.84,1.41.18,1.77-1.62,2.68-2.44,3.54-3.2,7.48-1.99,8.46,2.7.33,1.58.44,3.26.29,4.87-.24,2.6-1.78,3.69-4.05,2.38-2.04-1.19-3.2-.84-3.64,1.02-1.13,4.73-6.82,5.01-8.56,9.11-.28.66-1.63.61-2.51.11-1.1-.63-1.27-1.68-1.27-2.81.01-2.73,1.55-5.24,1.2-8.03l-.09.1c1.26-.32.94-1.45,1.18-2.29l-.08.13Z"/><path class="cls-1" d="M852.25,840.52c5.73-9.18,11.6-18.16,21.88-22.81-3,12.25-23.64,36.23-40.63,41.28,4.55-3.04,8.22-5.52,11.92-7.96,8.17-5.39,14.37-12.66,19.77-20.67.72-1.07,2.41-2.53.79-3.63-1.43-.97-2.48.94-3.39,1.96-3.49,3.9-6.9,7.88-10.34,11.83ZM868.15,824.28l-.39-.39c-.12.24-.28.48-.34.73-.02.09.22.24.34.36.13-.24.26-.47.39-.7Z"/><path class="cls-1" d="M827.84,1038.36c15.13-5.08,29.33-10.89,42.06-19.87,2.21-1.56,4.63-2.83,6.97-4.22.71-.42,1.44-.28,1.92.35.48.63.39,1.39-.14,1.98-.6.67-1.21,1.37-1.94,1.9-13.63,10.02-28.72,16.78-45.35,20.02-1,.19-2.08.58-3.53-.16Z"/><path class="cls-1" d="M838.07,992.49c2.65-1.16,4.36-1.72,5.86-2.62,1.26-.76,3.97-.66,2.33-3.68-.63-1.16,1.38-1.22,2.22-1.65,9.54-4.87,19.07-9.75,27.55-16.4,1.57-1.23,3.09-2.52,4.68-3.71.41-.3,1.12-.48,1.43.12.21.4.29,1.17.05,1.45-.81.97-1.72,1.88-2.71,2.66-10.68,8.47-21.88,16.19-33.99,22.51-1.89.99-3.84,2.11-7.42,1.31Z"/><path class="cls-1" d="M1278.23,542.32c-1.92,2.7-3.77,2.97-5.42,3.56-9.28,3.3-18.15,7.41-26.1,13.31-1.08.8-2.21,1.72-3.3.45-1.1-1.27,0-2.32.92-3.23.26-.25.53-.5.83-.7,9.7-6.67,20.37-10.93,33.06-13.39Z"/><path class="cls-1" d="M1186.92,704.21c-.6-2.6,1.37-2.56,2.86-2.51,1.79.06,2.26,1.5,2.32,3.1.1,2.66-2.06,4.53-2.76,7.47,5.79.8,11.36,1.58,16.93,2.35-2.31,1.58-4.63,1.31-6.95,1.31-5.59,0-11.21-1.09-16.76.51-1.19.34-2.31.04-2.56-1.24-.24-1.24.73-2.05,1.85-2.29,3.68-.77,6.13-2.86,7.39-6.39.89-2.51-.35-2.87-2.41-2.43l.08.11Z"/><path class="cls-1" d="M1217.88,937.88c-1.8.82-3.57,1.75-5.42,2.43-2.19.8-4.48,1.71-7.1-1.38,6.1.14,10.29-3.43,15.21-5.2,1.07-.38,2.1-.6,3.04.23,1.17,1.03.98,2.31.36,3.47-1.03,1.9-2.12,3.78-3.37,5.54-2.36,3.34-4.86,6.6-7.75,10.49-.42-2.83.92-4.3,1.81-5.89,1.58-2.82,3.96-5.18,4.79-8.42.69-.51,1.5-1.17.58-1.94-.75-.62-1.52.13-2.15.68Z"/><path class="cls-1" d="M1196.59,757.43c.12-3.94-.68-7.31.37-10.93-2.97-.83-5.27.68-7.65,1.7-.98.42-1.83,1.14-2.81,1.55-.65.27-1.47.15-1.91-.54-.45-.72-.18-1.49.43-1.92,5.02-3.5,10.6-5.31,16.74-5,1.69.09,3.07,2.01,1.83,2.93-3.94,2.92-3.68,7.48-5.32,11.27-.11.25-.57.34-1.68.95Z"/><path class="cls-1" d="M834.36,726.94c.51-2.16,1.86-3.6,3.04-5.09,6.99-8.84,16.19-14.87,25.91-20.22,1.42-.78,3.56-1.9,4.32-.22.89,1.95-1.62,2.36-3.01,2.94-11.08,4.57-20.31,11.58-27.87,20.84-.55.67-.98,1.53-2.39,1.75Z"/><path class="cls-1" d="M1198.6,913.47c-.64-1.26-.33-1.96.09-2.51,1.76-2.32,3.56-4.54,1.8-7.75-.34-.62.1-1.78.4-2.62,1.55-4.3,4.73-7.21,7.82-10.19.3.23.6.46.89.69-1.83,2.98-3.7,5.94-5.46,8.96-.53.9-1.2,2.06-.53,3.05.83,1.23,1.9.3,2.86-.1.88-.36,1.86-.52,2.37.47.65,1.27-.29,2.26-1.22,2.62-3.75,1.45-6.71,3.88-9.03,7.39Z"/><path class="cls-1" d="M1225.19,975.28c.6.06,1.22.56.79.95-2.96,2.66.5,2.57,1.46,3.44,2.2,1.99,2.29,3.92.12,5.91-1.8,1.65-4.11,2.3-6.38,2.67-2.45.4-4.69-1.68-4.83-4.01-.19-3.36,5.5-9.12,8.84-8.96ZM1224.39,982.72c-2.83-1.59-3.02-1.65-3.8-.54-.27.37-.44,1.28-.25,1.43,1.35,1.08,2.58.49,3.71-.49.13-.11.23-.26.34-.4Z"/><path class="cls-1" d="M1243.91,1010.02c-.97,1.93-2.57,2.11-3.63,3.02-1.74,1.5-4.04,2.56-.6,4.97,1.64,1.15,1.2,3.56.62,6.17-2.27-1.79-4.02-3.75-7-1.91-1.54.95-2.95-.91-2.43-2.88,1.17-4.41,7.5-9.13,13.03-9.37Z"/><path class="cls-1" d="M1455.72,449.84c-.06,1.84-.87,2.65-1.86,3.06-3,1.23-6.01,2.45-9.11,3.38-1.9.57-3.65-.09-4.24-2.27-.5-1.83.29-3.32,1.95-3.98,3.97-1.58,8.12-1.28,12.25-.74.48.06.91.49,1,.54Z"/><path class="cls-1" d="M1204.71,845.69c-.72,1.85-2.18,1.78-3.18,2.41-2.83,1.79-5.36,3.59-4.12,7.73.71,2.36-.53,4.56-1.95,6.52-.46.63-1.03,1.05-1.79.8-.77-.26-1.17-1.01-.96-1.72.87-2.97.97-5.98,1.05-9.05.06-2.36,2.1-3.67,3.95-4.83,1.98-1.25,4.06-2.3,7-1.86Z"/><path class="cls-1" d="M724.39,622.24c.31-3.11,1.99-5.73,3.05-8.57,1.54-4.14,4.36-5.94,9.64-5.41-4.06,5.28-5.76,11.84-12.77,13.91,0,0,.08.08.08.08Z"/><path class="cls-1" d="M1186.6,799.01c3.83-.15,7.45.3,10.79-1.45.78-.41,1.45-.38,1.69.46.29,1.03-.46,2.02-1.31,1.93-3.89-.41-7.47.86-11.13,1.73-1.22.29-2.69.65-3.41-.73-.73-1.41-1.28-3.02-.22-4.59.2-.3.46-.58.74-.79,1.68-1.24,3.39-4.58,4.82-3.5,2.27,1.72-1.43,3.29-1.8,5.21-.07.34-.07.69-.18,1.74Z"/><path class="cls-1" d="M814.76,684.73c5.52-10.32,14.92-16.76,23.94-23.58-7.79,8.05-17.13,14.56-23.94,23.58Z"/><path class="cls-1" d="M1244.19,1049.53c1.06,2.5,1.31,5.24,4.33,6.28.71.24,1.15,1.32,1.66,2.06.96,1.4,1.71,2.99.3,4.38-1.53,1.51-3.33.92-4.9-.17-1.39-.97-2.05-2.43-2.4-4.06-.61-2.87-.34-5.65,1-8.48Z"/><path class="cls-1" d="M1233.54,984.34c-1.6,3.98-8.05,10.87-10.84,11.84-1.26.44-2.53.55-3.52-.5-1.15-1.23-.93-2.65-.23-4.01.58-1.12,1.56-2.8,2.71-2.1,3.37,2.04,4.81-.99,6.96-2.16,1.53-.84,2.33-2.77,4.93-3.06Z"/><path class="cls-1" d="M391.78,1021.63c-1.49-1.88-4.41-1.25-6.05-3.26-1-1.23-1.01-2.68-.29-4.04.62-1.17,1.65-1.87,3.04-1.88,1.57-.01,2.76.65,3.48,2.06.85,1.68.08,3.78,1.8,5.37.77.72-.87,1.14-1.97,1.74Z"/><path class="cls-1" d="M1422.62,442.94c-.45,1.96.75,4.97-1.8,5.14-2.54.17-1.89-2.94-2.23-4.7-.34-1.73-.3-3.55-.26-5.33.02-.93.65-1.69,1.69-1.75,1.02-.06,1.77.56,1.95,1.48.33,1.75.46,3.54.66,5.16Z"/><path class="cls-1" d="M1236.98,1064.87c-1.6-4.6-3.93-9.12-1.62-14.12,2.45,4.47,2.74,9.21,1.62,14.12Z"/><path class="cls-1" d="M1510.03,425.87c-.13.92-.31,1.68-1.13,1.85-.47.09-1.26,0-1.47-.3-1.62-2.37-3.18-4.78-4.65-7.24-.51-.85-.18-1.79.64-2.37.83-.59,1.8-.44,2.5.19,2.37,2.15,3.26,5.09,4.1,7.87Z"/><path class="cls-1" d="M744.03,650.62c.73-5.02,3.37-9.13,6.51-13.02-.91,2.31-1.82,4.62-2.7,6.85,1.47,2.26,3.32-.71,5.01.72-3.33,1.36-6.11,3.36-8.87,5.38,0,0,.05.06.05.06Z"/><path class="cls-1" d="M1423.35,459.67c-.64,1.92,1.16,4.36-1.46,5.42-1.37.55-2.9-2.23-3.05-5.57-.07-1.62,0-3.25.08-4.88.05-1.07.01-2.39,1.39-2.58,1.64-.22,2.14,1.18,2.38,2.41.35,1.76.46,3.57.65,5.21Z"/><path class="cls-1" d="M505.21,351.82c-1.48,2.1-2.8,2.49-4.23-.14-1.14-2.09-2.36-2.14-3.08.34-.36,1.22-1.1,2.15-2.24,1.43-1.56-.98-.52-2.24.33-3.12,1.59-1.65,3.16-3.39,5.57-4.04-1.51,5.58-1.12,6.15,3.75,5.62l-.09-.09Z"/><path class="cls-1" d="M1175.04,656.22c.84,4.85,1.67,9.7,2.51,14.55-2.31-4.55-4.5-9.12-3.87-14.27.45-.09.91-.18,1.36-.28Z"/><path class="cls-1" d="M392.83,982.07c2.77.01,5.24,2.09,5.08,4.12-.13,1.69-1.19,2.53-2.87,2.46-2.15-.08-5.3-2.37-5.18-3.84.16-1.95,1.49-2.67,2.97-2.74Z"/><path class="cls-1" d="M1186.84,704.09c-.11.12-.22.25-.34.37-.42.43-.72,1.1-1.51.81-.07-.03-.11-.32-.06-.46.25-.75.85-.95,1.57-.89.15.01.28.18.43.28,0,0-.07-.11-.07-.11Z"/><path class="cls-1" d="M1309.32,548.5c-.28.09-.56.21-.85.24-.11.01-.24-.17-.36-.27.29-.09.57-.21.86-.25.1-.01.23.18.35.28Z"/><path class="cls-1" d="M1163.04,839.37c.14.11.29.21.43.32-.33.11-.65.27-.99.32-.12.02-.29-.19-.43-.3.33-.11.66-.23.99-.34Z"/><path class="cls-1" d="M728.75,596.01c-.18.15-.36.3-.54.46.73.46.47-.18.52-.47h.02Z"/><polygon class="cls-1" points="727.23 600.25 726.93 600.24 727.08 600.73 727.23 600.25"/><path class="cls-1" d="M1211.37,889.72c-.09.1-.18.2-.28.3-.1-.09-.2-.19-.3-.28.1-.1.2-.26.29-.27.1,0,.2.17.28.24Z"/><path class="cls-1" d="M505.3,351.91c-.05-.76.34-1.11,1.06-1.17,0,0-.08-.08-.08-.08-.36.39-.72.77-1.08,1.16,0,0,.09.09.09.09Z"/><polygon class="cls-1" points="728.73 596 728.87 595.85 728.75 596.02 728.73 596"/><path class="cls-1" d="M1554.39,984.7c.06,1.46-.46,3.35-1.54,5.08-2.87,4.55-8.15,5.15-11.93,1.36-5.03-5.04-5.07-13.15-.08-18.36,4.14-4.33,6.51-4.19,9.91.76,2.17,3.17,3.64,6.63,3.65,11.16Z"/><path class="cls-1" d="M1586.83,973.86c1.98,1.35,3.73-.12,5.18.84.38.75.38,1.5-.08,2.08-1.9,2.36-9.53,3.89-12.18,2.43-2.06-1.13-2.55-2.87-1.84-5.09.55-1.71,1.78-3.21,1.6-5.4-1.49-.83-3.79,1.66-5.04-.92-1.16-2.39-.61-4.59.45-6.78,2.33-4.8,6.68-7.37,10.3-6.14,3.48,1.18,5.16,5.34,4.05,10.71-.58,2.81-1.61,5.52-2.44,8.27ZM1580.23,967.33c.67-1.41-.15-1.4-.43-1.75-.26.43-.56.83-.78,1.28-.36.75.45.75.74,1.09.3-.39.59-.79.46-.62Z"/><path class="cls-1" d="M1607.34,955.34c-.3,1.37-.64,2.2,1.35,3.1,3.27,1.48,4.09,3.62,3.47,6.53-.59,2.75-2.3,4.48-5.03,5.1-3.15.72-5.93-.31-7.37-3.23-1.07-2.17-2.29-3.63-4.52-4.87-5.19-2.88-4.84-10.53.35-13.55,1.46-.85,3.78-1.68,4.46-.2,1.59,3.46,8.66.9,7.3,7.12ZM1606.35,962.25c.07-.73-.51-1.2-1.13-1.38-.71-.2-1.32.29-1.46,1-.15.77.34,1.31,1.08,1.46.75.15,1.31-.15,1.51-1.08Z"/><path class="cls-1" d="M1570.41,984.1c-.01,1.67-1.15,2.4-2.74,2.55-2.07.2-4.16-1.41-4.23-3.32-.07-1.82.79-3.14,2.69-3.47,1.61-.28,4.13,2.17,4.28,4.24Z"/><path class="cls-1" d="M1316.54,1040.23c-1.46.28-2.5.64-3.54.64-3.59,0-5.75-2.67-4.68-6.12,1.33-4.29,4.05-7.67,8.06-9.77,1.85-.97,4.04-1.16,5.27.96.84,1.44,2.9,3.34-.2,4.81-.97.46-.62,1.05-.03,1.6,3.68,3.5,3.13,7.8,2.25,12.13-.25,1.23-.65,2.3-.07,3.64.84,1.9-.34,3.11-2.06,3.67-1.8.58-3.18-.17-4.03-1.82-.68-1.3-.94-2.73-.96-4.19-.03-1.79,0-3.57,0-5.55Z"/><path class="cls-1" d="M1333.65,1036.35c-1.39-2.1-.5-4.33-1.13-6.34-.42-1.32,1.43-3,3.23-2.73,1.61.24,1.56,1.96,1.11,3.09-.8,2-.56,4.66-3.21,5.97Z"/><path class="cls-1" d="M1344.16,1032.91q-2.87-1.13-3.02-4.1,1.78,1.48,3.02,4.1Z"/><path class="cls-1" d="M1453.13,1002.08c2.96-.14,4.57-1.63,6.33-2.83.6-.41,1.26-.89,1.88-.21.56.61.4,1.6-.11,1.98-4.04,2.97-7.29,6.93-12.19,8.86-3.46,1.36-5.06-1.91-7.78-2.44-1.73-.33-.69-3.22-.31-4.91.48-2.12,1.5-4.07,2.69-5.91,1.27-1.96,2.9-3.3,5.4-2.75,2.25.49,3.18,2.26,3.62,4.3.26,1.21.3,2.47.46,3.9Z"/><path class="cls-1" d="M1487.55,996.8c.02,4.94-2.5,8.66-5.92,9.62-1.54.43-3,.35-3.9-1.03-1.04-1.61.55-2.14,1.5-2.89,2.67-2.14,2.22-4.79.96-7.38-1.43-2.93-3.25-5.67-4.62-8.63-1.37-2.96-.8-5.19,1.29-6.85.73-.58,1.52-1.02,2.49-.67,1.12.4,1.16,1.32.85,2.22-.9,2.63,1.13,4,2.39,5.68,2.41,3.21,4.79,6.42,4.94,9.93Z"/><path class="cls-1" d="M1471.4,991.04c-.1,4.18-1.22,7.44-2.13,10.73-.37,1.34-1.26,2.23-2.76,2.02-1.56-.21-2.07-1.43-2.02-2.76.09-2.16.35-4.31.61-6.45.18-1.43.62-2.83.71-4.26.1-1.58.59-3.54-.92-4.54-1.76-1.17-2.88.73-4.13,1.61-1.04.73-2.1,1.85-3.26.57-1.26-1.38-.33-2.74.71-3.79,2.2-2.21,4.57-4.35,8.03-3.38,3.24.91,4.15,3.79,4.83,6.64.33,1.38.27,2.86.33,3.61Z"/><path class="cls-1" d="M1596.56,905.31c-2.77.19-4.12,2.59-6.46,2.37-1.3-.98-.53-2.01.01-2.86,3.5-5.55,8.86-8.41,14.97-10.09,1.41-.39,2.94-.36,3.98,1,1.21,1.59.57,3.08-.4,4.5-.41.6-.83,1.2-1.33,1.72-2.51,2.58-2.77,5.09-.58,8.21,5.1,7.29.64,12.36-4.21,15.52-1.25.82-2.61,1.55-3.93.25-1.09-1.08-.61-2.36-.02-3.53.41-.81.85-1.61,1.38-2.34,1.39-1.9,1.2-3.64-.27-5.43-2.14-2.6-3.42-5.55-3.12-9.32Z"/><path class="cls-1" d="M1534.35,929.01c-.16-4.98,2.77-8.91,4.91-12.96,1.46-2.76,6.56-1.8,8.28,1.02.93,1.54,2.15,2.91,3.03,4.47,2.39,4.21,2.04,9.17-.77,12.72-2.47,3.12-6.31,4.52-9.54,3.5-3.71-1.17-5.87-4.37-5.91-8.75ZM1542.77,929.06c.76-.74,1.26-1.41.78-2.41-.12-.24-.56-.32-.85-.47-.33.87-.44,1.75.07,2.88Z"/><path class="cls-1" d="M1569.82,886c-2.01-.23-3.76-1.36-4.76-3.53-1.2-2.61-.47-4.94,1.12-7.14,1.52-2.09,4.27-2.72,5.73-4.94.5-.75,1.61-.55,2.51-.1,2.72,1.37,4.57,6.08,3.73,9.56-.87,3.59-4.55,6.43-8.33,6.15Z"/><path class="cls-1" d="M1579.03,922.66c-.27,3.35-.52,6.96-.86,10.57-.12,1.31-.57,2.62-2.15,2.66-1.61.04-2.07-1.26-2.23-2.57-.85-6.84-1.16-13.71-.69-20.59.04-.53.23-1.06.37-1.58.36-1.28.89-2.44,2.45-2.48,1.57-.04,2.22,1.06,2.49,2.38.29,1.41.53,2.85.59,4.29.1,2.35.03,4.71.03,7.32Z"/><path class="cls-1" d="M1559.5,927.51c2.19.26,2.64,1.95,2.59,3.88-.06,2.04-.99,3.57-3.23,3.48-2.13-.08-3.17-1.58-3.29-3.59-.12-2,1.84-3.86,3.94-3.77Z"/><path class="cls-1" d="M1556.29,841.82c.23-2.12.22-5.33,3.7-6.82,1.45-.62.62-1.84.84-2.79.47-2.03,2.01-2.3,3.21-1.16,4.32,4.08,7.4,8.97,7.2,15.14-.1,3.07-1.97,5.38-5.11,6.31-2.94.87-5.34-.18-7.34-2.26-1.99-2.07-2.68-4.65-2.5-8.41ZM1562.17,837.1c-.15,3.61-.38,6.23,2.03,8.7q.28-3.95-2.03-8.7Z"/><path class="cls-1" d="M1542.3,850.14c.08,2.87-.23,4.43-1.03,5.91-1.56,2.92-3.69,4.23-6.48,3.94-2.98-.32-4.27-2.38-5.12-4.91-.65-1.94-.64-3.92-.18-5.88.69-2.93,2.07-5.62,1.69-8.89-.26-2.23,2.22-3.02,4.35-1.38,4.06,3.11,6.25,7.34,6.75,11.21Z"/><path class="cls-1" d="M1540.31,794.28c3.83-.03,8.2,2.74,9.45,6.24,1.46,4.08.72,7.94-2.05,11.21-2.26,2.67-5.81,2.43-7.97-.36-1.79-2.31-2.08-4.9-1.2-7.72.44-1.42,1.54-3.07-.79-4.12-1.24-.56-1.95-1.7-1.44-3.14.67-1.86,2.29-2.12,4-2.11Z"/><path class="cls-1" d="M1568.92,792.38c.81.04,1.68.33,1.63,1.1-.18,3,2.11,4.82,3.22,7.2.15.32.28.66.4,1,1.14,3.16.24,5.94-2.22,6.83-2.34.85-4.69-.31-6.08-3.14-1.68-3.45-1.19-7.02-.19-10.51.41-1.45,1.79-2.17,3.23-2.48Z"/><path class="cls-1" d="M1550.12,851.24c1.71.26,2.42,1.34,2.32,2.97-.12,2.06-2.29,4.51-3.97,4.37-1.74-.14-2.4-1.29-2.24-2.96.22-2.3,2.15-4.47,3.89-4.38Z"/><path class="cls-1" d="M1557.63,810.04c-1.02.01-1.75-.51-1.89-1.46-.22-1.47.56-2.41,2.04-2.43.94-.01,1.61.68,1.65,1.7.06,1.24-.6,1.95-1.8,2.19Z"/><path class="cls-1" d="M1270.04,646.54c1.33.88.49,2.31.86,3.43.36,1.08.82,2.16,2.03,2.27,1.63.15,2.62-.96,3.36-2.28.65-1.16.2-2.07-.66-2.87-.26-.24-.56-.47-.87-.64-1.13-.6-2.55-1.17-1.99-2.74.57-1.61,2.15-1.79,3.66-1.6,3.24.41,5.51,1.65,6.78,5.17,1.66,4.6,5.16,5.58,8.48,3.13,2.11-1.56,2.35-2.93.67-4.95-1.04-1.25-2.29-2.32-3.45-3.47-.57-.57-.78-1.32-.35-1.94.42-.61,1.25-.86,1.96-.56,3.24,1.37,6.24,3.17,7.36,6.71.91,2.87-.22,5.34-2.5,7.25-3.01,2.52-6.75,3.96-10.01,1.8-3.27-2.17-5.06-1.51-7.77.64-2.8,2.22-6.29,1.48-8.32-.91-2.22-2.61-1.99-5.14.76-8.44Z"/><path class="cls-1" d="M1307.65,633.41c2,2.94.68,6.61,2.82,9.6,2-3.39,4.89-3.74,8.38-2.79,2.06.56,4.31.42,6.47.55,1.81.11,3.63.02,5.42.25,2.09.26,5.28.14,5.3,2.66.02,2.99-3.36,1.83-5.21,2.14-4.29.71-8.7.85-12.98.13-2.47-.42-4.1-.32-5.37,2.08-.86,1.62-2.27,3.03-4.39,2.34-2.11-.69-2.23-2.64-2.26-4.48-.05-2.9-.08-5.79-.08-8.69,0-1.42.13-2.81,1.91-3.77Z"/><path class="cls-1" d="M1297.25,601.52c-.65,1.5-1.38,2.32-2.41,2.76-1.22.52-2.04-.22-2.79-1.07-.91-1.02-1.06-2.99-2.91-2.82-1.75.16-2.65,1.77-3.82,2.87-.92.87-1.74,1.85-2.62,2.76-1.09,1.12-2.49,1.98-3.82.81-2.46-2.18-3-.01-3.83,1.47-.79,1.42-1.4,2.94-2.17,4.38-.36.68-1.06,1.01-1.83.75-1.04-.35-1.34-1.2-.97-2.17,1.47-3.9,2.99-7.77,6.08-10.76.98-.94,2.17-1.77,3.38-1.15,2.25,1.14,3.58.08,5.22-1.25,4.64-3.77,6.56-3.48,9.96,1.51.68.99,1.72,1.43,2.54,1.91Z"/><path class="cls-1" d="M1268.85,643.26c-2.91,1.6-5.09,4.19-8.43,5.33-2.38.81-2.47,2.49-.87,4.52.56.71,1.24,1.32,1.74,2.07,1.25,1.86,2.12,3.84.88,6.06-1.25,2.23-3.24,3.33-5.75,3.45-1.29.06-2.58-.05-3.23-1.43-.54-1.15-.1-2.2.79-2.89,2.4-1.86,2.17-3.35.15-5.59-2.75-3.05-2.27-4.61,1.14-6.93,1.97-1.34,10.22-4.27,13.58-4.58Z"/><path class="cls-1" d="M1307.79,608.77v-16.9c3.09,4.68,3.18,10.91,0,16.9Z"/><path class="cls-1" d="M1314.61,673.23c3.04,4.11,1.25,8.87,3.12,12.73,1.67-.04,2.28-1.59,3.36-2.45,1.52-1.22,3.34-2.06,5.01-1.14,4.43,2.43,9.16,4.09,13.88,5.39-.05,2.32-1.61,2.24-2.72,2.34-3.67.36-7.17-.32-10.44-2.13-3.57-1.98-3.68-1.95-6.01,1.27-1.16,1.61-2.14,3.35-3.24,5-.56.83-1.42,1.1-2.37.89-.98-.22-1.6-.96-1.6-1.92.06-6.13-1.02-12.25-.09-18.38.07-.46.57-.86,1.09-1.6Z"/><path class="cls-1" d="M1319.07,725.09c1.43.33,2.68.87,3.62,2.13,2.94,3.91,6.99,6.15,11.6,7.5.86.25,1.71.59,2.54.92.69.28,1.33.72,1.26,1.55-.07.8-.74,1.21-1.45,1.36-2.16.46-4.28.29-6.42-.27-4.11-1.09-7.58-3.26-10.53-6.38-2.08.89-1.93,3.13-3.24,4.26-1.34,1.14-3.16.74-3.24-.96-.27-5.26.57-10.41,2.16-15.43.23-.73.8-1.37,1.54-1.32,1.09.08,1.35,1.01,1.32,1.98-.04,1.25-.1,2.5-.15,3.75-.35.49-.49,1.02.1,1.38.15.09.58-.29.88-.46Z"/><path class="cls-1" d="M1295.64,735.42c-1.91,4.4-5.01,7.08-10.07,6.72-2.02-.15-3.42.44-4.42,2.33-.69,1.32-1.92,2.3-3.6,1.41-1.55-.83-1.52-2.33-1.37-3.81.11-1.12.53-2.16,1.31-2.93,2.14-2.1,1.33-4.22.26-6.42-2.19-.82-2.38,2.04-3.97,2.11-.83-.51-.76-1.26-.46-1.88.99-2.06,1.45-4.89,4.49-4.75,2.77.13,3.72,2.56,4.66,4.76.79,1.84.17,4.42,3.23,5.03,2.97.59,5.73.93,8.25-1.18.55-.46,1.18-.84,1.78-1.26l-.09-.11Z"/><path class="cls-1" d="M1287.66,682.18c-4.91,3.1-5.09,7.07-2.98,11.74.96,2.12,1.66,4.4,2.1,6.68.49,2.51-.86,4.14-2.97,4.13-2.34-.02-4.76-1.96-4.13-3.89,1.01-3.08-.28-5.58-.95-8.32-1.6-6.57,1.36-10.21,8.93-10.33Z"/><path class="cls-1" d="M1295.73,735.53c1.15-2.36,1.06-4.89,1.04-7.42-.01-1.44-.04-2.9.91-4.14.47-.61,1.07-1.1,1.79-.93.42.1.95.71,1.01,1.14.71,5.15,2.4,10.19,1.58,15.53-.45,2.92-2.41,5.15-3.09,7.93,0,0,.09-.09.09-.09-4.98-.63-5.82-2.09-3.46-6.59,1.03-1.97,2.32-3.67.05-5.56,0,0,.09.11.09.11Z"/><path class="cls-1" d="M1292.6,692.18c.02-2.66.72-4.32,1.53-5.93.56-1.11.62-2.02-.59-2.71-.73-.42-1.86-.75-.97-1.89.48-.62,1.34-.48,2.02-.24,2.22.77,4.32,1.81,6.04,3.46,3.01,2.87,3.17,6.49.48,9.64-1.54,1.81-3.48,2.66-5.76,1.71-2.07-.86-2.74-2.71-2.75-4.04ZM1298.88,688.89c-.1-.3-.24-.92-.32-.91-.84.09-1.1.76-1.19,1.46-.04.29.21.88.31.88.86-.04,1.11-.66,1.19-1.43Z"/><path class="cls-1" d="M1290.26,709.85h3.15c0,.06,0,.13,0,.19-1.05.05-2.1.09-3.15.14,0-.11,0-.22,0-.33Z"/><path class="cls-1" d="M1420.59,663.2c4.22-.22,6.31,1.88,5.95,6.87-.24,3.28-1.67,6.31-2.23,9.5-.32,1.85-3.78,4.53,1.13,5.78,1.07.27-.1,2.7-.76,3.87-1.05,1.84-2.88,2.76-5.03,2.56-1.62-.15-2.58-1.18-2.85-2.81-.57-3.46-.3-6.88.64-10.23.74-2.61,1.69-5.16,2.45-7.77.54-1.86-.11-2.76-2.18-2.39-2.68.47-5.36.89-8.06,1.25-1.12.15-2.29-.01-2.57-1.35-.21-.98.51-1.7,1.32-2.18,3.52-2.1,7.46-2.7,12.19-3.11Z"/><path class="cls-1" d="M1447.4,713.99c-.03,2.69-1.04,4.95-3.12,6.64-2.83,2.3-6.25,1.83-8.56-1.13-.9-1.15-1.5-2.47-1.8-3.91-.32-1.56-1.24-3.63.57-4.4,2.19-.92,2.23,1.59,2.94,2.86.86,1.54,1.43,3.67,3.87,2.63,1.84-.79,2.25-3.54.89-5.73-1.36-2.17-3.1-4.04-5.71-4.71-1.19-.3-2.84-.04-2.33-2.02.44-1.72,1.9-1.99,3.46-1.8,4.79.59,9.87,6.6,9.78,11.56Z"/><path class="cls-1" d="M1418.82,715.46c-.22-2.67.63-5.22,2.01-7.62.56-.98,1.39-1.74,2.65-1.45.98.23,1.64,1.06,1.57,1.97-.14,2,1.1,2.87,2.49,3.83,1.53,1.06,2.47,2.66,3.01,4.43.97,3.18-.57,6.5-3.49,7.63-2.54.99-5.16-.12-6.87-2.91-1.08-1.76-1.47-3.69-1.38-5.89Z"/><path class="cls-1" d="M1439.87,663.06c-.31,2.5.84,4.66,1.42,6.91,1.23,4.77.07,8.97-2.75,12.8-.97,1.32-2.18,2.45-3.94,2.67-1.78.22-3.1-1.34-1.99-2.64,4.18-4.9,3.3-10.42,2.53-16.03-.19-1.41-.13-2.91.15-4.31.33-1.68,1.3-3.22,3.3-2.82,1.89.38,1.84,1.94,1.29,3.42Z"/><path class="cls-1" d="M1426.09,619.73c.98-1.04,1.67-1.65,2.2-2.37.44-.6.63-1.37-.48-1.52-1-.14-2.36.32-2.3-1.41.05-1.26.95-1.88,2.05-2.23,2.79-.9,8.03,1.23,10.09,4.09,1.61,2.23,1.63,5.14.06,7.66-1.99,3.19-4.71,4.15-8.89,3.17-.49-.12-.99-.22-1.67-.38-2.86,7.42-9.76,9.86-15.97,13.13-1.26.66-2.56.4-3.49-.63-1.11-1.23-1.04-2.73-.12-4.01.73-1.01,1.69-1.89,2.66-2.69,1.68-1.38,3.48-2.63,5.19-3.97,3.95-3.09,3.97-3.11,1.63-7.49-.77-1.45-1.56-2.88-1.82-4.52-.63-4.04,2.33-7.81,6.25-8,2.45-.12,4.28,1.84,2.96,3.69-2.33,3.26.1,4.91,1.64,7.49Z"/><path class="cls-1" d="M1437.41,592.93c-5.4.02-9.42-5.36-7.8-10.41.51-1.59,1.49-2.8,3.12-1.79,1.41.87,2.46.68,3.95.38,3.85-.77,7.58,1.99,7.88,5.44.3,3.47-2.95,6.38-7.16,6.39ZM1434.95,585.21c.45,1.69,1.68,2.27,3.27,2.14,1-.08,1.79-.75,1.44-1.79-.53-1.59-1.83-2.13-3.46-1.78-.74.16-1.32.52-1.25,1.43Z"/><path class="cls-1" d="M1420.01,580.83c4.25.03,6.59,2.27,6.45,6.17-.14,3.78-3.35,7.6-6.41,7.66-3.31.06-6.34-4.35-6.15-8.94.14-3.43,2-4.91,6.12-4.89ZM1420.03,584.83c-1.43.32-1.21,1.44-1.01,2.47.16.83.43,1.93,1.57,1.53,1.04-.37,1.51-1.45,1.37-2.58-.13-1.02-.88-1.41-1.93-1.42Z"/><path class="cls-1" d="M1402.85,589.83c0-2.72-.06-5.43.03-8.15.04-1.25.27-2.52.61-3.73.35-1.28,1.13-2.42,2.66-2.16,1.27.21,1.5,1.4,1.55,2.52.2,4.52.33,9.03-.54,13.53-.44,2.28-1.61,4.42-1.35,6.85.12,1.14-.68,1.64-1.65,1.65-1.14.01-1.42-.8-1.41-1.83.03-2.9,0-5.79,0-8.69h.1Z"/><path class="cls-1" d="M1398.89,601h-4.78v-.05h4.78s0,.03,0,.05Z"/><path class="cls-1" d="M1349.75,916.16c-.85,1.39-1.55,2.89-2.57,4.13-1.59,1.94-3.81,1.66-4.62-.75-1.43-4.24-1.24-8.57.4-12.76.15-.39.82-.79,1.28-.82.82-.05,1.21.62,1.34,1.38.42,2.46-.42,5.01.48,7.45.4-.14.87-.15,1-.37,3.35-5.53,3.38-5.58,8.26-1.68,3.38,2.7,7.24,4,11.46,4.54,1.18.15,2.86.18,2.91,1.84.05,1.77-1.59,2.36-2.97,2.65-4.54.96-8.54-.58-12.4-2.84-1.51-.88-2.4-2.79-4.55-2.78Z"/><path class="cls-1" d="M1305.04,924.79c.06,3.55-1.46,6.7-2.54,9.96-.37,1.13-1.34,1.76-2.57,1.47-1.28-.3-1.68-1.37-1.55-2.52.24-2.16.61-4.31.97-6.46.26-1.62.53-3.21.18-4.86-.76-3.55-1.99-4.21-5.32-2.62-1.96.94-3.83,2.07-5.79,3.01-.63.3-1.44.34-2.02-.29-.58-.62-.56-1.4-.07-1.96,2.95-3.37,6.4-5.91,11.09-6.09,2.19-.09,3.78,1.08,5.06,2.74,1.72,2.25,2.43,4.84,2.57,7.62Z"/><path class="cls-1" d="M1323.54,912.12c2.39.58,3.39.18,2.93-2.3-.22-1.17.96-1.85,2.19-1.8,1.31.05,1.81.99,2.03,2.13.54,2.85-2.16,4.63-2.46,6.82-.26,1.96,3.21,3.7,2.13,6.59-.81,2.17-2.07,3.99-4.62,3.84-2.64-.16-3.72-2.13-3.64-4.52.07-2.25.21-4.13-2.65-4.88-1.12-.3-1.83-1.74-1.42-3.17.38-1.32,1.32-2.19,2.62-2.47,1.04-.22,2.13-.18,2.87-.23ZM1325.97,917.88c-2.26.17-2.28,1.37-2.04,2.71.23,1.28.66,2.93,1.97,2.88,1.78-.06,1.92-1.76,1.8-3.31-.11-1.37-.32-2.56-1.72-2.28Z"/><path class="cls-1" d="M1325.41,814.11c-1.98,1.79-1.66,4.25-3.43,6.29-1.31-3.79.11-6.62,2.09-9.09,1.86-2.33,4.23-1.71,5.39,1.16,1.14,2.82.6,5.71.17,9.05,2.92-.38,5.72-.47,8.38-1.15,4.52-1.15,4.93-2.27,2.97-6.48-.69-1.48-1.57-2.88-2.11-4.4-1.31-3.7,1.82-8.93,5.66-9.6.72-.13,1.47-.05,1.97.6.69.89.29,1.63-.34,2.39q-3.13,3.78-1.01,7.58c.44.79.95,1.55,1.35,2.36,1.62,3.26,2.35,6.51-.35,9.62-2.38,2.74-6.55,3.86-10.3,2.31-1.45-.6-2.33-.39-3.41.37-1.48,1.04-2.93,2.13-4.48,3.06-1.08.65-2.3,1.24-3.53.26-1.26-1.01-.79-2.23-.38-3.46.7-2.05,1.46-4.1,1.97-6.2.33-1.37.54-2.86-.61-4.65Z"/><path class="cls-1" d="M1375.08,825.02c-6.59,2.14-8.72.95-16.19-8.62-.39-.29-.64-.2-.91.15-1.05,1.37-1.77,3.62-4.08,2.69-2.11-.85-1.47-3.04-1.62-4.8-.33-3.85,1.26-7.88-1.26-11.58-.42-.61.34-2.05.63-3.09.21-.75.81-1.3,1.55-1.33.76-.03,1.27.58,1.62,1.26,1.14,2.18.82,4.61,1.23,6.92.26,1.46.47,2.91,2.64,2.32,1.2-.33,2.1.39,2.63,1.44,1.56,3.07,3.03,6.15,5.2,8.9,2.18,2.76,5.75,3.44,8.56,5.74Z"/><path class="cls-1" d="M1315.33,832.24c.07.81.23,1.19.11,1.45-.53,1.17-.17,3.03-2.17,3.08-.37,0-1-.51-1.1-.89-.63-2.35.9-3.04,3.17-3.64Z"/><path class="cls-1" d="M1294.54,784.46c3.55-.15,7.09,2.69,10.72-.37.81-.68,2.15-.2,2.96.66.51.54.71,1.28.4,2.02-.59,1.42-1.79,1.53-3.14,1.51-5.89-.07-11.77-.15-16.99,3.34-1.57,1.05-3.22.66-4.22-1.02-1.02-1.72-.37-3.47,1.21-4.2,6.28-2.91,5.56-8.58,6.28-14.5-3.71,1.43-4.76,4.63-7.3,7.69.02-5.74,2.33-9.29,5.66-12.09,2.21-1.85,4.88-.44,5.54,2.79.62,3.05.33,6.14-.35,9.18-.35,1.55-1.12,3.03-.76,4.97Z"/><path class="cls-1" d="M1323.95,757.55c-.81,2.15-2.52,3.1-4.06,4.25-2.76,2.05-3.14,3.86-1.5,6.88,1.38,2.54,2.94,4.98,4.17,7.59,1.09,2.32,1.56,4.82.56,7.37-.98,2.48-3.17,3.8-5.52,3.33-2.35-.47-4.47-3.01-3.23-5.29,2.5-4.58.1-7.88-1.63-11.55-.99-2.09-1.16-4.4.26-6.21,2.75-3.5,6.16-6.17,10.95-6.38Z"/><path class="cls-1" d="M1360.25,840.16c-1.53,1.85-3.07,3.69-4.6,5.55-2.71,3.31-2.91,5.8-.81,9.49,1.07,1.88,2.28,3.71,3.12,5.7.99,2.35.68,4.67-1.43,6.4-1.39,1.14-2.97,1.34-4.52.29-1.65-1.11-2.06-2.69-.73-4.15,1.65-1.81.73-3.18-.13-4.85-3.21-6.2-2.7-9.41,2.28-14.52,1.79-1.84,3.38-4.08,6.82-3.91Z"/><path class="cls-1" d="M1362.91,840.94c2.13,3.35,1.04,7.06,1.94,10.97,3.61-2.82,6.86-1.58,10.03.75,1.99,1.46,4.83,1.5,6.67,3.87-2.83,2.5-5.47.96-8.12.18-1.54-.46-2.72-2.07-4.43-1.72-1.57.32-1.82,2.12-2.75,3.17-1.7,1.91-3.47,1.86-4.09-.4-1.53-5.6-1.66-11.27.75-16.81Z"/><path class="cls-1" d="M1346.76,863.76c-3.17,1.96-5.83,2.22-7.54,4.28-.82.99-2.35,1.1-3.42.05-1.29-1.26-.99-2.8.2-3.82,2.39-2.08,2.37-4.72,2.18-7.46-.07-1.06-.13-2.33-1.38-2.63-.94-.23-1.64.59-2.18,1.34-.67.92-1.28,1.88-1.99,2.93.11-1.97.76-3.65,1.63-5.22.88-1.59,1.87-3.25,4.07-2.99,1.89.23,2.66,1.78,3.14,3.35.47,1.54,1.04,3.2.91,4.75-.22,2.74.91,4.35,4.38,5.43Z"/><path class="cls-1" d="M1286.81,868c-.08,5.67,2.16,9.66,4.16,13.8,1.74,3.59.87,7.1-1.52,8.88-1.13.84-2.34,1.11-3.48.23-1.14-.87-1.61-2.36-.54-3.31,2.77-2.46,1.2-4.9.39-7.42-.55-1.71-1.2-3.42-1.51-5.18-.42-2.31-.13-4.53,2.51-6.99Z"/><path class="cls-1" d="M1276.19,889.43c.13-5.55-.46-10.24.61-14.88.24-1.06.51-2.12.87-3.14.25-.7.81-1.26,1.61-1.17.86.1,1.06.86,1.09,1.61.18,4.21-.48,8.34-1.54,12.38-.39,1.49-.49,3.22-2.64,5.19Z"/><path class="cls-1" d="M1305.85,877.98c1.3-.01,2.69.02,2.98,1.59.33,1.74-1.11,1.96-2.35,2.25-.52.12-1.03.33-1.55.42-1.44.23-3.5,1.63-4.05-.61-.52-2.11,1.59-2.89,3.39-3.36.52-.13,1.05-.2,1.57-.3Z"/><path class="cls-1" d="M1346.5,986.98c2.59-1.66,2.6-3.84,3.44-5.57,1.04-2.12,2.72-2.72,4.28-1.03,3.98,4.3,8.83,6.85,14.38,8.35.75.2,1.2.79,1.13,1.62-.07.82-.68,1.26-1.36,1.55-1.38.59-2.8.5-4.27.29-4.65-.66-8.55-2.86-12.03-5.78-1.93.7-1.9,2.66-2.87,3.88-.85,1.06-1.78,1.8-3.2,1.66-1.74-.17-2.55-1.4-2.83-2.88-.62-3.21-.66-6.41.74-9.55,1.65.77,1.53,2.13,1.77,3.32.25,1.2.48,2.4.83,4.14Z"/><path class="cls-1" d="M1300.08,998.98c.11-1.8.13-3.62.38-5.41.16-1.09.8-2.14,2.12-2.04.96.07,1.53.84,1.79,1.79,1.55,5.73,1.25,11.48.14,17.23-.16.82-.73,1.34-1.5,1.19-.69-.13-1.31-.7-1.47-1.46-.77-3.73-1.42-7.47-1.45-11.3Z"/><path class="cls-1" d="M1314.32,1002.86c-1.56.07-2.72-.28-2.92-1.86-.21-1.69,1.86-3.45,4.06-3.48,1.59-.02,3.07.57,3.05,2.31-.03,2.77-2.61,2.43-4.19,3.04Z"/><path class="cls-1" d="M1451.22,779.42c-1.04-.15-1.58-.37-2.07-.28-1.35.24-2.41-2.46-3.7-.6-.95,1.39.45,2.72,1.13,3.95,1.07,1.91,2.04,3.87,2.56,5.99,1.14,4.68-.65,10.02-4.11,12.15-1.42.88-3.04,1.68-4.5.27-1.59-1.53-1.4-3.83.04-4.85,4.65-3.3,2.58-6.86.94-10.52-.74-1.65-1.72-3.21-1.81-5.09-.18-4.11,3.55-6.97,7.14-5.11,1.37.71,2.16.8,3.34.18,4.43-2.32,12.14,2.57,14.02,6.83,1.37,3.11.3,6.24-2.68,7.93-3.14,1.78-6.98.87-9.19-2.12-1.91-2.59-1.57-5.48-1.13-8.74ZM1455.97,780.82c-.33,1.9-.02,3.17,1.66,3.7.25.08.87-.18.91-.38.35-1.47-.81-2.19-1.67-3.04-.1-.1-.31-.1-.91-.28Z"/><path class="cls-1" d="M1430.99,791.42c.17,5.1-.7,10.09-1.81,15.04-.34,1.53-.41,3.57-2.72,3.28-1.88-.24-1.82-2-1.82-3.43,0-7.09,1.11-14.06,2.19-21.04.19-1.23.64-2.66,2.25-2.61,1.7.05,1.82,1.56,1.88,2.79.1,1.98.03,3.98.03,5.97Z"/><path class="cls-1" d="M1432.71,873.9c-.87.13-1.25.1-1.54.24-1.22.64-2.4,2.24-3.82.84-1.56-1.55-.13-3.04.79-4.3,1.21-1.67,2.83-2.97,5.03-2.72,2.43.28,3.7,2.01,4.54,4.18,1.09,2.83,1.1,5.68.43,8.57-.37,1.58-.89,3.13-1.36,4.78,3.28,1.8,6.3-1.14,9.38-.5,1,1.31.21,2.23-.59,2.85-4.06,3.14-8.9,4.1-13.84,4.11-3.42,0-4.41-2.66-2.18-5.69,2.7-3.66,4.43-7.44,3.15-12.36Z"/><path class="cls-1" d="M1461.92,870.3c5.33-5.67,4.9-9.74-.82-12.35,3.59-1.82,5.22-1.47,7,1.51,2.3,3.84,1.38,11.51-1.79,14.83-2.34,2.45-5.47,2.75-7.73.72-2.34-2.1-3.05-6.84-1.22-8.97,1.02-1.19,2.27-1.19,3.07.27.59,1.09.9,2.34,1.5,3.99Z"/><path class="cls-1" d="M1443.9,873.19c.21-2.74.93-5.33,3.17-7.2,1.59-1.33,3.2-.93,3.63,1.14.31,1.5.49,2.7,1.96,3.53,2.58,1.46,3.47,3.73,2.14,6.45-1.12,2.3-3.12,3.54-5.74,3.36-2.61-.18-4.65-2.51-5.07-5.58-.07-.54-.06-1.08-.09-1.69Z"/><path class="cls-1" d="M1308.67,952.68c-.33,1.86-1.47,3.52-2.55,5.18-1.15,1.76-1.14,3.24.29,4.88,1.05,1.21,1.86,2.67,2.6,4.11,1.31,2.55.89,4.93-1.11,6.97-.86.88-1.71,2.12-3.15,1.76-1.66-.41-1.32-1.94-1.32-3.16,0-1.54-.45-3.07-1.51-3.97-3.34-2.86-2.94-7.6-5.69-10.71-.55-.62-.27-1.42.18-1.99,2.31-2.92,5.32-4.94,8.79-6.15,1.96-.69,3.58.86,3.47,3.08Z"/><path class="cls-1" d="M1343.18,952.6c-1.92.62-2.77,4.02-5.39,2.51-2.51-1.44-1.49-4.17-1.53-6.44-.01-.54.06-1.08.14-1.62.14-.9.36-1.93,1.39-2.04,1.09-.11,1.44.84,1.6,1.79.12.71.24,1.42.44,2.65,3-2.49,5.64-2.89,7.98.67,1.86,2.82,5.56,1.82,8.35,3.02-3.64,4.4-6.57,4.22-12.97-.53Z"/><path class="cls-1" d="M1443.09,756.01c5.41.02,5.75-.12,11.71-4.67.62,2.38-.5,3.97-2.08,5.08-4.63,3.25-9.8,5.07-15.49,5.33-1.27.06-2.66.17-3.25-1.31-.7-1.75.39-2.68,1.82-3.35,3.89-1.82,4.65-5.34,4.57-9.06-.04-1.72-.44-3.69-2.32-4.63-1.65-.83-2.15-2.02-.99-3.45,1.22-1.51,2.85-1.41,4.36-.37,1.73,1.19,2.42,3.06,3.06,4.98,1.3,3.91-.25,7.46-1.4,11.44Z"/><path class="cls-1" d="M1423.54,753.14c.16,4.1-1.17,7.82-2.91,11.42-.4.82-1.05,1.59-2.09,1.32-1.11-.29-1.06-1.24-.93-2.19.71-5,1.41-10.01,2.09-15.02.11-.77.45-1.52,1.13-1.7,1.03-.27,1.66.54,2.05,1.37.71,1.51.63,3.17.66,4.79Z"/><path class="cls-1" d="M1452,832.84c0,2.53-2.07,6.39-4.12,10.24-.54,1.01-1.42,1.76-2.66,1.2-1.23-.56-1.2-1.74-.94-2.81.82-3.35,1.89-6.64,2.54-10.02.8-4.2-.3-5.01-4.3-3.49-1.52.58-2.98,1.35-4.5,1.92-.7.26-1.46,0-1.95-.62-.64-.8-.56-1.65,0-2.5,1.55-2.39,8.38-4.68,11.44-3.82,2.88.81,4.57,3.76,4.5,9.89Z"/><path class="cls-1" d="M1423.29,847.21c.36-4.82,1.08-9.8,2.89-14.55.44-1.16,1.12-2.24,1.83-3.27.41-.59,1.15-.82,1.92-.57.81.26,1.17.99,1.11,1.66-.18,1.78-.51,3.55-.85,5.31-.86,4.41-1.75,8.82-2.66,13.22-.29,1.41-.56,3.15-2.46,2.93-1.91-.22-1.68-2.01-1.77-3.42-.02-.36,0-.72,0-1.31Z"/><path class="cls-1" d="M1441.72,952.86c-2.13,1.46-1.11,3.76-2.98,4.57-1.07.46-2.07.83-3.04.11-.75-.56-1.08-1.44-.82-2.42.74-2.86,1.99-5.49,4.12-7.53,2.11-2.01,4.59-1.78,6.7.48,1.93,2.07,2.73,4.65,2.95,7.43.29,3.59-.11,7.14-1.17,10.9,3.83.78,6.78-.48,9.53-2.22,2.14-1.35,2.34-3.44,1.53-5.76-1.01-2.91-2.02-5.84-2.28-8.93-.35-4.03.56-7.6,4.28-9.88.91-.55,1.98-1.15,3-.26,1.07.92.62,1.96-.07,2.88-2.14,2.85-1.23,5.88-.5,8.87.77,3.16,1.96,6.26,2.43,9.46.68,4.63-1.03,6.43-5.78,6.53-1.01.02-1.76.3-2.44.85-4.44,3.66-10.14,3.6-15.28,5.18-1.52.47-2.89-.06-3.75-1.47-.9-1.47-.41-2.77.63-3.95,3.77-4.3,4.63-9.14,2.93-14.84Z"/><path class="cls-1" d="M1468.69,946.71c.19-1.42.38-2.85.58-4.27.16-1.15.72-2.09,1.87-2.37,1.42-.35,1.65.94,2.26,1.79,1.56,2.18,3.4,4.18,4.77,6.47,1.77,2.95,1.18,5.91-1.05,7.11-2.26,1.23-5.11.17-6.84-2.56-1.2-1.89-1.47-4.01-1.58-6.18Z"/><path class="cls-1" d="M1452.01,909.86c.59-2.69,2.07-4.61,4.13-3.8,2.14.84,3.99,2.9,4.35,5.59.44,3.26-.1,6.42-1.64,9.54,6.44-.08,9.55-3.67,8.38-9.27-1.17-5.61.4-10.36,4.03-14.59.71-.82,1.49-1.62,3.03-1.31.5,3.07-1.93,5.76-1.6,8.74.33,3.03,1.26,5.99,1.76,9.01.25,1.48-.35,2.92-1.34,4.02-4.67,5.14-10.24,8.59-17.38,8.95-.72.04-1.45-.04-2.16-.12-1.17-.12-2.1-.71-2.47-1.82-.38-1.16.09-2.27,1.14-2.77,2.33-1.12,3.18-3.27,4.26-5.35.52-1.01.81-1.99.84-3.09.1-3.51-.96-4.35-5.32-3.74Z"/><path class="cls-1" d="M1449.56,928.06c-1.07,1.84-2.81,1.76-4.4,1.8-3.62.08-7.24.05-10.86.02-1.54-.01-2.97-.41-3.36-2.13-.43-1.89.42-3.2,2.32-3.63,2.89-.66,4.2-2.46,4.28-5.44-1.91-.86-3.61.66-5.36.15-.92-.27-1.66-.75-1.86-1.73-.16-.77.2-1.47.78-1.92,2.04-1.56,4.27-2.85,6.9-2.85,2.63,0,4.41,1.38,5.18,3.97.54,1.82.25,3.59-.21,5.36q-1.15,4.38,3.35,5.11c.89.14,1.77.33,2.64.53.13.03.21.25.6.76Z"/><path class="cls-1" d="M946.54,408.59c-.07,2.45-2.1,4.36-4.63,4.36-2.7,0-4.71-2.05-4.75-4.87-.05-2.88,2.01-5.24,4.45-5.13,2.4.11,5.01,3.1,4.93,5.64Z"/><path class="cls-1" d="M1414.57,230.78c3.65-7.6,10.34-12.41,16.43-17.76,1.61-1.41,3.74-2.27,3.6-5-.07-1.35,1.22-2.02,2.27-1.7,2.73.84,3.85-.32,4.55-2.77.28-.97,1.2-1.76,2.01-2.89,1.93,1.94,1.46,5.28,4.4,6.49,2.03.83,2.95.68,3.59-1.41,1.14-3.74,1.31-7.56.74-11.38-.16-1.08-.88-2.13.34-2.81,1.27-.71,2.49-.21,3.37.9,1.68,2.11,2.09,4.67,1.98,7.21-.14,3.13,1.56,5.1,3.64,6.94,1.6,1.42,3.58,2.24,5.46,1.06,1.64-1.03,1.71-3.11,1.53-4.94-.22-2.2-1.32-4.13-2.22-6.11-.83-1.81-1.8-3.62-2.24-5.54-.99-4.35,1.65-7.75,6.34-8.53.84,1.16-.34,1.57-.86,2.15-2.16,2.36-2.19,4.84-.61,7.48.93,1.56,1.81,3.15,2.79,4.68,2.96,4.64,3,9.19-.23,13.73-.49.69-1.31,1.33-.79,2.67,2.31.83,4.79.28,7.26.07.93-.08,1.84.07,2.15,1.16.27.95.05,1.83-.66,2.49-1.4,1.28-3.14,1.69-4.99,1.92-5.3.66-10.49-.14-15.69-1.05-4.3-.76-4.37-.71-5.18,3.59-1.05,5.53-2.01,11.08-2.99,16.62-.25,1.42-.37,2.87-1.64,4.11-2.17-1.27-1.23-3.2-1.17-4.78.1-2.79,1.34-5.53-1.14-8.17-.85-.9-.31-3.11-.43-5.03-3.61,1.41-6.79,4.98-11.01,2.27-3.88-2.5-2.76-6.69-3.23-11.35-2.48,2.63-4.42,4.68-6.36,6.74-.98,1.04-1.05,2.14-.56,3.5,1.18,3.26,1.37,6.72,1.79,10.11,2.52.57,3.4-2.7,6.27-2.22-2.47,3.86-5.5,6.86-9.2,8.91-4.06,2.25-6.84,1.26-9.77-2.62-.53-.69-.78-1.65-2.27-1.97-.68,2.95-.32,5.98-.62,8.93-.25,2.43.18,5.76-2.89,6.39-3.44.7-3.48-2.95-4.59-5.05-.49-.93-.57-2.13-2.01-2.6-.43,3.85.84,7.52.79,11.25-.02,1.67.84,4.17-1.7,4.48-2.54.32-2.36-2.2-2.7-3.9-1-4.98-2.04-9.96-2.95-14.96-.27-1.49-1.56-3.94,1.99-3.23.14.03.41-.09.48-.22.83-1.43.71-3.95,3.38-3.31,2.16.51,2.86,2.62,3.93,4.28.57.89.87,2.01,2.24,2.53,1.64-2.21.71-4.83,1.06-7.23.66-4.6,1.75-5.35,6.4-4.22,1.21,3.01,2.67,5.87,5.5,7.69.8.52,1.49,1.72,2.79.88,1.16-.75,1.8-1.71,1.52-3.15-.61-3.15-1.13-6.33-2.64-9.31-2.72.86-3.76,4.72-7.26,3.97ZM1437.08,211.41c-.89,2.97-.93,5.69-.76,8.39.2,3.19,1.39,4.16,4.01,3.65,3.22-.63,5.04-2.92,4.61-5.34-.75-4.23-3.59-5.9-7.85-6.69ZM1456.24,209.33c.93,1.73,2.15,1.8,4.56.93-2.13.08-2.58-1.64-4.56-.93ZM1462.12,211.72c.79.07,1.62.93,2.27-.23-.78-.11-1.55-.42-2.27.23Z"/><path class="cls-1" d="M1180.34,234.16c-1.92,2.18-3.84,4.36-5.77,6.54-.85.95-2.82,1.32-1.46,3.34,1.17,1.73,2.59,2.5,4.61,1.81,2.97-1.01,5.47-2.77,7.8-4.85,1.05-.94,1.32-2.62,2.93-3,.87,1.59.14,2.84-.78,4.01-2.16,2.74-4.73,5.04-7.87,6.59-2.79,1.38-5.89,2.04-7.86-.85-1.4-2.06-3.09-.16-4.62-1.38,2.6-2.42,2.92-5.43,1.95-8.74-1.34-.92-1.88,1.64-3.24.77-.15-.26-.53-.61-.47-.84,1.86-6.18,6.3-10.46,10.87-14.62.51-.46,1.49-1.07,1.88-.87,3.62,1.82,4.63-1.35,6.29-3.18,2.56-2.82,5.26-5.56,7.52-8.62,3.15-4.25,8.23-5.6,12.17-8.63,1.43-1.1,3.12-.04,4.59.73q4.68,2.46,8.54-1.02c.64-.57,1.27-1.14,2.56-2.29-1.22,3.42-4.28,4.39-5.07,6.98,2.8,4,7.78,5.92,10.22,10.85-2.64.54-3.96-1.15-5.48-2.07-2.17-1.32-4.19-2.87-6.29-4.3-.91-.62-1.86-1.2-2.93-.28-.94.81-1.06,1.8-.68,2.95.73,2.24,1.46,4.48,2.06,6.76.32,1.21.51,2.5.52,3.75,0,1.09-.38,2.19-1.61,2.58-1.5.47-2.63-.31-3.06-1.57-1.21-3.59-2.23-7.25-3.28-10.89-.2-.69-.14-1.46-.34-2.15-1.23-4.25-3.1-4.75-6.51-1.75-.54.48-1.05,1.01-1.57,1.52q-4.37,4.31-1.79,9.99c1.35,2.99,2.49,6.05,2.56,9.39.02.92-.12,1.91-1.3,2.01-1.04.09-1.78-.57-1.82-1.58-.16-4.31-2.31-7.95-3.93-12.28-2.81,1.74-4.39,4.38-6.5,6.45-.78.76-1.49,1.59-2.29,2.33-.63.58-1.35,1.57-2.25.63-.73-.76.29-1.66.28-2.52.25-.3.49-.6.74-.9.3-.51,1.14-.94.52-1.62-.68-.75-1.07.07-1.48.49-.4.34-.79.68-1.19,1.02-1.49.82-2.2,2.37-3.34,3.5-3.31,3.28-4.12,6.85-1.45,10.96,3.37-.44,3.9-5.26,7.69-5.04,0,0-.09-.08-.09-.08ZM1207.43,206.77c-.21-.17-.42-.34-.63-.51,0,.15-.06.33,0,.44.23.37.48.34.7-.05-.8,1.1-.39,1.86.74,2.31.25.1.88-.09.91-.22.24-1.33-.57-1.81-1.72-1.96Z"/><path class="cls-1" d="M1296.73,413.9c-6.45-.45-11.9-2.36-17.34-4.24-6.75-2.33-6.8-2.4-8.77,4.36-1.1,3.78-2.98,7.43-2.34,11.58.08.49-.07,1.05-.75,1.23-.8.2-1.52-.06-1.93-.65-1.08-1.58-1.22-3.38-.84-5.23.88-4.26,1.77-8.52,2.69-12.77.39-1.82.75-3.44-1.25-4.77-3.99-2.66-6.84-6.43-9.52-10.35-1.97-2.89-2.67-2.84-4.71-.07-.82,1.12-2.14,2.18-1.56,3.81.61,1.73-.4,2.37-1.69,2.74-1.39.41-2.9.74-4.02-.6-.93-1.11-.77-2.43-.19-3.61,1.62-3.3,3.85-6.17,6.75-8.42,2.67-2.07,4.79-1.86,7.17.7,1.23,1.32,2.21,2.87,3.25,4.36,1.97,2.84,4.16,5.45,7.32,7.61,1.14-1.11,1.34-2.5,1.75-3.81,2.08-6.76,4.17-13.51,6.31-20.25.31-.99.77-2.28,2.19-1.71,1.08.43.57,1.55.47,2.4-.96,7.76-2.63,15.38-4.82,22.87-.82,2.81-.38,4.25,2.4,5.44,4.51,1.92,9.04,3.73,13.66,5.36,1.93.68,4.32.84,5.78,4.04Z"/><path class="cls-1" d="M1068.12,272.5c-.38-1.99,1.29-2.55,2.29-3.4,5.95-5.04,11.97-9.98,17.95-14.98,1.11-.93,2.19-1.9,3.19-2.94.43-.45,1.18-1.13.58-1.77-2.73-2.93-1.02-6.84-2.36-10.14-1.35-3.32-1.77-7.02-5.09-9.28-1.41-.96-1.66-2.37-.43-3.72,1.21-1.33,2.6-1.06,3.91-.16,3.54,2.41,5.28,5.95,5.74,10.06.44,3.94.94,7.9-.15,11.88,2.34.36,3.18-1.3,4.3-2.28,8.72-7.65,17.36-15.39,26.07-23.05,1.24-1.09,2.67-3.49,4.4-1.63,1.64,1.77-.67,3.23-1.86,4.42-13.18,13.24-26.59,26.23-41.43,37.65-3.88,2.99-7.91,5.77-12.19,8.15-1.5.83-2.96,2.16-4.92,1.21Z"/><path class="cls-1" d="M1176.47,329.08q-5.38,6.76-1.59,15.01c1.23,2.65,1.73,6.08,6.91,5.42-5.6,5.7-11.81,8.44-17.31,12.16-5.02-1.26-6.84,3.41-10.07,5.45-.81.51-1.57,1.01-2.4.24-.81-.75-.61-1.72-.07-2.48,1.36-1.92,2.89-3.72,4.22-5.67,4.74-6.93,3.8-9.24-4.24-11.1-2.87-.66-5.75-.88-8.64-.61-4.3.4-5.59,2.7-3.81,6.73,1.83,4.14,3.78,8.23,5.66,12.35.38.82.76,1.65,1.03,2.51.41,1.35,1.22,2.99-.76,3.68-1.51.53-2.27-.78-2.79-1.97-2.44-5.65-5.05-11.24-7.2-17-1.72-4.61.64-8.52,5.51-9.87,4.9-1.35,9.71-.31,14.48.82.88.21,1.79.45,2.55.9,1.95,1.16,2.81.35,3.68-1.48,3.18-6.74,8.76-11.18,14.83-15.11ZM1162.08,360.21c4.82-2.14,11.46-6.9,13.47-9.5-.52-.2-.99-.47-1.5-.54-.51-.07-1.05.05-1.58.08.21.7.28-.69.15.03.67-.23,1.47-.31,1.98-.73.65-.54.27-1.38-.07-1.99-1.8-3.27-3.64-6.51-5.54-9.92-2.7,2.45-4.34,5.03-5.66,7.83-.47,1-1.15,2.5-.33,3.04,2.69,1.76.6,3.87.61,5.73.01,1.7-.83,3.42-1.53,5.97Z"/><path class="cls-1" d="M1271.46,239.31c1.35-2.6.97-4.97,1.01-7.25.06-3.63-.04-7.26.02-10.89.03-1.93-.54-4.29,1.71-5.33,2.51-1.16,3.97,1.03,5.58,2.39,1.66,1.4,3.2,2.95,4.87,4.35,1.73,1.44,2.94,1.07,3.45-1.19.93-4.12.77-8.26.47-12.45-.25-3.46-1.38-7.04.61-10.47,2.16,7.13,4.38,14.21,4.25,21.73-.02,1.43-.4,2.89-.83,4.26-1.62,5.16-5.14,6.42-9.59,3.35-2.04-1.41-3.84-3.16-6.27-5.18-.66,2.45-.26,4.35-.24,6.23.05,3.63.25,7.28-.04,10.88-.42,5.27-3.82,6.8-8.32,3.89-3.39-2.19-5.91-5.33-8.64-8.24-2-2.13-3.24-5.23-7.02-5.3-1.4-.03-1.61-1.77-1.25-3.11.38-1.43,1.49-2.05,2.85-2.07,1.74-.03,3.14.89,4.33,2.04,2.22,2.14,4.35,4.37,6.52,6.57,1.91,1.93,3.67,4.03,6.55,5.83Z"/><path class="cls-1" d="M1226.96,324.92c3.77-2.53,6.31-5.71,9.4-9.15-1,6.33-10.8,16.18-16.78,17.34-.15-2.28,1.78-3.03,3.04-4.09,1.48-1.24,1.99-2.4.92-4.16-2.91-4.78-5.2-9.88-7.21-15.01-2.28.32-2.46,2.82-4.61,3.59-.25-3.07,1.32-5.12,2.67-7.1,2.87-4.21,6.31-7.97,10.06-11.41,1.37-1.26,2.67-2.88,5.16-1.85,1.25.52,2.08-1.15,2.94-2.01,2.06-2.06,4.17-4.08,6.71-5.51,2.07-1.17,3.51-.58,4.15,1.67.5,1.74.41,3.56.19,5.38-.44,3.6-1,7.21-.98,10.82.02,3.87,1.8,5.04,5.65,4.68,2.27-.22,4.3-2.1,6.78-.97-1.84,4.11-6.3,6.27-10.96,5.36-3.86-.75-5.97-3.76-6.01-8.5-.03-2.94.78-5.75,1.42-8.57.51-2.26.65-4.5.85-7.34-3.89,1.85-6.1,4.79-8.81,7.1-1.01.86-1.88,2.5-3.31.26-.74-1.16-1.58,0-2.1.59-2.15,2.45-4.29,4.93-6.34,7.47-2.64,3.26-2.42,3.16.21,7,1.62,2.36,2.55,5.19,3.8,7.81.99,2.08,2,4.16,3.17,6.61ZM1216.91,309.07c.13-.14.25-.26.36-.37-.22-.12-.44-.27-.68-.32-.08-.02-.22.21-.33.33.22.12.44.25.65.37Z"/><path class="cls-1" d="M1221.43,193.17c3.36,2.33,5.16,6.03,8.35,9.06,1.02-2.68,1.09-5.04.84-7.53-.36-3.5,1.42-6.27,3.61-8.8.5-.58,1.24-.88,1.85-.24.32.33.52,1.02.41,1.45-.33,1.22-.9,2.37-1.28,3.58-1.32,4.15-.52,5.2,3.99,5.07,4.97-.14,9.06-2.25,12.69-5.86-1.69-3.38-4.39-6.19-5.75-9.76-.53-1.41-1.22-2.98,1.3-3.01,1.32-.01,1.18-.98,1.58-1.74,2.3-4.36,7.01-5.63,12.09-3.36,3.98,1.78,5.17,5.25,3.42,10.09-.37,1.02-.79,2.04-1.36,2.96-.83,1.34-1.75,3.59-3.45,2.8-2.37-1.1.41-2.6.48-4.01.06-1.24.65-2.44.88-3.68.31-1.69.17-3.32-1.54-4.27-1.99-1.12-4.14-1.39-6.3-.63-1.2.43-1.3,1.64-1.3,2.75-.02,3.19.88,6.09,2.78,8.66.76,1.02,1.55,2.01,2.29,3.04.58.8.71,1.74.08,2.51-.62.76-1.53.88-2.46.44-.99-.47-1.69-1.68-2.96.15-3.66,5.28-9.17,6.72-15.29,6.55-3.47-.1-3.68.07-3.54,3.51.09,2.17.45,4.33.63,6.5.06.79-.37,1.44-1.18,1.53-.49.05-1.27-.08-1.49-.42-3.38-5.08-6.71-10.2-10.01-15.33-.27-.43-.29-1.05.64-2.04Z"/><path class="cls-1" d="M1348.33,159.66c-.18,2.99,1.31,4.7,2.22,6.63,1.09,2.29,2.21,4.57,3.3,6.86.66,1.39,1.12,2.92-.67,3.73-1.8.81-2.58-.74-3.3-1.99-.63-1.1-1.21-2.23-1.71-3.4-1.51-3.49-2.84-7.07-4.51-10.48-.88-1.79-.49-2.97.61-4.4,1.15-1.48,2.45-1.98,4.25-1.63,3.07.6,5.61,2.49,8.75,3.52,1.71-2,1.66-4.64,2.43-6.95.92-2.75,1.5-5.61,2.44-8.35,2.31-6.77,5.79-7.96,11.36-3.76,5.46,4.12,10.55,8.78,18.21,10.04-1.61,2.13-3,2.29-4.7,2.03-4.06-.64-7.5-2.64-10.85-4.82-1.82-1.19-3.54-2.54-5.39-3.69-3.28-2.03-4.1-1.78-5.61,1.91-1.52,3.71-2.25,7.64-2.89,11.59-.23,1.43-.38,2.9-.84,4.26-.97,2.88-2.66,3.62-5.46,2.44-2.46-1.04-4.54-2.92-7.63-3.54Z"/><path class="cls-1" d="M1354.2,335.75c.86,1.3.18,2.44-.43,3.54-10.56,18.81-19.59,38.46-31.33,56.6-.78,1.21-1.67,2.36-2.64,3.42-.26.29-1.09.35-1.49.15-.38-.19-.69-.82-.75-1.29-.15-1.33.58-2.46,1.15-3.57,8.45-16.45,16.93-32.88,26.28-48.84,1.82-3.11,4.28-5.84,6.52-8.69.64-.81,1.35-1.78,2.69-1.33Z"/><path class="cls-1" d="M1400.39,193.61c-.35.33-.93.39-.81,1.17.89,5.53-.72,9.01-5.34,11.73-4.53,2.66-8.69,1.24-10.4-3.73-.63-1.82-.78-3.81-1.15-5.71-1.61-.34-2.3.94-3.24,1.69-.99.78-1.86,1.71-3.06,2.83,1.64,2.97,4.19,5.39,5.37,8.58,1.14,3.09,2.1,6.21-.73,9.83-.73-3.13-.39-6-1.98-8.34-1.6-2.37-3.03-4.86-4.73-7.61-4.35,2.67-7.2,7.16-11.74,9.35-1.49-1.73-.22-2.62.53-3.45,5.84-6.5,12.19-12.55,19.5-17.28,4.35-2.81,9.52-2.53,14.34.02,1.03.55,1.82,2.54,3.5.99l-.06-.07ZM1387.95,193.48c-1.01,1.49-.59,3.14-.64,4.71-.06,2.02.07,4.28,2.28,5,2.24.73,3.55-1.27,4.85-2.72,1.65-1.84,1.45-3.57-.59-5.01-1.76-1.24-3.53-2.52-5.91-1.98Z"/><path class="cls-1" d="M1372.17,271.16c1.45-2.07,1.73-4.6,2.14-7.06.75-4.46,1.42-8.94,2.18-13.4.21-1.24.56-2.46.99-3.64.15-.4.74-.78,1.2-.9.89-.23,1.3.5,1.51,1.18.22.68.42,1.45.3,2.13-1.11,6.8-.41,13.77-1.94,20.52-.2.88-.46,1.75-.78,2.6-2.03,5.5-5.3,6.47-9.92,2.85-1.98-1.55-3.8-3.31-6.03-5.27-1.13,2.01-.66,3.95-.44,5.75.38,3.1.12,6.15-.23,9.21-.16,1.39-.78,2.47-2.38,2.37-1.64-.11-2.03-1.36-2.02-2.7.03-5.61-.36-11.26.61-16.81.9-5.15,3.39-5.84,7.42-2.33,2.04,1.78,4.05,3.6,6.12,5.36.22.19.68.08,1.25.14Z"/><path class="cls-1" d="M1149.93,259.62c.53,2.1,1.09,4.19,1.58,6.3.41,1.81.68,3.68-1.02,5.01-1.92,1.5-3.79.61-5.53-.47-2.65-1.63-4.79-3.87-6.92-6.1-1.88-1.97-3.69-3.99-5.52-6.01-.52-.57-.75-1.28-.27-1.95.5-.7,1.31-.64,1.97-.37,2.22.9,3.94,2.54,5.71,4.11,1.87,1.66,3.51,3.62,6.17,4.86.57-2.89-.83-5.13-1.26-7.51-.33-1.8-1.12-3.63.71-4.98,1.78-1.32,3.47-.22,5.07.58,1.62.81,3.12,1.87,4.78,2.59,2.43,1.05,3.22.55,3.58-2.14.46-3.46-.39-6.87-.49-10.3-.03-1.01-.58-2.13.43-3.08,1.76-.13,1.99,1.44,2.24,2.48.93,3.87,1.92,7.77,2.35,11.71.66,6.09-2.78,8.47-8.34,6.05-1.33-.58-2.6-1.28-3.9-1.93-.41-.17-.95-.58-1.22-.45-.74.37-.42,1.03-.13,1.6Z"/><path class="cls-1" d="M1337.18,380.2c3.21-.47,2.49,2.89,4.61,3.07,1.1-1.33.77-3.07,1.19-4.59,1.56-5.62,4.65-7.82,10.06-6.1,3.65,1.17,6.97,2.29,10.35-.27.92,1.64-.11,2.33-.71,3.08-.97,1.2-.4,1.95.6,2.64,2.1,1.42,4.18,2.86,6.68,3.58.8.23,1.84.65,1.5,1.84-.32,1.09-1.37,1.07-2.26,1.03-3.15-.14-6.12-1.18-8.73-2.75-2.63-1.59-4.65-1.41-6.77.61-.65.62-1.42,1.15-2.21,1.58-4.66,2.59-7.98,5.94-7.31,11.87.13,1.17.03,2.75-1.69,2.95-2.06.24-2.33-1.4-2.46-2.84-.48-5.29-1.79-10.47-2.85-15.69ZM1352.61,378.29c-4.79-2.18-6.16-1.22-6.16,4.23,2.27-1.16,4.4-2.32,6.16-4.23Z"/><path class="cls-1" d="M1103.65,195.4c-17.79,18.04-32.6,38.51-49.62,57.07-1.85-1.04-1.51-2.37-.89-3.42,1.57-2.65,3.14-5.34,5.03-7.75,11.93-15.16,25.23-29.06,39.08-42.46,1.76-1.7,3.56-3.48,6.4-3.44Z"/><path class="cls-1" d="M1322.48,186.5c.94,2.35,1.92,4.68,2.81,7.04.47,1.25.64,2.62-.87,3.24-1.5.62-2.33-.49-2.99-1.64-2.58-4.44-3.15-9.61-5.04-14.3-.26-.63-.29-1.84.63-1.67,2.89.52,2.53-1.97,3.26-3.33,1.13-2.1,2.48-3.99,4.2-5.63,1.2-1.14,2.51-2.47,4.26-1.49,1.89,1.06,1.01,2.82.51,4.34-.34,1.03-.85,2-1.17,3.04-1.82,5.73.28,8.3,6.33,7.53,3.04-.39,6.05-1.08,8.87-2.42,1.07-.51,2.07-1.46,3.46-.96-2.71,7.3-15.66,10.18-23.06,5.18-.36-.56-.89-1.63-1.31-1.32-.79.58-.35,1.6.12,2.39Z"/><path class="cls-1" d="M1206.81,141.58c-3.31,5.37-9.5,7.43-12.09,13.13,3.27,2.8,7.43,4.07,11.08,6.04-.76,2.06-2.08,1.64-3.32,1.45-2.72-.43-5.19-1.59-7.72-2.58-4.46-1.76-7.54.55-7.27,5.46.09,1.63.16,3.26.12,4.89-.02.98-.57,1.7-1.66,1.77-.84.05-1.36-.45-1.63-1.16-.32-.84-.78-1.73-.76-2.59.1-4.28.24-8.57.57-12.84.14-1.79,1.39-3.21,3.3-2.9,3.01.48,4.63-1.3,6.46-3.1,2.32-2.29,4.76-4.47,7.29-6.54,1.38-1.13,2.99-2.1,5.63-1.01Z"/><path class="cls-1" d="M1297.62,147.61c.66-3.59.98-6.11,1.62-8.56.61-2.33,1.65-4.54,4.53-4.77,2.22-.17,4.68,1.67,5.53,4.5,1.55,5.12.68,9.87-3.02,14.89-.82-2.7.51-4.4.55-6.19.06-2.72.45-5.45-1.11-7.93-.49-.78-1.03-1.56-2.06-1.49-1.08.07-1.48.99-1.72,1.85-1.21,4.21-1.82,8.48-1.23,12.89.24,1.79.43,3.63.25,5.41-.18,1.69-2.16,2.2-3.22.84-.87-1.12-1.39-2.52-1.98-3.83-1.47-3.32-2.81-6.69-4.34-9.97-.75-1.6-1.41-3.35-3.35-4.08-1.03-.39-1.14-1.31-.69-2.25.46-.95,1.35-1.18,2.29-1.09,1.83.16,2.86,1.5,3.75,2.87,1.27,1.93,2.41,3.95,4.2,6.93Z"/><path class="cls-1" d="M1317.54,243.26c1.62-5.66,19.92-21.94,29.46-26.11.26,1.66-1.08,2.17-1.92,2.91-4.49,3.96-8.99,7.91-13.53,11.81-1.49,1.28-1.81,2.25-.33,3.97,2,2.31,3.53,5.01,5.25,7.53,2.77-.57,3.99-2.57,4.9-5.2,1.1,5.45-4.93,10.86-15.26,14.05-.59-2.09.94-2.93,2.24-3.74,1.53-.96,3.2-1.69,4.8-2.54.93-.5,1.37-1.31.71-2.2-1.5-2.04-3-4.11-4.75-5.93-1.36-1.4-2.88-.94-4.31.35-2.02,1.81-4.17,3.48-6.3,5.16-.19.15-.64-.02-.97-.04Z"/><path class="cls-1" d="M1160.9,189.5c-4.15,2.4-6.52.91-8.85-.45-2.32-1.35-4.55-2.87-7.08-4.47-1.6,1.75-1.68,3.75-2.14,5.59-.35,1.4-.65,2.84-1.23,4.16-1.27,2.88-2.87,3.23-5.47,1.31-.84-.62-1.4-1.64-2.79-1.92-.7,3.07.28,5.78.92,8.52.25,1.05.61,2.08.81,3.14.15.79-.29,1.42-1.03,1.69-.76.28-1.6-.01-1.82-.71-1.16-3.66-5.23-6.58-2.59-11.28.68-1.21-.15-3.2-.02-4.81.18-2.37,1.58-3.06,3.76-2.09,1.96.87,2.91,3.21,5.22,3.66,1.58-1.77,1.7-4.02,2.32-6.06,1.76-5.79,3.02-6.24,7.82-2.8,3.5,2.52,6.54,5.79,12.17,6.53Z"/><path class="cls-1" d="M1270.18,167.89c3.62-2.49,5.75-5.45,8.88-8.53-1.17,3.68-3.43,5.74-5.18,8.13-1.85,2.52-1.18,4.12,1.87,4.32,4.59.3,7.89-2.04,10.44-5.88.78,3.52.7,3.8-1.69,5.82-1.67,1.42-3.55,2.56-5.65,3.18-6.55,1.94-10.31-1-13.52-10.57-2.15-.29-2.84,2.74-5,2.39.22-3.68,11.11-13.88,19.29-18.1-2.86,3.05-5.45,6.57-8.8,9.09-2.24,1.68-2.52,3.22-2.05,5.42.29,1.38.79,2.72,1.38,4.73Z"/><path class="cls-1" d="M1292.56,260.21c0-2.55,1.39-2.95,3.57-2.5,2.5.52,4.45,2.45,7.38,2.67.61-2.98-1.19-5.49-1.59-8.2-.25-1.66-.73-3.31.73-4.51,1.6-1.32,3.11-.25,4.39.74,4.39,3.38,9.39,5.14,15.06,5.54-3.4,3.74-5.75,3.68-15.3-.2-1.2,1.4-.04,2.67.3,3.94.42,1.56,1.26,3.04,1.51,4.61.47,2.91-1.48,4.63-4.2,3.56-2.5-.98-4.75-2.57-7.15-3.8-1.13-.58-2.1-2.13-3.67-.84l.04.07c.58-1.36-.51-1.05-1.17-1.18l.11.09Z"/><path class="cls-1" d="M1400.45,193.68c.47-2.69-1.95-3.99-2.89-6-.65-1.39-2.6-2.04-2.24-4.39,4.76-.04,5.91,4.73,9.25,6.95,1.01-2.87,1.84-5.6,2.93-8.21,1.3-3.14,2.92-3.5,5.18-.91,3.14,3.6,6.52,6.67,11.41,7.67-2.77,3.83-3.28,3.74-13.77-2.4-1.43,2.37-1.89,5.02-2.24,7.69-.2,1.48-.43,3.01-2.06,3.48-1.79.53-2.45-1.06-3.35-2.16-.62-.76-.81-2.1-2.28-1.79,0,0,.06.07.06.07Z"/><path class="cls-1" d="M1436.23,168.42c-1.76,3.9-5.55,6.02-8.12,9.21-1,1.25-1.62,2.3-.49,3.81,1.01,1.35,2.24,1.72,3.8,1.34,1.81-.45,3.32-1.47,4.63-2.72,1.42-1.36,2.66-2.91,4.62-5.07-1.28,6.26-4.96,9.22-9.71,10.86-3.35,1.16-6.16-.78-7.86-4.93-.75-1.82-.71-4.91-1.89-5.42-3.83-1.65-1.41-3.17-.27-4.51,2.43-2.86,5.15-5.44,8.43-7.51-.15,1.68-1.32,2.78-2.42,3.73-3.18,2.76-3.13,5.72-.87,9.24,3.48-2.7,6.86-5.34,10.25-7.97,0,0-.09-.07-.09-.07Z"/><path class="cls-1" d="M1324.23,343.13c1.21-1.08.5-2.34.33-3.54-.96-6.63-1.92-13.26-2.89-19.89-.1-.71-.28-1.42-.34-2.14-.06-.79.32-1.45,1.08-1.67.73-.22,1.42.08,1.91.69,1.16,1.46,1.77,3.17,2.02,4.97.65,4.84,1.25,9.69,1.81,14.55.72,6.38,1.38,12.76,2.13,19.74-3.22-1.41-2.9-4.1-3.71-6.1-.89-2.2-.05-5.01-2.4-6.69l.07.08Z"/><path class="cls-1" d="M1312.05,200.03c.12,1.71-.54,3.22-1.36,4.64-1.65,2.88-4.57,4.4-7.2,3.87-2.7-.54-4.91-2.97-5.52-6.1-.7-3.6.58-7.17.18-10.82-.2-1.83,1.71-2.54,3.54-2.51,4.93.08,10.4,5.84,10.36,10.92ZM1307.6,199.58c-.07-3.23-3.35-7.34-6.08-7.81-1.33-.23-2.33.66-1.74,1.78,1.15,2.18,1,4.51,1.46,6.76.37,1.8,1.09,3.75,3.34,3.42,2.32-.34,2.82-2.42,3.02-4.15Z"/><path class="cls-1" d="M1191.53,324.87c2.48-4.16,1.79-10.13,7.62-12.17,1.19,1.76-.41,2.46-.93,3.45-2.05,3.98-1.99,4.48,1.44,7.26,1.83,1.48,3.8,2.81,5.52,4.4,2.72,2.52,2.98,4.72.79,7.66-2.06,2.77-4.55,5.15-7.72,6.7-.9.44-1.83.51-2.4-.38-.62-.99.1-1.66.9-2.19,1.99-1.33,3.4-3.22,4.92-5.02,1.68-1.99,1.28-3.47-.65-4.99-2.14-1.67-4.29-3.36-6.17-5.3-1.58-1.63-2.02.57-3.32.58Z"/><path class="cls-1" d="M1389.13,241.16c1.86,2.78,3.41,4.74,4.58,6.91,1.4,2.61,1.84,5.43.52,8.28-.82,1.77-2.03,2.98-4.13,2.83-1.91-.13-2.92-1.48-3.3-3.1-1.18-5.01-1.03-9.87,2.32-14.93Z"/><path class="cls-1" d="M1324.15,343.05c-1.57,3.38-2.32,3.94-5.52,3.1-3.14-.82-6.17-2.04-9.26-3.06-2.01-.66-3.82-2.11-6.19-1.37-1.01.32-1.77-.36-2.02-1.32-.29-1.13.02-2.15,1.1-2.8,1.16-.7,2.37-.75,3.65-.34,6.1,1.97,12.21,3.91,18.32,5.86,0,0-.07-.08-.07-.08Z"/><path class="cls-1" d="M1293.57,261.22c-1.76,4.8-1.16,9.86-1.61,14.81-.06.7.21,1.43.19,2.15-.02,1.35-.4,2.6-2.03,2.64-1.29.03-1.9-.94-2.07-2.09-.48-3.21-.93-6.42-1.28-9.64-.07-.64.22-1.84.55-1.92,2.65-.63,1.91-2.75,1.94-4.38.04-2.38,1.68-2.38,3.3-2.58,0,0-.11-.09-.11-.09-.03.81-.09,1.65,1.17,1.18l-.04-.07Z"/><path class="cls-1" d="M1301.81,373.83c-.38.67-.75,1.5-1.27,2.2-2.81,3.79-5.99,7.26-9.7,10.19-1.09.86-2.33,2.24-3.77.93-1.53-1.39-.23-2.7.77-3.67,3.62-3.54,7.31-7,11.01-10.46.69-.65,1.58-.9,2.45-.28.24.17.29.59.51,1.08Z"/><path class="cls-1" d="M1306.91,384.52c-3.15,5.57-10.13,9.22-16.05,8.94,1.83-3.39,5.47-3.23,8.08-4.71,2.61-1.49,5.31-2.82,7.97-4.23Z"/><path class="cls-1" d="M1118.39,189.57c-4.41-1.41-8.44-7.87-7.56-11.54.1-.43.64-.97,1.06-1.05.42-.08,1.11.23,1.37.59.41.57.64,1.3.78,2,.76,3.59,2.23,6.86,4.35,10Z"/><path class="cls-1" d="M1456.16,154.41c-5.06,3.16-8.84,7.76-13.25,12.33-.13-4.68,6.9-10.86,13.18-12.28l.07-.05Z"/><path class="cls-1" d="M1485.57,200.19c-.1,1.31-.74,2.08-1.99,2.03-1.38-.05-2.38-.77-2.39-2.25,0-1.24.82-1.89,2.02-1.93,1.48-.04,2.23.78,2.36,2.14Z"/><path class="cls-1" d="M1436.32,168.49c.27-.15.54-.29.81-.44-.07.66-.65.13-.89.38,0,0,.08.07.08.07Z"/><path class="cls-1" d="M1180.44,234.24c-.48-1.04.14-1.76.72-2.49l-.09-.07c.14.94-.25,1.72-.74,2.48,0,0,.1.09.1.09Z"/><path class="cls-1" d="M1181.16,231.74c.12-.07.24-.15.36-.22-.15.05-.29.1-.44.15,0,0,.08.07.08.07Z"/><polygon class="cls-1" points="1456.09 154.46 1456.21 154.26 1456.15 154.41 1456.09 154.46"/></svg>